<svg width="79" height="60" viewBox="0 0 79 60" fill="none" xmlns="http://www.w3.org/2000/svg">
<g clipPath="url(#clip0_1333_2702)">
<mask id="mask0_1333_2702" style="mask-type:luminance" maskUnits="userSpaceOnUse" x="0" y="0" width="79" height="59">
<path d="M78.5 0.5H0.5V58.799H78.5V0.5Z" fill="white"/>
</mask>
<g mask="url(#mask0_1333_2702)">
<path d="M67.6207 33.9921C64.8938 34.0075 62.5325 34.6601 60.552 35.6319C59.8207 34.1896 59.0895 32.9294 58.9678 31.9882C58.8307 30.8951 58.6631 30.227 58.8307 28.9215C58.9981 27.6157 59.7598 25.7635 59.7598 25.6116C59.7444 25.475 59.5921 24.807 58.0231 24.7918C56.4541 24.7766 55.0981 25.0955 54.9457 25.5054C54.7934 25.9153 54.4887 26.8566 54.2907 27.8282C54.0164 29.2553 51.1524 34.3109 49.5223 36.9678C48.9891 35.9354 48.5321 35.0245 48.4405 34.2956C48.3036 33.2027 48.1358 32.5345 48.3036 31.229C48.4711 29.9232 49.2329 28.0711 49.2329 27.9193C49.2176 27.7827 49.0653 27.1147 47.4963 27.0995C45.927 27.0843 44.5713 27.4031 44.4189 27.813C44.2666 28.223 44.099 29.1946 43.7639 30.1359C43.4438 31.0772 39.6352 39.5184 38.645 41.7198C38.1422 42.8432 37.7006 43.739 37.3805 44.3463C37.0606 44.9535 37.3653 44.3918 37.3348 44.4525C37.0606 44.9687 36.9082 45.2572 36.9082 45.2572V45.2725C36.695 45.6521 36.4664 46.0163 36.3597 46.0163C36.2835 46.0163 36.1311 44.9991 36.3901 43.6025C36.9538 40.6722 38.3249 36.1026 38.3098 35.9356C38.3098 35.8597 38.5686 35.0549 37.4261 34.6451C36.314 34.2352 35.918 34.9184 35.8265 34.9184C35.735 34.9184 35.6589 35.1613 35.6589 35.1613C35.6589 35.1613 36.8929 30.0147 33.2975 30.0147C31.0429 30.0147 27.935 32.459 26.3964 34.6908C25.4214 35.2222 23.3495 36.3455 21.1557 37.545C20.3179 38.0005 19.4495 38.4863 18.6268 38.9266L18.4594 38.7441C14.1024 34.1136 6.0434 30.8343 6.37856 24.6096C6.50043 22.3475 7.29262 16.381 21.8568 9.15433C33.7854 3.23334 43.3373 4.85782 44.9977 8.47114C47.359 13.633 39.8942 23.2281 27.4936 24.6096C22.7709 25.141 20.2875 23.3192 19.6631 22.636C19.008 21.9224 18.9166 21.892 18.6729 22.0287C18.2768 22.2412 18.5205 22.8789 18.6729 23.2584C19.0385 24.2149 20.5619 25.9153 23.1518 26.7655C25.4215 27.5094 30.967 27.9193 37.6701 25.3384C45.1807 22.4386 51.0459 14.3921 49.3244 7.66649C47.5725 0.819405 36.1771 -1.42754 25.4064 2.38315C18.9926 4.66045 12.0457 8.21305 7.04887 12.8739C1.10747 18.4002 0.162933 23.2281 0.559027 25.2321C1.94551 32.3828 11.8325 37.0437 15.7934 40.49C15.5954 40.5961 15.4125 40.7024 15.245 40.7937C13.2645 41.7652 5.72348 45.6975 3.83442 49.8572C1.70161 54.5636 4.16957 57.9494 5.81489 58.4048C10.9032 59.8167 16.1133 57.2813 18.9317 53.1063C21.7347 48.9312 21.3997 43.5113 20.1047 41.0366L20.0589 40.9455L21.6128 40.0346C22.6184 39.4425 23.6086 38.8959 24.4768 38.4251C23.9895 39.746 23.639 41.3097 23.4563 43.587C23.243 46.2592 24.3399 49.7205 25.7872 51.0869C26.427 51.6789 27.1887 51.6942 27.661 51.6942C29.3368 51.6942 30.0985 50.3125 30.9364 48.6578C31.9723 46.6386 32.8864 44.3006 32.8864 44.3006C32.8864 44.3006 31.7438 50.6315 34.8668 50.6315C36.0094 50.6315 37.152 49.1588 37.67 48.3997V48.4149C37.67 48.4149 37.7004 48.3693 37.7614 48.2631C37.8253 48.1689 37.8863 48.0727 37.9442 47.9748V47.9444C38.4012 47.1549 39.4219 45.3483 40.9454 42.3574C42.9104 38.5012 44.7996 33.6733 44.7996 33.6733C44.7996 33.6733 44.9825 34.8575 45.5461 36.8008C45.8811 37.9548 46.6124 39.2147 47.1761 40.4445C46.719 41.0821 46.4448 41.4466 46.4448 41.4466L46.46 41.4618C46.0946 41.9477 45.6831 42.464 45.2567 42.98C43.7028 44.8322 41.8442 46.9427 41.6004 47.55C41.311 48.2634 41.3719 48.7948 41.9356 49.22C42.3469 49.5236 43.0782 49.5842 43.8551 49.5236C45.2567 49.4324 46.2317 49.0834 46.7192 48.8707C47.4809 48.5974 48.3493 48.1875 49.1872 47.5802C50.7106 46.4569 51.6399 44.8628 51.5485 42.7373C51.5028 41.5683 51.1219 40.4144 50.6497 39.3213C50.7868 39.1239 50.924 38.9264 51.061 38.714C53.468 35.2068 55.3266 31.3508 55.3266 31.3508C55.3266 31.3508 55.5094 32.535 56.0731 34.4782C56.3624 35.4651 56.9414 36.5432 57.4594 37.6059C55.2047 39.4429 53.7879 41.5684 53.3004 42.9652C52.4016 45.5461 53.1024 46.7151 54.4278 46.9884C55.0218 47.1098 55.875 46.8366 56.5147 46.5633C57.3069 46.3052 58.2667 45.8648 59.1504 45.2121C60.6739 44.0886 62.1364 42.5249 62.0602 40.4146C62.0145 39.4429 61.7555 38.4865 61.4051 37.5755C63.3246 36.7861 65.8077 36.3306 68.9614 36.7102C75.7407 37.4996 77.0813 41.7202 76.8225 43.4813C76.5635 45.2426 75.1467 46.2141 74.6743 46.5177C74.202 46.8062 74.0497 46.9126 74.0954 47.125C74.1563 47.444 74.3696 47.4287 74.7809 47.3681C75.3446 47.2769 78.3457 45.9258 78.4676 42.677C78.6504 38.5013 74.6743 33.9467 67.6207 33.9921ZM15.3364 51.5577C13.0969 54.002 9.9434 54.9281 8.60278 54.1387C7.15551 53.3037 7.71903 49.7055 10.4766 47.1094C12.1524 45.5305 14.3309 44.073 15.7629 43.1772C16.0829 42.9799 16.5704 42.6916 17.1493 42.3422C17.2407 42.2817 17.3016 42.2511 17.3016 42.2511C17.4082 42.1904 17.5301 42.1145 17.652 42.0386C18.6727 45.743 17.6977 48.992 15.3364 51.5577ZM31.7133 40.4597C30.9364 42.3574 29.2911 47.2308 28.3008 46.9576C27.4475 46.7298 26.9297 43.0406 28.1331 39.3969C28.7425 37.5597 30.0374 35.3737 30.7991 34.5233C32.0332 33.157 33.3737 32.7015 33.709 33.2632C34.1051 33.9921 32.2008 39.2755 31.7133 40.4597ZM45.2262 46.8968C44.8911 47.064 44.5864 47.1853 44.4493 47.0944C44.3426 47.0336 44.5862 46.8059 44.5862 46.8059C44.5862 46.8059 46.2772 44.9992 46.9475 44.1642C47.3284 43.6786 47.7854 43.1168 48.2729 42.479V42.6612C48.2731 44.8473 46.1707 46.3047 45.2262 46.8968ZM55.6464 44.5284C55.4026 44.3463 55.4332 43.7845 56.2557 42.0234C56.5758 41.325 57.3069 40.156 58.5714 39.0477C58.7237 39.5032 58.8153 39.9433 58.7999 40.3534C58.7848 43.0862 56.8348 44.1034 55.6464 44.5284Z" fill="#CF649A"/>
</g>
</g>
<defs>
<clipPath id="clip0_1333_2702">
<rect width="78" height="59" fill="white" transform="translate(0.5 0.5)"/>
</clipPath>
</defs>
</svg>
