<svg width="79" height="78" viewBox="0 0 79 78" fill="none" xmlns="http://www.w3.org/2000/svg">
<g clip-path="url(#clip0_1333_2782)">
<mask id="mask0_1333_2782" style="mask-type:luminance" maskUnits="userSpaceOnUse" x="0" y="0" width="79" height="78">
<path d="M78.457 0H0.457031V78H78.457V0Z" fill="white"/>
</mask>
<g mask="url(#mask0_1333_2782)">
<path d="M28.7842 60.3047C28.7842 60.3047 25.7861 62.1279 30.8682 62.6496C36.9864 63.4296 40.2453 63.3004 47.0167 61.9988C48.3776 62.8322 49.8168 63.5302 51.3139 64.0828C36.0795 70.5958 16.799 63.6928 28.7817 60.3047H28.7842ZM26.8342 51.8393C26.8342 51.8393 23.5777 54.3133 28.6574 54.8374C35.2996 55.4882 40.5086 55.6174 49.4981 53.7966C50.3722 54.6832 51.4426 55.352 52.6228 55.749C34.2587 61.2188 13.6814 56.2706 26.8342 51.8417V51.8393ZM62.7799 66.6836C62.7799 66.6836 64.9933 68.5069 60.3059 69.9401C51.5797 72.5483 23.7092 73.3283 15.8946 69.9401C13.1597 68.7701 18.3687 67.0761 20.0384 66.8153C21.7325 66.4253 22.6466 66.4253 22.6466 66.4253C19.6483 64.3412 2.71995 70.7226 14.0518 72.5434C45.1787 77.6231 70.8358 70.3301 62.7604 66.6836H62.7799ZM30.1931 42.9814C30.1931 42.9814 15.997 46.3695 25.1132 47.5395C29.0205 48.0611 36.7036 47.9295 43.8674 47.4103C49.7271 46.8887 55.5918 45.8503 55.5918 45.8503C55.5918 45.8503 53.5077 46.7619 52.0745 47.6736C37.6201 51.4517 9.87645 49.7576 17.8226 45.8503C24.594 42.5938 30.1954 42.9863 30.1954 42.9863L30.1931 42.9814ZM55.5918 57.1774C70.1777 49.6211 63.4064 42.333 58.7167 43.2422C57.5467 43.503 57.0225 43.7638 57.0225 43.7638C57.0225 43.7638 57.4126 42.9838 58.3242 42.723C67.5721 39.4665 74.8651 52.4901 55.326 57.5674C55.326 57.5674 55.4552 57.4382 55.5868 57.1774H55.5918ZM31.6312 77.7548C45.6955 78.6664 67.187 77.2331 67.7062 70.5885C67.7062 70.5885 66.6653 73.1966 56.1158 75.1466C44.133 77.3599 29.2863 77.0966 20.5601 75.6683C20.5601 75.6683 22.3833 77.2283 31.6312 77.7523V77.7548Z" fill="#4E7896"/>
<path d="M46.76 0.00195312C46.76 0.00195312 54.8355 8.20658 39.077 20.5793C26.4435 30.6072 36.213 36.3378 39.077 42.8508C31.6524 36.2086 26.3143 30.3464 29.9608 24.8791C35.2989 16.8012 50.0165 12.9183 46.76 0.00195312ZM42.6163 37.381C46.3944 41.6783 41.5755 45.5856 41.5755 45.5856C41.5755 45.5856 51.2133 40.6375 46.7844 34.5145C42.7479 28.6548 39.6181 25.7883 56.5515 16.0212C56.5515 16.0212 29.8535 22.6634 42.6163 37.381Z" fill="#F58219"/>
</g>
</g>
<defs>
<clipPath id="clip0_1333_2782">
<rect width="78" height="78" fill="white" transform="translate(0.457031)"/>
</clipPath>
</defs>
</svg>
