<svg width="79" height="76" viewBox="0 0 79 76" fill="none" xmlns="http://www.w3.org/2000/svg">
<g clip-path="url(#clip0_1333_2948)">
<path d="M27.668 28.4371C30.4604 36.9763 31.5183 52.2095 39.6838 52.2095C40.3055 52.2095 40.9336 52.1487 41.5641 52.0288C34.1413 50.298 33.2616 35.2306 28.7321 27.4277C28.377 27.7505 28.0244 28.0869 27.668 28.4371Z" fill="url(#paint0_linear_1333_2948)"/>
<path d="M28.7344 27.4277C33.2639 35.2305 34.1436 50.298 41.5664 52.0287C42.1495 51.9215 42.7339 51.7595 43.3196 51.5552C36.6569 48.2905 34.8152 33.6593 29.6715 26.6152C29.3599 26.8745 29.0472 27.1462 28.7344 27.4277Z" fill="url(#paint1_linear_1333_2948)"/>
<path d="M35.2599 22.7871C34.6394 22.7871 34.01 22.8479 33.3783 22.9678C31.7261 23.2793 30.0477 23.9908 28.3555 25.0674C28.8178 25.5235 29.2576 26.0455 29.6713 26.615C31.3921 25.187 33.1017 24.1316 34.8051 23.4974C35.4443 23.2606 36.0811 23.0825 36.7203 22.9653C36.2592 22.8481 35.7733 22.7871 35.2599 22.7871Z" fill="#14559A"/>
<path d="M48.519 48.5449C49.2006 48.003 49.8835 47.4035 50.5675 46.7494C47.7303 38.25 46.7147 22.7988 38.492 22.7988C37.9038 22.7988 37.3106 22.8537 36.7188 22.9633C44.2088 24.8262 45.1684 41.1222 48.519 48.5449Z" fill="url(#paint2_linear_1333_2948)"/>
<path d="M36.7181 22.9633C36.2571 22.8461 35.7712 22.7852 35.2578 22.7852L38.4913 22.797C37.9031 22.797 37.31 22.8523 36.7181 22.9633Z" fill="#3092C4"/>
<path d="M48.3741 50.3514C48.0526 50.0449 47.7473 49.7085 47.447 49.3496C46.0639 50.329 44.6857 51.0717 43.3164 51.5551C43.8035 51.7932 44.3144 51.9701 44.8565 52.0798C45.2763 52.1655 45.7113 52.2094 46.1685 52.2094C47.705 52.2094 48.9198 52.0275 49.9541 51.5315C49.3847 51.2237 48.8625 50.8249 48.3741 50.3514Z" fill="#1969BC"/>
<path d="M34.8047 23.4975C41.5135 27.0064 42.0967 42.8962 47.4498 49.3483C47.8086 49.0954 48.1638 48.8274 48.5189 48.5445C45.1682 41.1218 44.21 24.8245 36.7212 22.9629C36.082 23.0825 35.444 23.2596 34.8047 23.4975Z" fill="url(#paint3_linear_1333_2948)"/>
<path d="M29.668 26.6144C34.8117 33.6584 36.6534 48.2897 43.3161 51.5544C44.6855 51.0709 46.0637 50.3282 47.4468 49.3488C42.0937 42.8967 41.5106 27.0069 34.8018 23.498C33.0984 24.131 31.3888 25.1864 29.668 26.6144Z" fill="url(#paint4_linear_1333_2948)"/>
<path d="M24.3793 28.2311C23.5731 30.0541 22.7495 32.4502 21.7539 35.5779C23.7338 32.7879 25.7076 30.3842 27.6702 28.4366C27.3998 27.6055 27.1094 26.8393 26.7967 26.1562C25.9942 26.7707 25.1855 27.4623 24.3793 28.2311Z" fill="url(#paint5_linear_1333_2948)"/>
<path d="M27.5109 25.6309C27.2741 25.8003 27.0362 25.9736 26.7969 26.1567C27.1096 26.8395 27.3987 27.6059 27.6692 28.437C28.0254 28.0881 28.3793 27.7504 28.7332 27.4277C28.3532 26.7747 27.9495 26.1716 27.5109 25.6309Z" fill="#2B74B1"/>
<path d="M28.3565 25.0664C28.0749 25.2446 27.7946 25.4327 27.5117 25.6296C27.9503 26.1704 28.354 26.7735 28.7353 27.4277C29.0481 27.1448 29.3608 26.872 29.6723 26.614C29.2586 26.0446 28.8188 25.5225 28.3565 25.0664Z" fill="#125A9E"/>
<path d="M74.1133 22.1362C70.319 36.7687 62.3941 48.5215 55.7501 51.4847H55.7375C55.6167 51.5395 55.497 51.5894 55.3787 51.6379C55.3624 51.6478 55.3476 51.649 55.335 51.6549C55.3001 51.669 55.2677 51.6799 55.2328 51.6938C55.2165 51.7037 55.2017 51.7069 55.1868 51.7128C55.1307 51.7328 55.0759 51.7497 55.021 51.7716C54.9973 51.7815 54.975 51.7877 54.9524 51.7956C54.9275 51.8054 54.8988 51.8146 54.8702 51.8225C54.8453 51.8324 54.8192 51.8395 54.7904 51.8504C54.7667 51.8603 54.7418 51.8645 54.7195 51.8743C54.6708 51.8884 54.6261 51.9003 54.5774 51.9172C54.5574 51.9172 54.5388 51.928 54.5176 51.9332C54.4877 51.9431 54.454 51.9503 54.4216 51.9591C54.3992 51.969 54.3805 51.9722 54.3568 51.9772C54.3231 51.987 54.2857 51.9962 54.2521 52.0041C54.2073 52.014 54.1674 52.0231 54.125 52.032C54.4253 52.1429 54.7381 52.199 55.0758 52.199C61.3759 52.199 67.7282 40.9085 78.2388 22.1328H74.1118L74.1133 22.1362Z" fill="url(#paint6_linear_1333_2948)"/>
<path d="M20.3841 23.3794C20.3881 23.3794 20.393 23.3695 20.3955 23.3695C20.4004 23.3695 20.4081 23.3695 20.4105 23.3596H20.4184C20.4533 23.3478 20.4857 23.3337 20.5206 23.3207C20.5295 23.3207 20.5342 23.3207 20.5406 23.3109C20.5495 23.3109 20.5581 23.301 20.5668 23.2997C20.6042 23.2879 20.6416 23.2738 20.6765 23.2609H20.6824C20.7659 23.236 20.8431 23.2051 20.9241 23.1762C20.9355 23.1762 20.9466 23.1663 20.9602 23.1663C20.9939 23.1554 21.0288 23.1433 21.0636 23.1354C21.0799 23.1255 21.0961 23.1255 21.111 23.1203C21.1471 23.1095 21.1821 23.0974 21.2157 23.0894C21.2307 23.0894 21.2444 23.0795 21.2555 23.0786C21.3714 23.0467 21.4861 23.0168 21.6019 22.9888C21.6182 22.9888 21.6319 22.979 21.6493 22.978C21.6829 22.9681 21.7141 22.9629 21.7502 22.958C21.7653 22.9481 21.7826 22.9481 21.8001 22.9429C21.8337 22.9331 21.8661 22.9321 21.9022 22.9239H21.9259C21.9957 22.9098 22.0668 22.898 22.1365 22.885H22.1789C22.2125 22.8752 22.2424 22.8742 22.2761 22.868C22.2946 22.868 22.3135 22.8581 22.3309 22.8581C22.362 22.8581 22.3932 22.8483 22.4243 22.8441C22.4406 22.8441 22.4567 22.8441 22.4755 22.8342C22.5489 22.8243 22.625 22.8204 22.7022 22.8142C22.4842 22.7932 22.2599 22.7793 22.0319 22.7793C14.9368 22.7793 5.16139 35.9439 0.757812 52.9925H1.60638C3.01567 50.4792 4.28167 48.1017 5.43926 45.87C8.52326 33.7945 14.8047 25.5592 20.3846 23.3774" fill="url(#paint7_linear_1333_2948)"/>
<path d="M24.3789 28.2304C25.1851 27.4616 25.9937 26.77 26.7962 26.1558C26.6131 25.7545 26.4237 25.3832 26.2205 25.043C25.5714 25.8305 24.9782 26.8697 24.3789 28.2304Z" fill="#0D82CA"/>
<path d="M24.9609 23.4797C25.4244 23.8684 25.8393 24.403 26.2194 25.0435C26.339 24.8965 26.4599 24.7606 26.5857 24.6335C26.0587 24.1413 25.4892 23.7376 24.8711 23.4336C24.8961 23.4474 24.921 23.4585 24.9469 23.4695C24.9469 23.4695 24.9567 23.4797 24.9609 23.4797Z" fill="#0D82CA"/>
<path d="M5.4375 45.8716C11.9071 33.4047 14.9723 25.5146 20.3827 23.3789C14.8041 25.5621 8.5215 33.7973 5.4375 45.8716Z" fill="url(#paint8_linear_1333_2948)"/>
<path d="M26.585 24.6328C26.4592 24.7612 26.3396 24.8958 26.2188 25.0428C26.4218 25.3829 26.6112 25.7531 26.7957 26.1555C27.0349 25.9724 27.2729 25.7991 27.5096 25.6297C27.2168 25.2683 26.9078 24.9332 26.585 24.6328Z" fill="#127BCA"/>
<path d="M8.3778 52.9386C8.33792 52.9484 8.29805 52.9484 8.26066 52.9526H8.23823C8.20453 52.9526 8.16964 52.9625 8.13854 52.9625H8.1223C8.04136 52.9724 7.96156 52.9724 7.8843 52.9786H7.85938C14.4075 52.7953 17.4005 49.5169 18.8858 44.7619C20.0147 41.1571 20.9418 38.1204 21.7543 35.5723C19.0117 39.4326 16.2566 44.0342 13.4866 49.1892C12.1509 51.6739 10.1197 52.7118 8.37774 52.9337" fill="url(#paint9_linear_1333_2948)"/>
<path d="M8.375 52.9367C10.117 52.7148 12.148 51.6781 13.4839 49.1922C16.2538 44.0385 19.0101 39.4356 21.7502 35.5753C22.7471 32.4464 23.5694 30.0516 24.3769 28.2285C18.9154 33.4271 13.4328 42.0711 8.375 52.9342" fill="url(#paint10_linear_1333_2948)"/>
<path d="M5.43835 45.873C4.28081 48.1048 3.01481 50.4823 1.60547 52.9955H4.07396C4.40043 50.4996 4.86397 48.1196 5.43835 45.8742" fill="#05A1E6"/>
<path d="M22.4764 22.8417C22.4564 22.8417 22.4415 22.8515 22.4241 22.8515C22.3942 22.8614 22.363 22.8614 22.3319 22.8646C22.3134 22.8646 22.2958 22.8646 22.277 22.8745C22.2434 22.8844 22.2122 22.8854 22.1798 22.8915C22.1648 22.8915 22.1499 22.8915 22.1375 22.9014C22.0664 22.9132 21.9967 22.9263 21.9269 22.9383H21.9032C21.8671 22.9481 21.8346 22.9533 21.801 22.9583C21.7835 22.9681 21.7661 22.9681 21.7499 22.9721C21.7163 22.982 21.6826 22.9862 21.6502 22.9921C21.6327 23.002 21.6191 23.002 21.6028 23.0029C21.4869 23.0309 21.3723 23.0608 21.2564 23.0927C21.2441 23.0927 21.2315 23.1025 21.2166 23.1045C21.1817 23.1144 21.148 23.1245 21.1119 23.1354C21.0968 23.1453 21.0795 23.1453 21.0645 23.1492C21.0297 23.1591 20.9948 23.1692 20.9611 23.1801C20.9475 23.1801 20.9362 23.19 20.9237 23.19C20.844 23.2199 20.7655 23.2498 20.6833 23.2748C20.6484 23.2856 20.611 23.2997 20.5736 23.3126C20.5586 23.3225 20.5449 23.3247 20.5275 23.3316C20.4925 23.3425 20.4578 23.3566 20.4254 23.3695C20.413 23.3794 20.4005 23.3804 20.3918 23.3856C14.9814 25.5213 11.9161 33.4114 5.44646 45.8783C4.87203 48.1237 4.40725 50.5036 4.08203 52.9995H4.42843C5.4041 52.9995 5.67948 52.9896 6.80218 52.9896H6.8595H7.02647H7.08379H7.10003H7.15735H7.18975H7.21218H7.25704H7.3966H7.53616H7.65329H7.68439H7.88999C7.96725 52.9797 8.04699 52.9797 8.12799 52.9736H8.14295C8.17664 52.9736 8.21023 52.9637 8.24263 52.9637H8.26625C8.30234 52.9637 8.34351 52.9538 8.38338 52.9496C13.4412 42.0865 18.9239 33.4425 24.3853 28.2439C24.9859 26.8832 25.5778 25.844 26.2258 25.0578C25.847 24.4173 25.4319 23.8815 24.9685 23.4926C24.9685 23.4926 24.9559 23.4926 24.9549 23.4828C24.9287 23.4719 24.9039 23.4588 24.8777 23.4459C24.8515 23.4318 24.829 23.421 24.8017 23.407C24.778 23.3971 24.7506 23.3841 24.727 23.3711C24.6946 23.3612 24.6684 23.3472 24.6398 23.3342C24.6161 23.3243 24.5949 23.3142 24.5712 23.3043C24.5225 23.2853 24.474 23.2655 24.4279 23.2445C24.4066 23.2346 24.3868 23.2295 24.3668 23.2216C24.3332 23.2095 24.2945 23.1936 24.2596 23.1787C24.2421 23.1688 24.2222 23.1668 24.2023 23.1597C24.1512 23.1427 24.1014 23.1248 24.054 23.1088H24.0416C23.9843 23.0898 23.9282 23.076 23.8697 23.06C23.8561 23.0501 23.8447 23.0501 23.8311 23.0481C23.78 23.0341 23.7351 23.0202 23.6865 23.0073C23.6742 23.0073 23.6629 22.9974 23.653 22.9974C23.5358 22.9665 23.415 22.9416 23.2928 22.9186C23.2803 22.9186 23.2679 22.9088 23.2555 22.9088C23.2031 22.8989 23.1521 22.8898 23.0997 22.8838C23.0871 22.874 23.0797 22.874 23.0686 22.874C23.0063 22.8641 22.9453 22.8569 22.8842 22.85H22.8518C22.802 22.8402 22.7559 22.8392 22.7097 22.834C22.6312 22.8439 22.5565 22.8481 22.483 22.855" fill="url(#paint11_linear_1333_2948)"/>
<path d="M59.2942 30.2378C58.0494 34.2252 57.0413 37.5148 56.1641 40.2212C59.5795 35.5211 62.9439 29.6085 66.1476 22.7852C62.4106 23.9588 60.4169 26.6454 59.2942 30.2378Z" fill="url(#paint12_linear_1333_2948)"/>
<path d="M56.2709 51.236C56.0965 51.3247 55.922 51.4091 55.75 51.4852C62.394 48.522 70.319 36.7692 74.1133 22.1367H73.3444C64.627 37.7087 61.8234 48.1333 56.2709 51.236Z" fill="url(#paint13_linear_1333_2948)"/>
<path d="M51.9344 49.9275C53.3799 48.1631 54.5573 45.1639 56.1649 40.2207C54.3106 42.7676 52.4441 44.957 50.5762 46.7426C50.5762 46.7525 50.5762 46.7525 50.5664 46.7586C50.9739 47.9798 51.4211 49.0576 51.9308 49.9273" fill="#079AE1"/>
<path d="M51.9318 49.9277C51.4396 50.5284 50.9188 50.9857 50.3393 51.3246C50.2123 51.3984 50.084 51.4679 49.9531 51.5315C50.565 51.8616 51.2327 52.0822 51.9804 52.1707C52.0899 52.1815 52.1984 52.1916 52.3118 52.1996H52.3318C52.3827 52.1996 52.4365 52.1996 52.4913 52.2094H52.5133H52.6766H52.8523H52.9072H53.0318C53.0518 52.2094 53.0726 52.2094 53.0926 52.1996C53.1314 52.1996 53.1723 52.1996 53.2122 52.1897H53.2263H53.2711C53.312 52.1897 53.3568 52.1798 53.4007 52.1756H53.4106C53.4237 52.1756 53.4375 52.1657 53.4504 52.1657C53.4963 52.1559 53.5442 52.1517 53.5888 52.1448H53.6297C53.6805 52.1349 53.7331 52.1287 53.7854 52.1188H53.7953H53.8103C53.915 52.0988 54.0172 52.079 54.1205 52.0531C53.2633 51.739 52.5455 50.9989 51.9275 49.9447" fill="#1969BC"/>
<path d="M39.6836 52.2089C40.3055 52.2089 40.9335 52.1481 41.564 52.027C42.1472 51.9211 42.7315 51.759 43.3172 51.5547C43.8044 51.7927 44.3153 51.9697 44.8561 52.0793C45.276 52.1651 45.7121 52.2089 46.1694 52.2089H39.6836Z" fill="#1E5CB3"/>
<path d="M46.1724 52.2091C47.7076 52.2091 48.9237 52.0272 49.9567 51.5312C50.5685 51.8614 51.2364 52.0821 51.984 52.1706C52.0937 52.1815 52.2022 52.1916 52.3155 52.1995H52.3355C52.3863 52.1995 52.4402 52.1995 52.495 52.2094H52.518H52.6812H46.168L46.1724 52.2091Z" fill="#1E5CB3"/>
<path d="M52.6836 52.208H52.8606H52.9154H53.0388C53.0598 52.208 53.0797 52.208 53.0996 52.1981C53.1385 52.1981 53.1794 52.1981 53.2206 52.1882H53.2336H53.2795C53.3204 52.1882 53.3652 52.1784 53.4079 52.1744H53.4187C53.4318 52.1744 53.4447 52.1645 53.4576 52.1645C53.5035 52.1547 53.5513 52.1507 53.5959 52.1436C53.611 52.1436 53.6228 52.1436 53.6387 52.1337C53.6896 52.1238 53.7422 52.1186 53.7946 52.1088H53.8044H53.8195C53.9242 52.0888 54.0264 52.0689 54.1297 52.043C54.43 52.1538 54.7428 52.21 55.0804 52.21L52.6855 52.2198L52.6836 52.208Z" fill="#1D60B5"/>
<path d="M50.568 46.7579V46.748C49.8839 47.4022 49.2011 48.0016 48.5195 48.5436C48.1631 48.8265 47.808 49.0943 47.4492 49.3473C47.7494 49.7062 48.0548 50.0426 48.3762 50.3492C48.8647 50.8226 49.3867 51.2214 49.9562 51.5292C50.0858 51.4653 50.2154 51.3958 50.3412 51.3223C50.9219 50.9834 51.4427 50.5261 51.935 49.9255C51.4253 49.0558 50.978 47.9779 50.5705 46.7567" fill="#175FAB"/>
<path d="M70.9116 22.1367H67.6793H67.3578H67.0538H67.042C66.8326 22.1466 66.6296 22.1538 66.4289 22.1666C66.3342 22.3698 66.237 22.573 66.1435 22.7773C62.9399 29.6006 59.5756 35.5132 56.1601 40.2134C54.5539 45.1565 53.3752 48.1558 51.9297 49.9202C52.5478 50.9744 53.2668 51.7157 54.1216 52.0297C54.1465 52.0199 54.1664 52.0199 54.1888 52.0147H54.2027C54.2177 52.0147 54.2338 52.0048 54.25 52.0048C54.2849 51.9949 54.3223 51.9888 54.3572 51.9779C54.3796 51.968 54.3983 51.9671 54.4208 51.9599C54.4532 51.95 54.4868 51.9429 54.5167 51.935C54.5367 51.9251 54.5566 51.9219 54.5765 51.9179C54.6263 51.9019 54.6712 51.89 54.7186 51.8751C54.741 51.8652 54.7647 51.857 54.7896 51.8511C54.817 51.8412 54.8444 51.8341 54.8694 51.8222C54.8981 51.8123 54.9267 51.8072 54.9516 51.7963C54.9741 51.7864 54.9977 51.7802 55.0189 51.7714C55.0749 51.7514 55.1298 51.7345 55.1859 51.7125C55.2009 51.7125 55.2158 51.6987 55.232 51.6955C55.2656 51.6814 55.3005 51.6706 55.3342 51.6556C55.3466 51.6457 55.3616 51.6448 55.3778 51.6396C55.4949 51.5907 55.6158 51.5409 55.7366 51.4864H55.7492C55.9212 51.4106 56.0956 51.3256 56.2688 51.2372C61.8225 48.1345 64.6262 37.7099 73.3436 22.1379H70.9088L70.9116 22.1367Z" fill="url(#paint14_linear_1333_2948)"/>
<path d="M22.7031 22.8203C22.7169 22.8203 22.7293 22.8203 22.7429 22.8302C22.7765 22.8302 22.8102 22.8302 22.8439 22.8411H22.8776C22.9386 22.8509 22.9997 22.8561 23.062 22.865C23.0733 22.865 23.0832 22.865 23.0931 22.8749C23.1441 22.8847 23.1965 22.8929 23.2488 22.9008C23.2602 22.9008 23.2751 22.9107 23.2875 22.9107C23.4071 22.9346 23.5293 22.9595 23.6464 22.9904C23.6575 22.9904 23.6688 23.0003 23.6788 23.0003C23.7286 23.0121 23.7735 23.0272 23.8233 23.0411C23.8384 23.0411 23.8494 23.051 23.8632 23.0532C23.9218 23.0683 23.9766 23.0832 24.0339 23.1021C24.0364 23.1021 24.0398 23.1021 24.0465 23.112C24.095 23.1268 24.1449 23.1459 24.196 23.1628C24.216 23.1727 24.2346 23.1769 24.2533 23.1818C24.2882 23.1968 24.3269 23.2117 24.3605 23.2257C24.3805 23.2257 24.4004 23.2395 24.4215 23.2466C24.4675 23.2676 24.5162 23.2865 24.5635 23.3064C24.5885 23.3163 24.6096 23.3274 24.6333 23.3363C24.6607 23.3504 24.6894 23.3633 24.7193 23.3732C24.7442 23.3851 24.7716 23.3981 24.7952 23.4091C24.8214 23.4232 24.8463 23.434 24.8713 23.448C25.4893 23.752 26.0588 24.157 26.5859 24.648C26.7803 24.4436 26.9833 24.2604 27.1939 24.0959C26.0413 23.2785 24.7355 22.8125 23.229 22.8125C23.0545 22.8125 22.8801 22.8224 22.7031 22.8355" fill="#7DCBEC"/>
<path d="M26.5859 24.6341C26.9086 24.9343 27.2176 25.2696 27.5105 25.6309C27.7933 25.4341 28.0737 25.2447 28.3553 25.0677C27.9865 24.6989 27.5977 24.3674 27.1927 24.082C26.9821 24.2453 26.7803 24.4297 26.5859 24.6341Z" fill="#5EC5ED"/>
<path d="M22.7016 22.8207C22.8785 22.8058 23.053 22.7995 23.2274 22.7995C24.7339 22.7995 26.0398 23.2656 27.1924 24.0817C28.4085 23.1223 29.8789 22.7871 31.9212 22.7871H22.0312C22.2593 22.7871 22.4823 22.8008 22.7016 22.8207Z" fill="url(#paint15_linear_1333_2948)"/>
<path d="M31.9202 22.7861C29.8779 22.7861 28.4075 23.1213 27.1914 24.0808C27.5951 24.3661 27.9838 24.6976 28.3527 25.0664C30.0461 23.9898 31.7233 23.2771 33.3768 22.9655C34.0073 22.8472 34.6366 22.7861 35.2571 22.7861H31.9202Z" fill="url(#paint16_linear_1333_2948)"/>
<path d="M56.1654 40.2231C57.0439 37.5141 58.0494 34.2258 59.2967 30.2371C60.4207 26.6435 62.4107 23.957 66.1476 22.7845C66.2463 22.5838 66.3395 22.377 66.4355 22.1738C60.3435 22.539 57.4962 25.6379 56.0632 30.2272C53.5574 38.2393 52.0397 43.4329 50.5781 46.7425C52.4447 44.9581 54.3113 42.7675 56.1654 40.2231Z" fill="url(#paint17_linear_1333_2948)"/>
<path d="M65.1023 50.0737H64.412V52.2195H64.1303V50.0737H63.4375V49.8184H65.1023V50.0737Z" fill="black"/>
<path d="M67.9267 52.2195H67.6464V50.607C67.6464 50.48 67.6563 50.3242 67.6694 50.141C67.6404 50.2507 67.6165 50.3267 67.5946 50.3753L66.7772 52.2195H66.6401L65.8202 50.389C65.7963 50.3382 65.7724 50.2557 65.7465 50.141H65.7366C65.7465 50.2377 65.7497 50.394 65.7497 50.6108V52.2195H65.4805V49.8184H65.8518L66.5882 51.4942C66.644 51.6202 66.6789 51.7173 66.6967 51.7821H66.7075C66.7564 51.6501 66.7962 51.5516 66.8235 51.4868L67.5748 49.8184H67.9287V52.2195H67.9267Z" fill="black"/>
</g>
<defs>
<linearGradient id="paint0_linear_1333_2948" x1="34.6157" y1="22.5913" x2="34.6157" y2="59.5511" gradientUnits="userSpaceOnUse">
<stop stop-color="#0994DC"/>
<stop offset="0.350006" stop-color="#66CEF5"/>
<stop offset="0.846161" stop-color="#127BCA"/>
<stop offset="1" stop-color="#127BCA"/>
</linearGradient>
<linearGradient id="paint1_linear_1333_2948" x1="36.0271" y1="21.6555" x2="36.0271" y2="59.5572" gradientUnits="userSpaceOnUse">
<stop stop-color="#0E76BC"/>
<stop offset="0.360001" stop-color="#36AEE8"/>
<stop offset="0.846161" stop-color="#00ADEF"/>
<stop offset="1" stop-color="#00ADEF"/>
</linearGradient>
<linearGradient id="paint2_linear_1333_2948" x1="43.6431" y1="51.3569" x2="43.6431" y2="21.199" gradientUnits="userSpaceOnUse">
<stop stop-color="#1C63B7"/>
<stop offset="0.5" stop-color="#33BDF2"/>
<stop offset="1" stop-color="#33BDF2" stop-opacity="0.419608"/>
</linearGradient>
<linearGradient id="paint3_linear_1333_2948" x1="41.6619" y1="17.8138" x2="41.6619" y2="57.1656" gradientUnits="userSpaceOnUse">
<stop stop-color="#166AB8"/>
<stop offset="0.399994" stop-color="#36AEE8"/>
<stop offset="0.846161" stop-color="#0798DD"/>
<stop offset="1" stop-color="#0798DD"/>
</linearGradient>
<linearGradient id="paint4_linear_1333_2948" x1="38.5572" y1="18.0211" x2="38.5572" y2="59.8667" gradientUnits="userSpaceOnUse">
<stop stop-color="#124379"/>
<stop offset="0.389999" stop-color="#1487CB"/>
<stop offset="0.780228" stop-color="#165197"/>
<stop offset="1" stop-color="#165197"/>
</linearGradient>
<linearGradient id="paint5_linear_1333_2948" x1="21.7539" y1="30.8672" x2="27.6702" y2="30.8672" gradientUnits="userSpaceOnUse">
<stop stop-color="#33BDF2" stop-opacity="0.698039"/>
<stop offset="1" stop-color="#1DACD8"/>
</linearGradient>
<linearGradient id="paint6_linear_1333_2948" x1="66.1842" y1="50.6014" x2="66.1842" y2="21.2234" gradientUnits="userSpaceOnUse">
<stop stop-color="#136AB4"/>
<stop offset="0.6" stop-color="#59CAF5" stop-opacity="0.54902"/>
<stop offset="1" stop-color="#59CAF5" stop-opacity="0.235294"/>
</linearGradient>
<linearGradient id="paint7_linear_1333_2948" x1="0.757645" y1="37.8858" x2="22.7021" y2="37.8858" gradientUnits="userSpaceOnUse">
<stop stop-color="#05A1E6" stop-opacity="0.247059"/>
<stop offset="1" stop-color="#05A1E6"/>
</linearGradient>
<linearGradient id="paint8_linear_1333_2948" x1="12.9099" y1="51.3404" x2="12.9099" y2="21.2598" gradientUnits="userSpaceOnUse">
<stop stop-color="#318ED5"/>
<stop offset="1" stop-color="#38A7E4"/>
</linearGradient>
<linearGradient id="paint9_linear_1333_2948" x1="14.8066" y1="51.4468" x2="14.8066" y2="22.2068" gradientUnits="userSpaceOnUse">
<stop stop-color="#05A1E6"/>
<stop offset="1" stop-color="#05A1E6" stop-opacity="0.54902"/>
</linearGradient>
<linearGradient id="paint10_linear_1333_2948" x1="16.3759" y1="52.9393" x2="16.3759" y2="28.231" gradientUnits="userSpaceOnUse">
<stop stop-color="#1959A6"/>
<stop offset="0.5" stop-color="#05A1E6"/>
<stop offset="0.917587" stop-color="#7EC5EA"/>
<stop offset="1" stop-color="#7EC5EA"/>
</linearGradient>
<linearGradient id="paint11_linear_1333_2948" x1="17.3249" y1="51.3608" x2="8.94942" y2="25.7649" gradientUnits="userSpaceOnUse">
<stop stop-color="#165096"/>
<stop offset="1" stop-color="#0D82CA"/>
</linearGradient>
<linearGradient id="paint12_linear_1333_2948" x1="61.1553" y1="36.2106" x2="61.1553" y2="22.21" gradientUnits="userSpaceOnUse">
<stop stop-color="#05A1E6"/>
<stop offset="0.873627" stop-color="#0495D6"/>
<stop offset="1" stop-color="#0495D6"/>
</linearGradient>
<linearGradient id="paint13_linear_1333_2948" x1="67.7345" y1="20.9154" x2="54.6859" y2="49.8871" gradientUnits="userSpaceOnUse">
<stop stop-color="#38A7E4" stop-opacity="0.329412"/>
<stop offset="0.961533" stop-color="#0E88D3"/>
<stop offset="1" stop-color="#0E88D3"/>
</linearGradient>
<linearGradient id="paint14_linear_1333_2948" x1="62.6403" y1="22.0483" x2="62.6403" y2="52.5923" gradientUnits="userSpaceOnUse">
<stop stop-color="#168CD4"/>
<stop offset="0.5" stop-color="#1C87CC"/>
<stop offset="1" stop-color="#154B8D"/>
</linearGradient>
<linearGradient id="paint15_linear_1333_2948" x1="23.6802" y1="21.4204" x2="23.8127" y2="24.6238" gradientUnits="userSpaceOnUse">
<stop stop-color="#97D6EE"/>
<stop offset="0.703293" stop-color="#55C1EA"/>
<stop offset="1" stop-color="#55C1EA"/>
</linearGradient>
<linearGradient id="paint16_linear_1333_2948" x1="27.7471" y1="24.9227" x2="28.3454" y2="21.5295" gradientUnits="userSpaceOnUse">
<stop stop-color="#7ACCEC"/>
<stop offset="1" stop-color="#3FB7ED"/>
</linearGradient>
<linearGradient id="paint17_linear_1333_2948" x1="58.5063" y1="23.7371" x2="58.5063" y2="53.6122" gradientUnits="userSpaceOnUse">
<stop stop-color="#1DA7E7"/>
<stop offset="1" stop-color="#37ABE7" stop-opacity="0"/>
</linearGradient>
<clipPath id="clip0_1333_2948">
<rect width="78" height="75" fill="white" transform="translate(0.457031 0.5)"/>
</clipPath>
</defs>
</svg>
