<svg width="79" height="72" viewBox="0 0 79 72" fill="none" xmlns="http://www.w3.org/2000/svg">
<path d="M10.5443 45.8019C10.6109 45.9522 10.6862 46.0909 10.7673 46.2297C10.8049 46.3106 10.8571 46.3944 10.9034 46.4696C10.9787 46.6199 11.0598 46.7644 11.138 46.9089L11.5928 47.672C11.6767 47.8136 11.7578 47.9524 11.8534 48.0911C12.0127 48.3628 12.201 48.6287 12.3661 48.9004C12.4414 49.0132 12.5109 49.1259 12.5949 49.2386C12.9135 49.7329 13.2031 50.1433 13.513 50.5422C13.7332 50.8399 13.9533 51.1319 14.1908 51.4238C14.269 51.5336 14.3559 51.6435 14.437 51.7533L15.0771 52.5279C15.1553 52.6175 15.2335 52.7216 15.3175 52.8141C15.6013 53.1552 15.9025 53.4847 16.2038 53.82C16.2038 53.8257 16.2125 53.8315 16.2182 53.8402C16.5919 54.3084 16.9945 54.7247 17.4347 55.0946L17.4463 55.1062C17.678 55.3432 17.9097 55.5773 18.1559 55.8086L18.4484 56.0889C18.7699 56.3895 19.0914 56.6873 19.4303 56.9763C19.4361 56.9763 19.439 56.9821 19.4448 56.985L19.6099 57.1295C19.9053 57.3867 20.2036 57.6411 20.5078 57.8781L20.8698 58.1816C21.116 58.3782 21.3709 58.5632 21.6229 58.7568L22.0168 59.0574C22.2861 59.2597 22.5729 59.4563 22.848 59.6529C22.9494 59.7251 23.0508 59.7974 23.155 59.8638L23.239 59.9303L24.0529 60.4622L24.4005 60.6934C24.8262 60.9651 25.2491 61.2195 25.672 61.4738C25.7936 61.5345 25.9153 61.601 26.0282 61.6704C26.341 61.8496 26.6654 62.0317 26.9811 62.1964C27.1549 62.2947 27.3345 62.3785 27.5141 62.4681C27.7313 62.5895 27.9572 62.708 28.1889 62.8294C28.2526 62.8497 28.3048 62.8699 28.3569 62.8988L28.3685 62.8872C28.4641 62.9306 28.5539 62.9768 28.6465 63.0231C28.9941 63.1965 29.3561 63.3613 29.7327 63.5231C29.8022 63.552 29.8775 63.5809 29.9528 63.6214C30.3699 63.8035 30.7869 63.9769 31.2185 64.1446C31.317 64.1735 31.4213 64.2226 31.5226 64.2602C31.9136 64.4076 32.3162 64.5579 32.7159 64.6995L32.8607 64.7516C33.3039 64.9019 33.7412 65.0464 34.1931 65.1822C34.2973 65.2112 34.4045 65.2487 34.5146 65.2776C34.9751 65.4164 35.4211 65.5811 35.8874 65.6678C65.6418 71.0527 74.2874 47.9032 74.2874 47.9032C67.0233 57.2971 54.1316 59.7742 41.9235 57.0168C41.4716 56.9127 41.0198 56.7682 40.5622 56.6352C39.9163 56.4528 39.2759 56.2514 38.6419 56.0311L38.917 56.115L38.7375 56.0456C38.3436 55.9126 37.9641 55.7652 37.5789 55.6178C37.4846 55.5779 37.389 55.5413 37.2922 55.508L37.2603 55.4993C36.8346 55.3288 36.4204 55.1553 36.0091 54.9732C35.9193 54.9443 35.844 54.9039 35.7542 54.8692C35.2671 54.6573 34.7842 54.4357 34.306 54.2044L34.7057 54.3807C34.6014 54.3347 34.499 54.2845 34.3987 54.2304C34.1265 54.1032 33.8542 53.9587 33.5877 53.8228C33.3848 53.7269 33.1848 53.6247 32.9882 53.5165L33.0461 53.5454C32.7188 53.3719 32.3915 53.1841 32.0613 53.0077C31.9629 52.9384 31.8499 52.8806 31.737 52.817C31.2462 52.5323 30.7614 52.2374 30.283 51.9325L30.4655 52.0423C30.3428 51.9668 30.2231 51.8867 30.1063 51.8024L30.1237 51.814C29.8124 51.6232 29.5071 51.4227 29.2084 51.2128C29.11 51.1492 29.0202 51.0798 28.9188 51.0105C28.6067 50.7979 28.2996 50.5782 27.9978 50.3514L28.0673 50.4006C27.9456 50.3023 27.8153 50.2098 27.6849 50.1144C27.4301 49.915 27.1723 49.7242 26.9174 49.5161L26.5756 49.2444C26.2114 48.9552 25.8541 48.6574 25.504 48.3513L25.5011 48.3484L24.496 47.4379L24.2064 47.1662C23.9689 46.9263 23.7256 46.6979 23.4823 46.4609L23.2014 46.1719C22.9015 45.8755 22.6089 45.5719 22.3238 45.2614L22.3064 45.2411L22.2572 45.2007C21.9505 44.8646 21.6483 44.5244 21.3506 44.1804C21.2724 44.0908 21.2 43.9954 21.1189 43.9L20.4614 43.1051C20.165 42.7336 19.8754 42.3568 19.5925 41.975L19.4767 41.8131C12.705 32.6331 10.2546 19.9643 15.6737 9.57031L10.8889 15.6084C4.73416 24.3925 5.49591 35.8154 10.2025 45.1429C10.3097 45.3712 10.4284 45.5851 10.5443 45.8019Z" fill="#1266A9"/>
<path d="M31.2728 33.1473L31.2409 33.1011L31.2148 33.0664L31.2728 33.1473Z" fill="black"/>
<path d="M34.5096 36.9399L34.7702 37.2C35.1004 37.518 35.4393 37.8272 35.784 38.1365L35.8274 38.1741C36.175 38.4805 36.566 38.8013 36.9686 39.1135L37.0294 39.1597C37.1279 39.2262 37.2119 39.3042 37.3074 39.3707C37.7129 39.6829 38.1213 39.9806 38.5471 40.2783L38.5905 40.3043C38.7701 40.4344 38.9613 40.5529 39.164 40.6801C39.2451 40.7321 39.3378 40.8015 39.4247 40.8535C39.7317 41.0501 40.0329 41.2322 40.3428 41.42C40.3921 41.4403 40.4355 41.4663 40.4819 41.4865C40.7425 41.6455 41.0264 41.7987 41.2986 41.9374C41.3942 41.9952 41.4869 42.0386 41.5854 42.0935C41.7794 42.1889 41.9706 42.2901 42.156 42.3883L42.2486 42.4288C42.6396 42.6196 43.0393 42.7988 43.4304 42.9751C43.5288 43.0127 43.6128 43.0445 43.6968 43.0849C44.0183 43.2237 44.3456 43.3566 44.6671 43.478C44.8119 43.5272 44.948 43.585 45.0842 43.6283C45.3796 43.7382 45.6895 43.8393 45.982 43.9405L46.3875 44.0706C46.8104 44.2006 47.2391 44.3712 47.688 44.4405C70.6649 48.2155 75.9826 30.6503 75.9826 30.6503C71.1949 37.4919 61.9294 40.7523 52.0557 38.2059C51.5628 38.0818 51.0741 37.9421 50.5902 37.7868L50.7553 37.833C50.6162 37.7954 50.4946 37.7521 50.3613 37.7116C50.0601 37.6076 49.7502 37.5064 49.4577 37.3994L49.0406 37.2434C48.7162 37.1133 48.386 36.9919 48.0703 36.8532C47.9718 36.8098 47.8821 36.7809 47.8068 36.7375C47.4013 36.5554 46.9929 36.3762 46.5961 36.1855L45.9994 35.8762L45.6548 35.7028C45.3883 35.564 45.1421 35.4195 44.8872 35.2721C44.8222 35.2416 44.7593 35.2069 44.699 35.168L44.7076 35.1709C44.4006 34.9802 44.082 34.7952 43.7866 34.6015C43.6881 34.5466 43.5983 34.4801 43.5057 34.4223L42.9032 34.0321C42.4861 33.743 42.0778 33.4338 41.6636 33.1332C41.5709 33.0493 41.4811 32.98 41.3913 32.9048C37.0497 29.5143 33.6262 24.881 32.0013 19.6348C30.2896 14.1806 30.6661 8.06444 33.6233 3.10156L29.9883 8.21185C25.525 14.5737 25.777 23.0773 29.2527 29.8063C29.887 31.0492 30.53 32.0984 31.2396 33.0985C31.8999 34.0408 32.6298 35.1449 33.5103 35.9022C33.8231 36.2577 34.1591 36.5959 34.5096 36.9399Z" fill="#1266A9"/>
<path d="M13.528 50.5587L13.5164 50.5413L13.4961 50.5153L13.528 50.5587ZM25.571 48.4082L25.6 48.4284L25.6058 48.4371L25.571 48.4082Z" fill="black"/>
<path d="M46.0526 2.67943C43.4198 6.51504 43.1678 11.2785 44.981 15.5072C46.907 19.9989 50.8432 23.5252 55.431 25.1959C55.6193 25.2682 55.8018 25.3289 55.9958 25.3982L56.2507 25.4763C56.5172 25.5601 56.7865 25.6584 57.0617 25.7191C69.7507 28.1499 73.1858 19.2503 74.1097 17.9409C71.0888 22.2477 66.023 23.2824 59.8075 21.7823C59.267 21.6508 58.735 21.4867 58.2145 21.2909L58.31 21.3227C57.6623 21.099 57.0279 20.8384 56.41 20.5423L56.5201 20.5914C55.3326 20.0134 54.3131 19.389 53.3659 18.6722C47.8107 14.4811 44.3756 6.50058 48.0019 0L46.0526 2.67943Z" fill="#1266A9"/>
</svg>
