<svg width="71" height="78" viewBox="0 0 71 78" fill="none" xmlns="http://www.w3.org/2000/svg">
<g clipPath="url(#clip0_1333_2872)">
<mask id="mask0_1333_2872" style="mask-type:luminance" maskUnits="userSpaceOnUse" x="0" y="0" width="70" height="78">
<path d="M69.9909 0H0.5V78H69.9909V0Z" fill="white"/>
</mask>
<g mask="url(#mask0_1333_2872)">
<path d="M69.6814 23.091C69.6809 21.7923 69.4025 20.6448 68.8395 19.6602C68.2865 18.6915 67.4583 17.8798 66.3474 17.238C57.1775 11.9632 47.9988 6.70442 38.8319 1.42417C36.3605 0.000797272 33.9644 0.0529573 31.5114 1.49676C27.8615 3.64392 9.5878 14.0885 4.14249 17.2351C1.89995 18.5305 0.808729 20.5125 0.80819 23.0885C0.804687 33.6966 0.80819 44.3047 0.804688 54.9128C0.804688 56.1829 1.07176 57.3084 1.60996 58.2782C2.16325 59.2759 3.00303 60.11 4.13952 60.7663C9.58511 63.9128 27.8612 74.3566 31.5103 76.5046C33.9644 77.9492 36.3605 78.0008 38.8327 76.5772C47.9999 71.2966 57.1791 66.0379 66.3503 60.763C67.4868 60.107 68.3266 59.2724 68.8799 58.2755C69.4173 57.3054 69.6849 56.1802 69.6849 54.9098C69.6849 54.9098 69.6849 33.6993 69.6814 23.091Z" fill="#A179DC"/>
<path d="M35.3496 38.8965L1.60938 58.2774C2.16267 59.2751 3.00244 60.1092 4.13893 60.7655C9.58452 63.912 27.8606 74.3558 31.5097 76.5038C33.9638 77.9484 36.36 78 38.8321 76.5764C47.9993 71.2958 57.1785 66.0371 66.3497 60.7622C67.4862 60.1062 68.326 59.2716 68.8793 58.2747L35.3496 38.8965Z" fill="#280068"/>
<path d="M69.6828 23.0909C69.6823 21.7923 69.4039 20.6447 68.8409 19.6602L35.3516 38.8975L68.8813 58.2754C69.4187 57.3053 69.6858 56.1801 69.6863 54.9097C69.6863 54.9097 69.6863 33.6992 69.6828 23.0909Z" fill="#390091"/>
<path d="M55.2162 31.6504V35.2731H58.8475V31.6504H60.6631V35.2731H64.2944V37.0844H60.6631V40.7069H64.2944V42.5182H60.6631V46.1409H58.8475V42.5182H55.2162V46.1409H53.4005V42.5182H49.7695V40.7069H53.4005V37.0844H49.7695V35.2731H53.4005V31.6504H55.2162ZM58.8475 37.0842H55.2162V40.7069H58.8475V37.0842Z" fill="white"/>
<path d="M35.4234 13.4573C44.8948 13.4573 53.164 18.5889 57.5933 26.2166L57.5502 26.1432L46.4062 32.5443C44.2108 28.8359 40.1861 26.333 35.5687 26.2814L35.4231 26.2806C28.3824 26.2806 22.6743 31.9751 22.6743 38.9992C22.672 41.2132 23.2517 43.389 24.3557 45.3095C26.5532 49.1368 30.6845 51.7182 35.4234 51.7182C40.1917 51.7182 44.3464 49.104 46.5326 45.2358L46.4795 45.3286L57.6065 51.7593C53.2257 59.3225 45.0697 64.4382 35.7085 64.5401L35.4234 64.5417C25.9221 64.5417 17.6294 59.3784 13.2112 51.7104C11.0544 47.967 9.82031 43.6272 9.82031 38.9992C9.82031 24.893 21.2831 13.4573 35.4234 13.4573Z" fill="white"/>
</g>
</g>
<defs>
<clipPath id="clip0_1333_2872">
<rect width="70" height="78" fill="white" transform="translate(0.5)"/>
</clipPath>
</defs>
</svg>
