<svg width="77" height="78" viewBox="0 0 77 78" fill="none" xmlns="http://www.w3.org/2000/svg">
<g clip-path="url(#clip0_1333_2882)">
<mask id="mask0_1333_2882" style="mask-type:luminance" maskUnits="userSpaceOnUse" x="0" y="0" width="76" height="78">
<path d="M75.9416 0H0.5V78H75.9416V0Z" fill="white"/>
</mask>
<g mask="url(#mask0_1333_2882)">
<path d="M75.765 17.7961C75.7929 17.8994 75.8072 18.006 75.8074 18.1131V34.7537C75.8074 34.9673 75.7511 35.1771 75.644 35.3619C75.537 35.5467 75.383 35.7 75.1977 35.8062L61.231 43.8475V59.7859C61.231 60.2197 61.0004 60.6201 60.6243 60.8384L31.4699 77.6216C31.4031 77.6595 31.3303 77.6838 31.2575 77.7096C31.2302 77.7187 31.2045 77.7354 31.1756 77.743C30.9718 77.7966 30.7576 77.7966 30.5538 77.743C30.5204 77.7339 30.4901 77.7157 30.4583 77.7035C30.3915 77.6793 30.3218 77.658 30.2581 77.6216L1.10969 60.8384C0.92452 60.7321 0.770661 60.5788 0.663622 60.394C0.556584 60.2092 0.500147 59.9994 0.5 59.7859V9.86404C0.5 9.75484 0.515166 9.64868 0.542466 9.54555C0.551566 9.51066 0.572799 9.47881 0.584932 9.44393C0.607682 9.38023 0.628915 9.31502 0.662281 9.25587C0.685031 9.21643 0.718397 9.18458 0.745696 9.14818C0.780579 9.09965 0.812429 9.0496 0.853378 9.00714C0.888261 8.97225 0.93376 8.94647 0.973193 8.91614C1.01718 8.87974 1.05661 8.84031 1.10666 8.81149H1.10817L15.6831 0.419899C15.8677 0.313705 16.0769 0.257813 16.2898 0.257812C16.5027 0.257813 16.7119 0.313705 16.8964 0.419899L31.4714 8.81149H31.4744C31.523 8.84182 31.5639 8.87974 31.6079 8.91462C31.6473 8.94495 31.6913 8.97225 31.7262 9.00562C31.7686 9.0496 31.799 9.09965 31.8354 9.14818C31.8612 9.18458 31.896 9.21643 31.9173 9.25587C31.9522 9.31653 31.9719 9.38023 31.9961 9.44393C32.0083 9.47881 32.0295 9.51066 32.0386 9.54706C32.0665 9.65042 32.0808 9.75698 32.0811 9.86404V41.0447L44.2264 34.0515V18.1116C44.2264 18.0054 44.2415 17.8977 44.2688 17.7961C44.2794 17.7597 44.2992 17.7278 44.3113 17.693C44.3356 17.6293 44.3568 17.564 44.3902 17.5049C44.4129 17.4655 44.4463 17.4336 44.4721 17.3972C44.5085 17.3487 44.5388 17.2986 44.5813 17.2562C44.6161 17.2213 44.6601 17.1955 44.6996 17.1652C44.7451 17.1288 44.7845 17.0893 44.833 17.0605H44.8345L59.411 8.66893C59.5955 8.56258 59.8047 8.50661 60.0177 8.50661C60.2306 8.50661 60.4398 8.56258 60.6243 8.66893L75.1993 17.0605C75.2508 17.0909 75.2903 17.1288 75.3358 17.1637C75.3737 17.194 75.4177 17.2213 75.4525 17.2546C75.495 17.2986 75.5253 17.3487 75.5617 17.3972C75.589 17.4336 75.6224 17.4655 75.6436 17.5049C75.6785 17.564 75.6982 17.6293 75.7225 17.693C75.7362 17.7278 75.7559 17.7597 75.765 17.7961ZM73.3778 34.0515V20.2136L68.2773 23.1498L61.231 27.2069V41.0447L73.3793 34.0515H73.3778ZM58.8028 59.0837V45.2367L51.8718 49.1952L32.0796 60.4911V74.4685L58.8028 59.0837ZM2.92966 11.9646V59.0837L29.6499 74.467V60.4927L15.6907 52.5925L15.6862 52.5894L15.6801 52.5864C15.6331 52.5591 15.5936 52.5197 15.5497 52.4863C15.5117 52.456 15.4678 52.4317 15.4344 52.3983L15.4314 52.3938C15.3919 52.3559 15.3646 52.3088 15.3313 52.2664C15.3009 52.2254 15.2645 52.1905 15.2403 52.1481L15.2387 52.1435C15.2114 52.098 15.1948 52.0434 15.175 51.9919C15.1553 51.9464 15.1295 51.9039 15.1174 51.8554V51.8539C15.1022 51.7962 15.0992 51.7355 15.0931 51.6764C15.0871 51.6309 15.0749 51.5854 15.0749 51.5399V18.9578L8.03014 14.8993L2.92966 11.9661V11.9646ZM16.2913 2.87383L4.14753 9.86404L16.2883 16.8543L28.4305 9.86252L16.2883 2.87383H16.2913ZM22.6066 46.4986L29.6514 42.4431V11.9646L24.5509 14.9008L17.5046 18.9578V49.4363L22.6066 46.4986ZM60.0177 11.1229L47.8754 18.1131L60.0177 25.1033L72.1584 18.1116L60.0177 11.1229ZM58.8028 27.2069L51.7565 23.1498L46.656 20.2136V34.0515L53.7008 38.107L58.8028 41.0447V27.2069ZM30.8632 58.3906L48.6732 48.223L57.5759 43.1422L45.4427 36.1566L31.4729 44.1993L18.7407 51.5293L30.8632 58.3906Z" fill="#FF2D20"/>
</g>
</g>
<defs>
<clipPath id="clip0_1333_2882">
<rect width="76" height="78" fill="white" transform="translate(0.5)"/>
</clipPath>
</defs>
</svg>
