<svg width="79" height="38" viewBox="0 0 79 38" fill="none" xmlns="http://www.w3.org/2000/svg">
<g clipPath="url(#clip0_1333_2708)">
<path d="M16.1061 12.4566C18.5489 12.4566 20.1641 12.9008 20.9716 13.8093C21.7792 14.7178 21.9811 16.2521 21.5571 18.4326C21.1129 20.7139 20.265 22.329 18.9931 23.3183C17.7212 24.2874 15.8032 24.7719 13.219 24.7719H9.32258L11.7251 12.4566H16.1061ZM0.5 37.2487H6.92009L8.43427 29.4154H13.9257C16.3483 29.4154 18.347 29.1529 19.9016 28.6482C21.4763 28.1434 22.8896 27.2955 24.1615 26.0842C25.2315 25.0949 26.0996 24.0047 26.7658 22.8136C27.4321 21.6224 27.8964 20.3101 28.1791 18.8767C28.8655 15.384 28.3406 12.6787 26.6447 10.7204C24.9488 8.78223 22.2435 7.79297 18.5287 7.79297H6.21348L0.5 37.2487Z" fill="#F8F6F1"/>
<path d="M32.9055 0H39.2651L37.7509 7.83332H43.424C46.9974 7.83332 49.4403 8.45918 50.793 9.6907C52.1456 10.9424 52.5494 12.9411 52.0043 15.7272L49.3394 29.4153H42.8789L45.4025 16.3934C45.6852 14.9196 45.5842 13.9102 45.0795 13.3651C44.5748 12.82 43.5249 12.5575 41.8896 12.5575H36.802L33.5314 29.4153H27.1719L32.9055 0Z" fill="#F8F6F1"/>
<path d="M66.1334 12.4566C68.5763 12.4566 70.1914 12.9008 70.999 13.8093C71.8065 14.7178 72.0084 16.2521 71.5844 18.4326C71.1403 20.7139 70.2923 22.329 69.0204 23.3183C67.7485 24.2874 65.8306 24.7719 63.2464 24.7719H59.3499L61.7524 12.4566H66.1334ZM50.5273 37.2487H56.9474L58.4616 29.4154H63.953C66.3757 29.4154 68.3744 29.1529 69.9289 28.6482C71.5037 28.1434 72.9169 27.2955 74.1888 26.0842C75.2588 25.0949 76.127 24.0047 76.7932 22.8136C77.4594 21.6224 77.9238 20.3101 78.2064 18.8767C78.8928 15.384 78.3679 12.6787 76.6721 10.7204C74.9762 8.78223 72.2709 7.79297 68.5561 7.79297H56.2206L50.5273 37.2487Z" fill="#F8F6F1"/>
</g>
<defs>
<clipPath id="clip0_1333_2708">
<rect width="78" height="38" fill="white" transform="translate(0.5)"/>
</clipPath>
</defs>
</svg>
