<svg width="63" height="78" viewBox="0 0 63 78" fill="none" xmlns="http://www.w3.org/2000/svg">
<g clipPath="url(#clip0_1333_2896)">
<mask id="mask0_1333_2896" style="mask-type:luminance" maskUnits="userSpaceOnUse" x="0" y="0" width="62" height="78">
<path d="M61.7456 0H0.5V78H61.7456V0Z" fill="white"/>
</mask>
<g mask="url(#mask0_1333_2896)">
<path d="M27.961 0H40.7073V58.4204C34.1784 59.6554 29.372 60.1413 24.1717 60.1413C8.6038 60.125 0.5 53.17 0.5 39.8125C0.5 26.9426 9.09591 18.59 22.4164 18.59C24.4834 18.59 26.0581 18.7526 27.961 19.24V0ZM28.4077 29.768C26.9148 29.2804 25.6846 29.118 24.1097 29.118C17.6629 29.118 13.9391 33.0504 13.9391 39.9419C13.9391 46.6517 17.499 50.3566 24.0279 50.3566C25.4384 50.3566 26.5868 50.2771 28.4077 50.0334V29.768Z" fill="#2BA977"/>
<path d="M61.5495 20.1584V49.4087C61.5495 59.4819 60.7949 64.3261 58.5803 68.5025C56.5133 72.5177 53.7902 75.0495 48.1635 77.846L36.3359 72.2724C41.9626 69.6575 44.6857 67.347 46.4247 63.8208C48.2453 60.215 48.8195 56.0385 48.8195 45.0536V20.1587L61.5495 20.1584ZM47.535 0H60.2813V12.9513H47.535V0Z" fill="#2BA977"/>
</g>
</g>
<defs>
<clipPath id="clip0_1333_2896">
<rect width="62" height="78" fill="white" transform="translate(0.5)"/>
</clipPath>
</defs>
</svg>
