<svg width="52" height="78" viewBox="0 0 52 78" fill="none" xmlns="http://www.w3.org/2000/svg">
<g clip-path="url(#clip0_1333_2986)">
<path fill-rule="evenodd" clip-rule="evenodd" d="M27.9628 0.195312C22.2956 2.2038 16.8247 8.06718 11.5512 17.783C3.64153 32.3592 -6.57642 53.0705 7.49276 69.47C14.0009 77.0554 24.7477 81.5331 38.8511 74.4425C50.1817 68.7448 53.3334 52.3954 49.2652 44.7136C40.8742 28.8663 32.3612 24.9578 30.0822 15.1298C28.5624 8.57784 27.8555 3.60048 27.9616 0.195312H27.9628Z" fill="url(#paint0_linear_1333_2986)"/>
<path fill-rule="evenodd" clip-rule="evenodd" d="M27.9639 0C22.2675 2.02921 16.7977 7.89259 11.5523 17.5877C3.68526 32.1322 -6.57535 52.8752 7.49383 69.2747C14.0019 76.8601 24.6111 79.311 30.4976 74.8126C34.3355 71.8791 36.9448 69.0833 38.4487 63.1919C40.1233 56.6326 38.8387 47.8004 37.9576 43.7444C36.8436 38.6098 36.4792 32.9756 36.8644 26.8404C36.7627 26.717 36.6611 26.5935 36.5597 26.4699C33.4957 22.7186 31.1314 19.4524 30.0833 14.9345C28.5635 8.38252 27.8566 3.40517 27.9626 0H27.9639Z" fill="url(#paint1_linear_1333_2986)"/>
<path fill-rule="evenodd" clip-rule="evenodd" d="M23.2449 2.55273C17.9397 6.74521 13.9947 13.7774 11.4109 23.6492C7.53531 38.4582 7.11606 52.1142 8.4835 60.058C11.133 75.4556 24.8707 81.3007 38.9606 74.1345C47.632 69.7226 51.2444 60.2554 51.053 49.979C50.8544 39.3369 30.2917 27.2774 26.6501 18.3976C24.2224 12.477 23.0877 7.19493 23.2449 2.55273Z" fill="url(#paint2_linear_1333_2986)"/>
<path fill-rule="evenodd" clip-rule="evenodd" d="M36.6972 30.3145C43.0591 38.474 44.446 44.1545 40.8568 47.355C35.4748 52.1556 22.3112 55.2878 14.1224 49.4805C8.66244 45.6085 6.59667 37.304 7.9251 24.5645C5.70064 29.1984 3.79101 33.9769 2.20919 38.8676C0.651636 43.6963 0.195825 48.7492 0.844197 54.0264C2.79662 57.9751 7.5412 60.6112 15.0791 61.9371C26.3891 63.9261 37.0897 62.9427 44.2717 59.323C49.0602 56.9099 51.3246 54.5065 51.0662 52.1154C51.2381 48.5835 50.1497 45.2222 47.7988 42.0291C45.4466 38.8359 41.7465 34.9323 36.696 30.3133L36.6972 30.3145Z" fill="url(#paint3_linear_1333_2986)"/>
<path fill-rule="evenodd" clip-rule="evenodd" d="M11.8342 22.168C11.7806 28.0606 13.2955 33.6619 16.3789 38.9745C21.0041 46.9402 26.4031 54.8108 34.4822 61.336C39.869 65.6869 44.1724 67.0909 47.3935 65.5528C44.7489 70.2876 41.9336 72.6081 38.9537 72.5131C34.4822 72.3717 29.0307 70.4168 20.2948 59.9198C14.4716 52.9218 10.4875 46.3015 8.34375 40.0604C8.68378 37.5839 9.04453 35.1183 9.42478 32.6626C9.80624 30.2056 10.6094 26.7078 11.833 22.168H11.8342Z" fill="url(#paint4_linear_1333_2986)"/>
<path fill-rule="evenodd" clip-rule="evenodd" d="M25.4978 30.2532C25.9927 35.055 27.8598 42.7331 25.4978 47.8457C23.1359 52.9584 12.2257 62.194 15.236 70.3316C18.2488 78.4667 25.588 76.641 30.1924 72.8909C34.7969 69.1409 37.2612 63.0435 37.8072 58.7559C38.3532 54.4684 36.5007 46.2187 35.8974 39.0415C35.4952 34.258 35.7682 30.1569 36.7152 26.7359L35.3051 24.9614L27.0006 22.502C25.6697 24.4702 25.1688 27.054 25.4978 30.2532Z" fill="url(#paint5_linear_1333_2986)"/>
<path fill-rule="evenodd" clip-rule="evenodd" d="M28.4581 6.47852C25.7708 7.61439 23.2249 9.86419 20.8191 13.2291C17.2116 18.276 15.3737 21.3021 16.7338 31.3068C17.6406 37.977 18.2902 44.1133 18.6814 49.7159L30.3119 15.9238C29.9242 14.3762 29.5687 12.8207 29.2455 11.2584C28.9291 9.67448 28.6665 8.08026 28.4581 6.47852Z" fill="url(#paint6_linear_1333_2986)"/>
<path fill-rule="evenodd" clip-rule="evenodd" d="M30.2911 15.8567C27.3381 17.58 25.0505 21.1095 23.4272 26.4476C21.805 31.7857 20.3194 39.248 18.9727 48.8359C20.7691 42.7373 21.961 38.3218 22.5472 35.5857C23.4272 31.4834 23.7282 25.681 26.0657 21.742C27.6233 19.1156 29.0322 17.1547 30.2911 15.8555V15.8567Z" fill="#330A4C" fill-opacity="0.316"/>
<path fill-rule="evenodd" clip-rule="evenodd" d="M16.6211 73.0488C21.479 73.7435 24.0201 74.3602 24.2431 74.9013C24.5771 75.7106 23.6277 76.4516 20.9306 75.9531C19.1329 75.6216 17.696 74.6527 16.6211 73.0488Z" fill="white"/>
<path fill-rule="evenodd" clip-rule="evenodd" d="M19.0635 6.47852C16.3908 9.67163 14.0751 13.0561 12.1166 16.6319C10.1581 20.2077 8.75655 22.8779 7.91683 24.6378C7.65602 25.9504 7.52927 27.887 7.53537 30.4476C7.54146 33.0094 7.76327 35.8576 8.19958 38.991C8.57216 32.9043 9.75334 26.8943 11.712 21.1193C13.6717 15.3424 16.1214 10.4614 19.0635 6.47852Z" fill="#EDEDED" fill-opacity="0.603"/>
</g>
<defs>
<linearGradient id="paint0_linear_1333_2986" x1="26.8695" y1="5.94427" x2="24.1634" y2="77.9403" gradientUnits="userSpaceOnUse">
<stop stop-color="#D9D8DC"/>
<stop offset="1" stop-color="white" stop-opacity="0.385"/>
</linearGradient>
<linearGradient id="paint1_linear_1333_2986" x1="28.0929" y1="5.92714" x2="-0.187579" y2="67.9039" gradientUnits="userSpaceOnUse">
<stop stop-color="#8D67AF" stop-opacity="0.672"/>
<stop offset="1" stop-color="#9F8DAF"/>
</linearGradient>
<linearGradient id="paint2_linear_1333_2986" x1="31.2503" y1="26.0088" x2="31.2503" y2="75.8495" gradientUnits="userSpaceOnUse">
<stop stop-color="#26053D" stop-opacity="0.762"/>
<stop offset="1" stop-color="#B7B4B4" stop-opacity="0.278"/>
</linearGradient>
<linearGradient id="paint3_linear_1333_2986" x1="5.67919" y1="29.3782" x2="18.3679" y2="62.9892" gradientUnits="userSpaceOnUse">
<stop stop-color="#91739F" stop-opacity="0.46"/>
<stop offset="1" stop-color="#32054F" stop-opacity="0.54"/>
</linearGradient>
<linearGradient id="paint4_linear_1333_2986" x1="39.5931" y1="70.7067" x2="4.70251" y2="41.7954" gradientUnits="userSpaceOnUse">
<stop stop-color="#463D49" stop-opacity="0.331"/>
<stop offset="1" stop-color="#340A50" stop-opacity="0.821"/>
</linearGradient>
<linearGradient id="paint5_linear_1333_2986" x1="32.4218" y1="26.4768" x2="7.81315" y2="63.9133" gradientUnits="userSpaceOnUse">
<stop stop-color="#715383" stop-opacity="0.145"/>
<stop offset="1" stop-color="#F4F4F4" stop-opacity="0.234"/>
</linearGradient>
<linearGradient id="paint6_linear_1333_2986" x1="34.7711" y1="37.8968" x2="17.344" y2="36.833" gradientUnits="userSpaceOnUse">
<stop stop-color="#A5A1A8" stop-opacity="0.356"/>
<stop offset="1" stop-color="#370C50" stop-opacity="0.582"/>
</linearGradient>
<clipPath id="clip0_1333_2986">
<rect width="51" height="78" fill="white" transform="translate(0.5)"/>
</clipPath>
</defs>
</svg>
