<svg width="79" height="78" viewBox="0 0 79 78" fill="none" xmlns="http://www.w3.org/2000/svg">
<g clip-path="url(#clip0_1333_2712)">
<path d="M23.8105 65.5026C20.8367 63.1626 17.668 60.9249 15.5035 57.7708C10.9453 52.206 7.43534 45.7661 5.03684 38.9948C3.58653 34.5926 3.08684 29.8712 1.21971 25.6373C-0.735161 22.566 1.55609 19.2023 4.92471 18.2273C6.42378 17.9396 9.05871 16.521 5.87534 17.535C3.02346 19.6264 2.74803 15.6338 5.67303 15.3803C7.67178 15.1121 8.40303 13.479 7.72053 12.0116C5.57553 10.6125 12.9173 9.07932 9.22203 6.99038C5.37565 2.84663 14.604 2.04713 12.3274 6.76126C11.7863 10.3834 18.777 6.09338 17.1537 10.281C18.8038 12.2919 23.3303 10.7393 23.2157 13.5594C25.6191 13.7252 26.443 15.7459 28.7001 15.8994C31.0401 16.9549 35.274 17.7861 36.0686 20.421C33.753 22.2564 28.3832 16.6307 28.1224 21.7129C28.8244 29.2204 28.644 36.9521 31.3887 44.1013C32.6878 48.4279 35.8371 51.8355 38.6768 55.2066C41.3995 58.5069 45.0874 60.8323 48.8412 62.7872C52.1367 64.3423 55.6905 65.3709 59.281 66.0193C60.7361 64.9054 63.3102 60.7641 65.5795 62.5093C65.6891 64.4739 61.0701 66.6141 65.3601 66.3971C67.8829 65.6366 69.6306 68.3471 71.7049 65.8999C73.6183 68.1667 79.6512 64.4544 78.2935 69.0833C76.4532 70.2703 73.7695 69.5537 71.9267 71.1868C68.8871 69.6683 66.4667 72.5445 63.103 72.1813C59.3663 72.8516 55.5662 73.1198 51.7783 73.1246C45.5627 72.6371 39.2179 72.4275 33.307 70.263C29.9749 69.2953 26.7257 67.3989 23.8007 65.5001L23.8105 65.5026ZM29.0584 67.7768C32.31 69.1808 35.4934 70.6628 39.0522 71.1113C44.7071 71.8961 50.545 73.11 56.2195 72.0034C53.6503 70.8431 50.9959 72.4543 48.4365 71.1746C45.3653 71.8328 42.099 71.004 38.9303 70.5969C35.3837 69.0174 31.5544 67.9303 28.2345 65.8779C24.0835 64.3618 30.3795 67.8231 31.5008 68.1034C34.0943 69.5756 28.6489 67.3721 27.8787 66.7384C25.7044 65.5196 25.429 65.7731 27.6642 67.0114L29.0292 67.7768H29.0584ZM22.8671 63.4039C26.0188 64.5739 22.8525 61.1858 21.412 61.3808C20.7733 60.2717 18.9672 59.5697 20.242 58.9749C17.9507 59.7696 17.8435 55.9524 16.7685 56.4984C14.3457 55.7331 15.8252 53.0226 12.9417 51.3553C12.6784 49.6003 10.0751 48.0818 9.2464 45.4371C8.88078 44.0818 6.30434 40.1964 7.88628 43.8137C9.23178 47.2993 11.601 50.2804 13.5754 53.259C15.1062 56.0963 16.9148 59.0603 19.7033 60.8323C20.6441 61.7342 21.5509 63.1163 22.8769 63.399L22.8671 63.4039ZM13.7899 53.4345C13.8996 52.9592 14.3652 54.4631 13.7899 53.4345V53.4345ZM26.6428 64.8006C25.6386 64.4057 27.34 64.4886 26.6428 64.8006V64.8006ZM28.3491 65.4246C27.5691 65.9072 28.1712 64.5641 28.3491 65.4246V65.4246ZM30.4941 66.3167C28.9219 65.7073 31.513 65.3466 30.4941 66.3167V66.3167ZM34.165 68.3642C32.1833 68.0229 34.7841 67.4501 34.165 68.3642V68.3642ZM27.1206 63.4526C25.0731 63.438 28.705 62.4289 27.1206 63.4526V63.4526ZM28.7293 64.257C28.1565 64.5008 28.6806 63.7159 28.7293 64.257V64.257ZM36.756 69.2685C38.0479 70.0826 44.2928 71.0528 40.383 69.6024C39.7249 69.7389 33.1315 67.7353 36.756 69.2685ZM24.0128 59.343C22.0092 58.7434 23.8909 58.8019 24.0128 59.343V59.343ZM27.7495 61.5221C25.7312 60.9981 28.7245 60.8396 27.7495 61.5221V61.5221ZM30.9182 63.4721C28.6562 62.9432 32.3149 62.9456 30.9182 63.4721V63.4721ZM22.4869 57.6831C23.9982 58.8433 28.5953 57.8293 24.8025 56.9908C23.0792 56.0719 19.1963 55.443 21.8434 57.5441L22.4845 57.6831H22.4869ZM33.0169 64.1108C30.3698 63.4965 33.6507 63.0383 33.0169 64.1108V64.1108ZM29.8165 61.5684C33.5215 62.6166 26.7038 59.2284 28.9024 61.1784L29.3899 61.3978L29.8165 61.5636V61.5684ZM36.232 65.2734C33.0632 64.7859 39.742 65.3076 36.232 65.2734V65.2734ZM21.1365 55.6526C20.2712 55.7063 21 54.9994 21.1365 55.6526V55.6526ZM42.1648 68.6006C41.0192 69.4781 42.2575 67.4209 42.1648 68.6006V68.6006ZM27.1255 59.3138C26.0286 59.2894 26.9134 58.6922 27.1255 59.3138V59.3138ZM21.4705 55.2431C18.7161 54.3559 23.4838 55.1213 21.4705 55.2431V55.2431ZM14.7747 50.919C12.5858 49.1835 14.5236 49.9538 14.7747 50.919V50.919ZM32.3539 62.0754C31.9883 61.6538 32.1833 62.1656 32.3539 62.0754V62.0754ZM43.2934 68.7908C42.6987 69.0345 43.2593 68.1473 43.2934 68.7908V68.7908ZM31.3862 61.0761C29.6678 60.825 31.5812 60.2473 31.3862 61.0761V61.0761ZM23.2352 55.9086C20.8343 54.897 24.7343 55.7501 23.2352 55.9086V55.9086ZM37.0217 64.4764C34.7475 64.0254 39.3568 63.5501 37.0217 64.4764V64.4764ZM29.8506 59.6087C32.5392 59.9548 26.6502 57.7806 29.2583 59.4137L29.8506 59.6087ZM39.1984 65.3563C41.709 63.8573 40.8803 68.8736 43.4592 65.7804C46.0015 63.9231 41.2654 68.0766 44.3951 66.1119C46.662 64.5958 50.0087 66.831 52.122 67.5574C53.643 67.4843 55.1202 68.8736 56.6802 68.0278C59.6783 67.2186 50.8106 66.8286 53.136 65.3953C50.3914 66.1948 48.3634 64.4447 47.0106 62.6848C43.9296 61.9731 40.3708 60.3984 38.8328 57.6733C38.2063 56.6496 39.7346 57.8196 38.2916 56.145C36.4392 54.4948 35.5129 52.6204 34.2649 50.6119C32.778 49.8197 32.6001 47.4821 32.4514 50.5339C32.4636 48.6083 30.655 47.3091 30.2089 47.8478C30.2016 45.9953 32.1467 46.9215 30.7842 45.5516C30.4916 43.626 29.5264 41.6273 29.2388 39.453C28.7878 38.4049 29.1754 36.1624 27.7031 38.5341C27.1669 41.0374 27.5252 35.4579 28.3613 37.2958C29.4582 35.4189 27.9664 35.6383 27.9079 35.8991C28.6221 34.3148 28.3613 32.0674 27.7202 32.9254C28.1005 31.2435 28.3223 26.7463 27.1523 27.5434C27.8592 25.7884 28.4978 19.5069 25.4168 21.9006C24.1688 21.9176 22.0091 22.3539 20.9878 22.8609C24.1883 24.6257 20.6661 23.4996 19.3596 23.2168C19.189 24.8499 17.8971 24.1431 16.2883 24.1601C18.8672 24.477 15.033 26.7926 13.5583 25.8956C11.6376 26.8121 15.2158 29.1034 13.5949 29.8127C13.7948 30.8779 10.6528 29.4276 10.899 31.8943C9.03678 31.1094 10.6431 34.8193 11.5767 33.564C14.7454 34.422 13.807 36.3769 13.8874 38.2367C13.3707 39.3189 11.3378 35.6919 13.434 35.8601C11.7765 33.1716 11.6059 34.8851 10.2287 36.138C9.91184 36.2282 13.7387 37.9174 11.3353 38.7461C13.4487 39.0728 13.5096 40.9228 13.9386 42.0904C15.2061 43.4139 14.9453 40.6279 16.4663 42.2196C15.5035 40.8058 11.3719 38.2294 14.6991 39.0508C14.682 37.6273 14.097 36.4768 15.1183 36.5036C16.1299 34.6755 14.0605 41.013 16.3371 38.6876C16.966 38.4122 17.1244 36.8595 18.2554 38.8339C19.8983 40.4524 18.8502 41.6224 16.5297 40.1404C16.944 41.5493 19.6326 42.0514 19.1256 44.2524C19.6618 46.1903 20.4102 45.4761 21.0634 45.3639C21.5509 47.2457 21.8678 45.8612 21.8922 44.9666C24.237 45.4688 23.6862 46.8557 24.4223 47.8234C26.0383 48.5546 22.1066 42.8801 24.8854 46.1171C27.8031 48.7496 25.9823 49.8538 23.362 49.4321C25.0195 49.2981 25.5557 51.6746 27.6276 51.5893C29.5191 52.4912 30.7963 55.9451 27.5398 54.5046C26.4113 53.4857 22.4065 52.2279 25.6776 54.1633C28.6952 55.5624 31.0937 56.3961 34.0041 58.1535C36.0857 59.616 36.9851 61.3418 37.7749 61.6806C36.0248 62.5166 32.5002 61.0127 35.0937 60.552C33.4605 60.2546 31.6227 59.4308 33.1875 61.4636C34.5184 62.5751 37.8992 62.4581 38.5061 62.5849C37.9943 63.7159 37.1095 63.8036 38.5257 63.8938C36.9462 64.7372 39.0326 64.8688 39.1789 65.349L39.1984 65.3563ZM35.9663 56.2303C35.0035 55.2236 34.7548 53.3419 35.7957 54.9799C36.3319 55.1944 37.5019 58.0584 35.9663 56.2303ZM46.4963 62.8871C46.5133 63.3429 47.0959 62.8481 46.4963 62.8871V62.8871ZM34.455 53.7343C34.416 52.2133 34.8012 54.9043 34.455 53.7343V53.7343ZM33.4069 52.3279C32.1955 49.9879 34.9303 52.986 33.4069 52.3279V52.3279ZM20.727 43.5529C21.078 44.7668 21.4388 43.3628 20.727 43.5529V43.5529ZM30.8183 49.0226C31.257 47.3822 31.3058 50.3974 30.8183 49.0226V49.0226ZM23.6886 44.0648C23.1865 43.1629 24.7367 44.913 23.6886 44.0648V44.0648ZM29.8067 46.0245C28.6611 43.4578 30.6208 44.6229 30.0627 46.4438L29.8067 46.0245ZM19.2572 38.9899C18.7697 38.1465 17.8995 35.6749 18.1725 34.9193C18.4163 36.1478 20.7855 40.2086 19.3328 36.6255C17.7289 33.603 21.2511 37.6054 21.6143 38.361C21.7849 39.1093 20.6247 38.1563 21.4095 39.9161C19.9763 37.9125 20.5637 41.0228 19.2597 39.0143L19.2572 38.9899ZM15.9983 36.7425C16.1323 34.7828 16.7442 38.0831 15.9983 36.7425V36.7425ZM17.4657 37.2495C18.1652 35.7724 18.6503 39.3092 17.4657 37.2495V37.2495ZM13.9069 34.5683C12.693 33.3617 11.8155 32.2526 13.9654 33.8199C14.7942 33.8516 12.1251 31.2923 14.1653 33.0058C16.3103 33.3958 15.2232 36.5231 13.9093 34.5658L13.9069 34.5683ZM15.7594 34.5195C16.1348 35.2069 16.4663 33.8199 15.7594 34.5195V34.5195ZM16.9002 34.8851C15.8277 32.8815 18.1969 35.7261 16.9002 34.8851V34.8851ZM14.6333 32.7206C11.1038 29.5763 19.0695 34.3611 15.2085 33.3056L14.6333 32.7206ZM24.744 38.595C23.2157 37.6809 24.337 32.1503 24.8586 35.9308C26.3455 35.4506 24.7757 37.8857 25.8823 37.8613C25.7117 39.3969 25.212 39.9503 24.744 38.5926V38.595ZM28.4832 40.8058C28.6294 39.1386 28.8 41.9466 28.4832 40.8058V40.8058ZM27.8348 40.1623C27.8494 41.0008 28.0054 39.4506 27.8348 40.1623V40.1623ZM15.3499 31.6871C13.083 28.5598 21.9385 34.851 16.8027 32.4793C16.2664 32.3379 15.6205 32.2892 15.3499 31.6871ZM22.5527 35.5043C22.3382 32.8718 23.0305 35.943 22.5527 35.5043V35.5043ZM28.02 39.0143C28.0517 40.0063 28.4417 37.5152 28.02 39.0143V39.0143ZM15.6985 30.4928C17.0464 30.2051 21.3047 32.8571 17.3925 31.2484C16.9611 30.7706 16.0373 30.9876 15.6985 30.4928ZM27.2668 36.2599C27.4131 33.5664 28.0712 34.6511 27.2717 36.6499L27.2668 36.2599ZM16.7003 29.5568C17.2512 28.7524 15.2427 25.9176 16.9879 28.5403C17.7192 29.1399 19.1743 29.5446 17.9142 29.7981C19.9007 31.5531 17.4267 30.2734 16.7027 29.5543L16.7003 29.5568ZM26.694 35.4214C27.028 37.2178 27.0718 32.3501 26.694 35.4214V35.4214ZM15.5547 26.7244C15.774 27.285 15.9739 26.544 15.5547 26.7244V26.7244ZM18.1628 28.2771C18.8331 26.8682 19.401 29.8468 18.1628 28.2771V28.2771ZM25.5167 32.3672C25.5118 31.8309 25.6556 33.1545 25.5167 32.3672V32.3672ZM25.0902 31.4263C24.0713 28.9084 26.0652 32.7596 25.0902 31.4263V31.4263ZM24.4637 29.7737C24.2931 28.7329 25.0487 31.0802 24.4637 29.7737V29.7737ZM25.4826 28.1162C24.7806 26.8828 26.3674 22.6806 26.5453 25.2887C25.8068 27.3216 26.3333 28.4574 26.8451 25.7274C27.7958 23.5824 26.6404 29.9614 25.4802 28.1162H25.4826ZM26.5307 21.8616C26.599 22.3125 26.8354 21.4862 26.5307 21.8616V21.8616ZM24.7782 56.3546C24.3638 55.989 24.8318 56.5838 24.7782 56.3546V56.3546ZM28.3857 58.1779C30.3917 58.6946 30.3844 57.8659 28.5685 57.6173C27.5935 56.7105 24.5173 55.7477 27.2717 57.5051C27.4521 57.9926 28.0273 57.9561 28.3857 58.1754V58.1779ZM21.2682 53.4491C22.3723 54.2779 25.429 55.7843 22.8428 53.766C23.7154 52.752 21.1731 52.2109 22.014 51.5333C19.869 50.217 20.32 50.3145 21.8239 50.3803C19.245 49.2274 22.1968 49.3151 22.0579 48.7228C21.0634 48.5278 17.1195 46.9678 19.44 48.8496C17.0805 47.6479 18.8794 49.2981 18.1652 49.125C15.7277 48.4669 20.3102 50.9629 17.7825 50.3438C19.1646 51.4406 21.507 53.1542 18.3675 51.504C17.9531 52.0988 20.6149 53.0031 21.2925 53.454L21.2682 53.4491ZM25.039 55.6185C22.7892 53.8148 29.6215 57.0956 25.039 55.6185V55.6185ZM44.344 67.3136C43.7175 68.0936 44.4025 66.402 44.344 67.3136V67.3136ZM46.3281 68.1497C47.386 67.1259 46.372 69.7828 48.0831 67.8986C48.1002 66.5507 48.0343 65.7536 46.1185 67.3916C45.5895 67.6841 45.3555 68.9273 46.3305 68.1473L46.3281 68.1497ZM14.8283 48.3596C12.5517 47.0873 14.5041 47.0824 14.8283 48.3596V48.3596ZM16.9489 49.749C14.1409 48.5668 16.1616 48.4449 16.9489 49.749V49.749ZM29.0048 57.0201C30.1821 58.0682 34.4112 57.7879 30.4331 57.1493C29.8482 56.2791 26.6965 56.4911 29.0048 57.0201ZM45.5749 67.2576C43.8199 67.9352 47.386 65.7366 45.5749 67.2576V67.2576ZM49.3433 69.8462C48.5633 70.0583 49.3555 69.3587 49.3433 69.8462V69.8462ZM49.3506 69.1637C47.4079 69.2856 51.3567 67.0431 49.3506 69.1637V69.1637ZM9.6169 43.9965C7.91065 41.559 8.55415 40.4621 6.9064 38.4707C6.5944 36.9473 4.0789 33.4909 5.60478 37.1544C7.0039 39.2994 7.41828 42.6144 9.6169 44.0038V43.9965ZM48.7144 68.4836C47.2032 67.4453 52.4072 66.0998 48.7144 68.4836V68.4836ZM51.5322 69.5878C50.3622 69.2563 53.3847 68.0034 51.5322 69.5878V69.5878ZM14.1994 45.6662C12.8344 45.5638 14.7283 44.8789 14.1994 45.6662V45.6662ZM50.9447 68.8346C52.7338 67.6817 50.5303 67.8596 50.6205 68.9394L50.9447 68.8346ZM26.6623 53.5271C25.7166 53.5929 26.6014 52.7471 26.6623 53.5271V53.5271ZM28.1614 54.39C27.4301 54.5411 27.6836 53.4248 28.1614 54.39V54.39ZM53.8161 69.6122C56.1073 67.9547 52.4267 69.2953 53.3359 69.9291L53.8161 69.6122ZM52.9386 69.1881C50.9642 69.8803 54.8082 67.6232 52.9386 69.1881V69.1881ZM57.4236 72.174C55.9002 71.9059 58.6765 71.3355 57.4236 72.174V72.174ZM15.3523 45.0934C17.0342 45.4688 22.0677 49.2323 19.0988 45.3542C17.5778 44.9033 18.4894 41.1861 16.9367 41.8442C17.9775 43.5846 17.7898 44.3256 15.6058 43.2287C12.8588 41.8881 14.0629 43.8917 14.5992 44.4474C13.8679 44.6181 15.5668 45.0812 15.3548 45.0958L15.3523 45.0934ZM7.69859 39.0484C7.9984 37.8053 4.92715 32.199 6.24828 36.2404C6.72359 37.0862 6.67484 38.6901 7.69859 39.0484ZM21.7532 47.7137C20.8855 46.9898 21.7118 47.6113 21.7532 47.7137V47.7137ZM23.8836 48.2109C21.529 47.6747 23.8836 46.8947 23.8836 48.2109V48.2109ZM42.3525 59.8524C40.9632 59.8329 41.9991 58.9506 42.3525 59.8524V59.8524ZM43.2398 60.5008C42.7523 60.5983 43.1082 59.9963 43.2398 60.5008V60.5008ZM50.5596 65.1126C49.6821 65.0443 51.2665 64.5934 50.5596 65.1126V65.1126ZM11.5182 40.0283C9.36096 39.4725 13.5315 39.2483 11.5182 40.0283V40.0283ZM40.7194 58.4265C39.4348 58.7507 40.695 57.1224 40.7194 58.4265V58.4265ZM10.7211 38.1709C9.52671 37.8833 12.013 37.7321 10.7211 38.1709V38.1709ZM14.4748 39.9893C14.0775 40.1526 14.4505 39.5603 14.4748 39.9893V39.9893ZM60.2706 68.0693C61.933 67.7329 65.7257 68.9151 66.34 67.6305C64.3168 67.5818 59.3517 66.2046 59.1177 67.9571L59.5564 68.0303L60.2706 68.0741V68.0693ZM15.6692 40.2915C14.6406 40.2428 15.6985 38.9704 15.6692 40.2915V40.2915ZM5.79734 33.4421C4.09109 33.0619 5.34884 30.9266 5.79734 33.4421V33.4421ZM8.14953 34.0344C5.99478 33.3081 8.17878 33.2252 8.14953 34.0344V34.0344ZM9.49503 34.6926C9.10503 34.3757 9.19278 35.0899 9.49503 34.6926V34.6926ZM17.9605 40.1209C17.0172 39.8528 18.3602 39.7553 17.9605 40.1209V40.1209ZM8.60046 33.1984C5.87046 32.9132 8.37134 31.2971 8.60046 33.1984V33.1984ZM3.77421 30.0662C3.30378 30.3977 3.70596 29.1887 3.77421 30.0662V30.0662ZM4.49328 29.5251C3.87659 29.6567 4.37628 28.4843 4.49328 29.5251V29.5251ZM8.45909 31.8894C10.1361 31.2313 5.4049 30.5244 8.11784 31.7676L8.45909 31.8894ZM61.543 64.6909C60.178 64.3862 62.6155 63.7061 61.543 64.6909V64.6909ZM67.9536 68.0132C66.8689 68.1838 68.385 66.7457 67.9536 68.0132V68.0132ZM8.86128 29.8224C7.5304 30.0662 9.03921 28.5915 8.86128 29.8224V29.8224ZM3.21603 26.0443C2.91865 24.3015 2.96253 21.2546 5.85828 22.2833C1.98996 23.0535 8.53953 27.0949 7.71078 23.9018C9.33903 23.9822 10.8942 22.9389 10.0386 24.5184C13.2488 24.1699 15.4669 21.3863 18.5674 21.7787C21.0049 21.4569 23.6179 21.2181 26.2212 20.2431C28.3588 20.0895 30.4137 17.7885 29.2437 16.4235C26.3284 16.1798 23.2767 16.5405 20.0543 17.184C16.4833 17.925 13.2415 19.3363 9.63884 19.9384C6.12884 20.4113 10.3457 21.2376 9.33903 21.4253C7.5109 22.059 11.5255 22.488 9.10259 23.1608C7.60596 22.8756 6.0484 22.3613 6.68946 20.7842C3.32571 21.2229 0.369025 22.6172 3.02834 26.0394L3.22334 26.0419L3.21603 26.0443ZM11.328 21.9371C12.1153 19.0316 15.5522 24.3259 12.6199 22.3271C12.2713 22.0639 11.6937 21.8518 11.328 21.9371ZM11.4816 20.5283C12.0861 21.0036 12.6199 19.6824 11.4816 20.5283V20.5283ZM12.927 20.5526C13.0318 19.2169 16.2372 21.2839 13.456 21.0328L12.927 20.5526ZM14.9014 19.758C15.111 20.5063 15.6253 18.9122 14.9014 19.758V19.758ZM15.4084 19.4168C16.6125 17.9713 22.2163 18.4905 18.0897 19.2754C16.9928 18.4466 16.147 19.7629 15.4084 19.4168ZM22.7209 18.2882C22.5405 14.3394 26.3577 19.6898 22.7209 18.2882V18.2882ZM24.7977 18.276C25.5533 16.287 27.747 17.4765 25.1511 17.8763C25.2072 18.0883 25.0731 18.9049 24.7977 18.276ZM8.04471 28.8231C5.6389 27.6189 10.3116 27.4337 8.04471 28.8231V28.8231ZM9.72171 29.3106C8.01546 28.9693 10.5163 28.4648 9.72171 29.3106V29.3106ZM4.78334 25.764C3.24771 25.3862 6.07521 24.7646 4.78334 25.764V25.764ZM71.7415 67.6524C70.7518 68.1716 71.778 66.4971 71.7415 67.6524V67.6524ZM64.9408 63.009C64.0633 63.1236 65.1358 61.6806 64.9408 63.009V63.009ZM73.6183 68.1034C75.4294 68.1107 79.1076 67.5428 75.1662 67.5428C74.547 67.6403 71.5586 67.6159 73.6183 68.1034ZM11.2013 28.4526C12.6687 28.3551 13.4925 26.8365 10.9161 26.9218C6.91859 26.5074 14.4407 28.2917 10.4286 27.7798C9.88746 28.1381 11.194 28.5501 11.2257 28.4501L11.2013 28.4526ZM12.4932 29.1058C12.0398 29.6055 12.3396 28.1649 12.4932 29.1058V29.1058ZM14.0288 25.0206C13.1513 24.8085 14.6625 24.2308 14.0288 25.0206V25.0206ZM9.15378 16.8696C11.7717 15.9799 15.3499 14.9805 16.5882 17.3083C15.3304 15.7971 16.0812 14.3053 17.2707 16.5186C18.9525 18.7562 19.791 15.4997 18.699 14.7489C19.9422 16.2943 21.3559 17.0256 19.5327 14.8464C21.5192 12.4577 15.5595 15.1584 14.2043 15.1316C13.5535 15.4241 7.47678 16.6819 9.15865 16.8696H9.15378ZM10.6894 13.9324C12.1812 12.8063 15.852 14.6027 13.4974 12.8111C13.2658 12.6088 8.34209 14.1688 10.6894 13.9324ZM16.1299 14.1566C17.8752 14.2005 15.3743 11.8093 17.4559 12.894C17.1147 11.7776 15.033 11.5704 14.0142 11.1219C13.4389 12.1408 15.1842 14.1688 16.1275 14.1566H16.1299ZM11.6449 9.21826C10.5846 9.63263 12.2494 8.39926 11.6449 9.21826V9.21826ZM13.8582 9.74963C16.6735 9.37669 13.1415 8.53819 13.2902 9.72038L13.8582 9.74963ZM9.70465 6.50776C7.72296 3.91913 13.434 6.94163 11.4182 4.23357C9.72171 2.88563 8.0959 5.75457 9.70465 6.50776ZM35.1375 20.2065C36.0467 18.5978 31.3838 18.0371 34.5282 19.6361C34.8158 19.7336 34.7524 20.3186 35.1375 20.2065Z" fill="#F8F6F1"/>
</g>
<defs>
<clipPath id="clip0_1333_2712">
<rect width="78" height="78" fill="white" transform="translate(0.5)"/>
</clipPath>
</defs>
</svg>
