<svg width="79" height="78" viewBox="0 0 79 78" fill="none" xmlns="http://www.w3.org/2000/svg">
<g clipPath="url(#clip0_1333_2714)">
<mask id="mask0_1333_2714" style="mask-type:luminance" maskUnits="userSpaceOnUse" x="0" y="0" width="79" height="78">
<path d="M78.5 0H0.5V78H78.5V0Z" fill="white"/>
</mask>
<g mask="url(#mask0_1333_2714)">
<path d="M71.4308 4.10014C70.3384 6.71945 68.9397 9.20021 67.2639 11.4906C63.6057 7.81714 59.2537 4.90752 54.4609 2.93095C49.6682 0.95438 44.5303 -0.0497009 39.3461 -0.0229154C34.1618 0.00387014 29.0346 1.06099 24.2625 3.08698C19.4905 5.11296 15.1688 8.0674 11.5487 11.7785C7.92863 15.4896 5.08242 19.8833 3.17555 24.7042C1.26868 29.5251 0.339205 34.677 0.441159 39.8603C0.543113 45.0437 1.67446 50.155 3.76943 54.8972C5.8644 59.6394 8.88119 63.9178 12.6444 67.4837L14.0898 68.7597C19.6058 73.4074 26.2999 76.4387 33.4316 77.5182C40.5634 78.5976 47.8547 77.6832 54.499 74.876C61.1433 72.0688 66.8815 67.4782 71.0788 61.6123C75.2761 55.7463 77.7689 48.8336 78.2814 41.6389C79.3478 31.6817 76.424 19.0798 71.432 4.10136L71.4308 4.10014ZM18.208 67.7104C17.7918 68.2246 17.2324 68.6039 16.6005 68.8002C15.9687 68.9965 15.2928 69.0009 14.6585 68.813C14.0241 68.6251 13.4598 68.2532 13.0368 67.7444C12.6138 67.2357 12.3513 66.6129 12.2824 65.9549C12.2134 65.2969 12.3412 64.6332 12.6496 64.0478C12.958 63.4625 13.433 62.9817 14.0147 62.6664C14.5963 62.3511 15.2584 62.2155 15.9172 62.2765C16.576 62.3376 17.2019 62.5928 17.7156 63.0096C18.4038 63.568 18.8421 64.3767 18.9345 65.2581C19.0268 66.1395 18.7655 67.0215 18.208 67.7104ZM71.2699 55.9982C61.6174 68.856 41.0084 64.5172 27.7947 65.1412C27.7947 65.1412 25.4522 65.279 23.094 65.6653C23.094 65.6653 23.9836 65.2875 25.1207 64.8573C34.4003 61.6276 38.7866 61.006 44.4233 58.1054C55.0362 52.71 65.5345 40.8942 67.716 28.6116C63.6783 40.4274 51.4177 50.5881 40.2576 54.7148C32.6087 57.5338 18.7906 60.2796 18.7906 60.2796L18.2336 59.981C8.83215 55.4107 8.54208 35.0491 25.6399 28.4825C33.1267 25.5989 40.2893 27.182 48.3745 25.2528C57.0081 23.2016 66.997 16.7337 71.0615 8.29264C75.6075 21.7964 81.0845 42.932 71.2638 56.0067L71.2699 55.9982Z" fill="#68BD45"/>
</g>
</g>
<defs>
<clipPath id="clip0_1333_2714">
<rect width="78" height="78" fill="white" transform="translate(0.5)"/>
</clipPath>
</defs>
</svg>
