<svg width="70" height="78" viewBox="0 0 70 78" fill="none" xmlns="http://www.w3.org/2000/svg">
<g clipPath="url(#clip0_1333_2754)">
<mask id="mask0_1333_2754" style="mask-type:luminance" maskUnits="userSpaceOnUse" x="0" y="0" width="69" height="78">
<path d="M68.9958 0H0.542969V78H68.9958V0Z" fill="white"/>
</mask>
<g mask="url(#mask0_1333_2754)">
<path d="M68.9958 39.0066C68.9958 34.4719 63.317 30.1744 54.6104 27.5094C56.6196 18.6354 55.7266 11.5752 51.7919 9.31484C50.885 8.78464 49.8245 8.53348 48.6665 8.53348V11.645C49.3083 11.645 49.8245 11.7706 50.2571 12.0077C52.1547 13.0961 52.9779 17.2401 52.3361 22.5701C52.1826 23.8816 51.9314 25.263 51.6245 26.6722C48.8897 26.0025 45.9038 25.4862 42.7644 25.1514C40.8808 22.5701 38.9274 20.226 36.96 18.1749C41.5086 13.9472 45.7782 11.631 48.6804 11.631V8.51953C44.8434 8.51953 39.8203 11.2543 34.7415 15.9983C29.6626 11.2822 24.6396 8.57534 20.8026 8.57534V11.6868C23.6908 11.6868 27.9743 13.9891 32.523 18.1889C30.5696 20.2399 28.6162 22.5701 26.7605 25.1514C23.6071 25.4862 20.6212 26.0025 17.8864 26.6862C17.5655 25.2909 17.3283 23.9375 17.1609 22.6398C16.5051 17.3098 17.3144 13.1658 19.198 12.0636C19.6166 11.8124 20.1607 11.7008 20.8026 11.7008V8.5893C19.6305 8.5893 18.5701 8.84045 17.6492 9.37066C13.7285 11.631 12.8494 18.6772 14.8726 27.5233C6.19388 30.2023 0.542969 34.4858 0.542969 39.0066C0.542969 43.5412 6.22179 47.8387 14.9284 50.5037C12.9192 59.3778 13.8122 66.4379 17.7469 68.6983C18.6538 69.2285 19.7142 69.4796 20.8863 69.4796C24.7233 69.4796 29.7464 66.7449 34.8252 62.0009C39.9041 66.717 44.9271 69.4238 48.7641 69.4238C49.9362 69.4238 50.9966 69.1727 51.9175 68.6425C55.8382 66.3821 56.7173 59.3359 54.6941 50.4898C63.3449 47.8248 68.9958 43.5273 68.9958 39.0066ZM50.8292 29.7C50.3129 31.4999 49.6711 33.3556 48.9455 35.2114C48.3734 34.0951 47.7735 32.9789 47.1177 31.8627C46.4759 30.7465 45.7922 29.6581 45.1085 28.5977C47.0898 28.8907 49.0013 29.2535 50.8292 29.7ZM44.4387 44.5598C43.3504 46.4434 42.2342 48.2294 41.0761 49.8898C38.9971 50.0712 36.8902 50.1689 34.7694 50.1689C32.6625 50.1689 30.5556 50.0712 28.4906 49.9038C27.3325 48.2434 26.2023 46.4713 25.114 44.6017C24.0536 42.7738 23.0908 40.9181 22.2118 39.0484C23.0769 37.1787 24.0536 35.309 25.1001 33.4812C26.1884 31.5976 27.3046 29.8116 28.4627 28.1512C30.5417 27.9698 32.6486 27.8722 34.7694 27.8722C36.8763 27.8722 38.9832 27.9698 41.0482 28.1373C42.2063 29.7977 43.3365 31.5697 44.4248 33.4394C45.4852 35.2672 46.448 37.1229 47.327 38.9926C46.448 40.8623 45.4852 42.732 44.4387 44.5598ZM48.9455 42.7459C49.699 44.6156 50.3408 46.4853 50.871 48.2992C49.0432 48.7457 47.1177 49.1224 45.1224 49.4154C45.8061 48.341 46.4898 47.2388 47.1316 46.1086C47.7735 44.9923 48.3734 43.8622 48.9455 42.7459ZM34.7973 57.6336C33.4997 56.2942 32.2021 54.8012 30.9184 53.1687C32.1742 53.2245 33.4578 53.2664 34.7554 53.2664C36.067 53.2664 37.3646 53.2385 38.6343 53.1687C37.3786 54.8012 36.081 56.2942 34.7973 57.6336ZM24.4164 49.4154C22.4351 49.1224 20.5235 48.7596 18.6957 48.3131C19.2119 46.5132 19.8538 44.6575 20.5793 42.8017C21.1514 43.918 21.7514 45.0342 22.4072 46.1504C23.0629 47.2667 23.7327 48.355 24.4164 49.4154ZM34.7275 20.3795C36.0252 21.7189 37.3228 23.2119 38.6064 24.8444C37.3507 24.7886 36.067 24.7467 34.7694 24.7467C33.4578 24.7467 32.1602 24.7746 30.8905 24.8444C32.1463 23.2119 33.4439 21.7189 34.7275 20.3795ZM24.4024 28.5977C23.7187 29.6721 23.035 30.7744 22.3932 31.9045C21.7514 33.0208 21.1514 34.137 20.5793 35.2532C19.8259 33.3836 19.184 31.5139 18.6538 29.7C20.4817 29.2675 22.4072 28.8907 24.4024 28.5977ZM11.7751 46.0667C6.83572 43.9598 3.64051 41.1972 3.64051 39.0066C3.64051 36.816 6.83572 34.0393 11.7751 31.9464C12.975 31.4301 14.2866 30.9697 15.64 30.5372C16.4353 33.2719 17.4818 36.1183 18.7794 39.0345C17.4957 41.9367 16.4632 44.7691 15.6819 47.4899C14.3005 47.0574 12.989 46.583 11.7751 46.0667ZM19.2817 66.0054C17.3841 64.917 16.5609 60.773 17.2027 55.443C17.3562 54.1315 17.6074 52.7501 17.9143 51.3409C20.6491 52.0106 23.635 52.5269 26.7744 52.8618C28.658 55.443 30.6114 57.7871 32.5788 59.8382C28.0302 64.0659 23.7606 66.3821 20.8584 66.3821C20.2305 66.3681 19.7003 66.2426 19.2817 66.0054ZM52.3779 55.3733C53.0337 60.7033 52.2244 64.8473 50.3408 65.9496C49.9222 66.2007 49.3781 66.3123 48.7362 66.3123C45.848 66.3123 41.5645 64.0101 37.0158 59.8103C38.9692 57.7592 40.9226 55.4291 42.7784 52.8478C45.9317 52.5129 48.9176 51.9967 51.6524 51.313C51.9733 52.7222 52.2244 54.0757 52.3779 55.3733ZM57.7498 46.0667C56.5498 46.583 55.2383 47.0434 53.8848 47.476C53.0895 44.7412 52.0431 41.8948 50.7454 38.9787C52.0291 36.0765 53.0616 33.244 53.843 30.5232C55.2243 30.9558 56.5359 31.4301 57.7637 31.9464C62.703 34.0533 65.8983 36.816 65.8983 39.0066C65.8843 41.1972 62.6891 43.9738 57.7498 46.0667Z" fill="#61DAFB"/>
<path d="M34.7554 45.3838C38.277 45.3838 41.1319 42.5289 41.1319 39.0073C41.1319 35.4857 38.277 32.6309 34.7554 32.6309C31.2338 32.6309 28.3789 35.4857 28.3789 39.0073C28.3789 42.5289 31.2338 45.3838 34.7554 45.3838Z" fill="#61DAFB"/>
</g>
</g>
<defs>
<clipPath id="clip0_1333_2754">
<rect width="69" height="78" fill="white" transform="translate(0.542969)"/>
</clipPath>
</defs>
</svg>
