<svg width="50" height="51" viewBox="0 0 50 51" fill="none" xmlns="http://www.w3.org/2000/svg">
<path d="M50 15.8004V0H0V50.023H6.57774V43.1233C6.37074 32.6127 6.43974 21.8721 15.7774 14.2824C20.0165 10.8148 25.2971 8.87105 30.7728 8.76265V11.0626C25.8294 11.1864 21.0693 12.9593 17.2493 16.0994C8.53266 23.2291 8.76265 33.3947 8.99264 44.1582C8.99264 45.8908 8.99264 47.6158 8.99264 49.333V49.954H13.7994V43.0543V36.7985C13.7994 36.1086 13.7994 35.4186 13.7994 34.7286C13.5202 32.0616 13.8424 29.366 14.7424 26.8399C16.0271 24.0796 18.0088 21.7016 20.4922 19.9402C23.547 17.6566 27.2359 16.3787 31.0488 16.2833V18.1693C27.6849 18.3095 24.4403 19.4551 21.7341 21.4581C19.5232 23.0281 17.7563 25.1436 16.6053 27.5989C15.8339 29.8834 15.5595 32.3064 15.8004 34.7056C15.8004 35.4186 15.8004 36.1316 15.8004 36.8445V50.023H20.9292C20.9292 48.781 20.9292 47.5621 20.9292 46.3201C20.9292 43.4453 20.9292 40.4554 20.9292 37.5345V37.2585C20.6992 33.7626 20.6992 29.8988 23.3901 26.9319C25.3509 24.9804 27.9842 23.853 30.7498 23.781V25.69C28.4802 25.7521 26.3186 26.6726 24.701 28.2659C22.4011 30.5658 22.6081 33.9236 22.7231 37.1895V37.4655C22.8381 40.4094 22.7231 43.4223 22.7231 46.3431C22.7231 47.5621 22.7231 48.781 22.7231 50.023H50V18.2153H40.5474V27.9439H38.2475V26.173H34.4986V23.873H38.2245V18.2153H34.4986V15.9154H38.2245V11.3155H34.4986V9.01564H38.2245V7.3827H40.5244V15.8004H50Z" fill="#E03F3F"/>
</svg>
