<svg width="50" height="51" viewBox="0 0 50 51" fill="none" xmlns="http://www.w3.org/2000/svg">
<path d="M43.481 42.6924V45.2662H40.9072" stroke="#5D6DFD" stroke-width="2.77968" stroke-miterlimit="10"/>
<path d="M36.12 45.2666H9.79883" stroke="#5D6DFD" stroke-width="2.77968" stroke-miterlimit="10" stroke-dasharray="7.76 7.76"/>
<path d="M7.4146 45.2662H4.84082V42.6924" stroke="#5D6DFD" stroke-width="2.77968" stroke-miterlimit="10"/>
<path d="M4.84082 37.9062V11.585" stroke="#5D6DFD" stroke-width="2.77968" stroke-miterlimit="10" stroke-dasharray="7.76 7.76"/>
<path d="M4.84082 9.19878V6.625H7.4146" stroke="#5D6DFD" stroke-width="2.77968" stroke-miterlimit="10"/>
<path d="M12.1826 6.625H38.5038" stroke="#5D6DFD" stroke-width="2.77968" stroke-miterlimit="10" stroke-dasharray="7.76 7.76"/>
<path d="M40.9072 6.625H43.481V9.19878" stroke="#5D6DFD" stroke-width="2.77968" stroke-miterlimit="10"/>
<path d="M43.4805 13.9854V40.2894" stroke="#5D6DFD" stroke-width="2.77968" stroke-miterlimit="10" stroke-dasharray="7.76 7.76"/>
<path d="M24.1607 16.6631H24.1435C19.0263 16.6631 14.8779 20.8114 14.8779 25.9287V25.9459C14.8779 31.0631 19.0263 35.2115 24.1435 35.2115H24.1607C29.278 35.2115 33.4263 31.0631 33.4263 25.9459V25.9287C33.4263 20.8114 29.278 16.6631 24.1607 16.6631Z" stroke="white" stroke-width="2.77968" stroke-miterlimit="10"/>
<path d="M10.125 1.75195H0.859375V11.0176H10.125V1.75195Z" stroke="#5D6DFD" stroke-width="2.77968" stroke-miterlimit="10"/>
<path d="M49.1445 1.99121H39.8789V11.2568H49.1445V1.99121Z" stroke="#5D6DFD" stroke-width="2.77968" stroke-miterlimit="10"/>
<path d="M10.125 40.5127H0.859375V49.7783H10.125V40.5127Z" stroke="#5D6DFD" stroke-width="2.77968" stroke-miterlimit="10"/>
<path d="M49.1445 40.7354H39.8789V50.001H49.1445V40.7354Z" stroke="#5D6DFD" stroke-width="2.77968" stroke-miterlimit="10"/>
</svg>
