<svg width="372" height="597" viewBox="0 0 372 597" fill="none" xmlns="http://www.w3.org/2000/svg">
<path d="M251.793 35.7109H235.576V51.9321H251.793V35.7109Z" stroke="white" stroke-width="1.67359" stroke-miterlimit="10"/>
<path d="M287.886 7.98242H271.669V24.2035H287.886V7.98242Z" stroke="white" stroke-width="1.67359" stroke-miterlimit="10"/>
<path d="M110.025 35.7109H93.8076V51.9321H110.025V35.7109Z" stroke="white" stroke-width="1.67359" stroke-miterlimit="10"/>
<path d="M72.8957 67.1035H56.6787V83.3246H72.8957V67.1035Z" stroke="white" stroke-width="1.67359" stroke-miterlimit="10"/>
<path d="M72.8957 98.4951H56.6787V114.716H72.8957V98.4951Z" stroke="white" stroke-width="1.67359" stroke-miterlimit="10"/>
<path d="M144.034 98.4951H127.817V114.716H144.034V98.4951Z" stroke="white" stroke-width="1.67359" stroke-miterlimit="10"/>
<path d="M183.038 98.4951H166.821V114.716H183.038V98.4951Z" stroke="white" stroke-width="1.67359" stroke-miterlimit="10"/>
<path d="M218.542 106.605L207.075 95.1348L195.608 106.605L207.075 118.075L218.542 106.605Z" stroke="white" stroke-width="1.67359" stroke-miterlimit="10"/>
<path d="M184.017 174.629L172.55 163.159L161.083 174.629L172.55 186.099L184.017 174.629Z" stroke="white" stroke-width="1.67359" stroke-miterlimit="10"/>
<path d="M113.382 240.028L101.915 228.558L90.4479 240.028L101.915 251.498L113.382 240.028Z" stroke="white" stroke-width="1.67359" stroke-miterlimit="10"/>
<path d="M76.2591 307.531L64.792 296.061L53.3249 307.531L64.792 319.001L76.2591 307.531Z" stroke="white" stroke-width="1.67359" stroke-miterlimit="10"/>
<path d="M113.386 521.096L101.919 509.626L90.4518 521.096L101.919 532.566L113.386 521.096Z" stroke="white" stroke-width="1.67359" stroke-miterlimit="10"/>
<path d="M289.676 275.096L278.209 263.626L266.742 275.096L278.209 286.566L289.676 275.096Z" stroke="white" stroke-width="1.67359" stroke-miterlimit="10"/>
<path d="M251.793 98.4951H235.576V114.716H251.793V98.4951Z" stroke="white" stroke-width="1.67359" stroke-miterlimit="10"/>
<path d="M253.876 67.1035H237.659V83.3246H253.876V67.1035Z" stroke="white" stroke-width="1.67359" stroke-miterlimit="10"/>
<path d="M289.971 98.4951H273.754V114.716H289.971V98.4951Z" stroke="white" stroke-width="1.67359" stroke-miterlimit="10"/>
<path d="M322.931 131.464H306.714V147.685H322.931V131.464Z" stroke="white" stroke-width="1.67359" stroke-miterlimit="10"/>
<path d="M250.216 131.464H233.999V147.685H250.216V131.464Z" stroke="white" stroke-width="1.67359" stroke-miterlimit="10"/>
<path d="M215.173 131.464H198.956V147.685H215.173V131.464Z" stroke="white" stroke-width="1.67359" stroke-miterlimit="10"/>
<path d="M180.653 131.464H164.437V147.685H180.653V131.464Z" stroke="white" stroke-width="1.67359" stroke-miterlimit="10"/>
<path d="M146.119 131.464H129.902V147.685H146.119V131.464Z" stroke="white" stroke-width="1.67359" stroke-miterlimit="10"/>
<path d="M322.931 231.926H306.714V248.147H322.931V231.926Z" stroke="white" stroke-width="1.67359" stroke-miterlimit="10"/>
<path d="M322.931 266.979H306.714V283.201H322.931V266.979Z" stroke="white" stroke-width="1.67359" stroke-miterlimit="10"/>
<path d="M322.931 299.421H306.714V315.642H322.931V299.421Z" stroke="white" stroke-width="1.67359" stroke-miterlimit="10"/>
<path d="M286.311 330.288H270.094V346.509H286.311V330.288Z" stroke="white" stroke-width="1.67359" stroke-miterlimit="10"/>
<path d="M180.653 296.06H164.437V312.281H180.653V296.06Z" stroke="white" stroke-width="1.67359" stroke-miterlimit="10"/>
<path d="M109.02 565.411H92.8027V581.632H109.02V565.411Z" stroke="white" stroke-width="1.67359" stroke-miterlimit="10"/>
<path d="M110.025 460.566H93.8076V476.788H110.025V460.566Z" stroke="white" stroke-width="1.67359" stroke-miterlimit="10"/>
<path d="M287.886 231.926H271.669V248.147H287.886V231.926Z" stroke="white" stroke-width="1.67359" stroke-miterlimit="10"/>
<path d="M253.353 231.926H237.136V248.147H253.353V231.926Z" stroke="white" stroke-width="1.67359" stroke-miterlimit="10"/>
<path d="M218.831 231.926H202.614V248.147H218.831V231.926Z" stroke="white" stroke-width="1.67359" stroke-miterlimit="10"/>
<path d="M251.793 268.766H235.576V284.987H251.793V268.766Z" stroke="white" stroke-width="1.67359" stroke-miterlimit="10"/>
<path d="M72.8957 166.516H56.6787V182.737H72.8957V166.516Z" stroke="white" stroke-width="1.67359" stroke-miterlimit="10"/>
<path d="M110.025 164.43H93.8076V180.651H110.025V164.43Z" stroke="white" stroke-width="1.67359" stroke-miterlimit="10"/>
<path d="M72.8957 201.314H56.6787V217.536H72.8957V201.314Z" stroke="white" stroke-width="1.67359" stroke-miterlimit="10"/>
<path d="M110.025 199.229H93.8076V215.45H110.025V199.229Z" stroke="white" stroke-width="1.67359" stroke-miterlimit="10"/>
<path d="M144.034 166.516H127.817V182.737H144.034V166.516Z" stroke="white" stroke-width="1.67359" stroke-miterlimit="10"/>
<path d="M180.653 199.229H164.437V215.45H180.653V199.229Z" stroke="white" stroke-width="1.67359" stroke-miterlimit="10"/>
<path d="M180.653 266.979H164.437V283.201H180.653V266.979Z" stroke="white" stroke-width="1.67359" stroke-miterlimit="10"/>
<path d="M215.173 199.229H198.956V215.45H215.173V199.229Z" stroke="white" stroke-width="1.67359" stroke-miterlimit="10"/>
<path d="M286.311 201.314H270.094V217.536H286.311V201.314Z" stroke="white" stroke-width="1.67359" stroke-miterlimit="10"/>
<path d="M326.297 174.633L314.83 163.163L303.363 174.633L314.83 186.103L326.297 174.633Z" stroke="white" stroke-width="1.67359" stroke-miterlimit="10"/>
<path d="M215.173 166.516H198.956V182.737H215.173V166.516Z" stroke="white" stroke-width="1.67359" stroke-miterlimit="10"/>
<path d="M252.317 164.43H236.1V180.651H252.317V164.43Z" stroke="white" stroke-width="1.67359" stroke-miterlimit="10"/>
<path d="M286.311 166.516H270.094V182.737H286.311V166.516Z" stroke="white" stroke-width="1.67359" stroke-miterlimit="10"/>
<path d="M242.355 201.733L246.916 209.641L251.477 217.534H242.355H233.234L237.795 209.641L242.355 201.733Z" stroke="white" stroke-width="1.7238" stroke-miterlimit="10"/>
<path d="M101.924 268.975L106.484 276.868L111.045 284.776H101.924H92.8027L97.3633 276.868L101.924 268.975Z" stroke="white" stroke-width="1.7238" stroke-miterlimit="10"/>
<path d="M279.771 460.777L284.332 468.685L288.893 476.578H279.771H270.65L275.211 468.685L279.771 460.777Z" stroke="white" stroke-width="1.7238" stroke-miterlimit="10"/>
<path d="M277.564 513.206L282.125 521.099L286.686 529.007H277.564H268.443L273.004 521.099L277.564 513.206Z" stroke="white" stroke-width="1.7238" stroke-miterlimit="10"/>
<path d="M278.195 565.382L282.756 573.29L287.316 581.183H278.195H269.074L273.635 573.29L278.195 565.382Z" stroke="white" stroke-width="1.7238" stroke-miterlimit="10"/>
<path d="M118.066 154.316V156.567H115.815" stroke="#5D6DFD" stroke-width="1.67359" stroke-miterlimit="10"/>
<path d="M111.63 156.567H88.6318" stroke="#5D6DFD" stroke-width="1.67359" stroke-miterlimit="10" stroke-dasharray="4.67 4.67"/>
<path d="M86.5315 156.567H84.2812V154.316" stroke="#5D6DFD" stroke-width="1.67359" stroke-miterlimit="10"/>
<path d="M84.2812 150.144V127.125" stroke="#5D6DFD" stroke-width="1.67359" stroke-miterlimit="10" stroke-dasharray="4.67 4.67"/>
<path d="M84.2812 125.04V122.789H86.5315" stroke="#5D6DFD" stroke-width="1.67359" stroke-miterlimit="10"/>
<path d="M90.7168 122.775H113.73" stroke="#5D6DFD" stroke-width="1.67359" stroke-miterlimit="10" stroke-dasharray="4.67 4.67"/>
<path d="M115.815 122.789H118.066V125.04" stroke="#5D6DFD" stroke-width="1.67359" stroke-miterlimit="10"/>
<path d="M118.065 129.213V152.232" stroke="#5D6DFD" stroke-width="1.67359" stroke-miterlimit="10" stroke-dasharray="4.67 4.67"/>
<path d="M101.188 131.567H101.173C96.6992 131.567 93.0723 135.195 93.0723 139.67V139.685C93.0723 144.161 96.6992 147.788 101.173 147.788H101.188C105.662 147.788 109.289 144.161 109.289 139.685V139.67C109.289 135.195 105.662 131.567 101.188 131.567Z" stroke="#E03F3F" stroke-width="1.67359" stroke-miterlimit="10"/>
<path d="M88.9174 118.528H80.8164V126.631H88.9174V118.528Z" stroke="#5D6DFD" stroke-width="1.67359" stroke-miterlimit="10"/>
<path d="M123.016 118.723H114.915V126.826H123.016V118.723Z" stroke="#5D6DFD" stroke-width="1.67359" stroke-miterlimit="10"/>
<path d="M88.9174 152.411H80.8164V160.514H88.9174V152.411Z" stroke="#5D6DFD" stroke-width="1.67359" stroke-miterlimit="10"/>
<path d="M123.016 152.62H114.915V160.723H123.016V152.62Z" stroke="#5D6DFD" stroke-width="1.67359" stroke-miterlimit="10"/>
<path d="M328.946 222.037V224.288H326.695" stroke="#5D6DFD" stroke-width="1.67359" stroke-miterlimit="10"/>
<path d="M322.51 224.288H299.497" stroke="#5D6DFD" stroke-width="1.67359" stroke-miterlimit="10" stroke-dasharray="4.67 4.67"/>
<path d="M297.413 224.288H295.163V222.037" stroke="#5D6DFD" stroke-width="1.67359" stroke-miterlimit="10"/>
<path d="M295.163 217.85V194.831" stroke="#5D6DFD" stroke-width="1.67359" stroke-miterlimit="10" stroke-dasharray="4.67 4.67"/>
<path d="M295.163 192.746V190.495H297.413" stroke="#5D6DFD" stroke-width="1.67359" stroke-miterlimit="10"/>
<path d="M301.598 190.495H324.595" stroke="#5D6DFD" stroke-width="1.67359" stroke-miterlimit="10" stroke-dasharray="4.67 4.67"/>
<path d="M326.695 190.495H328.946V192.746" stroke="#5D6DFD" stroke-width="1.67359" stroke-miterlimit="10"/>
<path d="M328.946 196.916V219.935" stroke="#5D6DFD" stroke-width="1.67359" stroke-miterlimit="10" stroke-dasharray="4.67 4.67"/>
<path d="M312.053 199.272H312.038C307.564 199.272 303.938 202.9 303.938 207.376V207.391C303.938 211.866 307.564 215.494 312.038 215.494H312.053C316.528 215.494 320.154 211.866 320.154 207.391V207.376C320.154 202.9 316.528 199.272 312.053 199.272Z" stroke="#E03F3F" stroke-width="1.67359" stroke-miterlimit="10"/>
<path d="M299.783 186.233H291.682V194.336H299.783V186.233Z" stroke="#5D6DFD" stroke-width="1.67359" stroke-miterlimit="10"/>
<path d="M333.896 186.429H325.795V194.532H333.896V186.429Z" stroke="#5D6DFD" stroke-width="1.67359" stroke-miterlimit="10"/>
<path d="M299.783 220.131H291.682V228.234H299.783V220.131Z" stroke="#5D6DFD" stroke-width="1.67359" stroke-miterlimit="10"/>
<path d="M333.896 220.327H325.795V228.43H333.896V220.327Z" stroke="#5D6DFD" stroke-width="1.67359" stroke-miterlimit="10"/>
<path d="M207.236 491.539V493.79H204.985" stroke="#5D6DFD" stroke-width="1.67359" stroke-miterlimit="10"/>
<path d="M200.8 493.789H177.802" stroke="#5D6DFD" stroke-width="1.67359" stroke-miterlimit="10" stroke-dasharray="4.67 4.67"/>
<path d="M175.702 493.79H173.452V491.539" stroke="#5D6DFD" stroke-width="1.67359" stroke-miterlimit="10"/>
<path d="M173.452 487.352V464.333" stroke="#5D6DFD" stroke-width="1.67359" stroke-miterlimit="10" stroke-dasharray="4.67 4.67"/>
<path d="M173.452 462.247V459.996H175.702" stroke="#5D6DFD" stroke-width="1.67359" stroke-miterlimit="10"/>
<path d="M179.889 459.996H202.901" stroke="#5D6DFD" stroke-width="1.67359" stroke-miterlimit="10" stroke-dasharray="4.67 4.67"/>
<path d="M204.985 459.996H207.236V462.247" stroke="#5D6DFD" stroke-width="1.67359" stroke-miterlimit="10"/>
<path d="M207.235 466.435V489.438" stroke="#5D6DFD" stroke-width="1.67359" stroke-miterlimit="10" stroke-dasharray="4.67 4.67"/>
<path d="M190.358 468.774H190.343C185.869 468.774 182.242 472.402 182.242 476.877V476.892C182.242 481.368 185.869 484.996 190.343 484.996H190.358C194.832 484.996 198.459 481.368 198.459 476.892V476.877C198.459 472.402 194.832 468.774 190.358 468.774Z" stroke="#E03F3F" stroke-width="1.67359" stroke-miterlimit="10"/>
<path d="M178.087 455.735H169.986V463.838H178.087V455.735Z" stroke="#5D6DFD" stroke-width="1.67359" stroke-miterlimit="10"/>
<path d="M212.187 455.944H204.086V464.047H212.187V455.944Z" stroke="#5D6DFD" stroke-width="1.67359" stroke-miterlimit="10"/>
<path d="M178.087 489.633H169.986V497.736H178.087V489.633Z" stroke="#5D6DFD" stroke-width="1.67359" stroke-miterlimit="10"/>
<path d="M212.187 489.827H204.086V497.93H212.187V489.827Z" stroke="#5D6DFD" stroke-width="1.67359" stroke-miterlimit="10"/>
<path d="M207.236 540.683V542.933H204.985" stroke="#5D6DFD" stroke-width="1.67359" stroke-miterlimit="10"/>
<path d="M200.8 542.933H177.802" stroke="#5D6DFD" stroke-width="1.67359" stroke-miterlimit="10" stroke-dasharray="4.67 4.67"/>
<path d="M175.702 542.933H173.452V540.683" stroke="#5D6DFD" stroke-width="1.67359" stroke-miterlimit="10"/>
<path d="M173.452 536.511V513.492" stroke="#5D6DFD" stroke-width="1.67359" stroke-miterlimit="10" stroke-dasharray="4.67 4.67"/>
<path d="M173.452 511.39V509.14H175.702" stroke="#5D6DFD" stroke-width="1.67359" stroke-miterlimit="10"/>
<path d="M179.889 509.14H202.901" stroke="#5D6DFD" stroke-width="1.67359" stroke-miterlimit="10" stroke-dasharray="4.67 4.67"/>
<path d="M204.985 509.14H207.236V511.39" stroke="#5D6DFD" stroke-width="1.67359" stroke-miterlimit="10"/>
<path d="M207.235 515.577V538.596" stroke="#5D6DFD" stroke-width="1.67359" stroke-miterlimit="10" stroke-dasharray="4.67 4.67"/>
<path d="M190.358 517.935H190.343C185.869 517.935 182.242 521.562 182.242 526.038V526.053C182.242 530.528 185.869 534.156 190.343 534.156H190.358C194.832 534.156 198.459 530.528 198.459 526.053V526.038C198.459 521.562 194.832 517.935 190.358 517.935Z" stroke="#E03F3F" stroke-width="1.67359" stroke-miterlimit="10"/>
<path d="M178.087 504.894H169.986V512.997H178.087V504.894Z" stroke="#5D6DFD" stroke-width="1.67359" stroke-miterlimit="10"/>
<path d="M212.187 505.088H204.086V513.191H212.187V505.088Z" stroke="#5D6DFD" stroke-width="1.67359" stroke-miterlimit="10"/>
<path d="M178.087 538.776H169.986V546.879H178.087V538.776Z" stroke="#5D6DFD" stroke-width="1.67359" stroke-miterlimit="10"/>
<path d="M212.187 538.985H204.086V547.088H212.187V538.985Z" stroke="#5D6DFD" stroke-width="1.67359" stroke-miterlimit="10"/>
<path d="M207.236 589.841V592.092H204.985" stroke="#5D6DFD" stroke-width="1.67359" stroke-miterlimit="10"/>
<path d="M200.8 592.092H177.802" stroke="#5D6DFD" stroke-width="1.67359" stroke-miterlimit="10" stroke-dasharray="4.67 4.67"/>
<path d="M175.702 592.092H173.452V589.841" stroke="#5D6DFD" stroke-width="1.67359" stroke-miterlimit="10"/>
<path d="M173.452 585.654V562.636" stroke="#5D6DFD" stroke-width="1.67359" stroke-miterlimit="10" stroke-dasharray="4.67 4.67"/>
<path d="M173.452 560.549V558.298H175.702" stroke="#5D6DFD" stroke-width="1.67359" stroke-miterlimit="10"/>
<path d="M179.889 558.298H202.901" stroke="#5D6DFD" stroke-width="1.67359" stroke-miterlimit="10" stroke-dasharray="4.67 4.67"/>
<path d="M204.985 558.298H207.236V560.549" stroke="#5D6DFD" stroke-width="1.67359" stroke-miterlimit="10"/>
<path d="M207.235 564.735V587.754" stroke="#5D6DFD" stroke-width="1.67359" stroke-miterlimit="10" stroke-dasharray="4.67 4.67"/>
<path d="M190.358 567.078H190.343C185.869 567.078 182.242 570.706 182.242 575.181V575.196C182.242 579.671 185.869 583.299 190.343 583.299H190.358C194.832 583.299 198.459 579.671 198.459 575.196V575.181C198.459 570.706 194.832 567.078 190.358 567.078Z" stroke="#E03F3F" stroke-width="1.67359" stroke-miterlimit="10"/>
<path d="M178.087 554.037H169.986V562.14H178.087V554.037Z" stroke="#5D6DFD" stroke-width="1.67359" stroke-miterlimit="10"/>
<path d="M212.187 554.247H204.086V562.35H212.187V554.247Z" stroke="#5D6DFD" stroke-width="1.67359" stroke-miterlimit="10"/>
<path d="M178.087 587.934H169.986V596.037H178.087V587.934Z" stroke="#5D6DFD" stroke-width="1.67359" stroke-miterlimit="10"/>
<path d="M212.187 588.129H204.086V596.232H212.187V588.129Z" stroke="#5D6DFD" stroke-width="1.67359" stroke-miterlimit="10"/>
<path d="M204.447 355.093C208.167 355.093 211.183 352.077 211.183 348.356C211.183 344.635 208.167 341.618 204.447 341.618C200.727 341.618 197.711 344.635 197.711 348.356C197.711 352.077 200.727 355.093 204.447 355.093Z" stroke="white" stroke-width="1.7238" stroke-miterlimit="10"/>
<path d="M191.095 457.746C226.282 457.746 254.807 429.214 254.807 394.017C254.807 358.821 226.282 330.288 191.095 330.288C155.907 330.288 127.382 358.821 127.382 394.017C127.382 429.214 155.907 457.746 191.095 457.746Z" stroke="white" stroke-width="1.67359" stroke-miterlimit="10"/>
<path d="M207.401 388.015V377.706H174.787V410.343H179.078V405.842C178.943 398.984 178.988 391.976 185.078 387.025C187.843 384.762 191.288 383.494 194.86 383.423V384.924C191.633 384.993 188.523 386.139 186.023 388.18C180.338 392.832 180.488 399.464 180.638 406.487C180.638 407.617 180.638 408.743 180.638 409.863V410.268H183.848V405.767V401.595C183.848 401.145 183.848 400.695 183.848 400.245C183.666 398.504 183.876 396.746 184.463 395.098C185.301 393.297 186.594 391.745 188.214 390.596C190.187 389.126 192.565 388.298 195.025 388.225V389.455C192.851 389.575 190.763 390.337 189.024 391.646C187.582 392.671 186.429 394.051 185.678 395.653C185.175 397.143 184.996 398.724 185.153 400.29C185.153 400.755 185.153 401.22 185.153 401.685V410.283H188.469C188.469 409.473 188.469 408.678 188.469 407.867C188.469 405.992 188.469 404.041 188.469 402.135V401.955C188.469 399.674 188.289 397.093 190.104 395.218C191.383 393.944 193.101 393.209 194.905 393.162V394.407C193.424 394.448 192.014 395.048 190.959 396.088C189.459 397.589 189.594 399.779 189.669 401.91V402.15C189.669 404.071 189.669 406.037 189.669 407.942C189.669 408.738 189.669 409.533 189.669 410.343H207.386V389.591H201.22V395.938H199.72V394.782H197.29V393.282H199.72V389.591H197.29V388.015H199.72V385.089H197.29V383.588H199.72V382.523H201.22V388.015H207.401Z" fill="#E03F3F"/>
<path d="M226.35 346.509L212.203 366.721" stroke="white" stroke-width="1.7238" stroke-miterlimit="10"/>
<path d="M241.952 366.721L212.203 380.016" stroke="white" stroke-width="1.7238" stroke-miterlimit="10"/>
<path d="M249.601 386.334L219.268 390.325" stroke="white" stroke-width="1.7238" stroke-miterlimit="10"/>
<path d="M245.611 408.932L243.466 408.257" stroke="#5D6DFD" stroke-width="1.7238" stroke-miterlimit="10"/>
<path d="M239.055 406.861L223.618 401.999" stroke="#5D6DFD" stroke-width="1.7238" stroke-miterlimit="10" stroke-dasharray="5.15 5.15"/>
<path d="M221.413 401.293L219.268 400.618" stroke="#5D6DFD" stroke-width="1.7238" stroke-miterlimit="10"/>
<path d="M219.268 444.81L218.232 442.814" stroke="white" stroke-width="1.7238" stroke-miterlimit="10"/>
<path d="M216.238 438.958L209.277 425.483" stroke="white" stroke-width="1.7238" stroke-miterlimit="10" stroke-dasharray="4.84 4.84"/>
<path d="M208.27 423.548L207.235 421.552" stroke="white" stroke-width="1.7238" stroke-miterlimit="10"/>
<path d="M194.784 421.552L196.119 439.168" stroke="white" stroke-width="1.7238" stroke-miterlimit="10"/>
<path d="M184.823 416.24L174.547 449.808" stroke="white" stroke-width="1.7238" stroke-miterlimit="10"/>
<path d="M168.876 421.552L154.925 439.168" stroke="white" stroke-width="1.7238" stroke-miterlimit="10"/>
<path d="M161.9 408.932L140.298 420.231" stroke="white" stroke-width="1.7238" stroke-miterlimit="10"/>
<path d="M161.902 395.968L130.998 400.62" stroke="white" stroke-width="1.7238" stroke-miterlimit="10"/>
<path d="M161.901 386.334L146.449 380.017" stroke="white" stroke-width="1.7238" stroke-miterlimit="10"/>
<path d="M168.876 373.368L144.618 356.622" stroke="white" stroke-width="1.7238" stroke-miterlimit="10"/>
<path d="M174.547 363.075L173.527 361.064" stroke="#5D6DFD" stroke-width="1.7238" stroke-miterlimit="10"/>
<path d="M171.908 357.884L166.252 346.734" stroke="#5D6DFD" stroke-width="1.7238" stroke-miterlimit="10" stroke-dasharray="3.98 3.98"/>
<path d="M165.442 345.143L164.437 343.132" stroke="#5D6DFD" stroke-width="1.7238" stroke-miterlimit="10"/>
<path d="M184.824 335.165L187.48 364.996" stroke="white" stroke-width="1.7238" stroke-miterlimit="10"/>
<path d="M198.46 364.997L201.76 353.112" stroke="white" stroke-width="1.7238" stroke-miterlimit="10"/>
<path d="M223.064 425.543C226.784 425.543 229.8 422.527 229.8 418.806C229.8 415.085 226.784 412.068 223.064 412.068C219.344 412.068 216.328 415.085 216.328 418.806C216.328 422.527 219.344 425.543 223.064 425.543Z" stroke="white" stroke-width="1.7238" stroke-miterlimit="10"/>
<path d="M196.121 451.548C199.841 451.548 202.856 448.532 202.856 444.811C202.856 441.09 199.841 438.073 196.121 438.073C192.4 438.073 189.385 441.09 189.385 444.811C189.385 448.532 192.4 451.548 196.121 451.548Z" stroke="white" stroke-width="1.7238" stroke-miterlimit="10"/>
<path d="M140.298 384.443C144.018 384.443 147.034 381.426 147.034 377.705C147.034 373.984 144.018 370.968 140.298 370.968C136.578 370.968 133.562 373.984 133.562 377.705C133.562 381.426 136.578 384.443 140.298 384.443Z" stroke="#5D6DFD" stroke-width="1.7238" stroke-miterlimit="10"/>
<path d="M141.018 338.856C116.993 348.859 95.2659 363.667 77.1699 382.373" stroke="white" stroke-width="1.7238" stroke-miterlimit="10"/>
<path d="M141.018 447.317C116.993 437.315 95.2659 422.506 77.1699 403.801" stroke="white" stroke-width="1.7238" stroke-miterlimit="10"/>
<path d="M69.6096 402.271C74.4234 402.271 78.3257 398.367 78.3257 393.552C78.3257 388.737 74.4234 384.834 69.6096 384.834C64.7959 384.834 60.8936 388.737 60.8936 393.552C60.8936 398.367 64.7959 402.271 69.6096 402.271Z" stroke="#5D6DFD" stroke-width="1.7238" stroke-miterlimit="10"/>
<path d="M51.6075 392.516H10.3975" stroke="#5D6DFD" stroke-width="1.7238" stroke-miterlimit="10" stroke-dasharray="5.02 5.02"/>
<path d="M241.41 338.856C265.435 348.859 287.162 363.667 305.258 382.373" stroke="white" stroke-width="1.7238" stroke-miterlimit="10"/>
<path d="M241.53 447.317C265.55 437.305 287.275 422.498 305.378 403.801" stroke="white" stroke-width="1.7238" stroke-miterlimit="10"/>
<path d="M312.788 402.271C317.602 402.271 321.504 398.367 321.504 393.552C321.504 388.737 317.602 384.834 312.788 384.834C307.975 384.834 304.072 388.737 304.072 393.552C304.072 398.367 307.975 402.271 312.788 402.271Z" stroke="#5D6DFD" stroke-width="1.7238" stroke-miterlimit="10"/>
<path d="M330.791 392.516H372.001" stroke="#5D6DFD" stroke-width="1.7238" stroke-miterlimit="10" stroke-dasharray="5.02 5.02"/>
<path d="M16.4882 0.568359H0.571289V323.685H16.4882" stroke="#5D6DFD" stroke-width="1.25519" stroke-miterlimit="10"/>
<path d="M16.4882 346.913H0.571289V596.052H16.4882" stroke="#5D6DFD" stroke-width="1.25519" stroke-miterlimit="10"/>
</svg>
