<svg width="55" height="56" viewBox="0 0 55 56" fill="none" xmlns="http://www.w3.org/2000/svg">
<mask id="mask0_217_79" style="mask-type:luminance" maskUnits="userSpaceOnUse" x="0" y="0" width="55" height="56">
<path d="M54.9169 0.222656H0.222168V55.7782H54.9169V0.222656Z" fill="white"/>
</mask>
<g mask="url(#mask0_217_79)">
<path d="M54.9151 26.0371C54.9122 25.2153 54.5459 24.8446 53.7269 24.836C53.5005 24.8331 53.2741 24.8331 53.0477 24.8331H52.1017C51.2697 20.3053 49.5783 16.3874 47.075 13.1847C44.664 10.1017 41.4223 7.58404 37.4309 5.69363H39.3676C40.4345 5.69363 41.6963 5.69363 42.9552 5.71085C43.0461 5.71085 43.2263 5.86224 43.3129 6.00932C43.8319 6.89182 44.723 7.41821 45.6965 7.41821C45.9229 7.41821 46.1493 7.38932 46.3712 7.33307C47.6143 7.01446 48.4477 5.94585 48.442 4.67113C48.4376 3.4196 47.6143 2.36543 46.3958 2.04682C46.1651 1.98627 45.9286 1.95599 45.692 1.95599C44.6986 1.95599 43.7987 2.49377 43.3416 3.36043C43.1945 3.64168 43.0533 3.68627 42.7663 3.68627C40.932 3.68057 39.0979 3.67904 37.2637 3.67904H31.9341C31.1468 1.49446 29.7177 0.301961 27.8013 0.226961C27.7349 0.224044 27.6672 0.222656 27.6009 0.222656C26.7329 0.222656 25.9252 0.451961 25.2029 0.906128C24.2137 1.52627 23.5445 2.45918 23.2115 3.67904H19.879C17.4147 3.67904 14.7744 3.67905 12.1745 3.66474C12.1009 3.66474 11.9337 3.53779 11.8515 3.39502C11.3251 2.49377 10.4311 1.95446 9.45925 1.95446C9.22564 1.95446 8.98911 1.98474 8.75689 2.04529C7.53564 2.36252 6.71078 3.41668 6.70356 4.66682C6.69772 5.94155 7.52842 7.01154 8.77286 7.33168C9.00356 7.39085 9.23856 7.42113 9.46925 7.42113C10.4586 7.42113 11.3468 6.8703 11.8429 5.94877C11.9509 5.74696 12.0505 5.68918 12.297 5.68918C12.9791 5.69502 13.6612 5.6964 14.3433 5.6964H16.5611L17.7118 5.69502C13.7116 7.59266 10.4642 10.1161 8.05036 13.2035C5.54703 16.4061 3.85994 20.3182 3.03369 24.8346H2.07758C1.85411 24.8331 1.63356 24.8346 1.41147 24.8346C0.606751 24.8432 0.23189 25.2081 0.227585 25.9838C0.220362 27.6767 0.220362 29.3292 0.227585 30.8953C0.23189 31.6364 0.61689 32.0171 1.37258 32.0272C1.60328 32.03 1.83397 32.0315 2.06175 32.0315C2.24494 32.0315 2.85634 32.0286 2.98036 32.0286C4.17578 37.811 6.54633 42.5061 10.0244 45.9828C13.5026 49.4595 18.1948 51.8257 23.9713 53.0168C23.9713 53.1235 23.9743 53.2302 23.9758 53.3384C23.9815 53.6758 23.9887 54.0247 23.9627 54.3679C23.918 54.9809 24.117 55.4321 24.5712 55.7479L24.6087 55.7739H30.5281L30.5656 55.7479C31.0198 55.4307 31.2188 54.9793 31.1741 54.3679C31.1481 54.0118 31.1554 53.6571 31.1612 53.3153C31.1626 53.2143 31.164 53.1163 31.1655 53.0211C36.9508 51.8171 41.6459 49.4435 45.1211 45.9683C48.5948 42.4932 50.9611 37.8038 52.1551 32.0286H53.0433C53.264 32.0286 53.4874 32.0286 53.7095 32.0286C54.5373 32.0214 54.9065 31.6538 54.9093 30.839C54.9151 29.3004 54.9151 27.7286 54.9093 26.0357L54.9151 26.0371ZM52.8747 26.8764V29.9753H49.7715V26.8764H52.8747ZM31.1698 50.8278C31.1698 50.7485 31.1698 50.6678 31.1698 50.5885C31.1712 50.2957 31.1727 49.9943 31.1669 49.6959C31.1497 48.972 30.7661 48.587 30.058 48.5842C29.2361 48.5797 28.4156 48.577 27.5937 48.577C26.7718 48.577 25.9252 48.5797 25.0918 48.5842C24.3823 48.5885 23.9959 48.9692 23.9743 49.6872C23.9656 49.9468 23.9627 50.2078 23.9584 50.4674C23.9555 50.6043 23.9541 50.7399 23.9512 50.8768C19.1711 50.0982 14.9949 47.9814 11.5327 44.5883C8.13397 41.2545 5.65092 36.3431 5.17647 32.0315C5.25731 32.0315 5.33661 32.0315 5.41592 32.0315C5.54856 32.0315 5.68119 32.0329 5.81383 32.0329C5.97967 32.0329 6.14411 32.0329 6.30995 32.0272C7.03231 32.0099 7.41592 31.6249 7.41884 30.9139C7.42745 29.2686 7.42883 27.5974 7.41884 25.9478C7.41439 25.2383 7.03092 24.8533 6.30995 24.8346C6.07203 24.8288 5.83258 24.8274 5.59467 24.8258C5.44036 24.8258 5.28606 24.8258 5.13175 24.8231C5.12884 24.8231 5.12744 24.8215 5.12453 24.8202C5.91481 20.0961 7.9812 15.985 11.2688 12.5993C14.5552 9.21488 18.6072 7.02738 23.3152 6.09585C24.1531 8.10891 25.5836 9.12835 27.5677 9.12835H27.5937C29.572 9.11974 30.9938 8.09877 31.8216 6.09585C36.3494 6.98988 40.2745 9.04766 43.4887 12.2128C46.9755 15.6461 49.1716 19.8914 50.0195 24.8331C49.9244 24.8331 49.4672 24.8302 49.3361 24.8302C49.1687 24.8302 49.0044 24.8302 48.8399 24.8346C48.1131 24.8504 47.7281 25.2325 47.7238 25.939C47.7152 27.5325 47.7137 29.1561 47.7238 30.9053C47.7281 31.6206 48.1088 32.0085 48.8241 32.0257C48.9899 32.03 49.1543 32.0315 49.3201 32.0315C49.4529 32.0315 49.5855 32.0315 49.7195 32.03C49.7988 32.03 49.8781 32.03 49.9574 32.03C48.8111 41.4117 40.6076 49.6195 31.1698 50.8278ZM29.1165 50.6389V53.7378H26.0176V50.6389H29.1165ZM25.1279 4.64807C25.138 3.3446 26.2512 2.24293 27.5591 2.24293H27.5793C28.2368 2.24863 28.8526 2.51113 29.314 2.98113C29.774 3.44988 30.022 4.06849 30.0133 4.72168C29.9974 6.04974 28.9001 7.12835 27.5605 7.12835C26.9116 7.12543 26.3002 6.86877 25.8402 6.40307C25.3744 5.93293 25.122 5.30849 25.1265 4.64669L25.1279 4.64807ZM5.3712 26.8922V29.9911H2.27092V26.8922H5.3712ZM45.708 3.97182V3.82766L45.7166 3.97182C46.1045 3.97613 46.4202 4.29627 46.4218 4.68557C46.4218 5.07349 46.1073 5.39502 45.7051 5.40224C45.5133 5.40224 45.3316 5.32446 45.1931 5.18168C45.0562 5.04029 44.9841 4.85724 44.9898 4.66543C45.0013 4.28182 45.323 3.97043 45.7065 3.97043L45.708 3.97182ZM9.43758 3.97043V3.82613L9.4405 3.97043C9.82258 3.97182 10.1499 4.29627 10.1543 4.67696C10.1572 4.86585 10.0822 5.04752 9.9437 5.18599C9.80522 5.32585 9.62647 5.40224 9.43606 5.40224H9.413C9.03092 5.38932 8.71508 5.05474 8.72231 4.67266C8.72953 4.29196 9.05689 3.97043 9.43758 3.97043Z" fill="#5D6DFD"/>
<path d="M32.3948 16.2658C31.6941 14.6277 30.9917 12.9895 30.2924 11.3515C30.0674 10.8252 29.7041 10.5815 29.1489 10.5815H29.1171C28.6313 10.5901 28.0645 10.5988 27.5109 10.5988C27.0148 10.5988 26.5706 10.5916 26.1568 10.5771C26.1309 10.5771 26.1049 10.5771 26.0789 10.5771C25.4488 10.5771 25.0507 10.854 24.7868 11.4741C22.3903 17.1035 19.8567 23.0187 17.2553 29.0548C17.0492 29.5335 17.0564 29.9647 17.277 30.4535C18.4306 33.0015 19.3766 35.1284 20.2503 37.1473C20.3499 37.378 20.3671 37.711 20.2923 37.9562C19.985 38.9555 19.6461 39.9634 19.3174 40.9396C19.1992 41.2915 19.0795 41.6434 18.9627 41.9966C18.7652 42.5908 18.7666 42.9988 18.9699 43.2815C19.1703 43.5598 19.5481 43.6895 20.1581 43.6895C21.2541 43.6895 31.7806 43.6895 31.7806 43.6895C32.8721 43.6895 33.9623 43.6895 35.0538 43.6895C35.5931 43.6895 35.9667 43.5497 36.1642 43.2742C36.3632 42.9974 36.3775 42.5951 36.2046 42.0759C36.0648 41.6549 35.922 41.2352 35.7806 40.8156C35.4677 39.8913 35.1432 38.9353 34.852 37.9878C34.7713 37.7284 34.79 37.3737 34.8952 37.1285C35.3596 36.0513 35.8441 34.9598 36.3127 33.9042C36.826 32.7477 37.3567 31.5523 37.8628 30.3699C37.9999 30.0527 38.0589 29.5451 37.9089 29.1917C36.082 24.8788 34.2074 20.5009 32.3948 16.2672V16.2658ZM26.5432 12.6508V24.9394C25.1646 25.3228 24.1654 26.1233 23.5713 27.3172C23.0954 28.2733 22.9829 29.2941 23.2339 30.354C23.701 32.3252 25.5353 33.7542 27.5945 33.7542C27.6679 33.7542 27.7416 33.7528 27.8166 33.7484C29.9607 33.6446 31.72 31.9878 31.9998 29.8103C32.2348 27.9791 31.2686 25.6906 28.6038 24.9378V12.6867C28.6702 12.7703 28.7307 12.8526 28.7668 12.9377C30.1943 16.2499 31.6392 19.6198 33.0379 22.8831C33.3148 23.5291 33.5917 24.1766 33.8685 24.824C34.4986 26.2977 35.1504 27.8219 35.7993 29.3173C35.9306 29.6215 35.9335 29.8363 35.8095 30.1103C34.9731 31.9474 34.092 33.9273 33.1143 36.1638C32.9991 36.4277 32.8938 36.4998 32.6168 36.4998C30.9456 36.4926 29.2441 36.4883 27.5599 36.4883C25.8756 36.4883 24.2043 36.4926 22.5216 36.4984C22.2475 36.4984 22.1409 36.4262 22.027 36.1667C21.6361 35.2727 21.2396 34.3815 20.8431 33.489C20.3441 32.3656 19.8264 31.2034 19.3318 30.057C19.2496 29.8681 19.2496 29.5681 19.3318 29.3749C21.6534 23.917 23.9852 18.4849 26.3688 12.9391C26.4106 12.841 26.4754 12.7488 26.5461 12.6508H26.5432ZM21.3809 41.1141C21.6678 40.2431 21.9375 39.4213 22.2374 38.5921C22.2821 38.559 22.4566 38.5128 22.6109 38.5128C24.5923 38.507 26.5735 38.5056 28.5563 38.5056H31.88C32.402 38.5056 32.6645 38.5056 32.8086 38.608C32.9528 38.7103 33.0393 38.9684 33.1966 39.4385C33.3739 39.9677 33.5499 40.497 33.7329 41.0478L33.9349 41.6563H21.2021C21.2627 41.4746 21.3218 41.2944 21.3809 41.1141ZM29.2945 27.5724C29.756 28.0353 30.0098 28.6481 30.0098 29.2985C30.0098 30.6323 28.921 31.7267 27.5873 31.7369H27.5685C26.2245 31.7369 25.1273 30.6381 25.1228 29.287C25.1214 28.6467 25.3738 28.0367 25.8352 27.5724C26.2967 27.1081 26.9038 26.8515 27.5439 26.8499L27.5498 26.7058V26.8499C28.2088 26.8499 28.8302 27.1066 29.2945 27.5724Z" fill="#5D6DFD"/>
</g>
</svg>
