<svg width="56" height="56" viewBox="0 0 56 56" fill="none" xmlns="http://www.w3.org/2000/svg">
<mask id="mask0_217_117" style="mask-type:luminance" maskUnits="userSpaceOnUse" x="0" y="0" width="56" height="56">
<path d="M55.7782 0.222656H0.222656V55.5617H55.7782V0.222656Z" fill="white"/>
</mask>
<g mask="url(#mask0_217_117)">
<path d="M8.61502 55.5617C7.32946 55.5617 6.0453 55.5603 4.75974 55.5543C2.79085 55.5456 1.05905 54.2997 0.450852 52.4575C0.389046 52.269 0.337518 52.0775 0.284462 51.8728C0.263907 51.7963 0.243212 51.7182 0.222656 51.6417V4.16488C0.249184 4.10002 0.281545 4.02057 0.303628 3.92918C0.86474 1.57599 2.54793 0.225573 4.92321 0.225573C12.7678 0.224184 20.6139 0.222656 28.4599 0.222656C36.306 0.222656 43.5511 0.222656 51.0968 0.225573C53.8064 0.225573 55.7738 2.18557 55.7753 4.88641C55.7811 20.3031 55.7797 35.7817 55.7709 50.8936C55.7709 51.3442 55.7149 51.7933 55.6089 52.1953C55.0654 54.2688 53.2954 55.5574 50.9878 55.5574C45.121 55.5574 21.9539 55.5574 21.9539 55.5574H14.127C13.2081 55.5574 12.2907 55.5574 11.3718 55.5588C10.4543 55.5588 9.53543 55.5603 8.61654 55.5603L8.61502 55.5617ZM2.64654 50.602C2.64654 52.3545 3.42849 53.1349 5.18391 53.1349H50.8082C52.5679 53.1349 53.3528 52.3559 53.3528 50.6079V15.9118H2.64654V50.6006V50.602ZM4.99238 2.64807C3.50363 2.64807 2.64807 3.49918 2.64654 4.98502C2.64515 6.76543 2.64654 8.54432 2.64654 10.3247V13.4231H53.3528V10.2409C53.3528 8.48696 53.3528 6.73154 53.3528 4.97765C53.3514 3.49779 52.4928 2.64946 50.9981 2.64946H28.049L4.99238 2.64807Z" fill="#5D6DFD"/>
<path d="M23.0418 47.293C22.8783 47.293 22.712 47.2562 22.5499 47.1826C21.8902 46.8882 21.6767 46.2004 22.0065 45.4303C25.2478 37.8596 28.5435 30.1726 31.8009 22.5812C32.0335 22.0379 32.465 21.7139 32.9539 21.7139C33.029 21.7139 33.1071 21.7212 33.1836 21.736C33.7461 21.8465 34.1378 22.3546 34.1703 23.0112C34.1643 23.0348 34.157 23.0598 34.1496 23.0879C34.1143 23.2248 34.0657 23.4118 33.995 23.5753C30.7774 31.0973 27.492 38.7682 24.2286 46.3741C23.9828 46.9485 23.5381 47.2901 23.0403 47.2901L23.0418 47.293Z" fill="#5D6DFD"/>
<path d="M18.2183 42.2643C17.859 42.2643 17.5086 42.173 17.3259 42.0301C14.4823 39.8197 11.6858 37.5666 9.06606 35.449C8.75537 35.1972 8.58301 34.8615 8.58301 34.5036C8.58301 34.1443 8.75537 33.8086 9.06759 33.5568C11.4915 31.5981 14.0994 29.5115 17.2744 26.989C17.532 26.7843 17.8206 26.6768 18.1094 26.6768C18.4598 26.6768 18.7823 26.8372 19.0165 27.1273C19.4656 27.684 19.3611 28.4115 18.7602 28.8959C17.3716 30.018 15.9534 31.1505 14.5809 32.2447C13.9684 32.7336 13.3572 33.2209 12.7461 33.7113C12.6312 33.8027 12.5194 33.8969 12.3912 34.003L11.7772 34.5109L12.7565 35.3004C13.1216 35.5948 13.4706 35.8776 13.8226 36.1588C14.4175 36.6359 15.014 37.1116 15.6088 37.5873C16.6618 38.4281 17.7147 39.269 18.7647 40.1127C19.2108 40.4706 19.3655 40.8712 19.2551 41.3748C19.1873 41.6811 18.9855 42.2024 18.3951 42.2569C18.3391 42.2627 18.2802 42.2643 18.2198 42.2643H18.2183Z" fill="#407BFF"/>
<path d="M37.8692 42.3251C37.5202 42.3251 37.2108 42.169 36.9767 41.8715C36.5232 41.2958 36.6468 40.5889 37.2933 40.0691C38.6349 38.9911 39.9793 37.9161 41.3239 36.8411L43.2663 35.2875C43.3722 35.2021 43.4768 35.1152 43.6035 35.0107L44.2278 34.4953C44.2278 34.4953 40.8718 31.8048 39.975 31.0876C39.6686 30.8418 39.3608 30.5973 39.0546 30.3529C38.4582 29.8772 37.8618 29.4015 37.2697 28.9215C36.9429 28.6564 36.7426 28.3207 36.7088 27.979C36.6778 27.6771 36.775 27.3797 36.9871 27.1204C37.2227 26.8333 37.5289 26.6816 37.8736 26.6816C38.1783 26.6816 38.4921 26.8023 38.7778 27.0307C41.7907 29.4296 44.4207 31.5323 46.8167 33.4586C47.2025 33.7677 47.4057 34.1286 47.4057 34.4997C47.4057 34.8737 47.1893 35.2537 46.7946 35.5689C44.2514 37.6114 41.6361 39.7023 38.7968 41.9629C38.4979 42.2014 38.1754 42.3266 37.8632 42.3266L37.8692 42.3251Z" fill="#407BFF"/>
<path d="M40.0435 9.26135C39.3955 9.26135 38.7475 9.26135 38.0996 9.25844C37.278 9.25552 36.7213 8.77386 36.7139 8.05816C36.711 7.72983 36.8199 7.44566 37.0305 7.23358C37.2823 6.97886 37.6711 6.83885 38.1232 6.83747C39.7092 6.83747 41.2952 6.83594 42.8827 6.83594C44.4702 6.83594 46.0561 6.83594 47.6421 6.83747C48.0971 6.83747 48.4859 6.97733 48.7377 7.23205C48.9468 7.44413 49.0559 7.7283 49.0543 8.05677C49.0485 8.79747 48.4977 9.25844 47.6171 9.25983C46.9898 9.25983 46.3624 9.25983 45.735 9.25983H42.8856H40.0449L40.0435 9.26135Z" fill="#407BFF"/>
<path d="M8.15479 9.25831C7.50535 9.25539 6.95313 8.70317 6.95021 8.05373C6.94868 7.73706 7.07535 7.43373 7.30799 7.20109C7.54063 6.96692 7.84257 6.83887 8.16063 6.83887H8.18562C8.8366 6.85359 9.37854 7.41317 9.37118 8.064C9.36229 8.71192 8.80854 9.25984 8.16215 9.25984H8.15771L8.15479 9.25831Z" fill="#407BFF"/>
<path d="M14.7578 9.25887C14.1084 9.24998 13.5606 8.69331 13.5635 8.04247C13.5664 7.39303 14.1186 6.84081 14.7681 6.83789C15.4204 6.83789 15.9742 7.38567 15.9829 8.03359C15.9874 8.35317 15.8607 8.65803 15.6281 8.89359C15.3954 9.12928 15.092 9.25887 14.7725 9.25887H14.7578Z" fill="#407BFF"/>
<path d="M21.3695 9.25887C20.7201 9.24998 20.1739 8.69192 20.1768 8.04095C20.1797 7.39012 20.7319 6.83942 21.3829 6.83789C22.0352 6.83789 22.5888 7.38567 22.5962 8.03359C22.5993 8.35317 22.474 8.65803 22.2414 8.89359C22.0087 9.12928 21.7054 9.25734 21.3858 9.25734H21.3695V9.25887Z" fill="#407BFF"/>
</g>
</svg>
