<svg width="56" height="53" viewBox="0 0 56 53" fill="none" xmlns="http://www.w3.org/2000/svg">
<mask id="mask0_217_223" style="mask-type:luminance" maskUnits="userSpaceOnUse" x="0" y="0" width="56" height="53">
<path d="M55.7777 0.611328H0.222168V52.6826H55.7777V0.611328Z" fill="white"/>
</mask>
<g mask="url(#mask0_217_223)">
<path d="M0.223556 2.34484C0.757028 0.989698 1.79328 0.607058 3.18606 0.611364C13.5476 0.643308 23.9091 0.628726 34.2706 0.628726C36.1374 0.628726 36.9824 1.47525 36.9824 3.34775C36.9824 7.0915 36.9824 10.8353 36.9824 14.5789C36.9824 14.7934 36.9824 15.0094 36.9824 15.2891C37.223 15.3007 37.4302 15.3196 37.6374 15.3196C39.8986 15.3209 42.158 15.3196 44.4191 15.3225C46.1641 15.3254 47.0526 16.2139 47.054 17.9632C47.0569 22.2853 47.054 26.6086 47.054 30.9307C47.054 31.1422 47.054 31.3539 47.054 31.6278C47.3163 31.6278 47.5105 31.6278 47.7048 31.6278C49.5672 31.6278 51.4297 31.6219 53.292 31.6293C54.8458 31.6365 55.7763 32.5815 55.7777 34.1439C55.7806 39.479 55.7806 44.8141 55.7777 50.1491C55.7777 51.7202 54.8197 52.6754 53.2355 52.6783C50.0716 52.6841 46.9062 52.6828 43.7422 52.6783C42.1508 52.6754 41.2131 51.7421 41.2058 50.1521C41.1986 48.3983 41.2044 46.6432 41.2044 44.8894C41.2044 44.6937 41.2044 44.4966 41.2044 44.2547H33.4662C33.7677 45.2634 34.0561 46.2591 34.3765 47.2432C34.4054 47.333 34.6373 47.394 34.7779 47.4026C35.3359 47.4359 35.9041 47.3911 36.4534 47.4708C37.7259 47.6562 38.6086 48.6926 38.6448 49.9811C38.6579 50.4144 38.6579 50.8493 38.6448 51.2826C38.6216 52.0812 38.1331 52.5943 37.3374 52.6711C37.1766 52.6871 37.0129 52.6798 36.849 52.6798C30.0138 52.6798 23.1787 52.6798 16.3434 52.6798C14.9723 52.6798 14.5274 52.2378 14.5347 50.8623C14.5376 50.3941 14.5099 49.9115 14.6027 49.4593C14.8434 48.2969 15.8173 47.5084 17.0348 47.4172C17.1436 47.4084 17.2522 47.4114 17.3594 47.4114C18.3093 47.4046 18.9219 46.9403 19.1972 46.0184C19.3668 45.4489 19.5306 44.8779 19.7262 44.2097C19.4813 44.2097 19.2958 44.2097 19.1088 44.2097C15.6738 44.2097 12.2374 44.2097 8.80245 44.2097C7.02981 44.2097 6.13411 43.3154 6.13272 41.5414C6.12981 38.3948 6.13272 35.2483 6.13272 32.1003C6.13272 31.8858 6.13272 31.6712 6.13272 31.3973C5.91814 31.3829 5.74717 31.3611 5.57467 31.3597C4.72536 31.3568 3.87161 31.3147 3.02522 31.3669C1.63814 31.4525 0.688835 30.9147 0.222168 29.5841L0.223556 2.34484ZM1.85119 9.84678V10.4859C1.85119 16.5443 1.85119 22.6026 1.85119 28.6609C1.85119 29.619 1.95703 29.7291 2.90356 29.7291C13.3723 29.7291 23.8424 29.7291 34.3112 29.7291C35.2112 29.7291 35.3548 29.5857 35.3548 28.6986C35.3548 22.6229 35.3548 16.5457 35.3548 10.47V9.84678C35.0648 9.84678 34.8504 9.84678 34.6373 9.84678C30.0631 9.84678 25.4874 9.84678 20.9133 9.84678C20.7322 9.84678 20.5495 9.85692 20.3712 9.83511C19.9552 9.78303 19.6611 9.50178 19.6958 9.12206C19.7219 8.8365 19.9568 8.51484 20.1901 8.32206C20.3524 8.18873 20.6727 8.22345 20.922 8.22345C25.5149 8.21914 30.108 8.22053 34.6997 8.22053H35.3533C35.3533 6.50164 35.3533 4.87539 35.3533 3.25067C35.3533 2.43608 35.1779 2.25928 34.3706 2.25789C31.5502 2.25636 28.7297 2.25789 25.9077 2.25789C18.2233 2.25789 10.5387 2.25789 2.85425 2.25789C2.00633 2.25789 1.84981 2.41581 1.84981 3.27095C1.84981 4.46525 1.84981 5.65803 1.84981 6.85234C1.84981 7.29734 1.84981 7.74234 1.84981 8.22053C2.13675 8.22053 2.35272 8.22053 2.56731 8.22053C7.14147 8.22053 11.717 8.22053 16.2912 8.22345C16.5231 8.22345 16.7666 8.22928 16.9855 8.29733C17.3797 8.42206 17.5566 8.72928 17.5116 9.13803C17.4652 9.54956 17.2188 9.78872 16.8072 9.83803C16.629 9.85984 16.4463 9.84817 16.2652 9.84817C11.6909 9.84817 7.11536 9.84817 2.5412 9.84817C2.32953 9.84817 2.118 9.84678 1.85119 9.84678ZM7.79647 31.3568V38.4253H41.2029C41.2029 38.1919 41.2029 37.9978 41.2029 37.8036C41.2029 36.5557 41.1927 35.3091 41.2058 34.0612C41.2204 32.5597 42.1494 31.6451 43.6552 31.6293C44.2263 31.6234 44.7973 31.6293 45.3988 31.6293C45.4104 31.38 45.4263 31.2032 45.4263 31.0264C45.4263 26.6869 45.4279 22.349 45.4263 18.0096C45.4263 17.1022 45.2713 16.953 44.3379 16.9515C42.0972 16.9515 39.8551 16.9515 37.6143 16.9515C37.4215 16.9515 37.2288 16.9689 36.9824 16.9805C36.9824 17.2341 36.9824 17.4472 36.9824 17.6603C36.9824 21.3851 36.978 25.1086 36.9852 28.8334C36.9868 29.6553 36.762 30.3611 36.0983 30.8915C35.5679 31.3162 34.949 31.364 34.3054 31.3626C25.7194 31.3582 17.1333 31.3597 8.54731 31.3597C8.31536 31.3597 8.08203 31.3597 7.798 31.3597L7.79647 31.3568ZM42.8305 42.1183C42.8305 44.759 42.8291 47.3997 42.8305 50.039C42.8305 50.8421 43.0306 51.0493 43.8074 51.0507C46.9352 51.0536 50.0644 51.0536 53.192 51.0507C53.9298 51.0507 54.1487 50.8203 54.1487 50.0666C54.1487 44.7851 54.1487 39.5051 54.1487 34.2236C54.1487 33.4569 53.953 33.2554 53.1936 33.2554C50.0658 33.2525 46.9366 33.2525 43.8088 33.2554C43.0001 33.2554 42.832 33.4279 42.8305 34.2511C42.8277 36.873 42.8305 39.4964 42.8305 42.1183ZM7.76036 40.1152C7.76036 40.5659 7.76036 40.9603 7.76036 41.3559C7.76036 42.4575 7.88064 42.5807 8.96036 42.5807C14.0593 42.5807 19.1566 42.5807 24.2555 42.5807C24.4541 42.5807 24.657 42.569 24.8512 42.6023C25.257 42.6719 25.4861 42.93 25.5106 43.343C25.544 43.8676 25.1933 44.1953 24.5599 44.2039C23.6555 44.2169 22.7511 44.1937 21.8481 44.2198C21.6829 44.2241 21.4191 44.3575 21.3741 44.4894C21.0583 45.4272 20.7887 46.3808 20.4915 47.3679H32.6849C32.4415 46.5418 32.1763 45.7736 31.998 44.9851C31.8604 44.3779 31.5994 44.1329 30.9429 44.1908C30.1356 44.2619 29.3167 44.2241 28.5036 44.1982C27.9529 44.1807 27.6383 43.8314 27.6615 43.3415C27.6833 42.8748 27.9905 42.6066 28.5384 42.5821C28.7008 42.5748 28.863 42.5791 29.0268 42.5791C32.859 42.5791 36.6924 42.5791 40.5247 42.5791H41.1681V40.1139L7.76036 40.1152ZM36.9795 51.029C37.1606 49.3534 36.8809 49.0375 35.2692 49.0375C29.392 49.0375 23.5149 49.0375 17.6391 49.0375C17.4233 49.0375 17.2015 49.0303 16.9913 49.068C16.5594 49.1448 16.2506 49.4071 16.1912 49.8419C16.1391 50.2246 16.1811 50.6203 16.1811 51.029H36.9795Z" fill="#5D6DFD"/>
<path d="M15.4311 19.801C15.4311 21.7156 15.434 23.6316 15.4311 25.5463C15.4283 26.658 14.9196 27.1724 13.8093 27.1753C11.2265 27.1812 8.64234 27.1796 6.05956 27.1753C4.94067 27.1739 4.42178 26.6666 4.42039 25.5621C4.41456 21.7141 4.41456 17.8646 4.42039 14.0166C4.42178 12.9252 4.92623 12.431 6.01609 12.4295C8.63511 12.4266 11.2555 12.4252 13.8746 12.4295C14.9239 12.431 15.4268 12.9382 15.4297 13.9992C15.4355 15.9327 15.4311 17.866 15.4311 19.7995V19.801ZM6.08136 14.0817V25.5056H13.7701V14.0817H6.08136Z" fill="#5D6DFD"/>
<path d="M25.3696 18.7929C23.4899 18.7929 21.61 18.7958 19.7301 18.7929C18.4721 18.7899 18.0097 18.3159 18.0083 17.0463C18.0083 16.0158 18.0039 14.9854 18.0083 13.9548C18.0142 12.9722 18.5373 12.433 19.504 12.4316C23.426 12.4258 27.348 12.4272 31.27 12.4316C32.2454 12.4316 32.7686 12.9663 32.7744 13.9462C32.7817 15.0491 32.7817 16.152 32.7744 17.2536C32.7686 18.2522 32.2497 18.7798 31.2221 18.787C29.2699 18.8015 27.319 18.7913 25.3667 18.7913L25.3696 18.7929ZM19.6779 14.0824V17.1173H31.1207V14.0824H19.6779Z" fill="#407BFF"/>
<path d="M25.3635 23.3028C23.2316 23.3028 21.101 23.2984 18.9689 23.3057C18.4718 23.3071 18.1079 23.1332 18.0254 22.6172C17.9514 22.1607 18.1804 21.8447 18.6225 21.7216C18.8095 21.6693 19.0153 21.6765 19.2124 21.6765C23.3316 21.6736 27.4506 21.6752 31.5682 21.6752C31.677 21.6752 31.7856 21.6707 31.8929 21.6781C32.4393 21.7157 32.777 22.0375 32.7711 22.5114C32.7639 22.9839 32.422 23.2984 31.8653 23.2999C29.6971 23.3057 27.5317 23.3028 25.3635 23.3028Z" fill="#407BFF"/>
<path d="M9.50471 6.04763C8.18721 6.04763 6.86833 6.05055 5.55083 6.04763C4.88416 6.04624 4.54944 5.77957 4.54069 5.26069C4.53194 4.74041 4.88124 4.42444 5.51457 4.42291C8.16846 4.4186 10.8236 4.42152 13.4775 4.42874C14.1151 4.43027 14.4674 4.74332 14.463 5.25777C14.4572 5.77527 14.1196 6.05055 13.46 6.05208C12.1426 6.05638 10.8236 6.05208 9.50624 6.05208V6.04624L9.50471 6.04763Z" fill="#407BFF"/>
<path d="M28.6323 25.5478C29.699 25.5478 30.7642 25.542 31.8311 25.5507C32.4252 25.555 32.7774 25.8667 32.7745 26.3579C32.7716 26.8478 32.4195 27.1696 31.8238 27.1725C29.6729 27.1813 27.5236 27.1813 25.3727 27.1725C24.7872 27.1696 24.4248 26.8349 24.4248 26.3507C24.4248 25.8696 24.7901 25.555 25.3799 25.5507C26.464 25.5435 27.5481 25.5492 28.6323 25.5492V25.5478Z" fill="#407BFF"/>
<path d="M19.8111 25.5535C20.1532 25.5535 20.4967 25.539 20.8387 25.5565C21.2996 25.5797 21.5793 25.829 21.6142 26.2941C21.6489 26.7608 21.404 27.1028 20.9575 27.1362C20.2053 27.1927 19.4444 27.1927 18.6922 27.1391C18.2487 27.1073 17.9878 26.7738 18.0197 26.3087C18.0501 25.8506 18.324 25.5854 18.7864 25.5594C19.1271 25.5405 19.4706 25.5549 19.814 25.5549L19.8111 25.5535Z" fill="#407BFF"/>
<path d="M23.7904 6.04842C23.3483 6.0412 23.0078 5.69759 23.0035 5.25565C22.999 4.80051 23.3787 4.41926 23.8253 4.43092C24.2469 4.44245 24.6151 4.81495 24.621 5.23676C24.6267 5.68606 24.2485 6.05565 23.7904 6.04842Z" fill="#407BFF"/>
<path d="M28.6415 5.27275C28.6269 5.72636 28.24 6.07428 27.7776 6.04664C27.3427 6.02205 27.008 5.65539 27.024 5.22053C27.0398 4.7915 27.408 4.43066 27.8298 4.43066C28.2733 4.43066 28.6559 4.82636 28.6415 5.27275Z" fill="#407BFF"/>
<path d="M31.8388 4.43185C32.262 4.42172 32.6388 4.77394 32.662 5.20296C32.6867 5.65949 32.3302 6.04074 31.8707 6.04935C31.4316 6.05658 31.0677 5.72324 31.0445 5.29144C31.0213 4.84644 31.3938 4.44352 31.8388 4.43338V4.43185Z" fill="#407BFF"/>
<path d="M49.2854 48.5784C49.2969 49.0378 48.9404 49.4119 48.4853 49.4191C48.0375 49.4263 47.6504 49.0466 47.6504 48.6031C47.6504 48.1741 47.9954 47.8218 48.4359 47.8045C48.9129 47.7856 49.2751 48.1146 49.2868 48.5799L49.2854 48.5784Z" fill="#407BFF"/>
</g>
</svg>
