<svg width="56" height="56" viewBox="0 0 56 56" fill="none" xmlns="http://www.w3.org/2000/svg">
<mask id="mask0_217_9" style="mask-type:luminance" maskUnits="userSpaceOnUse" x="0" y="0" width="56" height="56">
<path d="M55.7782 0.222656H0.222656V55.771H55.7782V0.222656Z" fill="white"/>
</mask>
<g mask="url(#mask0_217_9)">
<path d="M0.222656 34.8335C0.28349 34.7076 0.350157 34.5844 0.402379 34.4569C0.845851 33.3699 1.63988 32.7555 2.81807 32.6541C2.9803 32.6396 3.14266 32.6381 3.30502 32.6367C4.6121 32.628 5.09321 32.2498 5.28738 30.9499C5.32794 30.676 5.16127 30.3253 4.99182 30.0776C4.75988 29.7384 4.41363 29.482 4.15127 29.1617C3.34557 28.1763 3.28474 26.7112 4.12946 25.7649C5.10196 24.6752 6.13654 23.6303 7.22488 22.6564C8.20307 21.7812 9.64932 21.8435 10.6652 22.6812C10.9709 22.9333 11.2447 23.2245 11.5288 23.5028C11.8592 23.8274 12.2375 23.9187 12.6707 23.7463C12.9388 23.6405 13.207 23.5317 13.4707 23.4159C13.8924 23.2303 14.114 22.9101 14.1111 22.4406C14.1084 22.0971 14.101 21.7523 14.1199 21.4102C14.2054 19.9351 15.2922 18.8206 16.7675 18.7728C18.0861 18.7294 19.4078 18.7294 20.725 18.7728C22.18 18.8221 23.2553 19.922 23.345 21.3696C23.3538 21.5146 23.3581 21.6581 23.3596 21.803C23.3711 23.1449 23.6885 23.5578 25.0318 23.7955C25.3029 23.8434 25.6593 23.6898 25.9057 23.5216C26.2593 23.281 26.5288 22.9188 26.8679 22.6508C27.9027 21.832 29.3329 21.8131 30.3082 22.6971C31.3515 23.6419 32.35 24.6433 33.2992 25.6838C34.1963 26.6677 34.1715 28.1299 33.3267 29.1674C33.0659 29.4892 32.7616 29.7762 32.4732 30.0746C32.1645 30.3934 32.0892 30.7587 32.2457 31.1716C32.3225 31.3745 32.4254 31.5673 32.4906 31.773C32.6978 32.4252 33.1485 32.657 33.8136 32.6453C34.3136 32.6367 34.8353 32.6556 35.3121 32.786C36.4192 33.0888 37.1859 34.0641 37.2206 35.2148C37.2611 36.5509 37.2684 37.8898 37.2249 39.2259C37.1771 40.7012 36.0642 41.7851 34.5875 41.8764C34.4614 41.8837 34.3339 41.8837 34.2078 41.8837C32.8399 41.8909 32.4674 42.1648 32.2052 43.5328C32.1515 43.8139 32.321 44.1892 32.4949 44.4516C32.721 44.792 33.0746 45.0456 33.334 45.3674C34.131 46.3571 34.2049 47.7788 33.3717 48.7206C32.3804 49.8409 31.311 50.9016 30.1938 51.8987C29.2879 52.7058 27.8345 52.6449 26.8824 51.887C26.5447 51.6176 26.2433 51.3016 25.9303 51.0016C25.5971 50.6813 25.2261 50.5813 24.7913 50.7741C24.5435 50.8842 24.2957 50.9914 24.0421 51.0885C23.5784 51.2653 23.3682 51.6102 23.3596 52.0913C23.3538 52.3812 23.3639 52.6696 23.3538 52.9594C23.306 54.2941 22.6393 55.1998 21.3845 55.6476C21.3047 55.6766 21.2336 55.7287 21.1597 55.7708H16.3863C16.3067 55.7331 16.2284 55.6881 16.1457 55.6606C14.8589 55.2417 14.1372 54.2709 14.1097 52.913C14.1039 52.6058 14.1677 52.2827 14.0879 51.9971C14.0084 51.7088 13.8547 51.3624 13.6228 51.2103C12.4302 50.4277 12.0635 50.4858 11.0521 51.477C11.0129 51.5146 10.9767 51.5538 10.9361 51.5914C9.70293 52.742 8.13057 52.7652 6.90752 51.6117C6.04099 50.7944 5.20918 49.938 4.37446 49.0873C3.65127 48.3512 3.31654 47.4367 3.62668 46.4614C3.82516 45.8413 4.26571 45.263 4.70488 44.7616C5.40043 43.966 5.45988 43.8892 5.04543 42.9024C5.00335 42.8024 4.95696 42.7053 4.91932 42.6038C4.73529 42.0981 4.37446 41.8677 3.83821 41.8851C3.49627 41.8952 3.14988 41.9039 2.80932 41.8706C1.41238 41.7359 0.632795 40.8794 0.222656 39.607C0.222656 38.0159 0.222656 36.4248 0.222656 34.8335ZM32.195 27.4851C32.0268 27.1792 31.9486 26.9242 31.782 26.7517C30.9531 25.8938 30.1125 25.0462 29.2532 24.2187C28.8011 23.784 28.3315 23.8028 27.8547 24.2274C27.5722 24.4795 27.3042 24.7505 27.0346 25.0171C25.4377 26.6026 21.8785 25.0158 21.6061 23.1927C21.5611 22.8898 21.5322 22.5841 21.512 22.2783C21.496 22.0435 21.5163 21.8073 21.5047 21.5739C21.4714 20.9653 21.1597 20.6219 20.5599 20.6117C19.3484 20.5914 18.1368 20.593 16.9254 20.6117C16.3342 20.6205 16.0081 20.9683 15.9646 21.5696C15.9486 21.7856 15.9603 22.003 15.9588 22.2203C15.9545 24.3085 13.9431 25.9837 11.8607 25.6635C10.9521 25.5244 10.3478 24.9548 9.74488 24.3448C9.15807 23.7535 8.69432 23.7491 8.11182 24.3201C7.32488 25.0926 6.54377 25.8721 5.77432 26.6619C5.25266 27.1966 5.26418 27.6734 5.78154 28.2212C6.01779 28.4705 6.27141 28.7038 6.49599 28.9631C6.9771 29.5196 7.27557 30.1833 7.1553 30.9078C6.78432 33.1541 5.78585 34.622 3.49474 34.4902C3.36877 34.483 3.24127 34.4858 3.11516 34.4902C2.45293 34.5177 2.0921 34.838 2.08044 35.4871C2.06016 36.6624 2.06155 37.8377 2.08044 39.013C2.09057 39.6635 2.45002 40.0027 3.1021 40.0345C3.42668 40.0505 3.75418 40.0273 4.07877 40.0433C5.13668 40.0955 5.94821 40.5737 6.4496 41.5084C6.68724 41.9517 6.88724 42.4227 7.03793 42.9024C7.34807 43.8908 7.14668 44.7964 6.46696 45.5819C6.20766 45.8819 5.90182 46.1441 5.64821 46.447C5.30335 46.8585 5.2946 47.3338 5.66557 47.7194C6.51766 48.6048 7.38724 49.4742 8.27405 50.3263C8.67405 50.7103 9.15946 50.6901 9.58988 50.3205C9.83627 50.1089 10.0696 49.8799 10.287 49.638C11.9346 47.8092 15.6024 49.496 15.856 51.2712C15.924 51.7509 15.9459 52.2392 15.9588 52.7246C15.9835 53.5767 16.3009 53.9159 17.1428 53.9216C18.0282 53.9288 18.915 53.9231 19.8004 53.9231C21.3685 53.9231 21.5003 53.7941 21.5134 52.2377C21.5307 50.1351 23.774 48.412 25.839 48.8917C26.6665 49.0844 27.2114 49.651 27.7795 50.2103C28.2822 50.706 28.7852 50.748 29.2561 50.2959C30.117 49.4699 30.9603 48.6251 31.7863 47.7642C32.2254 47.3063 32.2007 46.8426 31.7747 46.3673C31.5689 46.1383 31.3531 45.9195 31.1254 45.7137C29.301 44.0631 30.9821 40.4113 32.7602 40.1403C33.0442 40.0969 33.3311 40.0592 33.6181 40.0419C33.9064 40.0244 34.1977 40.0534 34.4846 40.0288C35.0484 39.978 35.3845 39.6448 35.3932 39.0767C35.4106 37.8652 35.4121 36.6537 35.3932 35.4437C35.3831 34.8423 35.0425 34.5292 34.4353 34.4945C34.2195 34.4814 34.0021 34.4902 33.7846 34.4902C31.6979 34.4801 30.0154 32.4556 30.3445 30.3789C30.4778 29.537 30.9777 28.9501 31.5472 28.3763C31.8022 28.1198 31.9834 27.7878 32.2007 27.4864L32.195 27.4851Z" fill="#5D6DFD"/>
<path d="M30.8024 0.228631C31.6704 0.228631 32.5385 0.219881 33.4065 0.228631C35.1367 0.24752 36.2975 1.38363 36.3381 3.11238C36.3583 3.98044 36.3599 4.84849 36.3367 5.71502C36.3221 6.28308 36.5613 6.63085 37.0815 6.83516C37.8365 7.13224 38.5886 7.44238 39.329 7.77141C39.8232 7.99169 40.2304 7.92058 40.6072 7.53655C41.2014 6.92947 41.8042 6.32947 42.41 5.73391C43.7257 4.44419 45.3169 4.43697 46.6328 5.72961C47.8572 6.93377 49.0746 8.14669 50.2803 9.36974C51.5714 10.6797 51.5613 12.2753 50.2686 13.5911C49.6861 14.1838 49.1035 14.7779 48.5036 15.3547C48.0818 15.7604 48.0094 16.185 48.2558 16.7213C48.5876 17.4414 48.876 18.182 49.1658 18.921C49.36 19.4167 49.6832 19.6717 50.2339 19.66C51.0831 19.6427 51.9336 19.6485 52.7829 19.6572C54.6103 19.676 55.7638 20.8281 55.7725 22.6496C55.7797 24.3495 55.7782 26.0493 55.7725 27.7477C55.7667 29.6099 54.6407 30.7474 52.7699 30.7778C51.9568 30.7909 51.1425 30.7967 50.3294 30.775C49.7238 30.7591 49.3528 31.001 49.1413 31.5807C48.876 32.3096 48.5732 33.0254 48.2456 33.7284C47.9949 34.2674 48.0876 34.692 48.5036 35.0949C49.1006 35.6731 49.6861 36.2657 50.2686 36.8585C51.5569 38.1728 51.5599 39.7668 50.2628 41.0797C49.0557 42.3014 47.8413 43.5157 46.6168 44.7214C45.33 45.9895 43.7315 45.9938 42.4346 44.7315C41.5014 43.8245 40.5854 42.8985 39.6682 41.9739C39.1653 41.4667 39.1204 40.8885 39.5306 40.4972C39.9319 40.1146 40.4667 40.1639 40.9651 40.6552C41.8535 41.5304 42.7317 42.4188 43.6157 43.297C44.3025 43.9795 44.7343 43.9839 45.4068 43.3129C46.5733 42.1521 47.7369 40.9885 48.8978 39.8234C49.5339 39.1843 49.5339 38.7496 48.9064 38.112C48.3224 37.5192 47.7268 36.9382 47.1457 36.3441C46.1763 35.3514 45.9936 34.3007 46.54 33.0182C46.8515 32.2878 47.1529 31.5532 47.4486 30.817C47.9385 29.5968 48.8282 28.9491 50.1483 28.9288C51.0164 28.9143 51.8844 28.9331 52.7525 28.92C53.6001 28.907 53.9204 28.5738 53.9233 27.7172C53.9276 26.0536 53.9276 24.39 53.9233 22.7264C53.9204 21.8497 53.5871 21.5164 52.7075 21.5078C51.8583 21.5004 51.0076 21.5121 50.1585 21.5034C48.8615 21.4903 47.9717 20.8731 47.4776 19.676C47.1544 18.8921 46.8356 18.1066 46.5037 17.327C45.9936 16.1285 46.2082 15.0663 47.1038 14.1403C47.7065 13.5157 48.3326 12.9143 48.9397 12.2942C49.5238 11.6971 49.5296 11.2493 48.9456 10.6595C47.75 9.45238 46.5472 8.24961 45.3401 7.05405C44.7474 6.4671 44.3025 6.47002 43.7054 7.05113C43.1099 7.63224 42.5303 8.2278 41.9375 8.81183C40.9188 9.81613 39.8711 10.0074 38.5713 9.45086C37.8422 9.13794 37.1061 8.84086 36.37 8.54224C35.1164 8.03225 34.5049 7.14822 34.489 5.78599C34.4789 4.93683 34.4947 4.08627 34.4846 3.23697C34.4731 2.42266 34.131 2.07627 33.3239 2.07336C31.624 2.06613 29.9242 2.06613 28.2243 2.07336C27.4172 2.07627 27.0853 2.41391 27.0737 3.23988C27.0607 4.07169 27.0796 4.9035 27.0679 5.7353C27.0462 7.19461 26.4347 8.04821 25.0783 8.58141C24.3392 8.87127 23.6103 9.18433 22.8785 9.49586C21.7018 9.99586 20.6497 9.79586 19.731 8.92488C19.089 8.31474 18.4775 7.6728 17.8442 7.05405C17.25 6.47294 16.8008 6.47002 16.211 7.05544C15.0039 8.25252 13.8011 9.45377 12.6056 10.661C12.0303 11.2406 12.0346 11.7057 12.6143 12.297C13.4765 13.1738 14.3518 14.0374 15.2183 14.9099C15.3575 15.0504 15.4994 15.1953 15.601 15.3634C15.84 15.7575 15.7618 16.1416 15.4501 16.4517C15.1372 16.7632 14.7431 16.8314 14.3619 16.5836C14.1228 16.4285 13.9185 16.2154 13.7142 16.0127C12.8925 15.1982 12.0679 14.3853 11.2607 13.5563C10.0029 12.2636 10.0043 10.6595 11.2724 9.37405C12.4781 8.14961 13.6939 6.93669 14.9169 5.72961C16.2283 4.43544 17.8282 4.43974 19.1397 5.72961C19.7339 6.31211 20.3251 6.89613 20.9047 7.49308C21.3076 7.90905 21.7336 8.00322 22.2713 7.7496C22.9075 7.4496 23.561 7.18738 24.216 6.93086C25.1101 6.58016 25.2087 6.44974 25.216 5.50197C25.2232 4.59919 25.184 3.69058 25.2608 2.79211C25.3899 1.26905 26.5014 0.266272 28.036 0.232939C28.9576 0.212661 29.8807 0.228631 30.8024 0.228631Z" fill="#5D6DFD"/>
<path d="M30.8122 13.208C36.629 13.2544 41.5532 17.2931 42.5835 23.0086C43.3096 27.0313 42.2212 30.5876 39.4114 33.5887C38.9708 34.0597 38.4303 34.1234 38.026 33.7727C37.5999 33.4031 37.5897 32.838 38.0622 32.3425C39.536 30.7962 40.4881 28.9906 40.859 26.8836C41.614 22.6043 39.5229 18.3452 35.6044 16.1861C31.9179 14.1543 27.0965 14.7673 23.9621 17.6641C23.8157 17.7988 23.6722 17.938 23.5114 18.054C23.0767 18.3669 22.5637 18.3206 22.2435 17.9554C21.9232 17.5887 21.9203 17.0468 22.3174 16.6875C22.9057 16.1555 23.5057 15.6237 24.1635 15.1876C26.1721 13.8572 28.395 13.1979 30.8107 13.2095L30.8122 13.208Z" fill="#407BFF"/>
<path d="M18.7413 28.937C23.3974 28.9862 27.1217 32.7134 27.0594 37.2941C26.987 42.5414 23.1902 45.5035 18.7356 45.56C14.0085 45.6209 10.364 41.7878 10.4176 37.0071C10.4667 32.5902 14.2838 28.8891 18.7413 28.937ZM25.1973 37.2332C25.1799 33.6335 22.2715 30.7527 18.6949 30.7903C15.0649 30.8295 12.2391 33.7162 12.2594 37.3637C12.2797 40.8952 15.2026 43.7428 18.7935 43.7298C22.3367 43.7167 25.2147 40.7981 25.1973 37.2332Z" fill="#407BFF"/>
</g>
</svg>
