<svg width="56" height="56" viewBox="0 0 56 56" fill="none" xmlns="http://www.w3.org/2000/svg">
<mask id="mask0_217_58" style="mask-type:luminance" maskUnits="userSpaceOnUse" x="0" y="0" width="56" height="56">
<path d="M55.7777 0.222656H0.222168V55.7689H55.7777V0.222656Z" fill="white"/>
</mask>
<g mask="url(#mask0_217_58)">
<path d="M22.953 41.238C22.6345 44.4741 19.4758 46.5676 16.1485 45.108C16.0434 45.2689 15.9305 45.4389 15.8191 45.6121C14.1973 48.1198 12.6109 50.654 10.9412 53.1294C9.52173 55.2336 7.47784 56.1118 4.98228 55.648C2.58117 55.2012 1.04742 53.6937 0.416589 51.3421C-0.234244 48.9146 0.784646 46.4207 2.9384 45.0153C5.37659 43.4258 7.82256 41.8519 10.2655 40.2703C10.4727 40.1357 10.6798 39.998 10.8808 39.8651C9.45687 36.6723 11.3802 33.4271 14.7678 33.0328C11.8858 27.4914 11.3694 21.7491 13.4613 15.8615C15.0924 11.2679 18.0658 7.69789 22.2263 5.15762C30.6512 0.0135891 41.4509 1.52567 48.3019 8.78012C54.8976 15.7625 55.683 26.7803 50.2514 34.7273C44.6591 42.9079 33.1374 46.6975 22.953 41.2396V41.238ZM33.0508 4.45414C22.8309 4.44012 14.5667 12.6857 14.5281 22.9365C14.4895 33.1301 22.7566 41.4251 33.0013 41.473C43.2181 41.5211 51.5626 33.1921 51.5533 22.9566C51.5426 12.7212 43.2908 4.46803 33.0508 4.45414ZM12.3852 41.651C9.58048 43.4707 6.78201 45.2394 4.03451 47.084C2.42659 48.1632 2.07562 50.3154 3.13784 51.894C4.57576 54.0293 7.60451 53.9875 9.06103 51.7796C10.8005 49.145 12.4981 46.4841 14.2127 43.8325C14.2621 43.7568 14.2916 43.6671 14.3256 43.5959C13.6777 42.9465 13.0531 42.3219 12.3837 41.651H12.3852ZM17.9821 43.3037C19.233 43.2589 19.9458 42.8569 20.3633 42.0297C20.7884 41.184 20.776 40.2887 20.1376 39.5946C18.9531 38.3066 17.7146 37.0604 16.4206 35.8839C15.5238 35.0675 14.106 35.2654 13.3037 36.1729C12.4934 37.0898 12.5321 38.4287 13.401 39.3039C14.5003 40.4109 15.5764 41.5426 16.7221 42.5971C17.1334 42.9759 17.7194 43.1615 17.9806 43.3037H17.9821Z" fill="#5D6DFD"/>
<path d="M45.938 3.69095C45.001 3.68636 44.2155 2.90094 44.211 1.964C44.2062 1.00386 45.0226 0.202889 45.9812 0.223028C46.9197 0.243167 47.6912 1.04095 47.6789 1.97942C47.6665 2.91789 46.875 3.69567 45.938 3.69247V3.69095Z" fill="#5D6DFD"/>
<path d="M4.85699 14.6889C4.85699 15.6274 4.07463 16.4143 3.13616 16.4221C2.17755 16.4299 1.37199 15.6181 1.38893 14.6579C1.40449 13.721 2.20074 12.9449 3.13768 12.9542C4.07616 12.9618 4.85699 13.7504 4.85699 14.6889Z" fill="#407BFF"/>
<path d="M32.0472 48.8321C32.9841 48.8275 33.7773 49.6068 33.7897 50.5437C33.8021 51.5039 32.995 52.3125 32.0348 52.3001C31.0979 52.2877 30.3187 51.4961 30.3218 50.5591C30.3248 49.6222 31.1103 48.8368 32.0472 48.8321Z" fill="#407BFF"/>
<path d="M10.6573 1.38285C11.2743 1.38743 11.7907 1.89923 11.8015 2.51618C11.8123 3.15465 11.2773 3.69423 10.6389 3.68965C10.0003 3.6834 9.47456 3.13618 9.4947 2.49757C9.51484 1.88062 10.0404 1.37812 10.6558 1.38285H10.6573Z" fill="#407BFF"/>
<path d="M54.6321 10.6334C53.9935 10.6365 53.46 10.0969 53.4724 9.45829C53.4847 8.84149 54.0013 8.33121 54.6181 8.32816C55.2582 8.32343 55.79 8.86468 55.7777 9.50315C55.7653 10.1201 55.2474 10.6302 54.6304 10.635L54.6321 10.6334Z" fill="#407BFF"/>
<path d="M4.88023 29.1512C4.24162 29.1636 3.70204 28.6302 3.70509 27.9916C3.70815 27.3747 4.21843 26.8583 4.83537 26.8459C5.47384 26.8336 6.01509 27.367 6.01037 28.0055C6.00579 28.6224 5.49551 29.1404 4.8787 29.1527L4.88023 29.1512Z" fill="#407BFF"/>
<path d="M53.4607 50.0086C53.4484 50.6472 52.8934 51.1697 52.2578 51.1404C51.6425 51.1125 51.1446 50.5807 51.1554 49.9653C51.1678 49.3268 51.7213 48.8057 52.3584 48.8352C52.9736 48.863 53.4731 49.3948 53.4607 50.0086Z" fill="#407BFF"/>
<path d="M32.9422 10.3887C33.5111 9.88928 34.3058 9.529 35.2274 9.48719C35.971 9.45331 36.5122 9.89539 36.5617 10.5541C36.6111 11.2065 36.1426 11.7059 35.3943 11.7957C34.5594 11.8961 34.1467 12.2564 34.0075 13.0109C37.1275 13.8272 38.5051 15.8975 38.3289 18.8923C38.9226 19.2047 39.5951 19.35 39.8704 19.7614C40.1626 20.2004 40.076 20.89 40.1564 21.4698C41.1104 21.2394 41.9871 20.1602 42.1278 19.0315C42.151 18.8398 42.1525 18.6465 42.185 18.4564C42.2962 17.7776 42.7942 17.3586 43.4157 17.408C44.0465 17.4591 44.4639 17.9415 44.4717 18.6296C44.4964 20.8266 43.0383 22.9293 40.9388 23.7255C40.3564 23.9462 40.0714 24.3714 40.0838 25.0011C40.0868 25.1341 40.1024 25.2655 40.1147 25.4232C41.469 25.7789 42.6008 26.4654 43.4233 27.6094C44.0325 28.4583 44.3975 29.3983 44.4562 30.4466C44.5103 31.4098 44.1485 31.9557 43.4172 32.0221C42.706 32.0855 42.2344 31.5659 42.151 30.6229C42.0411 29.3844 41.4072 28.5047 40.3126 27.9419C40.2461 27.9079 40.1688 27.8955 40.0436 27.8568C39.6678 29.9179 38.6675 31.5707 36.8987 32.7055C35.6789 33.4879 34.3338 33.8341 32.8881 33.7801C29.7494 33.6626 27.6807 31.7994 26.3665 27.914C25.3444 28.1475 24.4354 29.2468 24.2993 30.4141C24.2824 30.5672 24.2807 30.7218 24.2607 30.8748C24.1647 31.6 23.6808 32.0576 23.0515 32.0252C22.3851 31.9912 21.9539 31.4701 21.9615 30.7157C21.9894 28.4072 23.534 26.2875 25.7851 25.6057C26.3557 25.4325 26.3525 25.1309 26.3572 24.6904C26.3603 24.259 26.3464 23.9807 25.8038 23.8152C23.554 23.1319 22.0311 21.0833 21.9646 18.7796C21.9414 17.9693 22.3496 17.4452 23.0361 17.4034C23.7118 17.3633 24.2096 17.8364 24.2638 18.648C24.3457 19.8865 24.9115 20.8002 25.9876 21.4064C26.0681 21.4512 26.1593 21.4775 26.266 21.5193C26.3449 20.9116 26.3247 20.2994 26.5181 19.7644C26.7592 19.095 27.4642 19.1568 28.0672 19.1475C28.1043 18.475 28.0796 17.8533 28.1847 17.255C28.4971 15.4769 29.5004 14.189 31.144 13.4562C31.6574 13.2273 31.6574 12.98 31.4393 12.5857C31.1781 12.1111 30.7699 11.8605 30.2349 11.7972C29.3768 11.6936 28.9176 11.2143 28.9918 10.5186C29.0692 9.80261 29.686 9.3265 30.521 9.51664C31.3079 9.69594 32.0532 10.0577 32.9422 10.3871V10.3887ZM34.3693 31.2614C36.2369 30.9121 37.7182 29.0365 37.7522 27.0343C37.7722 25.8793 37.7615 24.7229 37.7646 23.5664C37.7646 22.8829 37.7646 22.1996 37.7646 21.5193H28.6703C28.6703 23.0823 28.6562 24.6177 28.6764 26.153C28.6857 26.8039 28.6842 27.4734 28.8325 28.0996C29.2099 29.6952 30.671 31.0836 32.0547 31.2351C32.0547 31.0404 32.0547 30.8501 32.0547 30.66C32.0547 28.7334 32.0517 26.8055 32.0563 24.879C32.0578 24.1198 32.4521 23.6375 33.089 23.5787C33.8467 23.5091 34.3631 24.0147 34.3661 24.8636C34.3739 26.9818 34.3693 29.1 34.3693 31.2614ZM30.4575 19.0764H35.9664C36.1257 17.7096 35.9185 16.5159 34.6878 15.7491C33.7183 15.1446 32.6994 15.1554 31.7346 15.7491C30.5008 16.5098 30.2951 17.708 30.4575 19.0748V19.0764Z" fill="#407BFF"/>
</g>
</svg>
