<svg width="519" height="452" viewBox="0 0 519 452" fill="none" xmlns="http://www.w3.org/2000/svg">
<mask id="mask0_1328_1787" style="mask-type:luminance" maskUnits="userSpaceOnUse" x="0" y="0" width="520" height="452">
<path d="M519.001 0H0.000976562V451.503H519.001V0Z" fill="white"/>
</mask>
<g mask="url(#mask0_1328_1787)">
<path d="M487.51 446.147C487.51 449.103 380.023 451.503 247.437 451.503C114.852 451.503 7.36328 449.103 7.36328 446.147C7.36328 443.191 114.852 440.792 247.437 440.792C380.023 440.792 487.51 443.191 487.51 446.147Z" fill="#E5E9ED"/>
<path d="M94.1756 150.602C94.1756 148.241 93.9609 145.916 93.5567 143.668C93.304 142.279 93.9609 140.888 95.186 140.194L100.617 137.061C102.234 136.127 102.777 134.068 101.855 132.464L94.226 119.239C93.2914 117.622 91.2326 117.079 89.6284 118.001L84.1973 121.133C82.972 121.841 81.4438 121.714 80.3701 120.805C76.8461 117.824 72.7917 115.462 68.3708 113.87C67.0446 113.391 66.1857 112.128 66.1857 110.726V104.46C66.1857 102.604 64.6827 101.088 62.8132 101.088H47.5553C45.6985 101.088 44.1828 102.591 44.1828 104.46V110.726C44.1828 112.128 43.3113 113.404 41.9977 113.87C37.5769 115.462 33.5224 117.824 29.9984 120.805C28.9248 121.714 27.3965 121.841 26.1713 121.133L20.7401 118.001C19.1233 117.066 17.0645 117.622 16.1424 119.239L8.51342 132.464C7.57873 134.08 8.13448 136.14 9.75124 137.061L15.1825 140.194C16.4077 140.901 17.0645 142.291 16.8119 143.668C16.4077 145.916 16.193 148.228 16.193 150.602C16.193 152.977 16.4077 155.289 16.8119 157.537C17.0645 158.926 16.4077 160.315 15.1825 161.011L9.75124 164.143C8.13448 165.078 7.59137 167.136 8.51342 168.74L16.1424 181.965C17.0771 183.582 19.136 184.125 20.7401 183.204L26.1713 180.071C27.3965 179.364 28.9248 179.49 29.9984 180.4C33.5224 183.381 37.5769 185.742 41.9977 187.334C43.3239 187.814 44.1828 189.077 44.1828 190.479V196.744C44.1828 198.601 45.6859 200.116 47.5553 200.116H62.8132C64.67 200.116 66.1857 198.614 66.1857 196.744V190.479C66.1857 189.077 67.0572 187.801 68.3708 187.334C72.7917 185.742 76.8461 183.381 80.3701 180.4C81.4438 179.49 82.972 179.364 84.1973 180.071L89.6284 183.204C91.2452 184.138 93.304 183.582 94.226 181.965L101.855 168.74C102.79 167.123 102.234 165.065 100.617 164.143L95.186 161.011C93.9609 160.303 93.304 158.914 93.5567 157.537C93.9609 155.289 94.1756 152.977 94.1756 150.602ZM57.8872 171.456C44.1323 173.187 32.5624 161.617 34.2929 147.861C35.4802 138.489 43.046 130.923 52.4181 129.735C66.1731 128.005 77.7429 139.576 76.0125 153.33C74.8252 162.703 67.2593 170.269 57.8872 171.456Z" fill="white" stroke="#BEC8D2" stroke-width="1.13932" stroke-miterlimit="10"/>
<path d="M149.509 80.9786C150.949 78.5534 152.149 76.0525 153.109 73.4883C153.703 71.9095 155.218 70.8989 156.898 70.9242L164.375 71.0252C166.599 71.0505 168.417 69.2821 168.455 67.059L168.708 48.8447C168.733 46.6217 166.965 44.8028 164.742 44.7649L157.252 44.6639C155.572 44.6386 154.069 43.5775 153.526 41.9861C151.733 36.7819 149.03 31.8811 145.454 27.5359C144.393 26.2475 144.267 24.416 145.126 22.976L148.953 16.5468C150.091 14.6394 149.458 12.1763 147.551 11.0395L131.902 1.71766C129.994 0.580848 127.531 1.21241 126.395 3.11972L122.568 9.54903C121.709 10.989 120.041 11.7594 118.399 11.4437C112.893 10.37 107.284 10.3195 101.853 11.229C100.198 11.5069 98.5438 10.6984 97.7354 9.23324L94.0725 2.69026C92.9863 0.757685 90.5359 0.0629671 88.6034 1.14925L72.7012 10.0416C70.7687 11.1279 70.074 13.5784 71.1602 15.5109L74.8105 22.0413C75.6316 23.5065 75.4547 25.3381 74.3558 26.6011C72.5622 28.6601 70.9329 30.8958 69.4803 33.3337C68.0404 35.7588 66.8404 38.2598 65.8806 40.824C65.2869 42.4029 63.7712 43.4133 62.0913 43.388L54.6139 43.2871C52.3909 43.2618 50.5721 45.0301 50.5341 47.2532L50.2815 65.4675C50.2562 67.6906 52.0245 69.5095 54.2476 69.5474L61.7377 69.6484C63.4176 69.6737 64.9206 70.7347 65.4638 72.3262C67.2573 77.5303 69.9603 82.4313 73.5348 86.7763C74.5958 88.0647 74.7221 89.8963 73.8632 91.3362L70.0361 97.7655C68.8994 99.6729 69.5309 102.136 71.4382 103.273L87.0876 112.594C88.9949 113.732 91.4579 113.1 92.5947 111.192L96.4219 104.763C97.2807 103.323 98.948 102.553 100.59 102.869C106.097 103.942 111.706 103.993 117.137 103.083C118.791 102.805 120.446 103.614 121.254 105.079L124.917 111.622C126.003 113.555 128.453 114.25 130.386 113.163L146.288 104.271C148.221 103.184 148.915 100.734 147.829 98.8013L144.179 92.271C143.358 90.8058 143.534 88.9742 144.633 87.7111C146.427 85.6522 148.057 83.4164 149.509 80.9786ZM99.5669 80.2082C84.3973 73.5894 79.6103 54.6551 89.778 41.6071C96.7124 32.7147 109.103 29.5822 119.435 34.0916C134.605 40.7102 139.392 59.6445 129.224 72.6925C122.29 81.5849 109.899 84.7174 99.5669 80.2082Z" fill="white" stroke="#BEC8D2" stroke-width="1.13932" stroke-miterlimit="10"/>
<path d="M493.053 118.039C493.053 114.805 492.763 111.634 492.207 108.565C491.867 106.671 492.763 104.776 494.43 103.816L501.845 99.5337C504.043 98.258 504.8 95.4411 503.525 93.2433L493.091 75.168C491.815 72.9702 488.999 72.2123 486.801 73.4881L479.374 77.7827C477.707 78.7427 475.61 78.5785 474.145 77.328C469.333 73.2481 463.788 70.0145 457.737 67.8419C455.932 67.1978 454.744 65.4546 454.744 63.5347V54.9707C454.744 52.4318 452.686 50.3604 450.134 50.3604H429.268C426.729 50.3604 424.658 52.4192 424.658 54.9707V63.5347C424.658 65.4546 423.471 67.1851 421.664 67.8419C415.614 70.0145 410.069 73.2481 405.256 77.328C403.792 78.5658 401.695 78.7427 400.028 77.7701L392.6 73.4755C390.403 72.1998 387.586 72.9576 386.31 75.1554L375.878 93.2308C374.602 95.4286 375.36 98.2453 377.558 99.521L384.971 103.803C386.638 104.763 387.536 106.658 387.194 108.553C386.638 111.622 386.348 114.793 386.348 118.026C386.348 121.26 386.638 124.43 387.194 127.5C387.536 129.394 386.638 131.289 384.971 132.248L377.558 136.531C375.36 137.807 374.602 140.623 375.878 142.821L386.31 160.896C387.586 163.094 390.403 163.852 392.6 162.576L400.028 158.282C401.695 157.322 403.792 157.486 405.256 158.736C410.069 162.816 415.614 166.05 421.664 168.222C423.471 168.867 424.658 170.61 424.658 172.529V181.094C424.658 183.632 426.717 185.704 429.268 185.704H450.134C452.673 185.704 454.744 183.645 454.744 181.094V172.529C454.744 170.61 455.932 168.879 457.737 168.222C463.788 166.05 469.333 162.816 474.145 158.736C475.61 157.499 477.707 157.322 479.374 158.282L486.801 162.576C488.999 163.852 491.815 163.094 493.091 160.896L503.525 142.821C504.8 140.623 504.043 137.807 501.845 136.531L494.43 132.248C492.763 131.289 491.867 129.394 492.207 127.5C492.763 124.43 493.053 121.26 493.053 118.026V118.039ZM443.452 146.56C424.645 148.935 408.831 133.107 411.206 114.312C412.822 101.492 423.167 91.1466 435.988 89.5298C454.794 87.1551 470.609 102.982 468.234 121.777C466.617 134.598 456.273 144.943 443.452 146.56Z" fill="white" stroke="#BEC8D2" stroke-width="1.13932" stroke-miterlimit="10"/>
<path d="M439.713 150.576H55.1553V397.087H439.713V150.576Z" fill="#E5E9ED"/>
<path d="M439.713 160.454H55.1553V182.066H439.713V160.454Z" fill="#BEC8D2"/>
<path d="M78.0451 168.728L80.2049 171.001V174.058H75.8852V171.001L78.0451 168.728ZM78.0451 167.199C77.8556 167.199 77.6788 167.275 77.5272 167.439L74.9126 170.193C74.7358 170.383 74.6348 170.66 74.6348 170.938V174.323C74.6348 174.866 74.9884 175.308 75.4305 175.308H80.6723C81.1144 175.308 81.4681 174.866 81.4681 174.323V170.938C81.4681 170.648 81.367 170.37 81.1901 170.193L78.5756 167.439C78.424 167.287 78.2345 167.199 78.0578 167.199H78.0451Z" fill="#174159"/>
<path d="M88.2119 173.59L91.2307 171.644C91.5718 171.418 91.5718 171.089 91.2307 170.874L88.2119 168.929" stroke="#174159" stroke-width="1.13932" stroke-miterlimit="10" stroke-linecap="round"/>
<path d="M67.8625 173.59L64.8437 171.644C64.5026 171.418 64.5026 171.089 64.8437 170.874L67.8625 168.929" stroke="#174159" stroke-width="1.13932" stroke-miterlimit="10" stroke-linecap="round"/>
<path d="M395.226 164.547H104.364C102.55 164.547 101.08 166.017 101.08 167.831V174.689C101.08 176.503 102.55 177.973 104.364 177.973H395.226C397.04 177.973 398.511 176.503 398.511 174.689V167.831C398.511 166.017 397.04 164.547 395.226 164.547Z" fill="#F2F2F2"/>
<path d="M298.802 169.233H200.8V173.288H298.802V169.233Z" fill="#BEC8D2"/>
<path d="M111.527 169.233C112.652 170.357 112.652 172.163 111.527 173.287C110.403 174.411 108.597 174.411 107.473 173.287C106.349 172.163 106.349 170.357 107.473 169.233C108.597 168.109 110.403 168.109 111.527 169.233Z" stroke="#BEC8D2" stroke-width="1.13932" stroke-miterlimit="10"/>
<path d="M111.527 173.288L113.257 175.006" stroke="#BEC8D2" stroke-width="1.13932" stroke-miterlimit="10" stroke-linecap="round"/>
<path d="M394.051 171.253C394.051 172.832 392.762 174.121 391.183 174.121C389.604 174.121 388.315 172.832 388.315 171.253C388.315 169.674 389.604 168.387 391.183 168.387" stroke="#BEC8D2" stroke-width="1.13932" stroke-miterlimit="10" stroke-linecap="round"/>
<path d="M391.182 167.591L392.71 168.614L391.182 169.65V167.591Z" stroke="#BEC8D2" stroke-width="1.13932" stroke-linecap="round" stroke-linejoin="round"/>
<path d="M410.864 167.187L411.875 170.294H415.133L412.493 172.214L413.504 175.321L410.864 173.401L408.211 175.321L409.222 172.214L406.582 170.294H409.853L410.864 167.187Z" stroke="#174159" stroke-width="1.13932" stroke-linecap="round" stroke-linejoin="round"/>
<path d="M422.043 167.856H432.717" stroke="#174159" stroke-width="1.13932" stroke-linecap="round" stroke-linejoin="round"/>
<path d="M422.043 171.254H432.717" stroke="#174159" stroke-width="1.13932" stroke-linecap="round" stroke-linejoin="round"/>
<path d="M422.043 174.664H432.717" stroke="#174159" stroke-width="1.13932" stroke-linecap="round" stroke-linejoin="round"/>
<path d="M439.7 150.576V397.087H55.1553" stroke="#174159" stroke-width="0.85449" stroke-miterlimit="10"/>
<path d="M439.713 150.576H55.1553V160.454H439.713V150.576Z" fill="#174159"/>
<path d="M62.8613 157.826C64.1378 157.826 65.1727 156.791 65.1727 155.515C65.1727 154.238 64.1378 153.203 62.8613 153.203C61.5847 153.203 60.5498 154.238 60.5498 155.515C60.5498 156.791 61.5847 157.826 62.8613 157.826Z" fill="#E03F3F"/>
<path d="M69.2127 157.826C70.4894 157.826 71.5242 156.791 71.5242 155.515C71.5242 154.238 70.4894 153.203 69.2127 153.203C67.9362 153.203 66.9014 154.238 66.9014 155.515C66.9014 156.791 67.9362 157.826 69.2127 157.826Z" fill="#2D80EA"/>
<path d="M77.8641 155.515C77.8641 156.791 76.8283 157.826 75.5526 157.826C74.2769 157.826 73.2412 156.791 73.2412 155.515C73.2412 154.239 74.2769 153.203 75.5526 153.203C76.8283 153.203 77.8641 154.239 77.8641 155.515Z" fill="#E148BE"/>
<path d="M410.096 367.481H277.156V382.512H410.096V367.481Z" fill="#2176FF"/>
<path d="M101.942 227.564C111.617 227.564 119.461 219.72 119.461 210.044C119.461 200.368 111.617 192.524 101.942 192.524C92.2664 192.524 84.4229 200.368 84.4229 210.044C84.4229 219.72 92.2664 227.564 101.942 227.564Z" fill="#2176FF"/>
<path d="M196.698 202.692H128.188V208.642H196.698V202.692Z" fill="#E03F3F"/>
<path d="M178.547 211.459H128.188V217.408H178.547V211.459Z" fill="#E03F3F"/>
<path d="M324.573 202.692H290.319V208.642H324.573V202.692Z" fill="#BEC8D2"/>
<path d="M367.328 202.692H333.073V208.642H367.328V202.692Z" fill="#BEC8D2"/>
<path d="M85.0908 234.157H409.765" stroke="#174159" stroke-width="1.13932" stroke-miterlimit="10"/>
<path d="M196.697 309.503H85.0908V318.484H196.697V309.503Z" fill="#E03F3F"/>
<path d="M240.387 327.086H85.0908V331.065H240.387V327.086Z" fill="#BEC8D2"/>
<path d="M226.834 334.778H85.0908V338.757H226.834V334.778Z" fill="#BEC8D2"/>
<path d="M215.365 342.471H85.0908V346.45H215.365V342.471Z" fill="#BEC8D2"/>
<path d="M240.387 350.163H85.0908V354.142H240.387V350.163Z" fill="#BEC8D2"/>
<g filter="url(#filter0_d_1328_1787)">
<path d="M131.345 367.48H92.6062C88.4556 367.48 85.0908 370.845 85.0908 374.995C85.0908 379.146 88.4556 382.511 92.6062 382.511H131.345C135.495 382.511 138.86 379.146 138.86 374.995C138.86 370.845 135.495 367.48 131.345 367.48Z" fill="#E03F3F"/>
</g>
<g filter="url(#filter1_d_1328_1787)">
<path d="M193.274 367.481H154.535C150.385 367.481 147.021 370.846 147.021 374.996C147.021 379.147 150.385 382.512 154.535 382.512H193.274C197.424 382.512 200.79 379.147 200.79 374.996C200.79 370.846 197.424 367.481 193.274 367.481Z" fill="#174159"/>
</g>
<path d="M107.763 249.05H85.0908V271.723H107.763V249.05Z" fill="#2176FF"/>
<path d="M85.0908 249.05L107.763 271.723" stroke="#F2F2F2" stroke-width="0.56966" stroke-miterlimit="10"/>
<path d="M107.763 249.05L85.0908 271.723" stroke="#F2F2F2" stroke-width="0.56966" stroke-miterlimit="10"/>
<path d="M139.516 249.05H116.844V271.723H139.516V249.05Z" fill="#2176FF"/>
<path d="M116.844 249.05L139.516 271.723" stroke="#F2F2F2" stroke-width="0.56966" stroke-miterlimit="10"/>
<path d="M139.516 249.05L116.844 271.723" stroke="#F2F2F2" stroke-width="0.56966" stroke-miterlimit="10"/>
<path d="M171.269 249.05H148.598V271.723H171.269V249.05Z" fill="#2176FF"/>
<path d="M148.598 249.05L171.282 271.723" stroke="#F2F2F2" stroke-width="0.56966" stroke-miterlimit="10"/>
<path d="M171.282 249.05L148.598 271.723" stroke="#F2F2F2" stroke-width="0.56966" stroke-miterlimit="10"/>
<g filter="url(#filter2_d_1328_1787)">
<path d="M206.699 279.351L88.7925 277.479L88.4746 297.496L206.381 299.37L206.699 279.351Z" fill="#2176FF"/>
</g>
<path d="M332.627 15.0811V113.731" stroke="#BEC8D2" stroke-width="1.13932" stroke-miterlimit="10" stroke-linecap="round"/>
<path d="M338.577 135.635C337.666 135.66 336.96 136.43 336.985 137.34C337.048 139.412 335.418 141.369 333.348 141.697C332.842 141.773 332.312 141.811 331.769 141.697C331.251 141.622 330.783 141.445 330.328 141.179C329.419 140.661 328.686 139.778 328.358 138.817C328.017 137.833 327.928 136.619 328.396 135.685C330.733 130.986 335.406 127.98 335.406 123.269C338.791 122.106 341.229 118.898 341.229 115.134C341.229 110.384 337.363 106.52 332.615 106.52C327.865 106.52 324 110.384 324 115.134C324 118.784 326.286 121.892 329.495 123.154C329.192 126.452 325.352 129.42 323.735 133.866C322.965 135.988 323.129 138.312 323.938 140.308C324.746 142.316 326.261 143.958 328.105 144.893C329.95 145.865 332.084 146.055 333.991 145.639C335.911 145.196 337.629 144.072 338.74 142.544C339.878 141.027 340.396 139.146 340.281 137.352V137.188C340.218 136.304 339.46 135.621 338.577 135.647V135.635ZM332.627 111.572C334.585 111.572 336.189 113.163 336.189 115.134C336.189 116.334 335.583 117.395 334.673 118.039C334.067 117.47 333.233 117.155 332.35 117.23C331.667 117.294 331.061 117.597 330.593 118.026C329.684 117.382 329.078 116.321 329.078 115.122C329.078 113.163 330.67 111.559 332.64 111.559L332.627 111.572Z" fill="#BEC8D2"/>
<g filter="url(#filter3_d_1328_1787)">
<path d="M432.468 197.724L214.341 227.721L232.037 356.409L450.164 326.412L432.468 197.724Z" fill="#EAF2FF"/>
<path d="M384.416 250.263L328.917 323.46L280.919 287.07L231.444 352.297L232.013 356.427L450.147 326.441L446.117 297.049L384.416 250.263Z" fill="#2176FF"/>
<path d="M428.142 203.451L444.449 322.134L236.331 350.743L220.025 232.06L428.142 203.451ZM432.462 197.755L214.328 227.74L232.011 356.427L450.145 326.442L432.462 197.755Z" fill="#2176FF"/>
<path d="M333.467 264.266C339.812 256.378 338.56 244.841 330.673 238.497C322.785 232.153 311.249 233.405 304.905 241.292C298.561 249.18 299.813 260.717 307.7 267.06C315.587 273.405 327.124 272.153 333.467 264.266Z" fill="#2176FF"/>
</g>
<path d="M228.515 225.783L218.649 259.154L230.737 225.479" stroke="#BEC8D2" stroke-width="1.13932" stroke-linecap="round" stroke-linejoin="round"/>
<path d="M411.266 200.179L437.058 231.189L409.043 199.876" stroke="#BEC8D2" stroke-width="1.13932" stroke-linecap="round" stroke-linejoin="round"/>
<path d="M409.045 199.876L336.114 143.377C334.384 140.926 330.771 140.864 328.953 143.251L230.735 225.48" stroke="#BEC8D2" stroke-width="1.13932" stroke-linecap="round" stroke-linejoin="round"/>
<path d="M329.48 22.6919C333.683 18.4891 333.683 11.6751 329.48 7.47237C325.278 3.26962 318.464 3.26962 314.261 7.47237C310.059 11.6751 310.059 18.4891 314.261 22.6919C318.464 26.8946 325.278 26.8946 329.48 22.6919Z" stroke="#BEC8D2" stroke-width="1.13932" stroke-miterlimit="10" stroke-linecap="round"/>
<path d="M321.865 19.0602C324.062 19.0602 325.844 17.2788 325.844 15.0814C325.844 12.8839 324.062 11.1025 321.865 11.1025C319.667 11.1025 317.887 12.8839 317.887 15.0814C317.887 17.2788 319.667 19.0602 321.865 19.0602Z" stroke="#BEC8D2" stroke-width="1.13932" stroke-miterlimit="10" stroke-linecap="round"/>
<path d="M403.022 349.834C398.891 368.604 400.483 392.729 409.615 406.813C416.815 417.928 429.622 421.364 441.04 430.156L440.509 435.65L445.537 429.65C445.537 429.65 439.208 423.36 420.818 404.362C416.322 399.714 419.53 381.348 420.705 376.751C426.426 369.121 420.679 361.151 416.903 349.834H403.022Z" fill="#174159"/>
<path d="M441.04 430.155L440.51 435.65L445.536 429.649L443.401 427.515C443.401 427.515 443.667 429.801 441.028 430.155H441.04Z" fill="#2D80EA"/>
<path d="M397.743 349.834C385.68 373.631 386.185 388.877 403.629 444.428L398.058 447.877H406.559C406.559 447.877 406.192 389.167 409.616 375.778C415.337 368.148 415.413 361.151 411.636 349.834H397.755H397.743Z" fill="#2E546A"/>
<path d="M398.06 447.877H406.561V444.429C406.561 444.429 404.729 445.502 403.63 444.429L398.06 447.877Z" fill="#2D80EA"/>
<path d="M410.816 295.027C408.694 301.52 402.72 304.677 399.613 304.096C396.493 303.515 394.876 298.21 396 292.248C397.125 286.286 400.522 282.901 403.667 282.509C408.176 281.953 413.759 286.021 410.828 295.027H410.816Z" fill="#F2F2F2"/>
<path d="M409.476 296.82H403.629V311.51H409.476V296.82Z" fill="#F2F2F2"/>
<path d="M404.788 308.037C397.109 309.439 391.943 322.032 391.185 326.555C390.73 329.233 391.033 331.834 394.001 337.038C398.132 344.288 397.753 349.834 397.753 349.834H417.003C417.003 344.073 420.703 337.62 422.888 328.638C425.073 319.657 417.837 305.662 404.801 308.037H404.788Z" fill="#2D80EA"/>
<path d="M411.37 308.328C411.37 308.328 422.535 309.667 427.133 308.038C437.97 304.172 442.668 294.863 443.035 285.263H445.966C445.966 285.263 449.894 313.607 423.079 323.726L411.37 308.328Z" fill="#428DEC"/>
<path d="M443.036 285.262C441.079 283.102 442.316 281.334 441.546 279.629C440.776 277.936 441.723 275.991 443.845 280.626L442.961 274.134C442.961 274.134 445.499 275.41 445.967 285.262H443.036Z" fill="#F2F2F2"/>
<path d="M404.298 309.539C410.046 310.663 409.338 321.072 402.771 327.097C396.569 332.781 379.062 337.758 355.506 340.802L354.735 338.212C354.735 338.212 367.91 335.799 379.378 328.828C390.847 321.855 396.001 307.897 404.298 309.527V309.539Z" fill="#428DEC"/>
<path d="M354.733 338.226C352.207 337.038 350.868 338.554 349.075 338.289C347.281 338.024 346.397 339.237 351.285 339.982L344.565 340.955C344.565 340.955 346.144 342.824 355.491 340.815L354.72 338.226H354.733Z" fill="#F2F2F2"/>
<path d="M396.883 283.292C393.928 288.471 403.64 287.195 403.64 292.273C403.64 297.351 393.006 298.297 391.023 304.917C388.761 312.483 404.197 310.461 401.873 318.318C398.462 329.85 375.866 330.823 384.468 343.05C390.733 351.955 406.003 346.89 404.285 361.429C402.606 375.538 428.385 372.696 430.607 361.126C432.086 353.433 417.712 348.747 425.757 342.936C435.61 335.825 448.064 326.289 437.403 318.23C432.022 314.15 417.447 311.624 415.969 305.08C414.491 298.537 423.092 288.471 412.862 281.776C402.365 274.917 396.897 283.305 396.897 283.305L396.883 283.292Z" fill="#E03F3F"/>
<path d="M138.469 130.088C138.469 130.088 143.496 150.564 154.195 150.564C178.698 150.564 185.708 141.179 195.522 141.823C200.727 142.164 213.761 150.564 213.761 150.564H221.125L215.959 147.343C215.959 147.343 201.851 128.864 192.403 127.713C180.429 126.261 164.577 138.147 156.063 130.076H138.481L138.469 130.088Z" fill="#174159"/>
<path d="M213.763 150.564L212.12 149.541C212.12 149.541 215 149.718 215.948 147.355L221.114 150.577H213.751L213.763 150.564Z" fill="#2D80EA"/>
<path d="M316.31 5.87305L202.507 77.6563L186.15 93.2433V147.343" stroke="#BEC8D2" stroke-width="1.13932" stroke-miterlimit="10" stroke-linecap="round"/>
<path d="M183.259 95.3908C184.27 93.673 186.619 90.3005 187.793 92.5362C188.539 93.9509 188.236 96.4519 187.566 96.6918C186.897 96.9445 185.141 97.096 185.141 97.096L183.271 95.3908H183.259Z" fill="#BEC8D2"/>
<path d="M135.375 92.0184C144.696 86.7638 159.803 103.589 164.375 104.46C171.777 105.863 182.323 96.1488 183.259 95.391L185.128 97.0962C185.128 97.0962 173.583 113.669 162.658 113.984C151.732 114.3 123.477 98.7256 135.375 92.0184Z" fill="#2D80EA"/>
<path d="M183.259 95.391C183.638 93.6479 184.257 92.9785 185.482 92.3343C187.25 91.3869 186.884 90.4648 187.478 90.4648C188.071 90.4648 188.69 92.1827 187.2 92.789C187.2 92.789 187.263 95.8457 184.61 96.6289L183.271 95.4037L183.259 95.391Z" fill="#F2F2F2"/>
<path d="M187.793 92.5361C187.87 93.1803 187.162 93.0793 186.467 93.054C185.533 93.0161 184.585 92.8772 184.737 94.1024C184.99 96.0224 184.699 97.1086 185.621 97.1466C186.543 97.1844 187.187 97.3992 187.781 97.0834C188.374 96.7676 188.703 93.9888 187.781 92.5361H187.793Z" fill="#F2F2F2"/>
<path d="M156.959 124.797C168.996 148.556 178.305 172.909 200.599 193.991L206.889 192.159L201.205 198.462C201.205 198.462 154.572 171.178 141.916 154.442C136.207 146.825 134.779 141.356 138.556 130.051L156.959 124.784V124.797Z" fill="#2E546A"/>
<path d="M201.207 198.476L206.891 192.172L200.601 194.004C200.601 194.004 200.917 196.138 198.63 196.947L201.207 198.476Z" fill="#2D80EA"/>
<path d="M130.31 80.3474C133.784 85.5261 139.821 86.8272 142.411 85.5388C144.999 84.2504 145.114 79.1853 142.65 74.2212C140.187 69.2571 136.36 67.1225 133.493 67.5645C129.387 68.1961 125.485 73.1602 130.31 80.3474Z" fill="#F2F2F2"/>
<path d="M132.467 95.3907L140.702 93.0665L137.052 80.1448L128.135 75.0039L132.467 95.3907Z" fill="#F2F2F2"/>
<path d="M138.721 90.3004C129.994 91.3992 122.478 93.8876 126.192 123.18C129.666 150.653 138.721 150.564 138.721 150.564C138.721 150.564 166.219 152.509 171.777 131.756C171.777 131.756 159.954 123.533 156.291 108.653C152.629 93.7739 145.466 89.454 138.721 90.3129V90.3004Z" fill="#2176FF"/>
<path d="M138.722 90.301L199.161 77.6191L200.588 80.8906C200.588 80.8906 158.969 107.896 144.431 108.831C129.892 109.765 128.2 93.4587 138.722 90.301Z" fill="#428DEC"/>
<path d="M199.157 77.6186C199.157 77.6186 201.671 74.1956 203.124 74.423C204.576 74.6503 206.483 77.947 205.675 79.2229C204.866 80.4986 200.598 80.8901 200.598 80.8901L199.17 77.6186H199.157Z" fill="#F2F2F2"/>
<path d="M131.078 88.8862C131.078 88.8862 135.575 87.2442 135.361 82.0527C135.361 82.0527 133.238 83.1643 132.62 78.5539C132.342 76.4445 134.413 76.0276 135.361 78.3392C136.687 78.8318 138.492 77.9223 138.214 75.4719C137.773 71.5184 142.699 72.1877 142.876 67.5016C143.103 61.4386 131.016 53.4809 128.729 59.0008C126.859 63.5228 127.403 66.2258 121.681 66.289C111.147 66.39 121.934 90.9957 131.078 88.8737V88.8862Z" fill="#174159"/>
<path d="M95.9792 349.834C100.109 368.604 98.518 392.729 89.3859 406.813C82.1863 417.928 69.3787 421.364 57.9604 430.156L58.4909 435.65L53.4639 429.65C53.4639 429.65 59.7919 423.36 78.1823 404.362C82.6789 399.714 79.4707 381.348 78.2961 376.751C72.5743 369.121 78.3212 361.151 82.0979 349.834H95.9792Z" fill="#174159"/>
<path d="M57.9604 430.155L58.4909 435.65L53.4639 429.649L55.5985 427.515C55.5985 427.515 55.3332 429.801 57.9731 430.155H57.9604Z" fill="#2D80EA"/>
<path d="M101.261 349.834C113.323 373.631 112.818 388.877 95.3745 444.428L100.945 447.877H92.4442C92.4442 447.877 92.8105 389.167 89.3876 375.778C83.6658 368.148 83.59 361.151 87.3666 349.834H101.248H101.261Z" fill="#2E546A"/>
<path d="M100.93 447.877H92.4297V444.429C92.4297 444.429 94.2612 445.502 95.3601 444.429L100.93 447.877Z" fill="#2D80EA"/>
<path d="M88.1863 295.027C90.3082 301.52 96.2826 304.677 99.3898 304.096C102.51 303.515 104.126 298.21 103.002 292.248C101.878 286.286 98.4804 282.901 95.3353 282.509C90.8261 281.953 85.2433 286.021 88.1736 295.027H88.1863Z" fill="#F2F2F2"/>
<path d="M85.0928 311.497H95.3616V296.808H85.0928V311.497Z" fill="#F2F2F2"/>
<path d="M87.6305 308.328C87.6305 308.328 76.4649 309.667 71.8673 308.038C61.03 304.172 56.3313 294.863 55.965 285.263H53.0347C53.0347 285.263 49.1065 313.607 75.9218 323.726L87.6305 308.328Z" fill="#428DEC"/>
<path d="M55.9519 285.262C57.9096 283.102 56.6718 281.334 57.4423 279.629C58.2127 277.936 57.2654 275.991 55.1435 280.626V274.134C55.1435 274.134 53.4888 275.41 53.0215 285.262H55.9519Z" fill="#F2F2F2"/>
<path d="M99.6305 310.387C92.4941 306.849 89.5133 308.328 77.5771 308.833C65.6411 309.338 75.7836 338.125 75.7836 370.524C75.7836 370.524 86.1535 376.549 111.971 370.524C111.971 370.524 110.96 316.007 99.618 310.387H99.6305Z" fill="#2176FF"/>
<path d="M94.6275 299.056C96.3959 302.176 86.2154 304.904 83.5124 301.76C80.8094 298.627 71.6773 296.164 78.3844 283.949C81.3021 278.631 82.4136 270.825 86.7459 270.068C97.141 268.261 102.143 276.244 101.903 280.956C101.574 287.448 99.0483 291.351 96.4337 292.64C94.6528 293.511 91.8867 294.206 94.6402 299.056H94.6275Z" fill="#174159"/>
<path d="M93.7434 308.352C106.122 308.289 115.292 315.097 124.322 315.943C134.844 316.941 145.303 309.793 147.412 304.159L152.136 303.338C152.136 303.338 144.974 318.47 124.777 325.101C114.634 328.436 102.219 328.954 94.7034 325.493C87.188 322.032 85.066 308.39 93.7434 308.352Z" fill="#428DEC"/>
<path d="M147.41 304.158C145.919 301.948 148.181 299.675 148.496 298.008C148.812 296.352 149.658 295.127 150.492 294.95C151.894 294.647 151.477 296.605 151.022 298.487C150.972 298.689 151.174 298.854 151.35 298.765C152.437 298.273 155.266 297.11 157.414 297.325C158.158 297.401 158.613 298.209 155.62 299.7C152.714 301.152 152.121 303.337 152.121 303.337L147.398 304.158H147.41Z" fill="#F2F2F2"/>
<g filter="url(#filter4_d_1328_1787)">
<path d="M286.744 390.557H146.226V427.984H286.744V390.557Z" fill="#E03F3F"/>
<path d="M178.346 397.921H155.675V420.594H178.346V397.921Z" fill="#2176FF"/>
<path d="M155.675 397.921L178.346 420.594" stroke="#5620D8" stroke-width="0.56966" stroke-miterlimit="10"/>
<path d="M178.346 397.921L155.675 420.594" stroke="#5620D8" stroke-width="0.56966" stroke-miterlimit="10"/>
<path d="M270.93 402.936H186.24V405.601H270.93V402.936Z" fill="#5799EE"/>
<path d="M270.93 412.915H186.24V415.579H270.93V412.915Z" fill="#5799EE"/>
<path d="M261.797 407.925H186.24V410.59H261.797V407.925Z" fill="#5799EE"/>
</g>
<g filter="url(#filter5_d_1328_1787)">
<path d="M263.161 406.663H122.644V444.089H263.161V406.663Z" fill="#2176FF"/>
<path d="M154.752 414.039H132.079V436.712H154.752V414.039Z" fill="#E03F3F"/>
<path d="M132.079 414.039L154.752 436.712" stroke="#2D80EA" stroke-width="0.56966" stroke-miterlimit="10"/>
<path d="M154.752 414.039L132.079 436.712" stroke="#2D80EA" stroke-width="0.56966" stroke-miterlimit="10"/>
<path d="M247.335 419.054H162.646V421.719H247.335V419.054Z" fill="#5799EE"/>
<path d="M247.335 429.033H162.646V431.699H247.335V429.033Z" fill="#5799EE"/>
<path d="M238.204 424.043H162.646V426.708H238.204V424.043Z" fill="#5799EE"/>
</g>
<path d="M252.022 132.337C254.059 132.337 255.71 130.686 255.71 128.649C255.71 126.612 254.059 124.961 252.022 124.961C249.984 124.961 248.334 126.612 248.334 128.649C248.334 130.686 249.984 132.337 252.022 132.337Z" fill="white" stroke="#BEC8D2" stroke-width="1.13932" stroke-miterlimit="10"/>
<path d="M238.685 111.736C242.682 111.736 245.923 108.496 245.923 104.498C245.923 100.501 242.682 97.2607 238.685 97.2607C234.688 97.2607 231.447 100.501 231.447 104.498C231.447 108.496 234.688 111.736 238.685 111.736Z" fill="white" stroke="#BEC8D2" stroke-width="1.13932" stroke-miterlimit="10"/>
<path d="M275.085 114.97C277.374 114.97 279.229 113.115 279.229 110.826C279.229 108.538 277.374 106.684 275.085 106.684C272.797 106.684 270.942 108.538 270.942 110.826C270.942 113.115 272.797 114.97 275.085 114.97Z" fill="white" stroke="#BEC8D2" stroke-width="1.13932" stroke-miterlimit="10"/>
<path d="M6.46532 92.221C9.68814 92.221 12.3007 89.6083 12.3007 86.3854C12.3007 83.1625 9.68814 80.5498 6.46532 80.5498C3.2425 80.5498 0.629883 83.1625 0.629883 86.3854C0.629883 89.6083 3.2425 92.221 6.46532 92.221Z" fill="white" stroke="#BEC8D2" stroke-width="1.13932" stroke-miterlimit="10"/>
<path d="M20.864 73.2108C23.6335 73.2108 25.8785 70.9657 25.8785 68.1963C25.8785 65.4267 23.6335 63.1816 20.864 63.1816C18.0946 63.1816 15.8496 65.4267 15.8496 68.1963C15.8496 70.9657 18.0946 73.2108 20.864 73.2108Z" fill="white" stroke="#BEC8D2" stroke-width="1.13932" stroke-miterlimit="10"/>
<path d="M477.165 190.934C479.613 190.934 481.598 188.949 481.598 186.501C481.598 184.052 479.613 182.067 477.165 182.067C474.715 182.067 472.73 184.052 472.73 186.501C472.73 188.949 474.715 190.934 477.165 190.934Z" fill="white" stroke="#BEC8D2" stroke-width="1.13932" stroke-miterlimit="10"/>
<path d="M515.539 188.124C519.307 184.356 519.307 178.245 515.539 174.477C511.77 170.708 505.66 170.708 501.892 174.477C498.123 178.245 498.123 184.356 501.892 188.124C505.66 191.893 511.77 191.893 515.539 188.124Z" fill="white" stroke="#BEC8D2" stroke-width="1.13932" stroke-miterlimit="10"/>
</g>
<defs>
<filter id="filter0_d_1328_1787" x="85.0908" y="367.48" width="54.9089" height="16.1696" filterUnits="userSpaceOnUse" color-interpolation-filters="sRGB">
<feFlood flood-opacity="0" result="BackgroundImageFix"/>
<feColorMatrix in="SourceAlpha" type="matrix" values="0 0 0 0 0 0 0 0 0 0 0 0 0 0 0 0 0 0 127 0" result="hardAlpha"/>
<feOffset dx="1.13932" dy="1.13932"/>
<feColorMatrix type="matrix" values="0 0 0 0 0 0 0 0 0 0 0 0 0 0 0 0 0 0 0.2 0"/>
<feBlend mode="normal" in2="BackgroundImageFix" result="effect1_dropShadow_1328_1787"/>
<feBlend mode="normal" in="SourceGraphic" in2="effect1_dropShadow_1328_1787" result="shape"/>
</filter>
<filter id="filter1_d_1328_1787" x="147.021" y="367.481" width="54.9089" height="16.1696" filterUnits="userSpaceOnUse" color-interpolation-filters="sRGB">
<feFlood flood-opacity="0" result="BackgroundImageFix"/>
<feColorMatrix in="SourceAlpha" type="matrix" values="0 0 0 0 0 0 0 0 0 0 0 0 0 0 0 0 0 0 127 0" result="hardAlpha"/>
<feOffset dx="1.13932" dy="1.13932"/>
<feColorMatrix type="matrix" values="0 0 0 0 0 0 0 0 0 0 0 0 0 0 0 0 0 0 0.2 0"/>
<feBlend mode="normal" in2="BackgroundImageFix" result="effect1_dropShadow_1328_1787"/>
<feBlend mode="normal" in="SourceGraphic" in2="effect1_dropShadow_1328_1787" result="shape"/>
</filter>
<filter id="filter2_d_1328_1787" x="88.4746" y="277.479" width="120.503" height="23.0299" filterUnits="userSpaceOnUse" color-interpolation-filters="sRGB">
<feFlood flood-opacity="0" result="BackgroundImageFix"/>
<feColorMatrix in="SourceAlpha" type="matrix" values="0 0 0 0 0 0 0 0 0 0 0 0 0 0 0 0 0 0 127 0" result="hardAlpha"/>
<feOffset dx="2.27864" dy="1.13932"/>
<feColorMatrix type="matrix" values="0 0 0 0 0 0 0 0 0 0 0 0 0 0 0 0 0 0 0.2 0"/>
<feBlend mode="normal" in2="BackgroundImageFix" result="effect1_dropShadow_1328_1787"/>
<feBlend mode="normal" in="SourceGraphic" in2="effect1_dropShadow_1328_1787" result="shape"/>
</filter>
<filter id="filter3_d_1328_1787" x="214.328" y="197.724" width="247.229" height="178.073" filterUnits="userSpaceOnUse" color-interpolation-filters="sRGB">
<feFlood flood-opacity="0" result="BackgroundImageFix"/>
<feColorMatrix in="SourceAlpha" type="matrix" values="0 0 0 0 0 0 0 0 0 0 0 0 0 0 0 0 0 0 127 0" result="hardAlpha"/>
<feOffset dx="11.3932" dy="19.3684"/>
<feColorMatrix type="matrix" values="0 0 0 0 0 0 0 0 0 0 0 0 0 0 0 0 0 0 0.2 0"/>
<feBlend mode="normal" in2="BackgroundImageFix" result="effect1_dropShadow_1328_1787"/>
<feBlend mode="normal" in="SourceGraphic" in2="effect1_dropShadow_1328_1787" result="shape"/>
</filter>
<filter id="filter4_d_1328_1787" x="146.226" y="390.557" width="141.657" height="38.5661" filterUnits="userSpaceOnUse" color-interpolation-filters="sRGB">
<feFlood flood-opacity="0" result="BackgroundImageFix"/>
<feColorMatrix in="SourceAlpha" type="matrix" values="0 0 0 0 0 0 0 0 0 0 0 0 0 0 0 0 0 0 127 0" result="hardAlpha"/>
<feOffset dx="1.13932" dy="1.13932"/>
<feColorMatrix type="matrix" values="0 0 0 0 0 0 0 0 0 0 0 0 0 0 0 0 0 0 0.2 0"/>
<feBlend mode="normal" in2="BackgroundImageFix" result="effect1_dropShadow_1328_1787"/>
<feBlend mode="normal" in="SourceGraphic" in2="effect1_dropShadow_1328_1787" result="shape"/>
</filter>
<filter id="filter5_d_1328_1787" x="122.644" y="406.663" width="141.657" height="38.5651" filterUnits="userSpaceOnUse" color-interpolation-filters="sRGB">
<feFlood flood-opacity="0" result="BackgroundImageFix"/>
<feColorMatrix in="SourceAlpha" type="matrix" values="0 0 0 0 0 0 0 0 0 0 0 0 0 0 0 0 0 0 127 0" result="hardAlpha"/>
<feOffset dx="1.13932" dy="1.13932"/>
<feColorMatrix type="matrix" values="0 0 0 0 0 0 0 0 0 0 0 0 0 0 0 0 0 0 0.2 0"/>
<feBlend mode="normal" in2="BackgroundImageFix" result="effect1_dropShadow_1328_1787"/>
<feBlend mode="normal" in="SourceGraphic" in2="effect1_dropShadow_1328_1787" result="shape"/>
</filter>
</defs>
</svg>
