<svg width="1094" height="542" viewBox="0 0 1094 542" fill="none" xmlns="http://www.w3.org/2000/svg">
<path d="M450 256.949H315.27C306.906 256.801 298.935 253.374 293.072 247.407C287.21 241.44 283.925 233.409 283.925 225.044C283.925 216.679 287.21 208.648 293.072 202.681C298.935 196.713 306.906 193.287 315.27 193.139C316.628 193.14 317.984 193.23 319.33 193.409C321.241 189.501 324.274 186.252 328.042 184.079C331.81 181.905 336.141 180.906 340.48 181.209C344.286 170.753 351.099 161.657 360.061 155.062C369.023 148.468 379.735 144.67 390.849 144.147C401.964 143.623 412.985 146.397 422.527 152.119C432.07 157.842 439.707 166.258 444.48 176.309C446.319 176.057 448.174 175.93 450.03 175.929C460.615 176.164 470.688 180.534 478.091 188.104C485.494 195.673 489.64 205.841 489.64 216.429C489.64 227.017 485.494 237.184 478.091 244.754C470.688 252.323 460.615 256.693 450.03 256.929L450 256.949ZM315.27 197.439C311.601 197.369 307.954 198.031 304.544 199.387C301.133 200.743 298.028 202.765 295.408 205.336C292.788 207.906 290.707 210.973 289.287 214.357C287.866 217.741 287.135 221.374 287.135 225.044C287.135 228.714 287.866 232.347 289.287 235.731C290.707 239.115 292.788 242.182 295.408 244.752C298.028 247.322 301.133 249.344 304.544 250.7C307.954 252.056 311.601 252.719 315.27 252.649H450C454.806 252.729 459.581 251.851 464.044 250.067C468.508 248.283 472.572 245.628 476 242.257C479.427 238.886 482.149 234.867 484.007 230.433C485.865 226 486.822 221.241 486.822 216.434C486.822 211.627 485.865 206.868 484.007 202.434C482.149 198.001 479.427 193.981 476 190.61C472.572 187.24 468.508 184.585 464.044 182.801C459.581 181.017 454.806 180.139 450 180.219C447.837 180.218 445.679 180.409 443.55 180.789L441.89 181.089L441.21 179.539C436.955 169.901 429.881 161.779 420.919 156.24C411.958 150.702 401.529 148.008 391.006 148.512C380.483 149.016 370.36 152.696 361.969 159.066C353.578 165.436 347.314 174.199 344 184.199L343.44 185.919L341.65 185.649C337.715 185.062 333.697 185.823 330.248 187.807C326.799 189.791 324.121 192.882 322.65 196.579L322 198.209L320.28 197.889C318.627 197.589 316.95 197.438 315.27 197.439Z" fill="#E03F3F" fill-opacity="0.3"/>
<path d="M864 176.128H784.14C779.083 176.128 774.232 174.119 770.656 170.543C767.08 166.966 765.07 162.116 765.07 157.058C765.07 152.001 767.08 147.15 770.656 143.574C774.232 139.997 779.083 137.988 784.14 137.988C784.913 137.989 785.684 138.039 786.45 138.138C787.605 135.838 789.41 133.927 791.641 132.644C793.872 131.36 796.431 130.76 799 130.918C801.282 124.72 805.339 119.332 810.665 115.427C815.991 111.522 822.35 109.273 828.947 108.961C835.544 108.65 842.087 110.289 847.758 113.675C853.428 117.061 857.975 122.043 860.83 127.998C861.891 127.858 862.96 127.788 864.03 127.788C870.441 127.788 876.588 130.335 881.121 134.867C885.654 139.4 888.2 145.548 888.2 151.958C888.2 158.369 885.654 164.516 881.121 169.049C876.588 173.582 870.441 176.128 864.03 176.128H864ZM784.14 140.858C781.978 140.805 779.828 141.184 777.815 141.974C775.802 142.764 773.967 143.949 772.419 145.46C770.871 146.97 769.641 148.774 768.801 150.767C767.961 152.76 767.528 154.901 767.528 157.063C767.528 159.226 767.961 161.367 768.801 163.359C769.641 165.352 770.871 167.157 772.419 168.667C773.967 170.177 775.802 171.362 777.815 172.152C779.828 172.943 781.978 173.322 784.14 173.268H864C869.652 173.268 875.072 171.023 879.069 167.027C883.065 163.03 885.31 157.61 885.31 151.958C885.31 146.306 883.065 140.886 879.069 136.89C875.072 132.893 869.652 130.648 864 130.648C862.726 130.646 861.454 130.76 860.2 130.988L859.1 131.188L858.64 130.188C856.138 124.498 851.968 119.699 846.683 116.427C841.397 113.155 835.243 111.562 829.034 111.858C822.824 112.155 816.85 114.328 811.901 118.089C806.952 121.851 803.259 127.025 801.31 132.928L800.93 134.068L799.74 133.898C797.442 133.559 795.097 134.004 793.083 135.161C791.069 136.319 789.504 138.122 788.64 140.278L788.2 141.358L787.05 141.148C786.084 140.967 785.104 140.87 784.12 140.858H784.14Z" fill="#E03F3F" fill-opacity="0.3"/>
<path d="M70.5802 287.018H14.5802C12.7029 287.027 10.8435 286.652 9.11593 285.917C7.38835 285.182 5.82892 284.103 4.53298 282.744C3.23705 281.386 2.23189 279.777 1.57904 278.017C0.926183 276.257 0.639367 274.382 0.736109 272.507C0.832851 270.632 1.31114 268.797 2.14169 267.113C2.97224 265.43 4.13758 263.933 5.56643 262.715C6.99529 261.498 8.65762 260.584 10.4517 260.031C12.2457 259.478 14.1337 259.297 16.0002 259.498C16.8577 257.941 18.1239 256.648 19.6624 255.758C21.2009 254.868 22.9532 254.415 24.7302 254.448C26.4011 250.098 29.3026 246.327 33.0804 243.598C36.8583 240.869 41.349 239.299 46.0044 239.079C50.6597 238.86 55.2783 240.001 59.2961 242.362C63.314 244.724 66.5574 248.204 68.6302 252.378C69.2945 252.307 69.9621 252.27 70.6302 252.268C75.2397 252.268 79.6604 254.099 82.9198 257.359C86.1791 260.618 88.0102 265.039 88.0102 269.648C88.0102 274.258 86.1791 278.678 82.9198 281.938C79.6604 285.197 75.2397 287.028 70.6302 287.028L70.5802 287.018ZM14.5802 262.278C13.1164 262.234 11.6586 262.484 10.2932 263.014C8.92783 263.543 7.68268 264.342 6.63159 265.361C5.58049 266.381 4.74487 267.602 4.17422 268.95C3.60357 270.299 3.30953 271.749 3.30953 273.213C3.30953 274.678 3.60357 276.127 4.17422 277.476C4.74487 278.825 5.58049 280.045 6.63159 281.065C7.68268 282.085 8.92783 282.883 10.2932 283.413C11.6586 283.942 13.1164 284.193 14.5802 284.148H70.5802C74.2942 283.953 77.7916 282.34 80.3515 279.642C82.9113 276.945 84.3384 273.367 84.3384 269.648C84.3384 265.929 82.9113 262.352 80.3515 259.654C77.7916 256.956 74.2942 255.343 70.5802 255.148C69.7118 255.15 68.8452 255.226 67.9902 255.378L66.8802 255.578L66.4302 254.578C64.7177 250.658 61.8555 247.35 58.2222 245.091C54.5889 242.833 50.3555 241.73 46.0821 241.929C41.8086 242.129 37.6963 243.621 34.2891 246.208C30.8819 248.795 28.3402 252.355 27.0002 256.418L26.6202 257.558L25.4302 257.388C25.0994 257.336 24.7651 257.31 24.4302 257.308C23.0678 257.305 21.7359 257.712 20.6072 258.475C19.4786 259.238 18.6052 260.323 18.1002 261.588L17.6703 262.678L16.5202 262.468C15.8769 262.35 15.2243 262.29 14.5702 262.288L14.5802 262.278Z" fill="#CBDBF4"/>
<path d="M974.37 328.509H928.05C926.48 328.504 924.927 328.182 923.484 327.563C922.041 326.943 920.738 326.038 919.654 324.902C918.569 323.767 917.725 322.424 917.172 320.954C916.619 319.484 916.369 317.918 916.437 316.349C916.504 314.78 916.888 313.241 917.564 311.824C918.241 310.407 919.197 309.141 920.375 308.103C921.553 307.064 922.929 306.274 924.419 305.781C925.91 305.287 927.485 305.099 929.05 305.229C929.767 303.963 930.808 302.91 932.066 302.179C933.325 301.448 934.755 301.065 936.21 301.069C937.63 297.464 940.062 294.346 943.213 292.091C946.363 289.836 950.098 288.54 953.969 288.358C957.839 288.176 961.679 289.117 965.027 291.067C968.375 293.017 971.088 295.893 972.84 299.349C973.34 299.299 973.84 299.269 974.34 299.269C978.218 299.269 981.936 300.809 984.678 303.551C987.42 306.293 988.96 310.012 988.96 313.889C988.96 317.767 987.42 321.485 984.678 324.227C981.936 326.969 978.218 328.509 974.34 328.509H974.37ZM928.05 308.019C925.769 308.096 923.607 309.056 922.02 310.697C920.434 312.338 919.547 314.532 919.547 316.814C919.547 319.097 920.434 321.29 922.02 322.931C923.607 324.572 925.769 325.532 928.05 325.609H974.37C975.943 325.655 977.508 325.385 978.975 324.815C980.441 324.245 981.778 323.386 982.906 322.29C984.035 321.194 984.932 319.883 985.545 318.434C986.157 316.984 986.473 315.427 986.473 313.854C986.473 312.281 986.157 310.724 985.545 309.275C984.932 307.826 984.035 306.514 982.906 305.418C981.778 304.322 980.441 303.464 978.975 302.893C977.508 302.323 975.943 302.053 974.37 302.099C973.669 302.102 972.97 302.165 972.28 302.289L971.17 302.489L970.71 301.489C969.307 298.301 966.971 295.612 964.009 293.778C961.047 291.945 957.599 291.052 954.12 291.217C950.64 291.383 947.292 292.6 944.518 294.707C941.744 296.813 939.674 299.712 938.58 303.019L938.21 304.159L937 304.019C936.735 303.979 936.468 303.959 936.2 303.959C935.123 303.957 934.07 304.28 933.178 304.884C932.287 305.489 931.597 306.348 931.2 307.349L930.77 308.439L929.62 308.219C929.103 308.109 928.578 308.042 928.05 308.019Z" fill="#FFFFFD"/>
<path d="M656 342.679C654.459 340.69 652.501 339.064 650.263 337.914C648.025 336.764 645.563 336.118 643.049 336.023C640.535 335.928 638.03 336.385 635.712 337.362C633.393 338.339 631.317 339.813 629.63 341.679L627.28 339.549C629.275 337.339 631.73 335.592 634.473 334.432C637.215 333.272 640.178 332.727 643.154 332.835C646.129 332.942 649.045 333.7 651.697 335.056C654.348 336.411 656.67 338.33 658.5 340.679L656 342.679Z" fill="#FFFAC0"/>
<path d="M664.83 333.019C662.072 329.965 658.721 327.507 654.98 325.793C651.239 324.08 647.189 323.148 643.075 323.054C638.962 322.961 634.873 323.708 631.058 325.249C627.244 326.79 623.784 329.094 620.89 332.019L618.63 329.789C621.828 326.559 625.651 324.015 629.866 322.313C634.08 320.611 638.598 319.786 643.142 319.889C647.686 319.992 652.161 321.021 656.294 322.912C660.427 324.803 664.131 327.518 667.18 330.889L664.83 333.019Z" fill="#FFFAC0"/>
<path d="M613.38 324.448L610.86 322.508C614.577 317.69 619.349 313.788 624.81 311.103C630.271 308.419 636.275 307.022 642.36 307.022C648.446 307.022 654.45 308.419 659.911 311.103C665.372 313.788 670.144 317.69 673.86 322.508L671.35 324.438C667.932 319.998 663.539 316.402 658.511 313.928C653.483 311.454 647.954 310.167 642.35 310.167C636.747 310.167 631.218 311.454 626.19 313.928C621.162 316.402 616.769 319.998 613.35 324.438L613.38 324.448Z" fill="#FFFAC0"/>
<path d="M1075.37 36.4883C1073.79 34.459 1071.79 32.8 1069.5 31.6278C1067.21 30.4556 1064.7 29.7988 1062.13 29.7035C1059.56 29.6081 1057 30.0767 1054.63 31.0761C1052.26 32.0755 1050.14 33.5815 1048.42 35.4883L1046 33.3483C1048.04 31.0886 1050.55 29.3029 1053.35 28.1167C1056.16 26.9306 1059.19 26.3727 1062.23 26.4823C1065.27 26.5919 1068.25 27.3663 1070.96 28.7511C1073.67 30.136 1076.05 32.0977 1077.92 34.4983L1075.37 36.4883Z" fill="#BCE0ED"/>
<path d="M1084.43 26.5686C1081.61 23.4493 1078.18 20.9382 1074.36 19.1891C1070.53 17.4399 1066.39 16.4895 1062.19 16.3959C1057.98 16.3023 1053.8 17.0675 1049.9 18.6447C1046 20.2219 1042.47 22.5779 1039.51 25.5686L1037.21 23.2886C1040.48 19.9866 1044.38 17.3857 1048.69 15.6452C1053 13.9047 1057.62 13.0611 1062.26 13.1659C1066.91 13.2708 1071.48 14.3219 1075.7 16.2549C1079.93 18.188 1083.71 20.9625 1086.83 24.4086L1084.43 26.5686Z" fill="#BCE0ED"/>
<path d="M1031.83 17.8586L1029.27 15.8586C1033.07 10.9248 1037.95 6.92903 1043.53 4.17947C1049.12 1.42991 1055.26 0 1061.49 0C1067.72 0 1073.86 1.42991 1079.45 4.17947C1085.03 6.92903 1089.91 10.9248 1093.71 15.8586L1091.14 17.8586C1087.64 13.317 1083.15 9.63886 1078.01 7.10782C1072.87 4.57678 1067.22 3.26051 1061.48 3.26051C1055.75 3.26051 1050.1 4.57678 1044.96 7.10782C1039.82 9.63886 1035.32 13.317 1031.83 17.8586Z" fill="#BCE0ED"/>
<path d="M181.45 243.549C179.36 240.861 176.706 238.664 173.675 237.113C170.644 235.562 167.309 234.694 163.906 234.571C160.504 234.448 157.115 235.073 153.98 236.401C150.845 237.73 148.039 239.729 145.76 242.259L142.57 239.389C145.27 236.395 148.593 234.028 152.306 232.456C156.019 230.884 160.031 230.144 164.06 230.289C168.089 230.434 172.038 231.46 175.628 233.295C179.218 235.129 182.362 237.728 184.84 240.909L181.45 243.549Z" fill="#CBE9F4"/>
<path d="M193.44 230.399C189.704 226.278 185.169 222.96 180.111 220.648C175.053 218.336 169.577 217.077 164.016 216.947C158.456 216.818 152.927 217.822 147.767 219.897C142.607 221.972 137.923 225.076 134 229.019L131 226.019C135.33 221.648 140.505 218.205 146.21 215.902C151.915 213.599 158.03 212.483 164.181 212.622C170.331 212.761 176.389 214.153 181.984 216.713C187.579 219.273 192.593 222.946 196.72 227.509L193.44 230.399Z" fill="#CBE9F4"/>
<path d="M123.79 218.868L120.39 216.248C125.42 209.715 131.883 204.424 139.281 200.783C146.679 197.142 154.814 195.248 163.06 195.248C171.305 195.248 179.441 197.142 186.839 200.783C194.237 204.424 200.7 209.715 205.73 216.248L202.33 218.868C197.702 212.854 191.754 207.983 184.945 204.631C178.136 201.279 170.649 199.536 163.06 199.536C155.471 199.536 147.983 201.279 141.174 204.631C134.365 207.983 128.418 212.854 123.79 218.868Z" fill="#CBE9F4"/>
<path d="M826.6 509.419H825.53V501.699H826.6V509.419ZM826.6 495.519H825.53V487.789H826.6V495.519ZM826.6 481.609H825.53V473.879H826.6V481.609ZM826.6 467.699H825.53V460.019H826.6V467.699ZM826.6 453.789H825.53V446.069H826.6V453.789ZM826.6 439.889H825.53V432.159H826.6V439.889ZM826.6 425.979H825.53V418.249H826.6V425.979ZM826.6 412.069H825.53V404.339H826.6V412.069ZM826.6 398.159H825.53V390.439H826.6V398.159ZM826.6 384.249H825.53V376.529H826.6V384.249ZM826.6 370.349H825.53V362.619H826.6V370.349ZM826.6 356.439H825.53V348.709H826.6V356.439ZM826.6 342.529H825.53V334.799H826.6V342.529ZM826.6 328.619H825.53V320.899H826.6V328.619ZM826.6 314.719H825.53V307.019H826.6V314.719ZM826.6 300.809H825.53V293.079H826.6V300.809ZM826.6 286.899H825.53V279.169H826.6V286.899ZM826.6 272.989H825.53V265.269H826.6V272.989ZM826.6 259.079H825.53V251.359H826.6V259.079ZM826.6 245.179H825.53V237.449H826.6V245.179ZM826.6 231.269H825.53V223.539H826.6V231.269ZM826.6 217.359H825.53V209.629H826.6V217.359Z" fill="white"/>
<path d="M953.23 541.378H952.16V532.938H953.23V541.378ZM953.23 526.188H952.16V517.758H953.23V526.188ZM953.23 511.008H952.16V502.568H953.23V511.008ZM953.23 495.818H952.16V487.388H953.23V495.818ZM953.23 480.638H952.16V472.198H953.23V480.638ZM953.23 465.448H952.16V457.018H953.23V465.448ZM953.23 450.268H952.16V441.828H953.23V450.268ZM953.23 435.078H952.16V426.648H953.23V435.078ZM953.23 419.898H952.16V411.458H953.23V419.898ZM953.23 404.708H952.16V396.278H953.23V404.708ZM953.23 389.528H952.16V381.088H953.23V389.528ZM953.23 374.338H952.16V365.908H953.23V374.338Z" fill="#FFFFFD"/>
<path d="M44.9001 496.628H43.8301V488.098H44.9001V496.628ZM44.9001 481.268H43.8301V472.728H44.9001V481.268ZM44.9001 465.908H43.8301V457.368H44.9001V465.908ZM44.9001 450.538H43.8301V442.018H44.9001V450.538ZM44.9001 435.178H43.8301V426.648H44.9001V435.178ZM44.9001 419.818H43.8301V411.278H44.9001V419.818ZM44.9001 404.458H43.8301V395.918H44.9001V404.458ZM44.9001 389.088H43.8301V380.558H44.9001V389.088ZM44.9001 373.728H43.8301V365.198H44.9001V373.728ZM44.9001 358.368H43.8301V349.828H44.9001V358.368ZM44.9001 343.008H43.8301V334.468H44.9001V343.008ZM44.9001 327.638H43.8301V319.108H44.9001V327.638Z" fill="#CBDBF4"/>
<path d="M387.22 501.349H385.79V494.189H387.22V501.349ZM387.22 488.469H385.79V481.309H387.22V488.469ZM387.22 475.589H385.79V468.429H387.22V475.589ZM387.22 462.709H385.79V455.559H387.22V462.709ZM387.22 449.829H385.79V442.679H387.22V449.829ZM387.22 436.949H385.79V429.799H387.22V436.949ZM387.22 424.069H385.79V416.919H387.22V424.069ZM387.22 411.189H385.79V404.019H387.22V411.189ZM387.22 398.319H385.79V391.159H387.22V398.319ZM387.22 385.439H385.79V378.279H387.22V385.439ZM387.22 372.559H385.79V365.399H387.22V372.559ZM387.22 359.679H385.79V352.519H387.22V359.679ZM387.22 346.799H385.79V339.649H387.22V346.799ZM387.22 333.919H385.79V326.769H387.22V333.919ZM387.22 321.039H385.79V313.889H387.22V321.039ZM387.22 308.159H385.79V301.019H387.22V308.159ZM387.22 295.289H385.79V288.129H387.22V295.289ZM387.22 282.409H385.79V275.249H387.22V282.409Z" fill="#FFFAC0"/>
<path d="M643.32 490.468H642.25V483.318H643.32V490.468ZM643.32 477.588H642.25V470.438H643.32V477.588ZM643.32 464.708H642.25V457.558H643.32V464.708ZM643.32 451.838H642.25V444.678H643.32V451.838ZM643.32 438.958H642.25V431.798H643.32V438.958ZM643.32 426.078H642.25V418.918H643.32V426.078ZM643.32 413.198H642.25V406.018H643.32V413.198ZM643.32 400.318H642.25V393.168H643.32V400.318ZM643.32 387.438H642.25V380.288H643.32V387.438ZM643.32 374.558H642.25V367.408H643.32V374.558ZM643.32 361.678H642.25V354.528H643.32V361.678Z" fill="#FFFAC0"/>
<path d="M1061.54 520.019H1060.47V512.859H1061.54V520.019ZM1061.54 507.139H1060.47V499.979H1061.54V507.139ZM1061.54 494.259H1060.47V487.019H1061.54V494.259ZM1061.54 481.379H1060.47V474.229H1061.54V481.379ZM1061.54 468.499H1060.47V461.349H1061.54V468.499ZM1061.54 455.619H1060.47V448.419H1061.54V455.619ZM1061.54 442.739H1060.47V435.589H1061.54V442.739ZM1061.54 429.859H1060.47V422.709H1061.54V429.859ZM1061.54 416.989H1060.47V409.829H1061.54V416.989ZM1061.54 404.109H1060.47V396.949H1061.54V404.109ZM1061.54 391.229H1060.47V384.019H1061.54V391.229ZM1061.54 378.349H1060.47V371.189H1061.54V378.349ZM1061.54 365.469H1060.47V358.319H1061.54V365.469ZM1061.54 352.589H1060.47V345.439H1061.54V352.589ZM1061.54 339.709H1060.47V332.559H1061.54V339.709ZM1061.54 326.829H1060.47V319.679H1061.54V326.829ZM1061.54 313.949H1060.47V306.799H1061.54V313.949ZM1061.54 301.079H1060.47V293.919H1061.54V301.079ZM1061.54 288.199H1060.47V281.019H1061.54V288.199ZM1061.54 275.319H1060.47V268.159H1061.54V275.319ZM1061.54 262.439H1060.47V255.289H1061.54V262.439ZM1061.54 249.559H1060.47V242.409H1061.54V249.559ZM1061.54 236.679H1060.47V229.529H1061.54V236.679ZM1061.54 223.799H1060.47V216.649H1061.54V223.799ZM1061.54 210.919H1060.47V203.719H1061.54V210.919ZM1061.54 198.049H1060.47V190.889H1061.54V198.049ZM1061.54 185.169H1060.47V178.009H1061.54V185.169ZM1061.54 172.289H1060.47V165.129H1061.54V172.289ZM1061.54 159.409H1060.47V152.249H1061.54V159.409ZM1061.54 146.529H1060.47V139.379H1061.54V146.529ZM1061.54 133.649H1060.47V126.499H1061.54V133.649ZM1061.54 120.769H1060.47V113.619H1061.54V120.769ZM1061.54 107.889H1060.47V100.739H1061.54V107.889ZM1061.54 95.0189H1060.47V87.8089H1061.54V95.0189ZM1061.54 82.1389H1060.47V74.9289H1061.54V82.1389ZM1061.54 69.2589H1060.47V62.0189H1061.54V69.2589ZM1061.54 56.3789H1060.47V49.1689H1061.54V56.3789Z" fill="#BCE0ED"/>
<path d="M163.42 530.019H162.71V526.329H163.42V530.019ZM163.42 521.909H162.71V516.389H163.42V521.909ZM163.42 511.969H162.71V506.449H163.42V511.969ZM163.42 502.029H162.71V496.509H163.42V502.029ZM163.42 492.089H162.71V486.519H163.42V492.089ZM163.42 482.149H162.71V476.629H163.42V482.149ZM163.42 472.209H162.71V466.689H163.42V472.209ZM163.42 462.269H162.71V456.749H163.42V462.269ZM163.42 452.329H162.71V446.809H163.42V452.329ZM163.42 442.389H162.71V436.819H163.42V442.389ZM163.42 432.449H162.71V426.929H163.42V432.449ZM163.42 422.509H162.71V416.989H163.42V422.509ZM163.42 412.569H162.71V407.019H163.42V412.569ZM163.42 402.629H162.71V397.019H163.42V402.629ZM163.42 392.689H162.71V387.119H163.42V392.689ZM163.42 382.749H162.71V377.229H163.42V382.749ZM163.42 372.809H162.71V367.289H163.42V372.809ZM163.42 362.869H162.71V357.349H163.42V362.869ZM163.42 352.929H162.71V347.409H163.42V352.929ZM163.42 342.989H162.71V337.419H163.42V342.989ZM163.42 333.049H162.71V327.529H163.42V333.049ZM163.42 323.119H162.71V317.589H163.42V323.119ZM163.42 313.179H162.71V307.649H163.42V313.179ZM163.42 303.239H162.71V297.709H163.42V303.239ZM163.42 293.299H162.71V287.779H163.42V293.299ZM163.42 283.359H162.71V277.839H163.42V283.359ZM163.42 273.419H162.71V267.899H163.42V273.419ZM163.42 263.479H162.71V257.959H163.42V263.479ZM163.42 253.539H162.71V248.019H163.42V253.539ZM163.42 243.599H162.71V238.019H163.42V243.599Z" fill="#CBE9F4"/>
</svg>
