<svg width="1440" height="856" viewBox="0 0 1440 856" fill="none" xmlns="http://www.w3.org/2000/svg">
<g filter="url(#filter0_b_0_1)">
<rect y="1" width="1440" height="855" fill="#1A2D47" fill-opacity="0.3"/>
</g>
<path d="M12.3952 21.0767V11.4744H14.3057V21.0767H12.3952ZM8.55289 17.2273V15.3168H18.1552V17.2273H8.55289Z" fill="#E03F3F" fill-opacity="0.15"/>
<path d="M91.0056 21.0767V11.4744H92.9161V21.0767H91.0056ZM87.1632 17.2273V15.3168H96.7655V17.2273H87.1632Z" fill="#E03F3F" fill-opacity="0.15"/>
<path d="M169.616 21.0767V11.4744H171.526V21.0767H169.616ZM165.774 17.2273V15.3168H175.376V17.2273H165.774Z" fill="#E03F3F" fill-opacity="0.15"/>
<path d="M248.226 21.0767V11.4744H250.137V21.0767H248.226ZM244.384 17.2273V15.3168H253.986V17.2273H244.384Z" fill="#E03F3F" fill-opacity="0.15"/>
<path d="M326.837 21.0767V11.4744H328.747V21.0767H326.837ZM322.994 17.2273V15.3168H332.597V17.2273H322.994Z" fill="#E03F3F" fill-opacity="0.15"/>
<path d="M405.447 21.0767V11.4744H407.357V21.0767H405.447ZM401.605 17.2273V15.3168H411.207V17.2273H401.605Z" fill="#E03F3F" fill-opacity="0.15"/>
<path d="M484.057 21.0767V11.4744H485.968V21.0767H484.057ZM480.215 17.2273V15.3168H489.817V17.2273H480.215Z" fill="#E03F3F" fill-opacity="0.15"/>
<path d="M562.669 21.0767V11.4744H564.579V21.0767H562.669ZM558.826 17.2273V15.3168H568.429V17.2273H558.826Z" fill="#E03F3F" fill-opacity="0.15"/>
<path d="M641.279 21.0767V11.4744H643.19V21.0767H641.279ZM637.437 17.2273V15.3168H647.039V17.2273H637.437Z" fill="#E03F3F" fill-opacity="0.15"/>
<path d="M719.889 21.0767V11.4744H721.8V21.0767H719.889ZM716.047 17.2273V15.3168H725.649V17.2273H716.047Z" fill="#E03F3F" fill-opacity="0.15"/>
<path d="M798.5 21.0767V11.4744H800.41V21.0767H798.5ZM794.657 17.2273V15.3168H804.26V17.2273H794.657Z" fill="#E03F3F" fill-opacity="0.15"/>
<path d="M877.11 21.0767V11.4744H879.021V21.0767H877.11ZM873.268 17.2273V15.3168H882.87V17.2273H873.268Z" fill="#E03F3F" fill-opacity="0.15"/>
<path d="M955.72 21.0767V11.4744H957.631V21.0767H955.72ZM951.878 17.2273V15.3168H961.48V17.2273H951.878Z" fill="#E03F3F" fill-opacity="0.15"/>
<path d="M1034.33 21.0767V11.4744H1036.24V21.0767H1034.33ZM1030.49 17.2273V15.3168H1040.09V17.2273H1030.49Z" fill="#E03F3F" fill-opacity="0.15"/>
<path d="M1112.94 21.0767V11.4744H1114.85V21.0767H1112.94ZM1109.1 17.2273V15.3168H1118.7V17.2273H1109.1Z" fill="#E03F3F" fill-opacity="0.15"/>
<path d="M1191.55 21.0767V11.4744H1193.46V21.0767H1191.55ZM1187.71 17.2273V15.3168H1197.31V17.2273H1187.71Z" fill="#E03F3F" fill-opacity="0.15"/>
<path d="M1270.16 21.0767V11.4744H1272.07V21.0767H1270.16ZM1266.32 17.2273V15.3168H1275.92V17.2273H1266.32Z" fill="#E03F3F" fill-opacity="0.15"/>
<path d="M1348.77 21.0767V11.4744H1350.68V21.0767H1348.77ZM1344.93 17.2273V15.3168H1354.53V17.2273H1344.93Z" fill="#E03F3F" fill-opacity="0.15"/>
<path d="M1427.38 21.0767V11.4744H1429.29V21.0767H1427.38ZM1423.54 17.2273V15.3168H1433.14V17.2273H1423.54Z" fill="#E03F3F" fill-opacity="0.15"/>
<path d="M12.3952 80.0767V70.4744H14.3057V80.0767H12.3952ZM8.55289 76.2273V74.3168H18.1552V76.2273H8.55289Z" fill="#E03F3F" fill-opacity="0.15"/>
<path d="M91.0056 80.0767V70.4744H92.9161V80.0767H91.0056ZM87.1632 76.2273V74.3168H96.7655V76.2273H87.1632Z" fill="#E03F3F" fill-opacity="0.15"/>
<path d="M169.616 80.0767V70.4744H171.526V80.0767H169.616ZM165.774 76.2273V74.3168H175.376V76.2273H165.774Z" fill="#E03F3F" fill-opacity="0.15"/>
<path d="M248.226 80.0767V70.4744H250.137V80.0767H248.226ZM244.384 76.2273V74.3168H253.986V76.2273H244.384Z" fill="#E03F3F" fill-opacity="0.15"/>
<path d="M326.837 80.0767V70.4744H328.747V80.0767H326.837ZM322.994 76.2273V74.3168H332.597V76.2273H322.994Z" fill="#E03F3F" fill-opacity="0.15"/>
<path d="M405.447 80.0767V70.4744H407.357V80.0767H405.447ZM401.605 76.2273V74.3168H411.207V76.2273H401.605Z" fill="#E03F3F" fill-opacity="0.15"/>
<path d="M484.057 80.0767V70.4744H485.968V80.0767H484.057ZM480.215 76.2273V74.3168H489.817V76.2273H480.215Z" fill="#E03F3F" fill-opacity="0.15"/>
<path d="M562.669 80.0767V70.4744H564.579V80.0767H562.669ZM558.826 76.2273V74.3168H568.429V76.2273H558.826Z" fill="#E03F3F" fill-opacity="0.15"/>
<path d="M641.279 80.0767V70.4744H643.19V80.0767H641.279ZM637.437 76.2273V74.3168H647.039V76.2273H637.437Z" fill="#E03F3F" fill-opacity="0.15"/>
<path d="M719.889 80.0767V70.4744H721.8V80.0767H719.889ZM716.047 76.2273V74.3168H725.649V76.2273H716.047Z" fill="#E03F3F" fill-opacity="0.15"/>
<path d="M798.5 80.0767V70.4744H800.41V80.0767H798.5ZM794.657 76.2273V74.3168H804.26V76.2273H794.657Z" fill="#E03F3F" fill-opacity="0.15"/>
<path d="M877.11 80.0767V70.4744H879.021V80.0767H877.11ZM873.268 76.2273V74.3168H882.87V76.2273H873.268Z" fill="#E03F3F" fill-opacity="0.15"/>
<path d="M955.72 80.0767V70.4744H957.631V80.0767H955.72ZM951.878 76.2273V74.3168H961.48V76.2273H951.878Z" fill="#E03F3F" fill-opacity="0.15"/>
<path d="M1034.33 80.0767V70.4744H1036.24V80.0767H1034.33ZM1030.49 76.2273V74.3168H1040.09V76.2273H1030.49Z" fill="#E03F3F" fill-opacity="0.15"/>
<path d="M1112.94 80.0767V70.4744H1114.85V80.0767H1112.94ZM1109.1 76.2273V74.3168H1118.7V76.2273H1109.1Z" fill="#E03F3F" fill-opacity="0.15"/>
<path d="M1191.55 80.0767V70.4744H1193.46V80.0767H1191.55ZM1187.71 76.2273V74.3168H1197.31V76.2273H1187.71Z" fill="#E03F3F" fill-opacity="0.15"/>
<path d="M1270.16 80.0767V70.4744H1272.07V80.0767H1270.16ZM1266.32 76.2273V74.3168H1275.92V76.2273H1266.32Z" fill="#E03F3F" fill-opacity="0.15"/>
<path d="M1348.77 80.0767V70.4744H1350.68V80.0767H1348.77ZM1344.93 76.2273V74.3168H1354.53V76.2273H1344.93Z" fill="#E03F3F" fill-opacity="0.15"/>
<path d="M1427.38 80.0767V70.4744H1429.29V80.0767H1427.38ZM1423.54 76.2273V74.3168H1433.14V76.2273H1423.54Z" fill="#E03F3F" fill-opacity="0.15"/>
<path d="M12.3952 139.077V129.474H14.3057V139.077H12.3952ZM8.55289 135.227V133.317H18.1552V135.227H8.55289Z" fill="#E03F3F" fill-opacity="0.15"/>
<path d="M91.0056 139.077V129.474H92.9161V139.077H91.0056ZM87.1632 135.227V133.317H96.7655V135.227H87.1632Z" fill="#E03F3F" fill-opacity="0.15"/>
<path d="M169.616 139.077V129.474H171.526V139.077H169.616ZM165.774 135.227V133.317H175.376V135.227H165.774Z" fill="#E03F3F" fill-opacity="0.15"/>
<path d="M248.226 139.077V129.474H250.137V139.077H248.226ZM244.384 135.227V133.317H253.986V135.227H244.384Z" fill="#E03F3F" fill-opacity="0.15"/>
<path d="M326.837 139.077V129.474H328.747V139.077H326.837ZM322.994 135.227V133.317H332.597V135.227H322.994Z" fill="#E03F3F" fill-opacity="0.15"/>
<path d="M405.447 139.077V129.474H407.357V139.077H405.447ZM401.605 135.227V133.317H411.207V135.227H401.605Z" fill="#E03F3F" fill-opacity="0.15"/>
<path d="M484.057 139.077V129.474H485.968V139.077H484.057ZM480.215 135.227V133.317H489.817V135.227H480.215Z" fill="#E03F3F" fill-opacity="0.15"/>
<path d="M562.669 139.077V129.474H564.579V139.077H562.669ZM558.826 135.227V133.317H568.429V135.227H558.826Z" fill="#E03F3F" fill-opacity="0.15"/>
<path d="M641.279 139.077V129.474H643.19V139.077H641.279ZM637.437 135.227V133.317H647.039V135.227H637.437Z" fill="#E03F3F" fill-opacity="0.15"/>
<path d="M719.889 139.077V129.474H721.8V139.077H719.889ZM716.047 135.227V133.317H725.649V135.227H716.047Z" fill="#E03F3F" fill-opacity="0.15"/>
<path d="M798.5 139.077V129.474H800.41V139.077H798.5ZM794.657 135.227V133.317H804.26V135.227H794.657Z" fill="#E03F3F" fill-opacity="0.15"/>
<path d="M877.11 139.077V129.474H879.021V139.077H877.11ZM873.268 135.227V133.317H882.87V135.227H873.268Z" fill="#E03F3F" fill-opacity="0.15"/>
<path d="M955.72 139.077V129.474H957.631V139.077H955.72ZM951.878 135.227V133.317H961.48V135.227H951.878Z" fill="#E03F3F" fill-opacity="0.15"/>
<path d="M1034.33 139.077V129.474H1036.24V139.077H1034.33ZM1030.49 135.227V133.317H1040.09V135.227H1030.49Z" fill="#E03F3F" fill-opacity="0.15"/>
<path d="M1112.94 139.077V129.474H1114.85V139.077H1112.94ZM1109.1 135.227V133.317H1118.7V135.227H1109.1Z" fill="#E03F3F" fill-opacity="0.15"/>
<path d="M1191.55 139.077V129.474H1193.46V139.077H1191.55ZM1187.71 135.227V133.317H1197.31V135.227H1187.71Z" fill="#E03F3F" fill-opacity="0.15"/>
<path d="M1270.16 139.077V129.474H1272.07V139.077H1270.16ZM1266.32 135.227V133.317H1275.92V135.227H1266.32Z" fill="#E03F3F" fill-opacity="0.15"/>
<path d="M1348.77 139.077V129.474H1350.68V139.077H1348.77ZM1344.93 135.227V133.317H1354.53V135.227H1344.93Z" fill="#E03F3F" fill-opacity="0.15"/>
<path d="M1427.38 139.077V129.474H1429.29V139.077H1427.38ZM1423.54 135.227V133.317H1433.14V135.227H1423.54Z" fill="#E03F3F" fill-opacity="0.15"/>
<path d="M12.3952 198.077V188.474H14.3057V198.077H12.3952ZM8.55289 194.227V192.317H18.1552V194.227H8.55289Z" fill="#E03F3F" fill-opacity="0.15"/>
<path d="M91.0056 198.077V188.474H92.9161V198.077H91.0056ZM87.1632 194.227V192.317H96.7655V194.227H87.1632Z" fill="#E03F3F" fill-opacity="0.15"/>
<path d="M169.616 198.077V188.474H171.526V198.077H169.616ZM165.774 194.227V192.317H175.376V194.227H165.774Z" fill="#E03F3F" fill-opacity="0.15"/>
<path d="M248.226 198.077V188.474H250.137V198.077H248.226ZM244.384 194.227V192.317H253.986V194.227H244.384Z" fill="#E03F3F" fill-opacity="0.15"/>
<path d="M326.837 198.077V188.474H328.747V198.077H326.837ZM322.994 194.227V192.317H332.597V194.227H322.994Z" fill="#E03F3F" fill-opacity="0.15"/>
<path d="M405.447 198.077V188.474H407.357V198.077H405.447ZM401.605 194.227V192.317H411.207V194.227H401.605Z" fill="#E03F3F" fill-opacity="0.15"/>
<path d="M484.057 198.077V188.474H485.968V198.077H484.057ZM480.215 194.227V192.317H489.817V194.227H480.215Z" fill="#E03F3F" fill-opacity="0.15"/>
<path d="M562.669 198.077V188.474H564.579V198.077H562.669ZM558.826 194.227V192.317H568.429V194.227H558.826Z" fill="#E03F3F" fill-opacity="0.15"/>
<path d="M641.279 198.077V188.474H643.19V198.077H641.279ZM637.437 194.227V192.317H647.039V194.227H637.437Z" fill="#E03F3F" fill-opacity="0.15"/>
<path d="M719.889 198.077V188.474H721.8V198.077H719.889ZM716.047 194.227V192.317H725.649V194.227H716.047Z" fill="#E03F3F" fill-opacity="0.15"/>
<path d="M798.5 198.077V188.474H800.41V198.077H798.5ZM794.657 194.227V192.317H804.26V194.227H794.657Z" fill="#E03F3F" fill-opacity="0.15"/>
<path d="M877.11 198.077V188.474H879.021V198.077H877.11ZM873.268 194.227V192.317H882.87V194.227H873.268Z" fill="#E03F3F" fill-opacity="0.15"/>
<path d="M955.72 198.077V188.474H957.631V198.077H955.72ZM951.878 194.227V192.317H961.48V194.227H951.878Z" fill="#E03F3F" fill-opacity="0.15"/>
<path d="M1034.33 198.077V188.474H1036.24V198.077H1034.33ZM1030.49 194.227V192.317H1040.09V194.227H1030.49Z" fill="#E03F3F" fill-opacity="0.15"/>
<path d="M1112.94 198.077V188.474H1114.85V198.077H1112.94ZM1109.1 194.227V192.317H1118.7V194.227H1109.1Z" fill="#E03F3F" fill-opacity="0.15"/>
<path d="M1191.55 198.077V188.474H1193.46V198.077H1191.55ZM1187.71 194.227V192.317H1197.31V194.227H1187.71Z" fill="#E03F3F" fill-opacity="0.15"/>
<path d="M1270.16 198.077V188.474H1272.07V198.077H1270.16ZM1266.32 194.227V192.317H1275.92V194.227H1266.32Z" fill="#E03F3F" fill-opacity="0.15"/>
<path d="M1348.77 198.077V188.474H1350.68V198.077H1348.77ZM1344.93 194.227V192.317H1354.53V194.227H1344.93Z" fill="#E03F3F" fill-opacity="0.15"/>
<path d="M1427.38 198.077V188.474H1429.29V198.077H1427.38ZM1423.54 194.227V192.317H1433.14V194.227H1423.54Z" fill="#E03F3F" fill-opacity="0.15"/>
<path d="M12.3952 257.077V247.474H14.3057V257.077H12.3952ZM8.55289 253.227V251.317H18.1552V253.227H8.55289Z" fill="#E03F3F" fill-opacity="0.15"/>
<path d="M91.0056 257.077V247.474H92.9161V257.077H91.0056ZM87.1632 253.227V251.317H96.7655V253.227H87.1632Z" fill="#E03F3F" fill-opacity="0.15"/>
<path d="M169.616 257.077V247.474H171.526V257.077H169.616ZM165.774 253.227V251.317H175.376V253.227H165.774Z" fill="#E03F3F" fill-opacity="0.15"/>
<path d="M248.226 257.077V247.474H250.137V257.077H248.226ZM244.384 253.227V251.317H253.986V253.227H244.384Z" fill="#E03F3F" fill-opacity="0.15"/>
<path d="M326.837 257.077V247.474H328.747V257.077H326.837ZM322.994 253.227V251.317H332.597V253.227H322.994Z" fill="#E03F3F" fill-opacity="0.15"/>
<path d="M405.447 257.077V247.474H407.357V257.077H405.447ZM401.605 253.227V251.317H411.207V253.227H401.605Z" fill="#E03F3F" fill-opacity="0.15"/>
<path d="M484.057 257.077V247.474H485.968V257.077H484.057ZM480.215 253.227V251.317H489.817V253.227H480.215Z" fill="#E03F3F" fill-opacity="0.15"/>
<path d="M562.669 257.077V247.474H564.579V257.077H562.669ZM558.826 253.227V251.317H568.429V253.227H558.826Z" fill="#E03F3F" fill-opacity="0.15"/>
<path d="M641.279 257.077V247.474H643.19V257.077H641.279ZM637.437 253.227V251.317H647.039V253.227H637.437Z" fill="#E03F3F" fill-opacity="0.15"/>
<path d="M719.889 257.077V247.474H721.8V257.077H719.889ZM716.047 253.227V251.317H725.649V253.227H716.047Z" fill="#E03F3F" fill-opacity="0.15"/>
<path d="M798.5 257.077V247.474H800.41V257.077H798.5ZM794.657 253.227V251.317H804.26V253.227H794.657Z" fill="#E03F3F" fill-opacity="0.15"/>
<path d="M877.11 257.077V247.474H879.021V257.077H877.11ZM873.268 253.227V251.317H882.87V253.227H873.268Z" fill="#E03F3F" fill-opacity="0.15"/>
<path d="M955.72 257.077V247.474H957.631V257.077H955.72ZM951.878 253.227V251.317H961.48V253.227H951.878Z" fill="#E03F3F" fill-opacity="0.15"/>
<path d="M1034.33 257.077V247.474H1036.24V257.077H1034.33ZM1030.49 253.227V251.317H1040.09V253.227H1030.49Z" fill="#E03F3F" fill-opacity="0.15"/>
<path d="M1112.94 257.077V247.474H1114.85V257.077H1112.94ZM1109.1 253.227V251.317H1118.7V253.227H1109.1Z" fill="#E03F3F" fill-opacity="0.15"/>
<path d="M1191.55 257.077V247.474H1193.46V257.077H1191.55ZM1187.71 253.227V251.317H1197.31V253.227H1187.71Z" fill="#E03F3F" fill-opacity="0.15"/>
<path d="M1270.16 257.077V247.474H1272.07V257.077H1270.16ZM1266.32 253.227V251.317H1275.92V253.227H1266.32Z" fill="#E03F3F" fill-opacity="0.15"/>
<path d="M1348.77 257.077V247.474H1350.68V257.077H1348.77ZM1344.93 253.227V251.317H1354.53V253.227H1344.93Z" fill="#E03F3F" fill-opacity="0.15"/>
<path d="M1427.38 257.077V247.474H1429.29V257.077H1427.38ZM1423.54 253.227V251.317H1433.14V253.227H1423.54Z" fill="#E03F3F" fill-opacity="0.15"/>
<path d="M12.3952 316.077V306.474H14.3057V316.077H12.3952ZM8.55289 312.227V310.317H18.1552V312.227H8.55289Z" fill="#E03F3F" fill-opacity="0.15"/>
<path d="M91.0056 316.077V306.474H92.9161V316.077H91.0056ZM87.1632 312.227V310.317H96.7655V312.227H87.1632Z" fill="#E03F3F" fill-opacity="0.15"/>
<path d="M169.616 316.077V306.474H171.526V316.077H169.616ZM165.774 312.227V310.317H175.376V312.227H165.774Z" fill="#E03F3F" fill-opacity="0.15"/>
<path d="M248.226 316.077V306.474H250.137V316.077H248.226ZM244.384 312.227V310.317H253.986V312.227H244.384Z" fill="#E03F3F" fill-opacity="0.15"/>
<path d="M326.837 316.077V306.474H328.747V316.077H326.837ZM322.994 312.227V310.317H332.597V312.227H322.994Z" fill="#E03F3F" fill-opacity="0.15"/>
<path d="M405.447 316.077V306.474H407.357V316.077H405.447ZM401.605 312.227V310.317H411.207V312.227H401.605Z" fill="#E03F3F" fill-opacity="0.15"/>
<path d="M484.057 316.077V306.474H485.968V316.077H484.057ZM480.215 312.227V310.317H489.817V312.227H480.215Z" fill="#E03F3F" fill-opacity="0.15"/>
<path d="M562.669 316.077V306.474H564.579V316.077H562.669ZM558.826 312.227V310.317H568.429V312.227H558.826Z" fill="#E03F3F" fill-opacity="0.15"/>
<path d="M641.279 316.077V306.474H643.19V316.077H641.279ZM637.437 312.227V310.317H647.039V312.227H637.437Z" fill="#E03F3F" fill-opacity="0.15"/>
<path d="M719.889 316.077V306.474H721.8V316.077H719.889ZM716.047 312.227V310.317H725.649V312.227H716.047Z" fill="#E03F3F" fill-opacity="0.15"/>
<path d="M798.5 316.077V306.474H800.41V316.077H798.5ZM794.657 312.227V310.317H804.26V312.227H794.657Z" fill="#E03F3F" fill-opacity="0.15"/>
<path d="M877.11 316.077V306.474H879.021V316.077H877.11ZM873.268 312.227V310.317H882.87V312.227H873.268Z" fill="#E03F3F" fill-opacity="0.15"/>
<path d="M955.72 316.077V306.474H957.631V316.077H955.72ZM951.878 312.227V310.317H961.48V312.227H951.878Z" fill="#E03F3F" fill-opacity="0.15"/>
<path d="M1034.33 316.077V306.474H1036.24V316.077H1034.33ZM1030.49 312.227V310.317H1040.09V312.227H1030.49Z" fill="#E03F3F" fill-opacity="0.15"/>
<path d="M1112.94 316.077V306.474H1114.85V316.077H1112.94ZM1109.1 312.227V310.317H1118.7V312.227H1109.1Z" fill="#E03F3F" fill-opacity="0.15"/>
<path d="M1191.55 316.077V306.474H1193.46V316.077H1191.55ZM1187.71 312.227V310.317H1197.31V312.227H1187.71Z" fill="#E03F3F" fill-opacity="0.15"/>
<path d="M1270.16 316.077V306.474H1272.07V316.077H1270.16ZM1266.32 312.227V310.317H1275.92V312.227H1266.32Z" fill="#E03F3F" fill-opacity="0.15"/>
<path d="M1348.77 316.077V306.474H1350.68V316.077H1348.77ZM1344.93 312.227V310.317H1354.53V312.227H1344.93Z" fill="#E03F3F" fill-opacity="0.15"/>
<path d="M1427.38 316.077V306.474H1429.29V316.077H1427.38ZM1423.54 312.227V310.317H1433.14V312.227H1423.54Z" fill="#E03F3F" fill-opacity="0.15"/>
<path d="M12.3952 375.077V365.474H14.3057V375.077H12.3952ZM8.55289 371.227V369.317H18.1552V371.227H8.55289Z" fill="#E03F3F" fill-opacity="0.15"/>
<path d="M91.0056 375.077V365.474H92.9161V375.077H91.0056ZM87.1632 371.227V369.317H96.7655V371.227H87.1632Z" fill="#E03F3F" fill-opacity="0.15"/>
<path d="M169.616 375.077V365.474H171.526V375.077H169.616ZM165.774 371.227V369.317H175.376V371.227H165.774Z" fill="#E03F3F" fill-opacity="0.15"/>
<path d="M248.226 375.077V365.474H250.137V375.077H248.226ZM244.384 371.227V369.317H253.986V371.227H244.384Z" fill="#E03F3F" fill-opacity="0.15"/>
<path d="M326.837 375.077V365.474H328.747V375.077H326.837ZM322.994 371.227V369.317H332.597V371.227H322.994Z" fill="#E03F3F" fill-opacity="0.15"/>
<path d="M405.447 375.077V365.474H407.357V375.077H405.447ZM401.605 371.227V369.317H411.207V371.227H401.605Z" fill="#E03F3F" fill-opacity="0.15"/>
<path d="M484.057 375.077V365.474H485.968V375.077H484.057ZM480.215 371.227V369.317H489.817V371.227H480.215Z" fill="#E03F3F" fill-opacity="0.15"/>
<path d="M562.669 375.077V365.474H564.579V375.077H562.669ZM558.826 371.227V369.317H568.429V371.227H558.826Z" fill="#E03F3F" fill-opacity="0.15"/>
<path d="M641.279 375.077V365.474H643.19V375.077H641.279ZM637.437 371.227V369.317H647.039V371.227H637.437Z" fill="#E03F3F" fill-opacity="0.15"/>
<path d="M719.889 375.077V365.474H721.8V375.077H719.889ZM716.047 371.227V369.317H725.649V371.227H716.047Z" fill="#E03F3F" fill-opacity="0.15"/>
<path d="M798.5 375.077V365.474H800.41V375.077H798.5ZM794.657 371.227V369.317H804.26V371.227H794.657Z" fill="#E03F3F" fill-opacity="0.15"/>
<path d="M877.11 375.077V365.474H879.021V375.077H877.11ZM873.268 371.227V369.317H882.87V371.227H873.268Z" fill="#E03F3F" fill-opacity="0.15"/>
<path d="M955.72 375.077V365.474H957.631V375.077H955.72ZM951.878 371.227V369.317H961.48V371.227H951.878Z" fill="#E03F3F" fill-opacity="0.15"/>
<path d="M1034.33 375.077V365.474H1036.24V375.077H1034.33ZM1030.49 371.227V369.317H1040.09V371.227H1030.49Z" fill="#E03F3F" fill-opacity="0.15"/>
<path d="M1112.94 375.077V365.474H1114.85V375.077H1112.94ZM1109.1 371.227V369.317H1118.7V371.227H1109.1Z" fill="#E03F3F" fill-opacity="0.15"/>
<path d="M1191.55 375.077V365.474H1193.46V375.077H1191.55ZM1187.71 371.227V369.317H1197.31V371.227H1187.71Z" fill="#E03F3F" fill-opacity="0.15"/>
<path d="M1270.16 375.077V365.474H1272.07V375.077H1270.16ZM1266.32 371.227V369.317H1275.92V371.227H1266.32Z" fill="#E03F3F" fill-opacity="0.15"/>
<path d="M1348.77 375.077V365.474H1350.68V375.077H1348.77ZM1344.93 371.227V369.317H1354.53V371.227H1344.93Z" fill="#E03F3F" fill-opacity="0.15"/>
<path d="M1427.38 375.077V365.474H1429.29V375.077H1427.38ZM1423.54 371.227V369.317H1433.14V371.227H1423.54Z" fill="#E03F3F" fill-opacity="0.15"/>
<path d="M12.3952 434.077V424.474H14.3057V434.077H12.3952ZM8.55289 430.227V428.317H18.1552V430.227H8.55289Z" fill="#E03F3F" fill-opacity="0.15"/>
<path d="M91.0056 434.077V424.474H92.9161V434.077H91.0056ZM87.1632 430.227V428.317H96.7655V430.227H87.1632Z" fill="#E03F3F" fill-opacity="0.15"/>
<path d="M169.616 434.077V424.474H171.526V434.077H169.616ZM165.774 430.227V428.317H175.376V430.227H165.774Z" fill="#E03F3F" fill-opacity="0.15"/>
<path d="M248.226 434.077V424.474H250.137V434.077H248.226ZM244.384 430.227V428.317H253.986V430.227H244.384Z" fill="#E03F3F" fill-opacity="0.15"/>
<path d="M326.837 434.077V424.474H328.747V434.077H326.837ZM322.994 430.227V428.317H332.597V430.227H322.994Z" fill="#E03F3F" fill-opacity="0.15"/>
<path d="M405.447 434.077V424.474H407.357V434.077H405.447ZM401.605 430.227V428.317H411.207V430.227H401.605Z" fill="#E03F3F" fill-opacity="0.15"/>
<path d="M484.057 434.077V424.474H485.968V434.077H484.057ZM480.215 430.227V428.317H489.817V430.227H480.215Z" fill="#E03F3F" fill-opacity="0.15"/>
<path d="M562.669 434.077V424.474H564.579V434.077H562.669ZM558.826 430.227V428.317H568.429V430.227H558.826Z" fill="#E03F3F" fill-opacity="0.15"/>
<path d="M641.279 434.077V424.474H643.19V434.077H641.279ZM637.437 430.227V428.317H647.039V430.227H637.437Z" fill="#E03F3F" fill-opacity="0.15"/>
<path d="M719.889 434.077V424.474H721.8V434.077H719.889ZM716.047 430.227V428.317H725.649V430.227H716.047Z" fill="#E03F3F" fill-opacity="0.15"/>
<path d="M798.5 434.077V424.474H800.41V434.077H798.5ZM794.657 430.227V428.317H804.26V430.227H794.657Z" fill="#E03F3F" fill-opacity="0.15"/>
<path d="M877.11 434.077V424.474H879.021V434.077H877.11ZM873.268 430.227V428.317H882.87V430.227H873.268Z" fill="#E03F3F" fill-opacity="0.15"/>
<path d="M955.72 434.077V424.474H957.631V434.077H955.72ZM951.878 430.227V428.317H961.48V430.227H951.878Z" fill="#E03F3F" fill-opacity="0.15"/>
<path d="M1034.33 434.077V424.474H1036.24V434.077H1034.33ZM1030.49 430.227V428.317H1040.09V430.227H1030.49Z" fill="#E03F3F" fill-opacity="0.15"/>
<path d="M1112.94 434.077V424.474H1114.85V434.077H1112.94ZM1109.1 430.227V428.317H1118.7V430.227H1109.1Z" fill="#E03F3F" fill-opacity="0.15"/>
<path d="M1191.55 434.077V424.474H1193.46V434.077H1191.55ZM1187.71 430.227V428.317H1197.31V430.227H1187.71Z" fill="#E03F3F" fill-opacity="0.15"/>
<path d="M1270.16 434.077V424.474H1272.07V434.077H1270.16ZM1266.32 430.227V428.317H1275.92V430.227H1266.32Z" fill="#E03F3F" fill-opacity="0.15"/>
<path d="M1348.77 434.077V424.474H1350.68V434.077H1348.77ZM1344.93 430.227V428.317H1354.53V430.227H1344.93Z" fill="#E03F3F" fill-opacity="0.15"/>
<path d="M1427.38 434.077V424.474H1429.29V434.077H1427.38ZM1423.54 430.227V428.317H1433.14V430.227H1423.54Z" fill="#E03F3F" fill-opacity="0.15"/>
<path d="M12.3952 493.077V483.474H14.3057V493.077H12.3952ZM8.55289 489.227V487.317H18.1552V489.227H8.55289Z" fill="#E03F3F" fill-opacity="0.15"/>
<path d="M91.0056 493.077V483.474H92.9161V493.077H91.0056ZM87.1632 489.227V487.317H96.7655V489.227H87.1632Z" fill="#E03F3F" fill-opacity="0.15"/>
<path d="M169.616 493.077V483.474H171.526V493.077H169.616ZM165.774 489.227V487.317H175.376V489.227H165.774Z" fill="#E03F3F" fill-opacity="0.15"/>
<path d="M248.226 493.077V483.474H250.137V493.077H248.226ZM244.384 489.227V487.317H253.986V489.227H244.384Z" fill="#E03F3F" fill-opacity="0.15"/>
<path d="M326.837 493.077V483.474H328.747V493.077H326.837ZM322.994 489.227V487.317H332.597V489.227H322.994Z" fill="#E03F3F" fill-opacity="0.15"/>
<path d="M405.447 493.077V483.474H407.357V493.077H405.447ZM401.605 489.227V487.317H411.207V489.227H401.605Z" fill="#E03F3F" fill-opacity="0.15"/>
<path d="M484.057 493.077V483.474H485.968V493.077H484.057ZM480.215 489.227V487.317H489.817V489.227H480.215Z" fill="#E03F3F" fill-opacity="0.15"/>
<path d="M562.669 493.077V483.474H564.579V493.077H562.669ZM558.826 489.227V487.317H568.429V489.227H558.826Z" fill="#E03F3F" fill-opacity="0.15"/>
<path d="M641.279 493.077V483.474H643.19V493.077H641.279ZM637.437 489.227V487.317H647.039V489.227H637.437Z" fill="#E03F3F" fill-opacity="0.15"/>
<path d="M719.889 493.077V483.474H721.8V493.077H719.889ZM716.047 489.227V487.317H725.649V489.227H716.047Z" fill="#E03F3F" fill-opacity="0.15"/>
<path d="M798.5 493.077V483.474H800.41V493.077H798.5ZM794.657 489.227V487.317H804.26V489.227H794.657Z" fill="#E03F3F" fill-opacity="0.15"/>
<path d="M877.11 493.077V483.474H879.021V493.077H877.11ZM873.268 489.227V487.317H882.87V489.227H873.268Z" fill="#E03F3F" fill-opacity="0.15"/>
<path d="M955.72 493.077V483.474H957.631V493.077H955.72ZM951.878 489.227V487.317H961.48V489.227H951.878Z" fill="#E03F3F" fill-opacity="0.15"/>
<path d="M1034.33 493.077V483.474H1036.24V493.077H1034.33ZM1030.49 489.227V487.317H1040.09V489.227H1030.49Z" fill="#E03F3F" fill-opacity="0.15"/>
<path d="M1112.94 493.077V483.474H1114.85V493.077H1112.94ZM1109.1 489.227V487.317H1118.7V489.227H1109.1Z" fill="#E03F3F" fill-opacity="0.15"/>
<path d="M1191.55 493.077V483.474H1193.46V493.077H1191.55ZM1187.71 489.227V487.317H1197.31V489.227H1187.71Z" fill="#E03F3F" fill-opacity="0.15"/>
<path d="M1270.16 493.077V483.474H1272.07V493.077H1270.16ZM1266.32 489.227V487.317H1275.92V489.227H1266.32Z" fill="#E03F3F" fill-opacity="0.15"/>
<path d="M1348.77 493.077V483.474H1350.68V493.077H1348.77ZM1344.93 489.227V487.317H1354.53V489.227H1344.93Z" fill="#E03F3F" fill-opacity="0.15"/>
<path d="M1427.38 493.077V483.474H1429.29V493.077H1427.38ZM1423.54 489.227V487.317H1433.14V489.227H1423.54Z" fill="#E03F3F" fill-opacity="0.15"/>
<path d="M12.3952 552.077V542.474H14.3057V552.077H12.3952ZM8.55289 548.227V546.317H18.1552V548.227H8.55289Z" fill="#E03F3F" fill-opacity="0.15"/>
<path d="M91.0056 552.077V542.474H92.9161V552.077H91.0056ZM87.1632 548.227V546.317H96.7655V548.227H87.1632Z" fill="#E03F3F" fill-opacity="0.15"/>
<path d="M169.616 552.077V542.474H171.526V552.077H169.616ZM165.774 548.227V546.317H175.376V548.227H165.774Z" fill="#E03F3F" fill-opacity="0.15"/>
<path d="M248.226 552.077V542.474H250.137V552.077H248.226ZM244.384 548.227V546.317H253.986V548.227H244.384Z" fill="#E03F3F" fill-opacity="0.15"/>
<path d="M326.837 552.077V542.474H328.747V552.077H326.837ZM322.994 548.227V546.317H332.597V548.227H322.994Z" fill="#E03F3F" fill-opacity="0.15"/>
<path d="M405.447 552.077V542.474H407.357V552.077H405.447ZM401.605 548.227V546.317H411.207V548.227H401.605Z" fill="#E03F3F" fill-opacity="0.15"/>
<path d="M484.057 552.077V542.474H485.968V552.077H484.057ZM480.215 548.227V546.317H489.817V548.227H480.215Z" fill="#E03F3F" fill-opacity="0.15"/>
<path d="M562.669 552.077V542.474H564.579V552.077H562.669ZM558.826 548.227V546.317H568.429V548.227H558.826Z" fill="#E03F3F" fill-opacity="0.15"/>
<path d="M641.279 552.077V542.474H643.19V552.077H641.279ZM637.437 548.227V546.317H647.039V548.227H637.437Z" fill="#E03F3F" fill-opacity="0.15"/>
<path d="M719.889 552.077V542.474H721.8V552.077H719.889ZM716.047 548.227V546.317H725.649V548.227H716.047Z" fill="#E03F3F" fill-opacity="0.15"/>
<path d="M798.5 552.077V542.474H800.41V552.077H798.5ZM794.657 548.227V546.317H804.26V548.227H794.657Z" fill="#E03F3F" fill-opacity="0.15"/>
<path d="M877.11 552.077V542.474H879.021V552.077H877.11ZM873.268 548.227V546.317H882.87V548.227H873.268Z" fill="#E03F3F" fill-opacity="0.15"/>
<path d="M955.72 552.077V542.474H957.631V552.077H955.72ZM951.878 548.227V546.317H961.48V548.227H951.878Z" fill="#E03F3F" fill-opacity="0.15"/>
<path d="M1034.33 552.077V542.474H1036.24V552.077H1034.33ZM1030.49 548.227V546.317H1040.09V548.227H1030.49Z" fill="#E03F3F" fill-opacity="0.15"/>
<path d="M1112.94 552.077V542.474H1114.85V552.077H1112.94ZM1109.1 548.227V546.317H1118.7V548.227H1109.1Z" fill="#E03F3F" fill-opacity="0.15"/>
<path d="M1191.55 552.077V542.474H1193.46V552.077H1191.55ZM1187.71 548.227V546.317H1197.31V548.227H1187.71Z" fill="#E03F3F" fill-opacity="0.15"/>
<path d="M1270.16 552.077V542.474H1272.07V552.077H1270.16ZM1266.32 548.227V546.317H1275.92V548.227H1266.32Z" fill="#E03F3F" fill-opacity="0.15"/>
<path d="M1348.77 552.077V542.474H1350.68V552.077H1348.77ZM1344.93 548.227V546.317H1354.53V548.227H1344.93Z" fill="#E03F3F" fill-opacity="0.15"/>
<path d="M1427.38 552.077V542.474H1429.29V552.077H1427.38ZM1423.54 548.227V546.317H1433.14V548.227H1423.54Z" fill="#E03F3F" fill-opacity="0.15"/>
<path d="M12.3952 611.077V601.474H14.3057V611.077H12.3952ZM8.55289 607.227V605.317H18.1552V607.227H8.55289Z" fill="#E03F3F" fill-opacity="0.15"/>
<path d="M91.0056 611.077V601.474H92.9161V611.077H91.0056ZM87.1632 607.227V605.317H96.7655V607.227H87.1632Z" fill="#E03F3F" fill-opacity="0.15"/>
<path d="M169.616 611.077V601.474H171.526V611.077H169.616ZM165.774 607.227V605.317H175.376V607.227H165.774Z" fill="#E03F3F" fill-opacity="0.15"/>
<path d="M248.226 611.077V601.474H250.137V611.077H248.226ZM244.384 607.227V605.317H253.986V607.227H244.384Z" fill="#E03F3F" fill-opacity="0.15"/>
<path d="M326.837 611.077V601.474H328.747V611.077H326.837ZM322.994 607.227V605.317H332.597V607.227H322.994Z" fill="#E03F3F" fill-opacity="0.15"/>
<path d="M405.447 611.077V601.474H407.357V611.077H405.447ZM401.605 607.227V605.317H411.207V607.227H401.605Z" fill="#E03F3F" fill-opacity="0.15"/>
<path d="M484.057 611.077V601.474H485.968V611.077H484.057ZM480.215 607.227V605.317H489.817V607.227H480.215Z" fill="#E03F3F" fill-opacity="0.15"/>
<path d="M562.669 611.077V601.474H564.579V611.077H562.669ZM558.826 607.227V605.317H568.429V607.227H558.826Z" fill="#E03F3F" fill-opacity="0.15"/>
<path d="M641.279 611.077V601.474H643.19V611.077H641.279ZM637.437 607.227V605.317H647.039V607.227H637.437Z" fill="#E03F3F" fill-opacity="0.15"/>
<path d="M719.889 611.077V601.474H721.8V611.077H719.889ZM716.047 607.227V605.317H725.649V607.227H716.047Z" fill="#E03F3F" fill-opacity="0.15"/>
<path d="M798.5 611.077V601.474H800.41V611.077H798.5ZM794.657 607.227V605.317H804.26V607.227H794.657Z" fill="#E03F3F" fill-opacity="0.15"/>
<path d="M877.11 611.077V601.474H879.021V611.077H877.11ZM873.268 607.227V605.317H882.87V607.227H873.268Z" fill="#E03F3F" fill-opacity="0.15"/>
<path d="M955.72 611.077V601.474H957.631V611.077H955.72ZM951.878 607.227V605.317H961.48V607.227H951.878Z" fill="#E03F3F" fill-opacity="0.15"/>
<path d="M1034.33 611.077V601.474H1036.24V611.077H1034.33ZM1030.49 607.227V605.317H1040.09V607.227H1030.49Z" fill="#E03F3F" fill-opacity="0.15"/>
<path d="M1112.94 611.077V601.474H1114.85V611.077H1112.94ZM1109.1 607.227V605.317H1118.7V607.227H1109.1Z" fill="#E03F3F" fill-opacity="0.15"/>
<path d="M1191.55 611.077V601.474H1193.46V611.077H1191.55ZM1187.71 607.227V605.317H1197.31V607.227H1187.71Z" fill="#E03F3F" fill-opacity="0.15"/>
<path d="M1270.16 611.077V601.474H1272.07V611.077H1270.16ZM1266.32 607.227V605.317H1275.92V607.227H1266.32Z" fill="#E03F3F" fill-opacity="0.15"/>
<path d="M1348.77 611.077V601.474H1350.68V611.077H1348.77ZM1344.93 607.227V605.317H1354.53V607.227H1344.93Z" fill="#E03F3F" fill-opacity="0.15"/>
<path d="M1427.38 611.077V601.474H1429.29V611.077H1427.38ZM1423.54 607.227V605.317H1433.14V607.227H1423.54Z" fill="#E03F3F" fill-opacity="0.15"/>
<path d="M12.3952 670.077V660.474H14.3057V670.077H12.3952ZM8.55289 666.227V664.317H18.1552V666.227H8.55289Z" fill="#E03F3F" fill-opacity="0.15"/>
<path d="M91.0056 670.077V660.474H92.9161V670.077H91.0056ZM87.1632 666.227V664.317H96.7655V666.227H87.1632Z" fill="#E03F3F" fill-opacity="0.15"/>
<path d="M169.616 670.077V660.474H171.526V670.077H169.616ZM165.774 666.227V664.317H175.376V666.227H165.774Z" fill="#E03F3F" fill-opacity="0.15"/>
<path d="M248.226 670.077V660.474H250.137V670.077H248.226ZM244.384 666.227V664.317H253.986V666.227H244.384Z" fill="#E03F3F" fill-opacity="0.15"/>
<path d="M326.837 670.077V660.474H328.747V670.077H326.837ZM322.994 666.227V664.317H332.597V666.227H322.994Z" fill="#E03F3F" fill-opacity="0.15"/>
<path d="M405.447 670.077V660.474H407.357V670.077H405.447ZM401.605 666.227V664.317H411.207V666.227H401.605Z" fill="#E03F3F" fill-opacity="0.15"/>
<path d="M484.057 670.077V660.474H485.968V670.077H484.057ZM480.215 666.227V664.317H489.817V666.227H480.215Z" fill="#E03F3F" fill-opacity="0.15"/>
<path d="M562.669 670.077V660.474H564.579V670.077H562.669ZM558.826 666.227V664.317H568.429V666.227H558.826Z" fill="#E03F3F" fill-opacity="0.15"/>
<path d="M641.279 670.077V660.474H643.19V670.077H641.279ZM637.437 666.227V664.317H647.039V666.227H637.437Z" fill="#E03F3F" fill-opacity="0.15"/>
<path d="M719.889 670.077V660.474H721.8V670.077H719.889ZM716.047 666.227V664.317H725.649V666.227H716.047Z" fill="#E03F3F" fill-opacity="0.15"/>
<path d="M798.5 670.077V660.474H800.41V670.077H798.5ZM794.657 666.227V664.317H804.26V666.227H794.657Z" fill="#E03F3F" fill-opacity="0.15"/>
<path d="M877.11 670.077V660.474H879.021V670.077H877.11ZM873.268 666.227V664.317H882.87V666.227H873.268Z" fill="#E03F3F" fill-opacity="0.15"/>
<path d="M955.72 670.077V660.474H957.631V670.077H955.72ZM951.878 666.227V664.317H961.48V666.227H951.878Z" fill="#E03F3F" fill-opacity="0.15"/>
<path d="M1034.33 670.077V660.474H1036.24V670.077H1034.33ZM1030.49 666.227V664.317H1040.09V666.227H1030.49Z" fill="#E03F3F" fill-opacity="0.15"/>
<path d="M1112.94 670.077V660.474H1114.85V670.077H1112.94ZM1109.1 666.227V664.317H1118.7V666.227H1109.1Z" fill="#E03F3F" fill-opacity="0.15"/>
<path d="M1191.55 670.077V660.474H1193.46V670.077H1191.55ZM1187.71 666.227V664.317H1197.31V666.227H1187.71Z" fill="#E03F3F" fill-opacity="0.15"/>
<path d="M1270.16 670.077V660.474H1272.07V670.077H1270.16ZM1266.32 666.227V664.317H1275.92V666.227H1266.32Z" fill="#E03F3F" fill-opacity="0.15"/>
<path d="M1348.77 670.077V660.474H1350.68V670.077H1348.77ZM1344.93 666.227V664.317H1354.53V666.227H1344.93Z" fill="#E03F3F" fill-opacity="0.15"/>
<path d="M1427.38 670.077V660.474H1429.29V670.077H1427.38ZM1423.54 666.227V664.317H1433.14V666.227H1423.54Z" fill="#E03F3F" fill-opacity="0.15"/>
<path d="M12.3952 729.077V719.474H14.3057V729.077H12.3952ZM8.55289 725.227V723.317H18.1552V725.227H8.55289Z" fill="#E03F3F" fill-opacity="0.15"/>
<path d="M91.0056 729.077V719.474H92.9161V729.077H91.0056ZM87.1632 725.227V723.317H96.7655V725.227H87.1632Z" fill="#E03F3F" fill-opacity="0.15"/>
<path d="M169.616 729.077V719.474H171.526V729.077H169.616ZM165.774 725.227V723.317H175.376V725.227H165.774Z" fill="#E03F3F" fill-opacity="0.15"/>
<path d="M248.226 729.077V719.474H250.137V729.077H248.226ZM244.384 725.227V723.317H253.986V725.227H244.384Z" fill="#E03F3F" fill-opacity="0.15"/>
<path d="M326.837 729.077V719.474H328.747V729.077H326.837ZM322.994 725.227V723.317H332.597V725.227H322.994Z" fill="#E03F3F" fill-opacity="0.15"/>
<path d="M405.447 729.077V719.474H407.357V729.077H405.447ZM401.605 725.227V723.317H411.207V725.227H401.605Z" fill="#E03F3F" fill-opacity="0.15"/>
<path d="M484.057 729.077V719.474H485.968V729.077H484.057ZM480.215 725.227V723.317H489.817V725.227H480.215Z" fill="#E03F3F" fill-opacity="0.15"/>
<path d="M562.669 729.077V719.474H564.579V729.077H562.669ZM558.826 725.227V723.317H568.429V725.227H558.826Z" fill="#E03F3F" fill-opacity="0.15"/>
<path d="M641.279 729.077V719.474H643.19V729.077H641.279ZM637.437 725.227V723.317H647.039V725.227H637.437Z" fill="#E03F3F" fill-opacity="0.15"/>
<path d="M719.889 729.077V719.474H721.8V729.077H719.889ZM716.047 725.227V723.317H725.649V725.227H716.047Z" fill="#E03F3F" fill-opacity="0.15"/>
<path d="M798.5 729.077V719.474H800.41V729.077H798.5ZM794.657 725.227V723.317H804.26V725.227H794.657Z" fill="#E03F3F" fill-opacity="0.15"/>
<path d="M877.11 729.077V719.474H879.021V729.077H877.11ZM873.268 725.227V723.317H882.87V725.227H873.268Z" fill="#E03F3F" fill-opacity="0.15"/>
<path d="M955.72 729.077V719.474H957.631V729.077H955.72ZM951.878 725.227V723.317H961.48V725.227H951.878Z" fill="#E03F3F" fill-opacity="0.15"/>
<path d="M1034.33 729.077V719.474H1036.24V729.077H1034.33ZM1030.49 725.227V723.317H1040.09V725.227H1030.49Z" fill="#E03F3F" fill-opacity="0.15"/>
<path d="M1112.94 729.077V719.474H1114.85V729.077H1112.94ZM1109.1 725.227V723.317H1118.7V725.227H1109.1Z" fill="#E03F3F" fill-opacity="0.15"/>
<path d="M1191.55 729.077V719.474H1193.46V729.077H1191.55ZM1187.71 725.227V723.317H1197.31V725.227H1187.71Z" fill="#E03F3F" fill-opacity="0.15"/>
<path d="M1270.16 729.077V719.474H1272.07V729.077H1270.16ZM1266.32 725.227V723.317H1275.92V725.227H1266.32Z" fill="#E03F3F" fill-opacity="0.15"/>
<path d="M1348.77 729.077V719.474H1350.68V729.077H1348.77ZM1344.93 725.227V723.317H1354.53V725.227H1344.93Z" fill="#E03F3F" fill-opacity="0.15"/>
<path d="M1427.38 729.077V719.474H1429.29V729.077H1427.38ZM1423.54 725.227V723.317H1433.14V725.227H1423.54Z" fill="#E03F3F" fill-opacity="0.15"/>
<path d="M12.3952 788.077V778.474H14.3057V788.077H12.3952ZM8.55289 784.227V782.317H18.1552V784.227H8.55289Z" fill="#E03F3F" fill-opacity="0.15"/>
<path d="M91.0056 788.077V778.474H92.9161V788.077H91.0056ZM87.1632 784.227V782.317H96.7655V784.227H87.1632Z" fill="#E03F3F" fill-opacity="0.15"/>
<path d="M169.616 788.077V778.474H171.526V788.077H169.616ZM165.774 784.227V782.317H175.376V784.227H165.774Z" fill="#E03F3F" fill-opacity="0.15"/>
<path d="M248.226 788.077V778.474H250.137V788.077H248.226ZM244.384 784.227V782.317H253.986V784.227H244.384Z" fill="#E03F3F" fill-opacity="0.15"/>
<path d="M326.837 788.077V778.474H328.747V788.077H326.837ZM322.994 784.227V782.317H332.597V784.227H322.994Z" fill="#E03F3F" fill-opacity="0.15"/>
<path d="M405.447 788.077V778.474H407.357V788.077H405.447ZM401.605 784.227V782.317H411.207V784.227H401.605Z" fill="#E03F3F" fill-opacity="0.15"/>
<path d="M484.057 788.077V778.474H485.968V788.077H484.057ZM480.215 784.227V782.317H489.817V784.227H480.215Z" fill="#E03F3F" fill-opacity="0.15"/>
<path d="M562.669 788.077V778.474H564.579V788.077H562.669ZM558.826 784.227V782.317H568.429V784.227H558.826Z" fill="#E03F3F" fill-opacity="0.15"/>
<path d="M641.279 788.077V778.474H643.19V788.077H641.279ZM637.437 784.227V782.317H647.039V784.227H637.437Z" fill="#E03F3F" fill-opacity="0.15"/>
<path d="M719.889 788.077V778.474H721.8V788.077H719.889ZM716.047 784.227V782.317H725.649V784.227H716.047Z" fill="#E03F3F" fill-opacity="0.15"/>
<path d="M798.5 788.077V778.474H800.41V788.077H798.5ZM794.657 784.227V782.317H804.26V784.227H794.657Z" fill="#E03F3F" fill-opacity="0.15"/>
<path d="M877.11 788.077V778.474H879.021V788.077H877.11ZM873.268 784.227V782.317H882.87V784.227H873.268Z" fill="#E03F3F" fill-opacity="0.15"/>
<path d="M955.72 788.077V778.474H957.631V788.077H955.72ZM951.878 784.227V782.317H961.48V784.227H951.878Z" fill="#E03F3F" fill-opacity="0.15"/>
<path d="M1034.33 788.077V778.474H1036.24V788.077H1034.33ZM1030.49 784.227V782.317H1040.09V784.227H1030.49Z" fill="#E03F3F" fill-opacity="0.15"/>
<path d="M1112.94 788.077V778.474H1114.85V788.077H1112.94ZM1109.1 784.227V782.317H1118.7V784.227H1109.1Z" fill="#E03F3F" fill-opacity="0.15"/>
<path d="M1191.55 788.077V778.474H1193.46V788.077H1191.55ZM1187.71 784.227V782.317H1197.31V784.227H1187.71Z" fill="#E03F3F" fill-opacity="0.15"/>
<path d="M1270.16 788.077V778.474H1272.07V788.077H1270.16ZM1266.32 784.227V782.317H1275.92V784.227H1266.32Z" fill="#E03F3F" fill-opacity="0.15"/>
<path d="M1348.77 788.077V778.474H1350.68V788.077H1348.77ZM1344.93 784.227V782.317H1354.53V784.227H1344.93Z" fill="#E03F3F" fill-opacity="0.15"/>
<path d="M1427.38 788.077V778.474H1429.29V788.077H1427.38ZM1423.54 784.227V782.317H1433.14V784.227H1423.54Z" fill="#E03F3F" fill-opacity="0.15"/>
<path d="M12.3952 847.077V837.474H14.3057V847.077H12.3952ZM8.55289 843.227V841.317H18.1552V843.227H8.55289Z" fill="#E03F3F" fill-opacity="0.15"/>
<path d="M91.0056 847.077V837.474H92.9161V847.077H91.0056ZM87.1632 843.227V841.317H96.7655V843.227H87.1632Z" fill="#E03F3F" fill-opacity="0.15"/>
<path d="M169.616 847.077V837.474H171.526V847.077H169.616ZM165.774 843.227V841.317H175.376V843.227H165.774Z" fill="#E03F3F" fill-opacity="0.15"/>
<path d="M248.226 847.077V837.474H250.137V847.077H248.226ZM244.384 843.227V841.317H253.986V843.227H244.384Z" fill="#E03F3F" fill-opacity="0.15"/>
<path d="M326.837 847.077V837.474H328.747V847.077H326.837ZM322.994 843.227V841.317H332.597V843.227H322.994Z" fill="#E03F3F" fill-opacity="0.15"/>
<path d="M405.447 847.077V837.474H407.357V847.077H405.447ZM401.605 843.227V841.317H411.207V843.227H401.605Z" fill="#E03F3F" fill-opacity="0.15"/>
<path d="M484.057 847.077V837.474H485.968V847.077H484.057ZM480.215 843.227V841.317H489.817V843.227H480.215Z" fill="#E03F3F" fill-opacity="0.15"/>
<path d="M562.669 847.077V837.474H564.579V847.077H562.669ZM558.826 843.227V841.317H568.429V843.227H558.826Z" fill="#E03F3F" fill-opacity="0.15"/>
<path d="M641.279 847.077V837.474H643.19V847.077H641.279ZM637.437 843.227V841.317H647.039V843.227H637.437Z" fill="#E03F3F" fill-opacity="0.15"/>
<path d="M719.889 847.077V837.474H721.8V847.077H719.889ZM716.047 843.227V841.317H725.649V843.227H716.047Z" fill="#E03F3F" fill-opacity="0.15"/>
<path d="M798.5 847.077V837.474H800.41V847.077H798.5ZM794.657 843.227V841.317H804.26V843.227H794.657Z" fill="#E03F3F" fill-opacity="0.15"/>
<path d="M877.11 847.077V837.474H879.021V847.077H877.11ZM873.268 843.227V841.317H882.87V843.227H873.268Z" fill="#E03F3F" fill-opacity="0.15"/>
<path d="M955.72 847.077V837.474H957.631V847.077H955.72ZM951.878 843.227V841.317H961.48V843.227H951.878Z" fill="#E03F3F" fill-opacity="0.15"/>
<path d="M1034.33 847.077V837.474H1036.24V847.077H1034.33ZM1030.49 843.227V841.317H1040.09V843.227H1030.49Z" fill="#E03F3F" fill-opacity="0.15"/>
<path d="M1112.94 847.077V837.474H1114.85V847.077H1112.94ZM1109.1 843.227V841.317H1118.7V843.227H1109.1Z" fill="#E03F3F" fill-opacity="0.15"/>
<path d="M1191.55 847.077V837.474H1193.46V847.077H1191.55ZM1187.71 843.227V841.317H1197.31V843.227H1187.71Z" fill="#E03F3F" fill-opacity="0.15"/>
<path d="M1270.16 847.077V837.474H1272.07V847.077H1270.16ZM1266.32 843.227V841.317H1275.92V843.227H1266.32Z" fill="#E03F3F" fill-opacity="0.15"/>
<path d="M1348.77 847.077V837.474H1350.68V847.077H1348.77ZM1344.93 843.227V841.317H1354.53V843.227H1344.93Z" fill="#E03F3F" fill-opacity="0.15"/>
<path d="M1427.38 847.077V837.474H1429.29V847.077H1427.38ZM1423.54 843.227V841.317H1433.14V843.227H1423.54Z" fill="#E03F3F" fill-opacity="0.15"/>
<defs>
<filter id="filter0_b_0_1" x="-40" y="-39" width="1520" height="935" filterUnits="userSpaceOnUse" color-interpolation-filters="sRGB">
<feFlood flood-opacity="0" result="BackgroundImageFix"/>
<feGaussianBlur in="BackgroundImageFix" stdDeviation="20"/>
<feComposite in2="SourceAlpha" operator="in" result="effect1_backgroundBlur_0_1"/>
<feBlend mode="normal" in="SourceGraphic" in2="effect1_backgroundBlur_0_1" result="shape"/>
</filter>
</defs>
</svg>
