<svg width="1339" height="447" viewBox="0 0 1339 447" fill="none" xmlns="http://www.w3.org/2000/svg">
<path d="M1477.21 367.454C1473.34 392.448 1456.24 410.826 1439.45 408.376C1425.89 406.415 1414.27 392.938 1402.98 381.666C1391.52 370.149 1377.81 360.102 1364.73 365.493C1356.35 368.923 1349.57 378.236 1343.76 387.792C1335.2 401.759 1327.46 417.198 1321.01 433.616C1317.46 442.683 1314.07 452.24 1308.9 459.346C1303.74 466.452 1296.16 470.619 1289.71 466.698C1283.09 462.776 1279.69 451.994 1274.69 444.399C1266.63 432.147 1254.36 428.471 1243.23 431.656C1232.09 434.842 1222.26 444.399 1213.7 455.916C1199.5 475.274 1188.37 503.701 1192.4 532.126C1195.79 555.896 1209.35 573.785 1215.8 596.573C1222.41 620.589 1220.32 649.506 1210.31 670.579C1201.11 690.183 1185.94 702.68 1179.17 724.49C1174.97 737.968 1174.64 753.651 1175.29 768.599C1177.07 818.588 1189.49 867.108 1209.82 906.072" stroke="#E03F3F" strokeOpacity="0.3" strokeWidth="1.08333" strokeMiterlimit="10"/>
<path d="M1478.98 410.091C1476.4 425.53 1465.75 436.801 1453.33 437.291C1450.74 437.291 1448.16 437.047 1445.59 436.067C1435.25 432.636 1425.57 423.078 1415.89 414.502C1413.63 412.542 1411.38 410.581 1409.27 408.866C1397.65 399.309 1384.11 392.203 1370.87 398.083C1362.48 402.005 1355.38 410.335 1349.25 418.422C1340.54 429.941 1333.27 442.682 1326.81 456.16C1324.24 461.551 1321.81 467.187 1318.75 472.089C1317.62 473.804 1316.33 475.519 1315.04 476.989C1310.04 482.626 1302.93 486.056 1296.8 482.38C1290.51 478.704 1286.96 469.148 1282.12 463.022C1280.98 461.551 1279.7 460.081 1278.24 458.855C1270.82 452.485 1261.47 451.505 1253.07 454.935C1243.23 459.101 1234.35 468.902 1226.61 479.93C1213.86 498.064 1203.37 523.794 1206.11 549.034C1208.53 570.844 1219.67 586.772 1224.52 607.356C1229.67 628.675 1227.09 654.895 1217.73 673.764C1208.53 692.387 1194.5 705.621 1188.37 726.94C1184.66 740.172 1184.34 755.365 1185.14 769.823C1185.46 774.969 1185.78 780.116 1186.26 785.262C1190.63 827.901 1203.05 868.333 1221.12 901.659" stroke="#E03F3F" strokeOpacity="0.3" strokeWidth="1.08333" strokeMiterlimit="10"/>
<path d="M1480.75 452.729C1478.83 462.777 1470.1 469.392 1458.81 466.696C1456.56 466.207 1454.13 465.227 1451.71 464.001C1442.03 458.855 1432.51 448.562 1422.5 440.967C1420.24 439.252 1417.99 437.536 1415.73 436.065C1403.79 428.224 1390.4 424.303 1377.32 430.92C1368.93 435.085 1361.51 442.682 1355.05 449.543C1346.34 458.61 1339.4 468.903 1333.11 479.194C1330.52 483.361 1328.11 487.771 1325.04 491.447C1323.92 492.917 1322.78 494.143 1321.49 495.367C1316.65 499.778 1310.04 502.23 1304.22 498.799C1298.25 495.367 1294.54 487.28 1289.71 482.38C1288.57 481.155 1287.28 480.174 1286 479.194C1278.89 474.294 1270.66 474.783 1263.24 479.194C1254.53 484.341 1246.94 494.387 1239.68 505.169C1228.38 522.079 1218.55 544.867 1219.99 567.412C1221.29 586.526 1230.16 600.739 1233.55 618.873C1237.09 637.742 1234.2 660.776 1225.32 677.684C1216.12 694.594 1203.21 708.315 1197.73 729.39C1194.34 742.377 1194.17 757.081 1195.14 771.048C1195.46 775.949 1195.95 780.851 1196.43 785.751C1201.28 826.919 1214.35 865.148 1232.09 897.249" stroke="#E03F3F" strokeOpacity="0.3" strokeWidth="1.08333" strokeMiterlimit="10"/>
<path d="M1431.21 9.68115C1428.96 29.0401 1424.6 47.6638 1417.5 63.837C1410.41 80.0103 1400.24 93.488 1388.14 100.594C1376.67 106.966 1363.93 107.946 1351.82 105.005C1341.82 102.555 1332.14 97.6539 1323.59 89.5673C1318.59 84.9113 1314.07 79.0301 1308.9 74.3742C1308.1 73.639 1307.3 72.9038 1306.65 72.4138C1288.89 57.4657 1270.33 57.2208 1254.68 37.3718C1243.39 23.1588 1241.29 -1.10104 1238.55 -22.1752C1235.8 -43.2496 1228.71 -67.9996 1214.18 -71.6753C1208.05 -73.3906 1201.93 -70.6951 1195.79 -69.7149C1167.87 -65.549 1144.15 -99.3659 1127.37 -132.448C1123.18 -140.534 1118.5 -148.376 1112.52 -154.747C1106.72 -160.873 1099.78 -164.794 1093.81 -170.185C1084.77 -178.272 1077.83 -189.789 1073.15 -203.512C1070.89 -210.373 1069.12 -217.725 1066.54 -224.831C1063.31 -233.653 1059.44 -240.759 1056.05 -248.356C1051.37 -258.893 1047.66 -270.901 1044.75 -283.398C1039.43 -305.943 1035.88 -330.692 1035.72 -354.952C1035.55 -406.413 1049.43 -454.687 1059.11 -504.433C1063.15 -525.506 1066.54 -546.827 1067.99 -568.635C1072.02 -630.633 1060.56 -692.385 1048.95 -752.178" stroke="#E03F3F" strokeOpacity="0.3" strokeWidth="1.08333" strokeMiterlimit="10"/>
<path d="M329.586 813.687C342.496 796.044 352.662 773.254 359.923 749.24C361.375 744.34 362.827 739.193 364.118 734.047C369.121 714.689 372.671 693.614 372.51 672.784C372.51 669.108 372.348 665.189 372.025 661.513C371.057 648.524 368.313 636.027 364.279 624.264C363.956 623.284 363.473 622.304 363.15 621.08C355.243 600.25 343.464 582.116 335.557 563.002C330.555 551.241 327.811 539.722 322.971 530.657C314.741 515.218 302.316 505.417 288.439 501.006C283.598 499.534 278.434 499.045 273.27 499.534C264.234 500.269 254.068 503.456 245.516 496.35C236.157 488.507 232.929 470.129 234.059 454.445C235.189 439.008 239.384 424.794 241.32 409.357C241.643 406.906 241.804 404.701 241.966 402.249C242.934 388.772 241.804 374.315 237.286 362.796C235.027 357.162 232.123 352.26 228.573 348.584C215.824 335.597 197.914 339.762 182.423 338.782C175.161 338.293 168.222 336.578 162.414 330.695C159.508 327.754 157.088 324.08 154.99 319.913C150.311 310.111 148.213 297.369 147.245 285.117C146.115 271.884 146.115 258.651 144.017 246.399C143.372 242.477 142.566 238.801 141.436 235.127C132.561 204.005 107.388 189.792 82.6993 179.745C67.8537 173.619 54.2992 166.267 40.2606 160.141C29.2878 155.485 17.9923 151.565 6.53538 146.909C-5.7283 142.008 -18.476 136.126 -30.2556 128.775C-43.4874 120.443 -55.7511 109.906 -63.4966 92.0176" stroke="#E03F3F" strokeOpacity="0.3" strokeWidth="1.08333" strokeMiterlimit="10"/>
<path d="M410.591 875.441C432.052 851.672 445.93 814.424 453.513 775.706C455.128 767.619 456.418 759.533 457.547 751.446C461.744 720.325 463.034 688.224 462.873 656.122C462.873 650.487 462.873 644.605 462.55 638.968C461.904 618.875 459.968 599.026 454.32 581.137C453.837 579.422 453.352 577.951 452.707 576.236C441.411 544.135 419.949 518.649 415.271 484.343C412.365 463.023 417.207 442.93 418.498 423.081C419.949 402.006 417.045 378.726 405.911 362.798C402.039 357.162 397.197 352.996 392.034 349.81C382.513 343.929 371.54 340.743 362.342 331.432C352.661 321.63 346.851 305.457 343.624 289.284C340.397 273.354 339.429 256.937 337.976 240.029C337.816 237.334 337.493 234.882 337.331 232.186C335.879 217.728 333.781 202.535 327.973 190.773C325.067 184.892 321.517 180.482 317.322 177.051C302.961 165.288 283.597 168.964 266.977 172.149C259.231 173.619 251.486 174.845 244.385 172.64C240.674 171.66 237.286 169.699 233.897 167.004C226.152 160.632 220.826 149.605 215.986 138.333C210.821 126.325 205.981 113.828 199.204 105.251C196.945 102.556 194.685 100.105 192.265 98.1448C171.772 81.7264 142.888 95.4493 116.424 83.4417C98.1896 75.1101 85.2805 53.7907 71.0805 36.6373C59.9464 23.4047 47.3599 12.1323 33.9667 2.82046C19.6053 -6.98152 3.95294 -14.8231 -11.5381 -19.9692C-28.8039 -25.8503 -46.7154 -29.036 -59.9473 -46.1895" stroke="#E03F3F" strokeOpacity="0.3" strokeWidth="1.08333" strokeMiterlimit="10"/>
<path d="M352.662 -683.074C345.078 -650.973 340.076 -611.766 353.791 -584.319C358.471 -575.252 364.604 -568.392 371.381 -563.001C372.671 -562.02 373.962 -561.04 375.253 -560.06C394.294 -545.847 415.272 -537.515 436.41 -535.556C443.833 -534.819 451.417 -534.819 458.517 -531.634C479.817 -522.076 491.112 -481.645 483.367 -453.953C480.301 -442.927 474.976 -434.104 470.135 -424.793C467.876 -420.626 465.778 -416.215 463.842 -411.561C456.258 -394.407 450.287 -374.312 449.158 -352.013C447.867 -324.323 456.258 -299.572 462.39 -274.088C470.135 -241.496 467.714 -204.984 472.394 -169.451C477.236 -133.184 484.819 -99.367 487.724 -62.8546C489.338 -41.2902 492.888 -19.9709 489.821 0.123117C488.531 8.69984 485.464 16.0513 481.592 22.9127C473.685 37.1256 461.421 47.9078 448.028 44.722C419.467 38.3508 391.712 25.1182 366.378 9.9251C357.503 4.77907 348.951 -0.857128 340.559 -6.24822C318.614 -20.2161 297.96 -39.0848 274.4 -55.2581C251.81 -70.6962 228.574 -86.6243 205.337 -99.367C195.493 -104.758 185.489 -109.659 175.645 -113.825C162.575 -119.461 148.052 -120.931 135.628 -131.959C115.78 -149.357 107.711 -177.292 88.9932 -196.406C73.341 -212.334 54.9453 -219.197 43.3271 -244.926C41.8749 -248.113 40.584 -251.298 39.4545 -254.728C32.5158 -274.577 29.7726 -297.611 27.8362 -319.176C26.5454 -333.879 25.4157 -349.807 19.1225 -361.569C13.6362 -371.862 5.56798 -377.253 -1.20931 -385.34C-7.9866 -393.181 -13.7956 -406.904 -10.5684 -419.156" stroke="#E03F3F" strokeOpacity="0.3" strokeWidth="1.08333" strokeMiterlimit="10"/>
<path d="M948.095 -602.696C964.231 -579.908 965.361 -540.944 959.874 -508.108C954.388 -475.271 943.738 -444.639 940.027 -411.804C938.252 -395.876 937.284 -377.496 934.057 -362.058C931.152 -347.845 926.311 -336.083 917.275 -330.448C911.304 -326.772 904.365 -326.772 898.395 -322.851C882.258 -311.579 882.258 -280.213 880.322 -252.277C879.999 -248.601 879.838 -244.925 879.354 -241.249C876.127 -210.618 864.024 -182.682 861.927 -151.806C859.991 -124.361 864.992 -97.8955 869.188 -71.1851C870.963 -60.1579 872.738 -48.6405 873.706 -37.1233C874.674 -25.1158 874.674 -13.5985 873.383 -2.57125C872.576 4.53519 871.285 11.3965 869.834 17.7678C863.701 46.9286 852.567 74.1292 841.271 102.065C834.817 117.993 828.201 133.921 822.715 151.565C818.358 165.533 814.808 179.991 812.71 195.183C811.097 205.72 811.097 216.502 811.581 227.041C812.065 238.803 813.356 250.564 813.84 262.327C814.163 272.128 814.163 280.706 812.388 289.528C811.419 294.184 809.645 297.86 808.353 302.025C807.224 305.701 806.256 309.622 806.417 314.768C807.224 331.187 811.742 347.114 816.26 362.307C823.844 388.037 831.267 413.768 838.69 439.498C842.241 451.995 845.951 464.492 849.502 476.99C855.149 496.35 860.636 515.708 866.284 535.068C869.188 545.113 872.253 555.895 871.77 566.678C871.447 574.275 869.672 581.136 867.413 587.998C865.477 594.124 863.378 600.005 861.765 606.376C861.604 606.867 861.442 607.602 861.442 608.091C859.991 614.219 859.183 620.588 858.377 626.716C856.924 638.479 856.117 650.24 852.406 660.041C845.628 678.175 830.783 686.508 816.584 687.733C802.544 688.714 788.344 685.282 774.144 690.429C772.692 690.918 771.079 691.653 769.626 692.388C766.237 694.349 763.172 696.8 760.751 699.496C759.138 701.211 757.685 702.926 756.394 704.887C753.813 708.561 751.069 712.728 748.487 717.384C739.774 733.067 732.996 752.916 727.188 775.215C718.473 808.787 711.374 846.525 708.469 882.056" stroke="#E03F3F" strokeOpacity="0.3" strokeWidth="1.08333" strokeMiterlimit="10"/>
<path d="M894.524 -594.61C906.626 -572.311 907.594 -538.739 903.076 -509.824C898.396 -480.908 889.198 -453.462 883.711 -425.771C880.969 -412.294 878.548 -397.592 874.514 -385.093C870.964 -373.821 865.961 -364.509 858.216 -359.118C852.891 -355.442 847.082 -354.707 841.918 -350.787C827.718 -340.249 824.653 -316.234 821.103 -292.465C820.618 -289.279 820.134 -286.094 819.65 -283.153C815.455 -256.687 806.903 -231.203 804.967 -203.756C803.029 -174.842 805.612 -146.17 807.871 -117.5C808.677 -106.227 810.613 -93.4846 811.259 -80.987C811.904 -67.9995 811.259 -55.502 807.871 -45.455C805.612 -38.8387 802.707 -34.4278 799.802 -30.0169C788.023 -11.3931 770.273 4.53515 754.297 25.8544C744.939 38.107 736.225 52.5647 729.931 71.4335C725.091 86.1366 722.186 102.065 721.056 118.238C720.25 129.51 720.896 141.028 722.347 152.055C723.8 164.307 726.059 176.314 727.995 188.077C729.448 197.878 730.9 206.701 730.9 215.523C730.9 220.423 730.416 224.344 730.254 228.755C730.093 232.677 730.093 236.842 730.9 241.987C733.643 258.652 738.806 275.069 743.809 290.998C752.2 317.954 760.268 345.398 768.337 372.599C772.209 385.832 776.082 399.064 780.116 412.298C786.247 432.882 792.218 453.22 798.35 473.804C801.578 484.587 804.644 495.614 805.612 506.642C806.257 514.483 805.935 521.835 805.289 529.187C804.805 535.802 804.159 542.419 803.029 549.525C802.868 550.014 802.868 550.751 802.707 551.24C801.578 557.857 799.964 564.473 798.35 570.598C795.122 582.852 791.895 593.143 786.732 600.986C777.212 615.444 761.559 619.364 746.39 615.688C727.672 611.032 709.277 601.475 689.752 612.012C687.815 612.992 685.879 614.464 684.105 616.179C679.909 620.344 677.004 625.981 676.359 631.616C675.875 635.292 676.359 637.987 676.521 641.419C676.681 647.545 676.036 654.897 675.23 662.492C672.97 688.468 672.002 717.873 668.291 749.241C662.481 797.27 649.734 846.279 639.406 892.594" stroke="#E03F3F" strokeOpacity="0.3" strokeWidth="1.08333" strokeMiterlimit="10"/>
<path d="M805.126 -581.134C810.773 -559.813 811.258 -535.31 808.03 -512.519C804.803 -489.729 798.026 -467.921 789.473 -448.807C785.116 -439.25 780.276 -430.427 774.628 -422.831C769.948 -416.46 764.785 -411.069 758.976 -406.413C754.941 -403.228 750.907 -400.532 746.873 -397.102C736.062 -388.035 727.509 -375.781 721.539 -359.608C720.732 -357.404 719.925 -355.197 719.28 -352.747C713.309 -333.387 710.727 -311.579 709.437 -290.015C707.5 -258.158 706.21 -226.302 704.919 -194.69C704.434 -183.417 706.21 -168.47 706.37 -154.012C706.532 -139.309 704.919 -125.586 697.98 -117.01C693.623 -111.619 687.814 -110.638 682.327 -109.903C661.996 -107.453 632.466 -111.864 608.261 -101.081C594.061 -94.9552 581.798 -83.4379 574.214 -61.8735C568.566 -45.9454 566.791 -27.8116 567.436 -9.67798C567.921 2.81954 569.857 15.317 572.438 26.8343C575.505 39.822 579.377 52.3194 583.734 64.327C587.123 73.8838 590.673 83.1957 594.062 92.5076C595.836 97.4085 597.45 102.31 599.225 107.211C600.839 111.621 602.29 116.277 604.066 120.933C610.036 137.842 616.33 155.24 622.139 172.639C631.982 201.8 641.018 231.695 650.216 261.346C654.573 275.804 659.091 290.262 663.448 304.475C670.225 326.774 677.164 349.319 683.942 371.62C687.491 383.381 691.041 395.143 694.268 406.662C696.527 414.992 698.625 423.079 700.562 431.165C702.337 438.517 704.273 446.358 703.789 454.445C703.789 455.182 703.628 455.916 703.628 456.406C702.821 463.758 700.239 470.618 697.173 476.5C690.718 489.243 683.78 497.084 676.357 501.741C661.995 510.071 645.375 505.417 628.594 495.369C602.29 479.441 576.473 461.308 548.234 481.157C545.491 483.116 542.909 485.811 540.811 489.243C535.486 497.084 532.582 508.356 534.84 518.158C536.293 524.775 539.682 529.431 542.425 535.068C547.427 545.359 550.009 558.102 552.43 570.599C560.982 613.973 569.857 658.572 569.534 705.131C569.05 777.421 546.298 845.299 523.706 909.012" stroke="#E03F3F" strokeOpacity="0.3" strokeWidth="1.08333" strokeMiterlimit="10"/>
<path d="M658.447 398.819C646.344 339.028 614.072 293.449 598.42 235.862C594.063 219.689 590.996 203.024 587.447 186.362C583.251 166.758 578.411 147.154 572.924 128.285C570.827 120.934 568.083 113.092 562.92 110.887C557.595 108.681 552.108 114.072 549.042 120.934C545.976 127.795 544.525 136.127 542.104 143.478C534.842 166.023 517.899 180.481 501.439 178.03C488.207 176.069 475.46 166.268 461.905 167.003C453.515 167.493 448.997 175.825 451.417 188.568C452.547 194.448 454.966 199.594 457.549 204.496C468.36 225.815 481.753 245.174 489.015 269.924C497.082 297.368 494.178 327.019 494.178 356.181C491.919 369.904 489.66 384.606 493.21 397.595C497.729 414.012 510.154 421.609 521.772 423.079C533.39 424.305 545.008 420.874 556.627 422.835C578.894 426.265 598.258 448.319 620.204 454.201C648.12 461.797 667.645 444.643 658.447 398.819Z" stroke="#E03F3F" strokeOpacity="0.3" strokeWidth="1.08333" strokeMiterlimit="10"/>
<path d="M608.746 378.969C609.392 389.262 607.778 396.614 603.744 400.779C599.549 405.19 593.416 406.17 586.477 403.964C575.343 400.29 565.5 389.017 555.335 384.117C549.687 381.421 544.361 379.95 539.036 376.765C533.712 373.578 528.064 367.943 525.321 359.12C524.998 357.896 524.675 356.67 524.353 355.444C523.224 349.318 523.223 343.193 523.223 337.312C521.286 322.119 520.318 306.925 515.638 292.223C513.541 285.851 511.121 279.971 508.701 274.089C505.957 267.472 503.376 260.856 501.117 253.994C500.147 251.055 499.179 248.114 498.857 244.683C498.534 242.722 498.534 241.007 498.696 239.292C499.179 235.125 500.794 232.186 503.698 231.205C507.571 229.734 511.766 230.714 515.8 231.695C518.544 232.43 521.286 232.921 524.03 232.921C532.582 233.166 541.296 226.795 546.298 216.993C547.911 213.806 549.041 209.887 550.977 207.191C553.882 203.27 557.916 201.309 561.466 202.535C565.178 203.759 567.759 207.926 569.535 212.826C571.148 217.482 572.6 222.873 573.569 228.755C575.021 237.577 576.151 245.907 577.28 254.24C578.893 265.513 580.669 276.784 584.218 289.282C593.255 319.913 606.971 348.584 608.746 378.969Z" stroke="#E03F3F" strokeOpacity="0.3" strokeWidth="1.08333" strokeMiterlimit="10"/>
<path d="M1090.74 635.535C1075.73 662.982 1058.95 688.957 1038.62 707.091C1021.68 722.284 1001.99 731.595 982.627 730.125C978.755 729.88 974.882 729.145 971.171 727.919C948.257 720.569 927.764 694.103 922.278 660.041C915.662 618.382 930.023 579.42 938.898 539.722C943.9 517.912 946.482 494.387 946.966 471.107C947.289 454.199 946.321 437.291 944.223 420.872C937.769 372.108 916.145 333.145 913.403 281.684C911.788 252.033 915.5 182.194 922.761 106.964C927.926 53.7884 934.541 -1.83766 942.77 -47.9069C952.775 -103.043 964.555 -143.966 976.979 -146.172C989.889 -148.377 998.603 -127.793 1004.41 -110.885C1012 -89.0753 1017.64 -64.8154 1025.87 -42.0258C1028.46 -34.9194 1031.2 -28.0579 1034.26 -21.4416C1049.43 10.4148 1071.86 33.2045 1094.29 53.0535C1108.65 65.796 1123.83 76.088 1139.63 82.7044C1144.16 84.6648 1148.83 86.3802 1153.51 87.6054C1165.29 90.7911 1178.2 92.0163 1186.91 104.024C1193.37 112.845 1195.46 126.323 1199.17 137.841C1206.93 162.59 1221.77 182.194 1238.06 189.792C1246.79 193.957 1255.5 194.937 1263.89 198.613C1278.24 204.739 1298.25 220.912 1307.45 239.29C1316.01 256.689 1309.07 292.712 1303.25 312.07C1302.13 315.746 1301 319.422 1298.9 322.117C1293.57 328.734 1285.51 325.793 1278.41 325.548C1262.76 325.058 1251.94 339.025 1239.2 349.808C1236.77 351.768 1234.2 353.729 1231.61 355.69C1219.67 364.022 1207.08 370.637 1195.95 381.91C1176.75 401.268 1161.58 427.978 1148.83 456.649C1142.37 471.353 1136.57 486.546 1131.24 501.739C1128.01 511.051 1125.27 520.607 1122.69 530.409C1113.01 567.166 1106.72 606.13 1090.74 635.535Z" stroke="#E03F3F" strokeOpacity="0.3" strokeWidth="1.08333" strokeMiterlimit="10"/>
<path d="M1153.99 276.54C1141.57 277.275 1128.83 273.845 1116.88 278.99C1101.07 285.851 1089.61 306.68 1079.77 326.775C1074.6 337.066 1069.6 347.605 1066.7 359.611C1062.66 376.275 1063.15 394.653 1061.85 412.298C1060.56 429.941 1056.53 448.81 1046.69 458.366C1040.39 464.492 1032.33 465.963 1025.39 462.042C1008.12 452.731 1003.44 418.178 1006.99 390.733C1010.54 363.287 1019.26 337.066 1018.13 309.131C1017.32 289.038 1011.19 270.414 1006.83 251.3C1002.8 234.146 1000.21 216.258 998.923 198.124C997.955 184.892 997.955 170.679 1002.96 159.896C1011.51 141.272 1030.23 142.253 1043.62 151.81C1057.01 161.367 1068.47 177.54 1082.67 184.401C1096.39 191.018 1111.07 188.322 1125.27 186.116C1139.48 183.911 1154.48 182.685 1167.55 191.507C1202.4 215.523 1188.69 274.334 1153.99 276.54Z" stroke="#E03F3F" strokeOpacity="0.3" strokeWidth="1.08333" strokeMiterlimit="10"/>
<path d="M4.11508 -275.557C8.31054 -223.605 27.1902 -174.842 54.9448 -143.475C63.8198 -133.428 73.663 -125.341 82.2154 -114.804C100.934 -92.2593 114.005 -59.1776 134.982 -41.7791C170.482 -12.1281 215.179 -35.6528 254.553 -21.4399C273.593 -14.5786 290.698 1.10455 306.996 17.7679C313.934 24.8744 321.357 33.6962 321.841 46.1937C322.003 48.6441 321.68 51.0946 320.712 53.055C319.098 55.7505 316.355 55.7505 313.934 55.0155C299.573 51.0946 287.148 38.5971 274.401 28.0601C253.907 11.1516 231.477 -1.59099 208.24 -3.06128C181.455 -4.77663 152.892 7.72087 129.011 -10.6578C102.386 -31.2421 92.0585 -83.1925 66.7243 -107.207C56.5584 -116.764 44.6174 -121.42 33.6446 -128.282C-13.4737 -157.197 -45.5851 -234.387 -43.0033 -311.334" stroke="#E03F3F" strokeOpacity="0.3" strokeWidth="1.08333" strokeMiterlimit="10"/>
<path d="M257.134 818.099C268.913 796.78 277.304 760.758 280.209 733.557C282.952 707.827 280.047 679.4 268.268 660.288C257.94 643.378 242.772 636.272 228.734 628.185C208.24 616.179 187.909 600.005 174.193 573.785C165.317 556.631 159.67 534.577 159.993 512.522C160.315 493.164 176.29 474.539 167.254 455.426C163.381 447.34 157.087 442.929 150.633 440.723C144.34 438.273 137.724 437.782 131.431 435.086C90.9286 418.913 111.584 358.387 91.8967 320.403C84.9581 306.926 72.8557 303.495 61.7216 301.289C40.2602 297.369 18.6375 295.409 -2.98535 295.898" stroke="#E03F3F" strokeOpacity="0.3" strokeWidth="1.08333" strokeMiterlimit="10"/>
<path d="M914.371 478.215C910.982 450.034 901.301 424.793 892.909 399.064C871.932 335.105 859.023 259.63 874.676 192.242C875.644 188.322 876.612 184.155 876.289 179.99C875.805 175.825 873.385 171.658 870.641 172.392C869.189 172.883 868.06 174.353 867.091 175.825C858.7 189.302 856.279 208.906 856.602 227.284C856.926 245.663 859.507 264.041 859.668 282.42C859.83 317.463 850.793 352.75 856.279 386.812C861.927 420.874 881.292 446.358 888.068 479.93C890.65 492.673 891.78 551.484 903.237 551.729C918.243 551.975 915.823 490.467 914.371 478.215Z" stroke="#E03F3F" strokeOpacity="0.3" strokeWidth="1.08333" strokeMiterlimit="10"/>
<path d="M1363.28 350.79C1354.08 350.544 1345.22 357.407 1338.43 366.963C1331.66 376.519 1326.81 388.773 1322.3 401.025C1319.56 408.622 1316.81 416.709 1312.62 422.835C1308.42 428.961 1302.62 433.126 1296.97 431.167C1291.8 429.452 1288.09 423.324 1284.06 418.178C1280.03 413.033 1274.86 408.622 1269.86 411.072C1267.92 412.052 1266.15 414.257 1263.88 414.502C1258.88 414.993 1256.3 404.211 1258.73 397.594C1261.14 390.977 1266.3 388.038 1271.15 385.342C1290.83 374.804 1310.52 364.513 1330.21 353.976C1336.18 350.79 1342.15 347.605 1347.31 342.458C1360.54 328.736 1366.19 303.74 1370.06 279.971" stroke="#E03F3F" strokeOpacity="0.3" strokeWidth="1.08333" strokeMiterlimit="10"/>
<path d="M1308.42 389.754C1301.65 404.456 1290.35 407.397 1282.28 393.43C1290.83 382.891 1316.98 380.687 1321.66 368.189C1318.43 376.52 1312.13 381.667 1308.42 389.754Z" stroke="#E03F3F" strokeOpacity="0.3" strokeWidth="1.08333" strokeMiterlimit="10"/>
<path d="M1187.56 38.1056C1179.97 35.4101 1172.07 38.5958 1164.16 39.0858C1140.6 40.5562 1119.3 17.5214 1103.81 -9.43395C1088.32 -36.3893 1076.22 -68.0007 1059.11 -92.5056C1051.53 -103.288 1041.85 -113.335 1031.52 -111.619C1031.84 -95.6913 1039.43 -81.9686 1047.98 -72.4116C1056.53 -63.0997 1066.37 -56.7285 1074.77 -46.6813C1086.87 -32.2234 1094.77 -11.3943 1105.42 5.75915C1120.1 29.529 1140.12 45.7023 1161.25 50.8482C1169 52.8085 1176.75 53.2987 1184.49 55.9943C1189.34 57.7096 1194.02 60.4052 1198.53 63.1007C1202.24 52.5635 1194.17 40.8012 1187.56 38.1056Z" stroke="#E03F3F" strokeOpacity="0.3" strokeWidth="1.08333" strokeMiterlimit="10"/>
<path d="M1077.03 263.062C1073.8 270.414 1070.25 279.725 1064.44 279.97C1058.31 280.216 1054.43 269.188 1055.24 259.877C1055.4 257.182 1055.89 254.73 1055.72 252.035C1055.24 247.135 1052.5 243.704 1050.56 239.783C1048.46 235.861 1047.17 229.981 1049.27 226.305C1050.08 224.835 1051.37 224.099 1052.66 223.61C1060.4 219.934 1068.96 219.934 1076.7 223.364C1079.61 224.59 1082.51 226.551 1085.42 227.04C1093.65 228.755 1100.75 221.894 1108.33 219.688C1113.66 218.218 1125.12 219.444 1116.72 229.981C1112.85 234.881 1100.75 234.392 1095.42 238.557C1088.16 243.948 1081.71 252.526 1077.03 263.062Z" stroke="#E03F3F" strokeOpacity="0.3" strokeWidth="1.08333" strokeMiterlimit="10"/>
</svg>
