<svg width="652" height="5627" viewBox="0 0 652 5627" fill="none" xmlns="http://www.w3.org/2000/svg">
<path d="M284.999 1C492.999 96.6667 819.999 306.7 463.999 381.5C18.9987 475 36.9991 815.5 69.4989 1217.5C101.999 1619.5 388.999 1716.5 463.999 1831C538.999 1945.5 532.499 2384 284.999 2602.5C37.4989 2821 165.999 3164 201.499 3270C260.499 3383 370.499 3456.5 370.499 3505.5C391.166 3551.17 409.399 3668.6 316.999 3773C201.499 3903.5 54.9989 4240 229.999 4388C404.999 4536 667.499 4685.5 649.499 4888.5C631.499 5091.5 -104.001 5396.5 13.9989 5626" stroke="#E03F3F" stroke-opacity="0.5" stroke-width="2" stroke-dasharray="4 4"/>
</svg>
