<svg width="56" height="54" viewBox="0 0 56 54" fill="none" xmlns="http://www.w3.org/2000/svg">
<mask id="mask0_217_161" style="mask-type:luminance" maskUnits="userSpaceOnUse" x="0" y="0" width="56" height="54">
<path d="M55.7782 0.611328H0.222656V53.5733H55.7782V0.611328Z" fill="white"/>
</mask>
<g mask="url(#mask0_217_161)">
<path d="M20.2763 45.02C19.9757 45.02 19.7481 45.02 19.5206 45.02C15.2397 45.02 10.9581 45.0181 6.67739 45.02C4.25544 45.021 2.34475 44.0806 1.06489 41.9812C0.454885 40.983 0.227247 39.8778 0.227247 38.7207C0.226274 28.1138 0.21433 17.5059 0.233358 6.89879C0.240303 3.19713 2.87183 0.614488 6.56252 0.613516C18.3645 0.610599 30.1654 0.610599 41.9674 0.613516C45.7389 0.613516 48.3335 3.20018 48.3356 6.96671C48.3406 15.8387 48.3375 24.7096 48.3375 33.5814C48.3375 33.8121 48.3375 34.0417 48.3375 34.3402C48.5702 34.3521 48.7728 34.3702 48.9764 34.3712C50.7893 34.3731 52.6022 34.3681 54.4142 34.3742C55.3985 34.3771 55.7749 34.7516 55.7759 35.7428C55.7799 41.2205 55.7799 46.6973 55.7759 52.1749C55.7759 53.1892 55.3935 53.5725 54.3742 53.5725C43.4788 53.5755 32.5834 53.5755 21.6888 53.5725C20.6427 53.5725 20.2813 53.1942 20.2792 52.1249C20.2752 49.9846 20.2782 47.8432 20.2782 45.7028C20.2782 45.4963 20.2782 45.2887 20.2782 45.021L20.2763 45.02ZM2.4735 14.0417C2.4735 14.2963 2.4735 14.487 2.4735 14.6777C2.4735 22.6631 2.47155 30.6475 2.47447 38.633C2.47544 41.2035 4.0478 42.7628 6.62641 42.7639C10.9461 42.7659 15.2667 42.7639 19.5864 42.7639H20.2752C20.2752 42.4753 20.2752 42.2488 20.2752 42.0221C20.2752 37.5857 20.2732 33.1502 20.2772 28.7138C20.2772 27.6835 20.6446 27.3191 21.6639 27.3121C22.3927 27.3071 23.1204 27.3112 23.915 27.3112C23.915 26.0802 23.906 24.9092 23.9181 23.7392C23.926 22.9177 24.3543 22.4924 25.1739 22.4874C26.4657 22.4784 27.7585 22.4844 29.0503 22.4844C29.5454 22.4844 30.0396 22.4844 30.5907 22.4844C30.5907 21.4721 30.5957 20.5307 30.5886 19.5903C30.5857 19.1341 30.7204 18.7567 31.1288 18.5121C31.9004 18.0509 32.7899 18.5889 32.8099 19.5484C32.8299 20.5067 32.8139 21.4662 32.8139 22.4834C33.0785 22.4834 33.2852 22.4834 33.4918 22.4834C35.1499 22.4834 36.8092 22.4774 38.4672 22.4863C39.261 22.4903 39.6852 22.8967 39.7161 23.6884C39.7392 24.2853 39.7221 24.8844 39.7232 25.4823C39.7232 26.0732 39.7232 26.6632 39.7232 27.3112C40.5547 27.3112 41.3035 27.3042 42.0513 27.3131C42.9686 27.3241 43.355 27.7095 43.3579 28.6189C43.3639 30.316 43.3579 32.0131 43.361 33.7113C43.361 33.9149 43.3779 34.1185 43.387 34.3292H46.0774V14.0417H2.4735ZM46.0214 11.7356C46.0554 11.6898 46.0984 11.6588 46.0984 11.6278C46.0963 9.8349 46.0953 8.04296 46.0784 6.2499C46.0764 6.02435 46.0016 5.79379 45.9346 5.57407C45.4045 3.8331 43.9379 2.83282 41.9064 2.83282C30.1645 2.83074 18.4224 2.83282 6.67933 2.83282C6.5635 2.83282 6.4478 2.83282 6.33197 2.83574C4.08572 2.91366 2.5035 4.51588 2.47544 6.75713C2.46155 7.91407 2.47252 9.07115 2.47252 10.2282C2.47252 10.7224 2.47252 11.2175 2.47252 11.7356H46.0214ZM26.5386 51.3074C26.5386 51.0309 26.5386 50.8212 26.5386 50.6125C26.5386 48.5481 26.5356 46.4846 26.5396 44.42C26.5416 43.4019 26.9139 43.0295 27.9411 43.0274C30.5259 43.0224 33.1104 43.0224 35.695 43.0274C36.7403 43.0295 37.1027 43.4098 37.1036 44.477C37.1056 46.5414 37.1036 48.6049 37.1036 50.6695V51.2953H41.1078V29.5813H22.5503V51.3074H26.5386ZM43.3929 51.2864H53.5047V36.6303H43.3929V51.2864ZM37.4441 24.7455H26.1463C26.1463 25.4224 26.1832 26.0582 26.1353 26.6873C26.0943 27.2203 26.3 27.3231 26.7911 27.3202C30.1445 27.3002 33.4978 27.3092 36.8521 27.3092H37.4441V24.7455ZM34.8524 45.3145H32.8539V51.2914H34.8524V45.3145ZM28.7938 51.2855H30.5557V45.2985H28.7938V51.2855Z" fill="#5D6DFD"/>
<path d="M12.3749 19.2263C13.9173 19.2263 15.4606 19.2225 17.0029 19.2275C17.9403 19.2304 18.3367 19.6268 18.3398 20.5691C18.3457 22.3431 18.3457 24.1181 18.3398 25.892C18.3367 26.8165 17.9174 27.2308 16.99 27.2318C13.9242 27.2358 10.8574 27.2348 7.79156 27.2318C6.83031 27.2318 6.43392 26.8265 6.43198 25.8491C6.42892 24.0941 6.42892 22.3391 6.43198 20.5841C6.43392 19.6058 6.81531 19.2284 7.80462 19.2263C9.32795 19.2224 10.8514 19.2263 12.3749 19.2263ZM8.68614 24.9676H16.0706V21.4756H8.68614V24.9676Z" fill="#5D6DFD"/>
<path d="M12.4024 34.0846C13.9447 34.0846 15.4872 34.0777 17.0296 34.0877C17.7333 34.0915 18.1536 34.3971 18.2983 34.9611C18.4402 35.5172 18.1017 36.1142 17.5297 36.2639C17.2911 36.3259 17.0346 36.3368 16.786 36.3368C13.855 36.3418 10.9249 36.3397 7.9939 36.3397C7.89709 36.3397 7.80126 36.3428 7.70445 36.3378C6.9207 36.3009 6.43057 35.8615 6.43459 35.2047C6.43848 34.5509 6.94071 34.0946 7.71737 34.0886C9.27876 34.0767 10.8411 34.0846 12.4024 34.0846Z" fill="#5D6DFD"/>
<path d="M10.5365 31.7681C9.57415 31.7681 8.61179 31.7761 7.6504 31.7661C6.91568 31.7581 6.43457 31.3108 6.43457 30.6639C6.43457 30.021 6.92374 29.5558 7.6504 29.5528C9.57513 29.5439 11.4989 29.5429 13.4236 29.5539C14.1294 29.5578 14.6346 30.062 14.6146 30.6929C14.5957 31.3168 14.1244 31.7561 13.4236 31.7652C12.4612 31.7781 11.4979 31.7681 10.5365 31.7681Z" fill="#5D6DFD"/>
<path d="M31.8116 34.6028C29.9248 34.6028 28.037 34.6028 26.1502 34.6018C25.9387 34.6018 25.725 34.6037 25.5173 34.5728C24.9184 34.485 24.518 34.0478 24.507 33.4916C24.4961 32.9266 24.9263 32.4494 25.5393 32.3646C25.7101 32.3407 25.8847 32.3476 26.0584 32.3476C29.89 32.3476 33.7225 32.3476 37.5538 32.3476C38.5851 32.3476 39.1212 32.725 39.1332 33.4578C39.1462 34.2135 38.6041 34.6018 37.5309 34.6028C35.6241 34.6037 33.7184 34.6028 31.8116 34.6028Z" fill="#5D6DFD"/>
<path d="M31.8584 38.0776C33.8989 38.0776 35.9405 38.0686 37.9809 38.0826C38.6757 38.0876 39.138 38.5587 39.133 39.1878C39.128 39.7878 38.6757 40.2439 38.0249 40.2989C37.8912 40.3098 37.7553 40.3039 37.6206 40.3039C36.9467 40.3039 36.2728 40.3039 35.5989 40.3039C32.4413 40.3039 29.2837 40.3039 26.1262 40.3039C25.9724 40.3039 25.8176 40.3099 25.6639 40.2999C24.9891 40.2569 24.5028 39.7817 24.5069 39.1728C24.5098 38.5537 24.9841 38.0855 25.6778 38.0805C27.7384 38.0676 29.7978 38.0765 31.8584 38.0776Z" fill="#5D6DFD"/>
<path d="M48.3631 41.5473C47.5534 41.5473 46.7438 41.5573 45.9342 41.5444C45.0877 41.5313 44.6095 41.1161 44.6074 40.4243C44.6055 39.7294 45.0916 39.3002 45.9252 39.2962C47.5634 39.2872 49.2017 39.2862 50.8399 39.2962C51.6435 39.3012 52.1258 39.7194 52.1446 40.3854C52.1646 41.0691 51.6685 41.5263 50.8488 41.5434C50.0203 41.5604 49.1927 41.5473 48.3631 41.5473Z" fill="#5D6DFD"/>
<path d="M48.365 46.6277C47.5554 46.6277 46.7456 46.6387 45.937 46.6248C45.0876 46.6108 44.6133 46.1974 44.6133 45.5047C44.6133 44.8098 45.1005 44.3845 45.9351 44.3816C47.5733 44.3747 49.2115 44.3736 50.8497 44.3816C51.6425 44.3856 52.1345 44.8119 52.1515 45.4727C52.1695 46.1576 51.6783 46.6067 50.8518 46.6238C50.0231 46.6408 49.1936 46.6277 48.365 46.6277Z" fill="#5D6DFD"/>
<path d="M7.9829 8.83202C8.83804 8.83202 9.53124 8.13882 9.53124 7.28368C9.53124 6.42855 8.83804 5.73535 7.9829 5.73535C7.12776 5.73535 6.43457 6.42855 6.43457 7.28368C6.43457 8.13882 7.12776 8.83202 7.9829 8.83202Z" fill="#5D6DFD"/>
<path d="M12.3774 8.83202C13.2326 8.83202 13.9259 8.13882 13.9259 7.28368C13.9259 6.42855 13.2326 5.73535 12.3774 5.73535C11.5223 5.73535 10.8291 6.42855 10.8291 7.28368C10.8291 8.13882 11.5223 8.83202 12.3774 8.83202Z" fill="#5D6DFD"/>
<path d="M16.772 8.83202C17.6271 8.83202 18.3203 8.13882 18.3203 7.28368C18.3203 6.42855 17.6271 5.73535 16.772 5.73535C15.9168 5.73535 15.2236 6.42855 15.2236 7.28368C15.2236 8.13882 15.9168 8.83202 16.772 8.83202Z" fill="#5D6DFD"/>
</g>
</svg>
