<svg width="55" height="56" viewBox="0 0 55 56" fill="none" xmlns="http://www.w3.org/2000/svg">
<mask id="mask0_217_130" style="mask-type:luminance" maskUnits="userSpaceOnUse" x="0" y="0" width="55" height="56">
<path d="M54.4272 0.222656H0.222656V55.7782H54.4272V0.222656Z" fill="white"/>
</mask>
<g mask="url(#mask0_217_130)">
<path d="M10.107 9.56037C10.107 8.90829 10.107 8.33829 10.107 7.76718C10.107 5.60079 10.1048 3.43315 10.107 1.26662C10.1082 0.521206 10.287 0.335651 11.0136 0.335651C21.9016 0.333429 32.7908 0.333429 43.6787 0.335651C44.3643 0.335651 44.5543 0.535651 44.5554 1.23996C44.5576 3.72204 44.5565 6.20287 44.5565 8.68496C44.5565 8.94273 44.5565 9.20162 44.5565 9.52815C44.782 9.53926 44.9765 9.55815 45.1709 9.55815C47.134 9.55926 49.0961 9.55593 51.0593 9.55815C53.0836 9.55926 54.3123 10.7826 54.3134 12.8102C54.3157 23.2005 54.3157 33.5897 54.3134 43.98C54.3134 45.9176 53.008 47.2163 51.0659 47.2175C45.7697 47.2208 40.4734 47.2175 35.1772 47.2175C34.9194 47.2175 34.6607 47.2175 34.3573 47.2175V54.2913C34.9227 54.2913 35.4883 54.2913 36.0539 54.2913C36.8682 54.2913 37.6837 54.288 38.498 54.2924C39.1614 54.2958 39.4425 54.4958 39.4569 54.9545C39.4725 55.439 39.1725 55.6656 38.4891 55.6656C31.2487 55.6668 24.0082 55.6656 16.7676 55.6656C16.5454 55.6656 16.3232 55.669 16.1009 55.6656C15.4966 55.6579 15.2155 55.4468 15.2022 54.9968C15.1889 54.528 15.4789 54.2958 16.1198 54.2924C17.3232 54.2858 18.5275 54.2891 19.7307 54.288C19.9118 54.288 20.0929 54.288 20.3107 54.288V47.2163C20.0929 47.2163 19.8629 47.2163 19.6329 47.2163C14.3177 47.2163 9.00372 47.2163 3.68858 47.2152C1.59997 47.2152 0.347743 45.9519 0.347743 43.8522C0.347743 33.5363 0.366633 23.2205 0.331077 12.9047C0.32441 10.9004 1.80774 9.45718 3.68969 9.54037C5.59288 9.62482 7.50385 9.55926 9.41038 9.55815C9.61149 9.55815 9.8126 9.55815 10.1026 9.55815L10.107 9.56037ZM11.4091 7.47176V38.5515H43.2444V7.47176H11.4091ZM1.64108 39.9113C1.64108 41.2879 1.64108 42.6 1.64108 43.9133C1.64219 45.2165 2.35316 45.9243 3.66969 45.9254C8.1883 45.9276 12.7068 45.9265 17.2254 45.9276C28.4844 45.9276 39.7436 45.9287 51.0026 45.9276C52.2569 45.9276 52.928 45.2643 52.9414 44.02C52.9491 43.2055 52.9425 42.3901 52.9425 41.5756C52.9425 41.0279 52.9425 40.4813 52.9425 39.9125L1.64108 39.9113ZM10.0693 38.5704V10.8148C9.81483 10.8148 9.59594 10.8148 9.37816 10.8148C7.47163 10.8148 5.56511 10.8104 3.65969 10.8148C2.30649 10.8182 1.6433 11.4791 1.64219 12.8236C1.64108 21.2084 1.64219 29.5933 1.64219 37.9781C1.64219 38.1726 1.64219 38.367 1.64219 38.5704H10.0693ZM44.5965 10.8148V38.5559H53.0236C53.0236 38.3315 53.0236 38.1493 53.0236 37.967C53.0236 29.5822 53.0236 21.1973 53.0236 12.8125C53.0236 11.4725 52.358 10.8182 50.997 10.8148C49.2205 10.8115 47.444 10.8148 45.6675 10.8148C45.3208 10.8148 44.9732 10.8148 44.5965 10.8148ZM11.3669 1.58773C11.3669 3.00093 11.3869 4.32968 11.3558 5.65746C11.3447 6.12509 11.5258 6.2062 11.938 6.20176C13.5668 6.18287 15.1955 6.19287 16.8243 6.19398C25.4302 6.19398 34.0373 6.19065 42.6433 6.20843C43.1989 6.20954 43.3277 6.03176 43.3088 5.51301C43.2711 4.44079 43.2711 3.36537 43.3088 2.29329C43.3277 1.75107 43.1955 1.57218 42.61 1.57329C33.4118 1.59329 24.2126 1.58773 15.0144 1.58773C13.8323 1.58773 12.649 1.58773 11.3669 1.58773ZM33.0964 47.1608H21.6805V54.1813H33.0964V47.1608Z" fill="#5D6DFD"/>
<path d="M13.7207 17.982C13.7285 13.9723 16.7804 10.5392 20.7013 10.1292C24.8731 9.69272 28.5395 12.3224 29.3961 16.3799C29.495 16.8477 29.515 17.3331 29.5561 17.8109C29.5961 18.2831 29.4161 18.6176 28.9061 18.6631C28.4895 18.7009 28.2439 18.3954 28.215 17.8498C28.0595 14.9056 26.2585 12.4736 23.5554 11.657C20.9589 10.8715 18.6559 11.4826 16.7927 13.4202C14.9106 15.3788 14.3806 17.7431 15.3461 20.2974C16.3049 22.8305 18.2125 24.2704 20.9224 24.5992C21.1423 24.6259 21.3656 24.6304 21.5867 24.6537C21.9989 24.697 22.2334 24.9204 22.22 25.3448C22.2067 25.7736 21.9289 26.0291 21.5389 25.9869C20.7168 25.8958 19.8679 25.8313 19.0925 25.5704C15.8349 24.4748 13.7129 21.4295 13.7207 17.982Z" fill="#5D6DFD"/>
<path d="M19.8097 17.0648C19.8075 16.5159 20.2729 16.2381 20.7996 16.4459C22.0728 16.9459 23.3416 17.4569 24.6126 17.9635C26.3469 18.6558 28.0801 19.3501 29.8144 20.0401C30.1689 20.1812 30.5332 20.3256 30.5021 20.791C30.471 21.2555 30.0878 21.3477 29.7222 21.4522C28.6379 21.7622 27.5612 22.0988 26.4714 22.3877C26.0847 22.4899 25.888 22.672 25.7891 23.0631C25.5091 24.1742 25.186 25.2741 24.8871 26.3806C24.7915 26.7328 24.6915 27.0906 24.2515 27.1095C23.8182 27.1284 23.6748 26.794 23.5382 26.4517C22.3394 23.4465 21.1351 20.4445 19.933 17.4402C19.8786 17.3035 19.8408 17.1615 19.8086 17.0637L19.8097 17.0648ZM21.6273 18.0624C22.4783 20.2012 23.2772 22.2099 24.1393 24.3763C24.3048 23.8009 24.4804 23.4076 24.5237 22.9998C24.6437 21.8599 25.2436 21.2633 26.3769 21.1133C26.8625 21.0488 27.329 20.8433 27.9523 20.659C25.7736 19.7645 23.7648 18.9402 21.6273 18.0624Z" fill="#5D6DFD"/>
<path d="M32.2217 32.9913C29.372 32.9913 26.521 32.9913 23.6713 32.988C23.4891 32.988 23.2524 33.0147 23.1357 32.9169C22.9435 32.7547 22.7114 32.498 22.7159 32.2858C22.7203 32.077 22.9657 31.8259 23.1691 31.6848C23.3124 31.5848 23.5613 31.6192 23.7635 31.6181C29.3531 31.6148 34.9427 31.6148 40.5321 31.6159C41.3832 31.6159 41.7021 31.8037 41.7066 32.2936C41.711 32.7947 41.3799 32.9924 40.551 32.9924C37.7746 32.9924 34.9982 32.9913 32.2217 32.9913Z" fill="#5D6DFD"/>
<path d="M35.2756 26.5912C33.4246 26.5912 31.5737 26.5946 29.7238 26.589C29.1338 26.5879 28.7806 26.2146 28.9216 25.7469C29.0516 25.3125 29.396 25.2391 29.7994 25.2402C32.5013 25.2469 35.2034 25.2425 37.9053 25.2425C38.8675 25.2425 39.8296 25.2402 40.793 25.2447C41.3651 25.2469 41.6884 25.488 41.7028 25.9114C41.7184 26.3546 41.4328 26.589 40.8285 26.5901C38.9776 26.5957 37.1266 26.5923 35.2767 26.5923L35.2756 26.5912Z" fill="#5D6DFD"/>
<path d="M37.394 18.8723C38.5395 18.8723 39.6849 18.8679 40.8315 18.8735C41.437 18.8768 41.7093 19.0979 41.7048 19.5522C41.7004 19.9944 41.407 20.2233 40.8126 20.2244C38.484 20.2278 36.1563 20.2289 33.8276 20.2244C33.3222 20.2244 32.9444 19.9044 32.9711 19.4868C33.0044 18.9835 33.3566 18.869 33.7909 18.8701C34.992 18.8735 36.193 18.8712 37.394 18.8701V18.8723Z" fill="#5D6DFD"/>
<path d="M38.4603 12.572C39.2536 12.572 40.0481 12.582 40.8413 12.5687C41.308 12.5609 41.6746 12.6931 41.6913 13.2109C41.708 13.7285 41.3146 13.8352 40.8935 13.8363C39.2692 13.8408 37.6449 13.8374 36.0206 13.8396C35.5784 13.8396 35.225 13.6796 35.2217 13.1976C35.2184 12.702 35.585 12.5698 36.0239 12.572C36.836 12.5765 37.6482 12.572 38.4603 12.572Z" fill="#5D6DFD"/>
<path d="M27.3556 40.3439C28.849 40.3595 29.9166 41.4617 29.8955 42.9693C29.8755 44.4258 28.769 45.489 27.2901 45.4735C25.8413 45.4579 24.7415 44.297 24.767 42.8104C24.7915 41.3983 25.9136 40.3295 27.3556 40.3439ZM28.6368 42.916C28.6456 42.2304 28.0145 41.5994 27.3212 41.5994C26.6302 41.5994 26.0447 42.1682 26.0225 42.8615C26.0013 43.5503 26.6147 44.1981 27.3023 44.2136C27.9901 44.2292 28.6279 43.6092 28.6368 42.916Z" fill="#5D6DFD"/>
<path d="M18.7166 3.09459C19.0477 3.09459 19.3799 3.08792 19.711 3.0957C20.1486 3.10681 20.4164 3.33681 20.4142 3.77459C20.412 4.18348 20.1509 4.4257 19.7466 4.43681C19.0288 4.45681 18.3099 4.45681 17.5922 4.43681C17.1545 4.4257 16.9011 4.15348 16.9167 3.7257C16.9311 3.32014 17.1978 3.10126 17.6122 3.09459C17.98 3.08904 18.3488 3.09459 18.7166 3.09459Z" fill="#5D6DFD"/>
<path d="M23.331 3.09277C23.6631 3.09277 23.9964 3.09277 24.3287 3.09277C24.812 3.09277 25.062 3.38722 25.0631 3.81833C25.0631 4.22486 24.7642 4.43708 24.3576 4.44263C23.6742 4.45041 22.9899 4.45708 22.3055 4.44152C21.8388 4.43041 21.5289 4.12263 21.5701 3.72388C21.6156 3.27944 21.8999 3.09055 22.3321 3.095C22.6644 3.09833 22.9977 3.095 23.3299 3.095L23.331 3.09277Z" fill="#5D6DFD"/>
<path d="M54.4261 12.8096C54.4261 10.7364 53.1363 9.44765 51.062 9.44654H49.9955H46.1124H45.1724C45.0446 9.44654 44.9146 9.43765 44.777 9.42876C44.7414 9.42654 44.7059 9.42432 44.6681 9.4221V6.5546C44.6681 4.78251 44.6681 3.01043 44.667 1.23946C44.667 0.470569 44.4259 0.223904 43.6792 0.223904C38.0585 0.222792 32.438 0.22168 26.8162 0.22168C21.5488 0.22168 16.2803 0.22168 11.013 0.222791C10.2241 0.222791 9.99643 0.456125 9.99532 1.26501C9.9931 2.82154 9.9931 4.37807 9.99421 5.9346V9.44765H9.4131C8.83087 9.44765 8.2399 9.45432 7.66768 9.45987C7.09546 9.46543 6.50449 9.4721 5.92226 9.4721C5.06337 9.4721 4.35574 9.45877 3.69574 9.42988C3.6424 9.42765 3.58907 9.42654 3.53685 9.42654C2.64699 9.42654 1.82143 9.76321 1.21268 10.3742C0.571567 11.0197 0.219346 11.9185 0.22268 12.9063C0.249346 20.449 0.246012 28.1172 0.241568 35.5333C0.240457 38.3064 0.239345 41.0796 0.239345 43.8527C0.239345 46.027 1.53032 47.3257 3.69129 47.3268C6.69324 47.3279 9.69421 47.3279 12.695 47.3279H20.2023V54.1774H18.1568C17.478 54.1774 16.8003 54.1774 16.1214 54.1818C15.7248 54.184 15.4492 54.2696 15.2805 54.4452C15.1493 54.5807 15.0871 54.7674 15.0938 55.0007C15.1082 55.515 15.4381 55.7695 16.1014 55.7784C16.1748 55.7784 16.247 55.7795 16.3203 55.7795H16.7703L27.2484 55.7784C30.9957 55.7784 34.7443 55.7784 38.4918 55.7784C38.9185 55.7784 39.2107 55.6917 39.3841 55.5128C39.5152 55.3772 39.5774 55.1896 39.5707 54.9529C39.5496 54.2752 38.9874 54.1852 38.5007 54.1829C38.1674 54.1807 37.8331 54.1807 37.4998 54.1807H36.0555L34.4699 54.1818V47.3302C34.4699 47.3302 43.7481 47.3324 45.8013 47.3324C47.5567 47.3324 49.3121 47.3324 51.0664 47.3313C53.0752 47.3313 54.4239 45.9847 54.425 43.9827C54.4273 33.9357 54.4273 23.4488 54.425 12.8129L54.4261 12.8096ZM11.4807 2.78154C11.4796 2.42488 11.4774 2.06487 11.4774 1.69821H25.3841C30.5259 1.69821 36.5942 1.69821 42.6171 1.68376C42.8738 1.68376 43.0238 1.71932 43.1014 1.80043C43.1781 1.88043 43.207 2.02599 43.1981 2.28821C43.1603 3.34918 43.1603 4.43585 43.1981 5.51571C43.207 5.76793 43.1792 5.90793 43.1048 5.9846C43.0316 6.06126 42.8871 6.09571 42.6438 6.09571C36.2298 6.08238 29.8136 6.08126 23.2575 6.08126H16.8237C16.3959 6.08126 15.9681 6.08126 15.5414 6.07904C15.1016 6.07904 14.6616 6.07793 14.2216 6.07793C13.3095 6.07793 12.605 6.08126 11.9373 6.08904H11.9062C11.7107 6.08904 11.603 6.0646 11.5452 6.00682C11.4885 5.94904 11.463 5.83571 11.4674 5.65904C11.4896 4.71029 11.4863 3.77251 11.4818 2.78043L11.4807 2.78154ZM43.1314 7.58335V38.4397H11.5196V7.58224H43.1325L43.1314 7.58335ZM1.75254 12.8229C1.75254 11.532 2.3581 10.9286 3.65907 10.9253C4.34685 10.9242 5.0356 10.9231 5.72337 10.9231C6.37449 10.9231 9.95754 10.9253 9.95754 10.9253V38.4586H1.75143V31.3103C1.75143 25.1486 1.75254 18.9857 1.75254 12.8229ZM32.9845 54.0685H21.791V47.2702H32.9845V54.0685ZM52.8296 44.0182C52.8174 45.2114 52.203 45.8158 51.002 45.8158C46.5878 45.8158 42.1738 45.8158 37.7598 45.8158H15.9481H12.8962C9.82088 45.8158 6.74546 45.8158 3.67018 45.8136C2.41699 45.8136 1.75365 45.1558 1.75254 43.9127C1.75254 43.0028 1.75254 42.0917 1.75254 41.1607V40.0218H52.8307V41.5739C52.8307 41.825 52.8307 42.0761 52.8318 42.3261C52.833 42.8806 52.8352 43.4538 52.8285 44.0171L52.8296 44.0182ZM52.913 38.4442H44.7081V10.9253H48.9399C49.6255 10.9253 50.3109 10.9253 50.9964 10.9253C52.303 10.9275 52.9118 11.5275 52.913 12.8118C52.913 19.1813 52.913 25.5497 52.913 31.9192V38.4442Z" fill="#5D6DFD"/>
<path d="M19.0581 25.674C19.7515 25.9074 20.5013 25.9863 21.228 26.0639C21.328 26.075 21.4291 26.085 21.528 26.0961C21.5602 26.0994 21.5924 26.1017 21.6236 26.1017C22.0323 26.1017 22.3167 25.7985 22.3312 25.3474C22.3467 24.8796 22.0856 24.5929 21.598 24.5418C21.4958 24.5307 21.3924 24.524 21.2891 24.5174C21.1724 24.5096 21.0524 24.5018 20.9358 24.4874C18.2338 24.1597 16.3873 22.7364 15.4495 20.2567C14.5119 17.7779 15.004 15.4404 16.8716 13.4961C18.186 12.1285 19.717 11.434 21.4213 11.434C22.0945 11.434 22.8012 11.544 23.5212 11.7618C26.1509 12.5572 27.9497 14.9482 28.1019 17.8546C28.133 18.4401 28.4008 18.7757 28.8363 18.7757C28.8619 18.7757 28.8874 18.7746 28.914 18.7724C29.4473 18.7246 29.714 18.379 29.6651 17.8001C29.6573 17.7024 29.6495 17.6046 29.6417 17.5057C29.6129 17.1258 29.5829 16.7336 29.5029 16.3547C28.7097 12.595 25.4587 9.96973 21.5991 9.96973C21.298 9.96973 20.9913 9.98528 20.688 10.0175C16.726 10.432 13.6163 13.9293 13.6074 17.9801C13.6008 21.4832 15.7895 24.5751 19.0559 25.674H19.0581Z" fill="#5D6DFD"/>
<path d="M23.7041 17.4812C22.7653 17.1058 21.7942 16.7169 20.8366 16.3413C20.7077 16.2902 20.5799 16.2646 20.4543 16.2646C20.2443 16.2646 20.0521 16.3402 19.9155 16.478C19.7699 16.6235 19.6932 16.8269 19.6943 17.0646V17.0824L19.6999 17.0991C19.7088 17.1269 19.7188 17.158 19.7288 17.1924C19.7543 17.2767 19.7866 17.3812 19.8266 17.4823C20.2566 18.5578 20.6877 19.6333 21.1177 20.7076C21.8898 22.6352 22.662 24.564 23.4307 26.4927C23.5607 26.8172 23.7218 27.2216 24.2118 27.2216C24.2252 27.2216 24.2385 27.2216 24.2518 27.2216C24.7762 27.1983 24.895 26.7616 24.9895 26.4105C25.0962 26.0138 25.2073 25.6184 25.3173 25.2228C25.5117 24.5262 25.7128 23.8052 25.8928 23.0908C25.9795 22.7463 26.1373 22.5908 26.496 22.4952C27.2038 22.3076 27.9171 22.0976 28.607 21.8931C28.987 21.7809 29.3681 21.6687 29.7492 21.5598L29.7892 21.5487C30.1391 21.4487 30.5735 21.3253 30.6091 20.7998C30.6457 20.2533 30.2057 20.0788 29.8525 19.9377C28.6959 19.4777 27.5393 19.0155 26.3839 18.5534L23.7041 17.4812ZM27.3405 20.7353C26.9827 20.8553 26.6727 20.9598 26.3584 21.0009C25.1706 21.1576 24.533 21.8076 24.4096 22.9863C24.383 23.2452 24.2963 23.5074 24.1952 23.8119C24.1718 23.883 24.1463 23.9585 24.1218 24.0385L21.8242 18.2623L27.6216 20.6421C27.5249 20.6733 27.4316 20.7042 27.3405 20.7353Z" fill="#5D6DFD"/>
<path d="M40.5338 31.5053H34.8821C31.1768 31.5053 27.4704 31.5053 23.7641 31.5075C23.7252 31.5075 23.6841 31.5064 23.6429 31.5053C23.5974 31.5042 23.5518 31.502 23.5063 31.502C23.3741 31.502 23.2229 31.5131 23.1074 31.5942C22.8807 31.7531 22.6131 32.0297 22.6075 32.2842C22.6009 32.5763 22.9263 32.884 23.0663 33.0029C23.1707 33.0918 23.3274 33.104 23.4652 33.104C23.5018 33.104 23.5385 33.104 23.5752 33.1018C23.6085 33.1018 23.6396 33.1007 23.6729 33.1007C25.7872 33.1029 27.9016 33.1029 30.0146 33.104H35.6197C37.2641 33.104 38.9084 33.104 40.5527 33.1051H40.5549C41.1082 33.1051 41.4404 33.0185 41.6327 32.8251C41.7604 32.6963 41.8216 32.5229 41.8193 32.2942C41.8127 31.602 41.1982 31.5053 40.5338 31.5053Z" fill="#5D6DFD"/>
<path d="M29.7205 26.7009C30.555 26.7031 31.3882 26.7042 32.2226 26.7042H35.0434H38.4232C39.2243 26.7042 40.0252 26.7042 40.8263 26.7009C41.1963 26.7009 41.4662 26.6131 41.6295 26.4431C41.7573 26.3097 41.8184 26.1288 41.8107 25.9065C41.7929 25.4177 41.4208 25.1354 40.7897 25.1332C40.3052 25.131 39.8208 25.131 39.3354 25.131L33.4791 25.1332C32.2515 25.1332 31.0239 25.1332 29.7883 25.1299C29.3927 25.1299 28.9662 25.1999 28.8118 25.7166C28.7418 25.9499 28.7762 26.1765 28.9095 26.3553C29.0729 26.5753 29.3683 26.702 29.7205 26.7031V26.7009Z" fill="#407BFF"/>
<path d="M33.8247 20.3353C34.849 20.3364 35.8734 20.3375 36.8978 20.3375C38.2021 20.3375 39.5065 20.3364 40.8108 20.3342C41.6329 20.3331 41.8096 19.9086 41.814 19.5532C41.8162 19.3232 41.7529 19.1399 41.624 19.0099C41.4618 18.8455 41.2019 18.7643 40.8297 18.7621C40.3619 18.7599 39.8941 18.7588 39.4265 18.7588C39.0765 18.7588 35.3223 18.761 35.3223 18.761C34.8112 18.761 34.3003 18.761 33.7814 18.7588C33.5647 18.7588 32.9047 18.7588 32.858 19.4799C32.8447 19.6843 32.9158 19.8798 33.058 20.0331C33.238 20.2253 33.5169 20.3342 33.8247 20.3353Z" fill="#407BFF"/>
<path d="M36.0211 13.9492H38.6108C39.373 13.9492 40.134 13.9492 40.8962 13.9459C41.2507 13.9459 41.485 13.8715 41.635 13.7159C41.7538 13.5927 41.8116 13.4205 41.8038 13.2061C41.7883 12.7083 41.4772 12.4561 40.8818 12.4561H40.8407C40.5551 12.4616 40.2462 12.4638 39.8707 12.4638C39.6362 12.4638 39.4019 12.4638 39.1663 12.4616C38.9308 12.4616 38.6963 12.4594 38.4619 12.4594H37.0254C36.692 12.4605 36.3587 12.4594 36.0266 12.4583H36.0133C35.6822 12.4583 35.4489 12.5327 35.2966 12.6849C35.1733 12.8083 35.1122 12.9805 35.1133 13.1961C35.1166 13.6815 35.4388 13.9492 36.0211 13.9492Z" fill="#407BFF"/>
<path d="M27.3584 40.2324H27.3284C25.8308 40.2324 24.6831 41.3391 24.6587 42.8078C24.6453 43.569 24.9164 44.2744 25.4208 44.7933C25.9085 45.2955 26.573 45.5753 27.2906 45.5831H27.3251C28.8583 45.5831 29.9871 44.4844 30.0083 42.9701C30.0183 42.2067 29.756 41.5113 29.2671 41.0113C28.784 40.5169 28.1062 40.2402 27.3584 40.2324ZM27.3295 44.1021H27.3073C27.0085 44.0955 26.7074 43.9533 26.4796 43.7133C26.2519 43.4734 26.1263 43.1634 26.1352 42.8645C26.1552 42.2278 26.6874 41.7091 27.3217 41.7091C27.6273 41.7091 27.9362 41.8456 28.1706 42.0834C28.4006 42.3167 28.5306 42.619 28.5273 42.9134C28.5195 43.5356 27.9484 44.1021 27.3295 44.1021Z" fill="#407BFF"/>
<path d="M17.5916 4.54922C17.9516 4.55811 18.3138 4.56366 18.6671 4.56366C19.0203 4.56366 19.3959 4.55811 19.7514 4.54922C20.2281 4.53589 20.5246 4.24033 20.528 3.77589C20.5302 3.29366 20.227 2.99825 19.7159 2.98491C19.5892 2.98158 19.4614 2.98047 19.3348 2.98047C19.2281 2.98047 19.1203 2.98047 19.0137 2.98158C18.9159 2.98158 18.817 2.98269 18.7194 2.98269H18.0494C17.9038 2.98158 17.7583 2.98269 17.6127 2.9838C17.126 2.99047 16.8251 3.267 16.8084 3.72144C16.7995 3.96144 16.8673 4.16589 17.0051 4.31255C17.1438 4.46033 17.3471 4.54255 17.5916 4.54922Z" fill="#407BFF"/>
<path d="M22.3007 4.55144C22.585 4.55811 22.8883 4.56144 23.2272 4.56144C23.6039 4.56144 23.9794 4.557 24.356 4.55255C24.8515 4.547 25.1715 4.25811 25.1715 3.817C25.1715 3.30144 24.8471 2.98158 24.326 2.98047H23.3283L23.2172 2.98269H22.7139C22.5861 2.98269 22.4583 2.98269 22.3305 2.98269H22.3162C21.8107 2.98269 21.5051 3.24144 21.4562 3.71144C21.4351 3.91922 21.4962 4.11589 21.6285 4.267C21.784 4.44366 22.0218 4.54478 22.2985 4.55144H22.3007Z" fill="#407BFF"/>
<path d="M12.9391 4.55158C13.0668 4.55602 13.2035 4.55935 13.3691 4.55935C13.4846 4.55935 13.5991 4.55824 13.7146 4.55713C13.8257 4.55713 13.9368 4.55491 14.0535 4.55491C14.1591 4.55491 14.2645 4.55713 14.37 4.55824C14.4767 4.56046 14.5834 4.56158 14.69 4.56158C14.85 4.56158 14.9811 4.55824 15.1034 4.54935C15.58 4.51713 15.8667 4.22602 15.8689 3.77158C15.8711 3.30172 15.58 3.00283 15.11 2.99172C14.7767 2.98394 14.4222 2.97949 14.0279 2.97949C13.6702 2.97949 13.3113 2.98283 12.9535 2.98727C12.7002 2.9906 12.4914 3.06949 12.3514 3.21505C12.2159 3.35616 12.1481 3.55491 12.1536 3.79046C12.1659 4.24158 12.4659 4.5338 12.9391 4.55158Z" fill="#407BFF"/>
<path d="M14.0513 4.44401C13.6835 4.44401 13.3147 4.45513 12.9469 4.44179C12.5358 4.42624 12.2769 4.18846 12.2669 3.78846C12.2558 3.35735 12.5147 3.10415 12.9569 3.0986C13.6746 3.08971 14.3924 3.08526 15.1101 3.10304C15.5222 3.11304 15.7633 3.35846 15.7611 3.77179C15.7589 4.18735 15.5011 4.4129 15.1001 4.43957C14.7524 4.4629 14.4013 4.4429 14.0513 4.44401Z" fill="#407BFF"/>
</g>
</svg>
