<svg width="53" height="56" viewBox="0 0 53 56" fill="none" xmlns="http://www.w3.org/2000/svg">
<mask id="mask0_217_188" style="mask-type:luminance" maskUnits="userSpaceOnUse" x="0" y="0" width="53" height="56">
<path d="M52.2142 0.222656H0.611328V55.7782H52.2142V0.222656Z" fill="white"/>
</mask>
<g mask="url(#mask0_217_188)">
<path d="M31.7853 49.8244C32.2028 51.1167 32.5953 52.3475 33.0128 53.5717C33.0476 53.6761 33.253 53.7706 33.3872 53.7821C33.7351 53.8136 34.0912 53.7754 34.4391 53.8036C35.004 53.8483 35.3453 54.2326 35.3469 54.7843C35.3469 55.3343 35.0057 55.7104 34.4408 55.77C34.2983 55.7849 34.1525 55.7783 34.0068 55.7783C28.9441 55.7783 23.88 55.7783 18.8175 55.7783C18.6518 55.7783 18.4828 55.7915 18.3221 55.7617C17.7754 55.6624 17.4937 55.3178 17.5004 54.7661C17.5071 54.2426 17.7854 53.9213 18.2989 53.8103C18.3586 53.7969 18.4215 53.8003 18.4844 53.7954C19.3668 53.7357 19.9439 53.2846 20.2155 52.4419C20.4872 51.6004 20.7573 50.7572 21.0587 49.8244H20.3415C16.8693 49.8244 13.3971 49.8244 9.92651 49.8244C8.84137 49.8244 8.56804 49.5545 8.56804 48.476C8.56804 42.5868 8.56804 36.696 8.56804 30.8068V30.0531C7.95345 29.957 7.36206 29.9022 6.78887 29.7664C2.87929 28.8421 0.195675 25.0982 0.664425 21.2465C1.16304 17.1449 4.48123 14.1447 8.55651 14.1133C9.52554 14.1067 10.4947 14.1133 11.5151 14.1133C11.9541 9.50959 13.9504 5.7789 17.6826 3.0539C20.5022 0.993064 23.6944 0.071954 27.175 0.242648C34.7108 0.610426 40.7789 6.51945 41.3487 14.1117C42.3096 14.1117 43.2771 14.1067 44.2429 14.1117C48.7703 14.1397 52.3204 17.7958 52.2111 22.3151C52.1133 26.3058 48.8597 29.6753 44.8209 29.9686C44.6603 29.9801 44.4996 29.9885 44.2793 30.0017V30.7604C44.2793 36.6496 44.2793 42.5404 44.2793 48.4296C44.2793 49.5578 44.0175 49.8228 42.9009 49.8228C39.4503 49.8228 35.9979 49.8228 32.5472 49.8228H31.7853V49.8244ZM42.25 47.8133V24.081H10.5841V47.8133H42.2516H42.25ZM44.2776 28.0535C44.8491 27.9575 45.3229 27.9143 45.7785 27.7951C48.6162 27.0463 50.5412 24.2749 50.2033 21.4454C49.8404 18.4039 47.3804 16.1508 44.3472 16.1013C43.0468 16.0797 41.7447 16.1029 40.4426 16.0929C39.6723 16.0863 39.3558 15.7665 39.3161 15.0095C39.2896 14.5158 39.2632 14.0206 39.2085 13.5285C38.415 6.31737 31.4208 1.08417 24.3123 2.37473C18.0355 3.51445 13.7035 8.54876 13.5279 14.9085C13.503 15.7864 13.1983 16.0913 12.3153 16.0946C11.0132 16.1013 9.71109 16.0781 8.41068 16.1045C5.93248 16.1558 3.75234 17.7776 2.93401 20.1433C2.13387 22.4592 2.87276 25.0683 4.78943 26.6322C5.87276 27.5151 7.10859 27.9856 8.5647 27.9824C8.5647 26.4333 8.5647 24.949 8.5647 23.4647C8.5647 22.2985 8.81318 22.0483 9.97776 22.0483C20.9478 22.0483 31.9161 22.0483 42.8861 22.0483C44.0143 22.0483 44.276 22.3085 44.276 23.4267C44.276 24.9308 44.276 26.435 44.276 28.0535H44.2776ZM30.9751 53.7722C30.561 52.4982 30.1733 51.2839 29.7625 50.0763C29.7244 49.9653 29.5339 49.8361 29.413 49.8361C27.4301 49.8211 25.4471 49.8213 23.4641 49.8344C23.335 49.8344 23.1279 49.9421 23.0914 50.0465C22.674 51.269 22.283 52.5015 21.8705 53.7722H30.9751Z" fill="#5D6DFD"/>
<path d="M16.1179 35.9334C17.1649 36.8627 17.5375 37.9775 17.4945 39.2631C17.4779 39.7782 17.4829 40.2952 17.4945 40.812C17.5111 41.4895 17.7845 41.7927 18.4404 41.8855C19.1892 41.9914 19.5371 42.3692 19.4675 43.0003C19.4013 43.6099 18.9391 43.9231 18.1986 43.8617C16.711 43.7359 15.5696 42.5431 15.5166 41.0289C15.4917 40.3481 15.5182 39.6656 15.5066 38.9848C15.4884 37.8384 14.7479 37.0432 13.6097 36.9306C12.8727 36.8577 12.5281 36.533 12.5363 35.92C12.5446 35.3286 12.8842 35.0123 13.58 34.9443C14.7645 34.8284 15.49 34.0448 15.5066 32.8553C15.5166 32.1745 15.4884 31.492 15.5166 30.8111C15.5828 29.2539 16.8318 28.0298 18.3527 28.0032C19.0153 27.9916 19.4211 28.3196 19.4692 28.901C19.5172 29.4957 19.176 29.8884 18.5332 29.9811C17.7381 30.0955 17.5045 30.3556 17.4928 31.1524C17.4879 31.545 17.4746 31.9375 17.4945 32.3285C17.5641 33.7102 17.2593 34.9525 16.1179 35.9334Z" fill="#5D6DFD"/>
<path d="M36.7325 35.9454C35.7004 35.0343 35.3128 33.946 35.3459 32.6803C35.3609 32.1238 35.3609 31.5654 35.3427 31.0088C35.3227 30.376 35.0361 30.0778 34.4099 29.9867C33.6496 29.8774 33.31 29.5146 33.3713 28.8818C33.4309 28.2654 33.8847 27.9507 34.6286 28.0088C36.1146 28.1247 37.2642 29.3174 37.3239 30.8299C37.3504 31.5107 37.3239 32.1933 37.3338 32.8742C37.3504 34.0238 38.0875 34.8272 39.2174 34.9415C39.9678 35.0161 40.3057 35.3275 40.304 35.9389C40.3024 36.5485 39.9645 36.8549 39.2107 36.9311C38.1124 37.0404 37.3586 37.8422 37.3354 38.9439C37.3206 39.6463 37.3521 40.3488 37.3239 41.0495C37.261 42.5852 36.0649 43.7928 34.559 43.8657C33.855 43.9004 33.4259 43.579 33.3713 42.981C33.3149 42.3647 33.6578 41.9838 34.357 41.8877C35.0627 41.7899 35.3277 41.5017 35.3459 40.7927C35.3559 40.4414 35.3674 40.0886 35.3459 39.739C35.2499 38.2896 35.5811 36.994 36.7325 35.9438V35.9454Z" fill="#5D6DFD"/>
<path d="M26.3549 40.8946C24.7861 40.8946 23.2189 40.8979 21.6501 40.8929C20.8832 40.8896 20.4872 40.5583 20.474 39.9288C20.459 39.2728 20.8665 38.9133 21.6601 38.9117C24.8375 38.9083 28.0149 38.9083 31.1921 38.9117C31.9575 38.9117 32.3551 39.2479 32.37 39.8742C32.3849 40.5268 31.9724 40.8896 31.1839 40.8913C29.5753 40.8963 27.9651 40.8913 26.3565 40.8913L26.3549 40.8946Z" fill="#5D6DFD"/>
<path d="M23.8783 32.9591C23.0948 32.9591 22.3112 32.9706 21.5293 32.9557C20.8435 32.9424 20.4575 32.5531 20.4742 31.9352C20.4907 31.3455 20.865 30.9843 21.531 30.9793C23.1379 30.9678 24.7464 30.9678 26.355 30.9793C27.0193 30.9843 27.3954 31.3455 27.4103 31.9352C27.4268 32.5516 27.0375 32.9407 26.3533 32.9541C25.5283 32.9689 24.705 32.9574 23.88 32.9574L23.8783 32.9591Z" fill="#5D6DFD"/>
<path d="M28.8987 34.9448C29.7022 34.9448 30.5072 34.9331 31.3106 34.948C31.9965 34.9596 32.3858 35.349 32.3692 35.9652C32.3527 36.5549 31.9766 36.9177 31.314 36.9227C29.7072 36.9344 28.0986 36.9359 26.4899 36.9227C25.8041 36.9177 25.4165 36.5235 25.4331 35.9056C25.448 35.3141 25.824 34.9596 26.4883 34.948C27.2917 34.9331 28.0952 34.9448 28.9004 34.9448H28.8987Z" fill="#5D6DFD"/>
<path d="M30.8998 32.9474C30.6745 32.9474 30.4426 32.9789 30.2223 32.9409C29.6773 32.8498 29.3957 32.5002 29.404 31.9535C29.4123 31.4052 29.7039 31.0573 30.2522 30.9944C30.6183 30.953 30.9926 30.9662 31.3604 30.9827C32.0015 31.0092 32.3759 31.3902 32.3676 31.9849C32.3594 32.5548 31.9998 32.9177 31.3919 32.9574C31.2279 32.9689 31.0639 32.9591 30.8983 32.9591C30.8983 32.9557 30.8983 32.9524 30.8983 32.9474H30.8998Z" fill="#5D6DFD"/>
<path d="M21.893 36.9194C21.7074 36.9194 21.5202 36.9376 21.338 36.9161C20.788 36.8482 20.4501 36.4523 20.4749 35.9023C20.5014 35.3523 20.7946 35.0143 21.343 34.9597C21.7306 34.9216 22.1249 34.9298 22.5142 34.9547C23.0857 34.9911 23.427 35.3605 23.4402 35.9089C23.4552 36.4804 23.1006 36.8714 22.5076 36.9228C22.3038 36.9393 22.0967 36.9261 21.8913 36.9261V36.9211L21.893 36.9194Z" fill="#5D6DFD"/>
</g>
</svg>
