<svg width="56" height="56" viewBox="0 0 56 56" fill="none" xmlns="http://www.w3.org/2000/svg">
<mask id="mask0_217_86" style="mask-type:luminance" maskUnits="userSpaceOnUse" x="0" y="0" width="56" height="56">
<path d="M55.1089 0.222656H0.222656V55.7782H55.1089V0.222656Z" fill="white"/>
</mask>
<g mask="url(#mask0_217_86)">
<path d="M29.5074 28.0111C31.5769 28.0111 33.5947 28.0096 35.6125 28.0111C37.5097 28.0126 38.6194 29.1433 38.6194 31.0798C38.621 36.2923 38.6194 41.5048 38.6194 46.7173V47.4428C38.9322 47.4612 39.2071 47.4783 39.5061 47.4969V49.2989C39.3261 49.308 39.1444 49.3236 38.9612 49.3236C37.4761 49.3251 35.9896 49.3297 34.5044 49.3204C34.2144 49.3189 34.0419 49.3669 33.9 49.684C33.2056 51.2337 31.9921 52.0861 30.3132 52.0891C28.6099 52.0922 27.4056 51.2214 26.6637 49.6654C26.589 49.5091 26.3447 49.3405 26.18 49.339C21.2667 49.3221 16.3519 49.3221 11.4387 49.339C11.2861 49.339 11.0496 49.4937 10.9931 49.6329C10.3429 51.2337 9.17222 52.1139 7.47347 52.0861C5.77319 52.0582 4.63291 51.1271 4.04528 49.5076C4.02555 49.455 3.98889 49.4071 3.94611 49.3297H0.258609C0.244859 49.1396 0.224997 48.9755 0.224997 48.81C0.223469 46.2626 0.21736 43.7136 0.234166 41.1661C0.235693 40.8954 0.319581 40.5922 0.45847 40.3618C1.94666 37.9148 3.45917 35.485 4.94889 33.0396C5.13208 32.7394 5.33055 32.6328 5.67694 32.6373C7.48569 32.6559 9.2943 32.6466 11.1946 32.6466C11.1946 32.0805 11.1931 31.53 11.1946 30.9793C11.2037 29.1728 12.3439 28.0158 14.1312 28.0143C18.3789 28.0111 22.6251 28.0143 26.8729 28.0143H27.6162V8.89511C28.8876 9.53386 30.0614 10.1232 31.2931 10.7419V0.25803H38.621V0.913864C38.621 5.2572 38.6256 9.60039 38.6118 13.9451C38.6118 14.3225 38.6957 14.5483 39.0575 14.6953C39.5092 14.8794 39.9381 15.1222 40.4464 15.3743V8.90747C42.2993 9.84164 44.0744 10.7387 45.9289 11.6746V0.244141H53.249V0.896917C53.249 5.54942 53.2536 10.2021 53.24 14.8546C53.24 15.2583 53.3269 15.5197 53.7268 15.6296C54.8471 15.9373 55.1143 16.6565 55.1097 17.8275C55.0578 30.24 55.0776 42.6525 55.0776 55.0666V55.7796H0.267775V53.97H53.2475V53.2879C53.2475 41.5512 53.2444 29.813 53.2597 18.0765C53.2597 17.5939 53.0965 17.3696 52.6904 17.1669C49.3997 15.5182 46.1197 13.8478 42.8365 12.1834C42.6854 12.1076 42.5299 12.0396 42.3131 11.939V46.4976H40.4479V45.8419C40.4479 36.5955 40.4449 27.3476 40.4571 18.1012C40.4571 17.6418 40.3426 17.3897 39.9122 17.1762C36.6183 15.5336 33.3399 13.8586 30.0568 12.1958C29.8919 12.1122 29.721 12.038 29.5058 11.9359V28.0126L29.5074 28.0111ZM13.0215 47.4397C13.165 47.4536 13.2383 47.4675 13.3115 47.4675C17.5379 47.4675 21.7643 47.4629 25.9907 47.4798C26.3753 47.4798 26.444 47.3066 26.5371 46.9941C27.34 44.2673 30.565 43.2496 32.7583 45.016C33.5368 45.6423 33.9687 46.4791 34.1915 47.4319H36.7924V46.824C36.7924 41.6147 36.7924 36.4037 36.7924 31.1943C36.7924 30.1333 36.5268 29.8641 35.4767 29.8641C28.4328 29.8641 21.3889 29.8641 14.3449 29.8641C13.2887 29.8641 13.0231 30.1286 13.0231 31.1865C13.0231 36.396 13.0231 41.6069 13.0231 46.8164V47.4397H13.0215ZM11.1518 40.0416V34.4982C9.57208 34.4982 8.03361 34.4889 6.49514 34.5121C6.33486 34.5151 6.12111 34.6744 6.02805 34.8229C4.99625 36.464 3.9843 38.1175 2.96777 39.7679C2.92194 39.8405 2.90208 39.9303 2.85944 40.0416H11.1518ZM3.97208 47.4536C4.56583 45.7475 5.71055 44.7205 7.52375 44.7065C9.33708 44.6926 10.4803 45.7444 11.1594 47.5509V41.9503H2.09625V47.4536H3.97361H3.97208ZM51.3869 14.4447V5.81081H47.7619C47.7619 8.00872 47.7574 10.168 47.7726 12.3272C47.7726 12.4618 47.8917 12.6583 48.0078 12.7186C49.1021 13.294 50.2086 13.8461 51.3854 14.4432L51.3869 14.4447ZM36.7511 13.5105V5.79997H33.1368C33.1368 7.71331 33.1337 9.60039 33.146 11.4858C33.146 11.5879 33.2544 11.7348 33.3506 11.7859C34.4632 12.3612 35.5851 12.9228 36.7511 13.5121V13.5105ZM28.2114 48.0862C28.1993 49.2787 29.115 50.2346 30.2826 50.2484C31.4335 50.2625 32.4072 49.2864 32.4028 48.1233C32.3997 46.9508 31.4381 45.9796 30.2887 45.9857C29.1532 45.9919 28.2221 46.9323 28.2099 48.0878L28.2114 48.0862ZM7.55125 46.5472C6.55611 46.5379 5.72736 47.3591 5.71208 48.3676C5.6968 49.401 6.53014 50.2532 7.55125 50.2469C8.53875 50.2423 9.36611 49.3978 9.36305 48.3955C9.36 47.384 8.54944 46.5548 7.55125 46.5457V46.5472ZM51.3931 2.10484H47.8078V3.88678H51.3931V2.10484ZM36.7618 3.89289V2.09872H33.1735V3.89442H36.7618V3.89289Z" fill="#5D6DFD"/>
<path d="M14.8253 3.93945C14.9886 4.61848 15.1382 5.2557 15.2969 5.88987C15.4358 6.44667 16.0265 6.68182 16.521 6.39098C17.0918 6.05695 17.7115 5.41501 18.2304 5.48765C18.7616 5.56043 19.1966 6.33834 19.6743 6.80709C20.0285 7.15515 20.3825 7.50459 20.7794 7.89445C20.436 8.46362 20.1108 8.99876 19.7873 9.53709C19.4026 10.1774 19.6194 10.725 20.3261 10.9028C20.8985 11.0467 21.4693 11.1921 22.0401 11.339C22.0722 11.3467 22.0997 11.3776 22.1439 11.4101V15.0125C21.4907 15.1749 20.848 15.3311 20.2071 15.495C19.6911 15.6265 19.4316 16.2329 19.7018 16.6922C20.0422 17.2707 20.3947 17.8414 20.7718 18.4647C19.978 19.2645 19.2043 20.0595 18.406 20.8267C18.3175 20.9117 18.058 20.9071 17.9312 20.839C17.4628 20.5854 17.0171 20.2868 16.5607 20.007C16.0021 19.6635 15.4404 19.8986 15.2801 20.5436C15.1275 21.1607 14.9794 21.7779 14.8222 22.4229H11.2232C11.0705 21.8042 10.9133 21.1576 10.753 20.5142C10.6019 19.9095 10.0387 19.6758 9.50456 19.9992C8.95192 20.3347 8.40095 20.6767 7.88817 20.9906C7.02429 20.1121 6.19401 19.269 5.32095 18.3828C5.5972 17.925 5.90248 17.4176 6.20915 16.9103C6.67012 16.1463 6.45651 15.6343 5.58345 15.4178C5.03095 15.2817 4.47526 15.1501 3.90137 15.0125V11.3668C4.53026 11.2075 5.16984 11.0513 5.80776 10.8843C6.3679 10.7374 6.61526 10.1496 6.3222 9.65459C5.98331 9.07918 5.63526 8.50695 5.32706 7.99181C6.20151 7.10251 7.03192 6.25959 7.89734 5.38251C8.42234 5.70737 8.98706 6.06306 9.55637 6.4064C10.0173 6.68487 10.608 6.43431 10.7408 5.90848C10.9041 5.25723 11.0583 4.60445 11.2186 3.93945H14.8207H14.8253ZM20.2803 12.8192C20.1261 12.7775 19.9475 12.6971 19.7629 12.6863C18.783 12.629 18.3586 12.0397 17.9801 11.1626C17.5635 10.196 17.4871 9.41029 18.1985 8.60751C18.3861 8.39556 18.4701 8.18681 18.1985 7.91765C17.9465 7.66862 17.7497 7.74126 17.5635 7.9207C16.7347 8.7189 15.915 8.55793 14.9412 8.12487C14.1094 7.75529 13.563 7.33293 13.5233 6.38487C13.5004 5.82793 13.2226 5.63779 12.6671 5.8264C12.6335 5.95015 12.5662 6.09404 12.5587 6.24251C12.5022 7.29279 11.9161 7.77529 10.9773 8.1914C10.0143 8.61834 9.27859 8.60279 8.5079 7.93779C8.29109 7.75056 8.09109 7.66237 7.82706 7.93779C7.5829 8.1914 7.64692 8.38931 7.82706 8.58112C8.61776 9.41945 8.44526 10.2532 8.03012 11.2385C7.67137 12.0876 7.25012 12.6399 6.31456 12.6785C5.76206 12.7017 5.57734 12.9785 5.76053 13.5431C5.88109 13.5756 6.02456 13.6436 6.16956 13.6514C7.20595 13.7071 7.68512 14.301 8.09109 15.2538C8.50484 16.2236 8.5154 16.9753 7.84693 17.7579C7.66526 17.9714 7.57068 18.174 7.84234 18.4478C8.12318 18.7308 8.32317 18.5963 8.52456 18.4183C9.3229 17.707 10.0922 17.7765 11.0476 18.2174C11.8871 18.604 12.4793 18.9985 12.519 19.9806C12.5419 20.5313 12.8136 20.7339 13.3798 20.5421C13.415 20.4045 13.4866 20.242 13.4958 20.075C13.5508 19.0356 14.1612 18.5885 15.0648 18.1849C16.0143 17.7626 16.7622 17.7425 17.5344 18.4276C17.7405 18.6101 17.948 18.7154 18.2151 18.4339C18.4548 18.1801 18.3998 17.9838 18.2182 17.7904C17.4307 16.9536 17.5971 16.12 18.0122 15.1332C18.3708 14.2808 18.7982 13.7411 19.7308 13.6963C20.2726 13.6699 20.4711 13.3915 20.2818 12.8192H20.2803Z" fill="#5D6DFD"/>
<path d="M18.9181 24.6656C18.6403 24.1274 18.3778 23.6185 18.0954 23.0678C21.232 21.2767 23.1993 18.6288 23.8298 15.0466C24.28 12.4898 23.842 10.0506 22.5995 7.77687C20.0536 3.12437 14.5818 0.997565 9.60295 2.61076C4.78142 4.17298 0.541284 9.91145 2.53309 16.6134C1.9867 16.7959 1.43878 16.9799 0.893784 17.1624C-1.01858 11.8123 1.16864 4.40506 7.75767 1.38728C14.22 -1.5716 21.7218 1.29451 24.6646 7.86659C27.6196 14.4634 24.5792 21.7609 18.9181 24.6656Z" fill="#5D6DFD"/>
<path d="M32.248 26.1246V18.79H37.6664V26.1246H32.248ZM34.0887 20.6243V24.2577H35.8471V20.6243H34.0887Z" fill="#5D6DFD"/>
<path d="M45.0576 18.7705H50.473V26.1113H45.0576V18.7705ZM48.6507 20.6281H46.8816V24.263H48.6507V20.6281Z" fill="#5D6DFD"/>
<path d="M45.0635 39.1553H50.4772V46.4961H45.0635V39.1553ZM46.8736 44.6462H48.6518V41.0161H46.8736V44.6462Z" fill="#5D6DFD"/>
<path d="M45.0635 28.9639H50.4788V36.3046H45.0635V28.9639ZM46.8782 34.464H48.6426V30.8339H46.8782V34.464Z" fill="#5D6DFD"/>
<path d="M10.4747 24.0574C10.3389 24.6374 10.2092 25.1927 10.0519 25.8624C9.05526 25.4881 8.11193 25.1324 7.09082 24.7488C7.40374 24.1409 7.66929 23.6228 7.93791 23.1016C8.79416 23.4232 9.60471 23.728 10.4762 24.0559L10.4747 24.0574Z" fill="#5D6DFD"/>
<path d="M4.13096 22.5913C3.46083 21.7606 2.82291 20.9688 2.1543 20.1397C2.7343 19.7654 3.21055 19.4576 3.69749 19.1436C4.25763 19.8381 4.80555 20.5156 5.3886 21.2379C5.00402 21.6524 4.60555 22.0794 4.13096 22.5898V22.5913Z" fill="#5D6DFD"/>
<path d="M13.0537 24.3564C13.8794 24.259 14.6808 24.1646 15.5584 24.0625C15.6912 24.6225 15.824 25.1871 15.9827 25.8583C14.9859 25.9789 14.0412 26.0935 13.0537 26.2125V24.3564Z" fill="#5D6DFD"/>
<path d="M23.0408 45.5915H21.2842V31.7451H23.0408V45.5915Z" fill="#5D6DFD"/>
<path d="M17.5528 45.5919H15.793V31.7656H17.5528V45.5919Z" fill="#5D6DFD"/>
<path d="M32.2598 31.7441H34.0196V42.7909H32.2598V31.7441Z" fill="#5D6DFD"/>
<path d="M26.7686 31.7471H28.5238V42.7985H26.7686V31.7471Z" fill="#5D6DFD"/>
<path d="M13.0259 16.89C11.0051 16.89 9.36121 15.2241 9.36426 13.1762C9.36885 11.13 11.0219 9.4672 13.0412 9.47956C15.0575 9.49192 16.6876 11.1701 16.6754 13.2226C16.6632 15.2365 15.0193 16.89 13.0259 16.8915V16.89ZM14.8468 13.218C14.862 12.2048 14.0654 11.3619 13.0687 11.3357C12.0507 11.3078 11.199 12.1461 11.1959 13.1793C11.1929 14.1893 12.0033 15.0215 13.0015 15.0354C13.989 15.0478 14.8316 14.2187 14.8468 13.218Z" fill="#407BFF"/>
</g>
</svg>
