<svg width="56" height="49" viewBox="0 0 56 49" fill="none" xmlns="http://www.w3.org/2000/svg">
<mask id="mask0_217_106" style="mask-type:luminance" maskUnits="userSpaceOnUse" x="0" y="0" width="56" height="49">
<path d="M55.7782 0.388672H0.222656V48.513H55.7782V0.388672Z" fill="white"/>
</mask>
<g mask="url(#mask0_217_106)">
<path d="M50.5882 48.5135C41.9756 48.5105 33.36 48.5105 24.7474 48.5105H5.38905C5.20252 48.5105 5.01307 48.5002 4.81321 48.4883C2.81474 48.3744 1.16418 47.1353 0.505434 45.2538C0.428489 45.0346 0.364741 44.8096 0.296685 44.5713C0.272935 44.4855 0.247795 44.4012 0.222656 44.3167V38.7891H3.56668V9.97742H28.7192L28.8435 9.55256C28.8524 9.52436 28.8597 9.50367 28.8642 9.48589C28.8849 9.42672 28.9146 9.33631 28.9146 9.21644C28.9146 8.73978 28.9146 8.26158 28.9146 7.78353C28.9146 6.69394 28.9131 5.56742 28.9308 4.46311C28.9397 3.94047 28.9929 3.50978 29.0981 3.14269C29.5925 1.40478 31.0374 0.405473 33.061 0.401028C35.1704 0.398112 37.2814 0.396583 39.3909 0.396583C41.3435 0.396583 43.296 0.396584 45.25 0.398112H47.3921C47.8199 0.398112 48.2478 0.396583 48.6756 0.393666C49.1004 0.39075 49.5267 0.387695 49.9515 0.387695C50.7939 0.387695 51.4734 0.399638 52.0907 0.424777C54.2135 0.510611 55.762 2.12714 55.7709 4.2677C55.7842 7.81311 55.7856 11.6709 55.7709 16.0616C55.7664 17.681 54.7849 19.0828 53.2706 19.6306C52.4963 19.9105 52.3986 20.4581 52.3986 20.9037C52.406 24.9421 52.406 29.0485 52.406 33.0203V37.6316C52.406 37.7737 52.4178 37.9069 52.4297 38.0476C52.4356 38.1112 52.44 38.1777 52.4445 38.2488L52.4815 38.801H55.7471C55.7471 39.1681 55.75 39.5323 55.7515 39.8964C55.7589 41.3827 55.7649 42.786 55.7249 44.2146C55.7131 44.6306 55.571 45.1309 55.3133 45.6638C54.3867 47.5794 52.8427 48.512 50.5911 48.512H50.5882V48.5135ZM2.38099 41.553C2.38099 41.8031 2.37502 42.0519 2.36918 42.2976C2.35585 42.8556 2.34252 43.4314 2.39877 44.0059C2.54238 45.4639 3.72224 46.3699 5.47641 46.3699H23.8059C32.7102 46.3699 41.6114 46.3699 50.5156 46.3699C50.7243 46.3699 50.9493 46.367 51.1818 46.3448C52.4934 46.2174 53.5133 45.2078 53.6095 43.9466C53.6524 43.3901 53.6421 42.8289 53.6317 42.2858C53.6272 42.0444 53.6228 41.8002 53.6228 41.5544V40.9623H2.38099V41.553ZM20.2308 29.1773C18.6514 29.1773 17.1192 29.7339 15.6759 30.8294C13.4332 32.5333 12.4577 35.0262 12.7774 38.237L12.8307 38.7699H27.745L27.7954 38.2326C28.1434 34.4991 26.8332 31.7901 23.8977 30.178C22.6868 29.5134 21.4536 29.1773 20.2308 29.1773ZM5.73696 38.7551H10.6397L10.6013 38.1274C10.326 33.6228 12.0254 30.3631 15.7943 28.1619L16.3864 27.8155L15.9571 27.2795C13.7085 24.4757 14.425 21.188 16.2932 19.3894C17.3857 18.3382 18.8039 17.7595 20.2871 17.7595C21.5336 17.7595 22.7253 18.1637 23.7334 18.9274C24.8672 19.786 25.5882 20.9112 25.8754 22.2716C26.2618 24.0953 25.8472 25.7326 24.6082 27.2766L24.1804 27.811L24.7696 28.1574C28.5518 30.3809 30.2528 33.6405 29.9685 38.1201L29.9286 38.7492H50.227V19.977L49.6999 19.9178C49.6645 19.9134 49.6318 19.9089 49.6022 19.9045C49.5208 19.8927 49.4364 19.8808 49.3372 19.8808H48.082C47.3847 19.8794 46.686 19.8778 45.9888 19.8778C44.4654 19.8778 43.2931 19.8823 42.1872 19.8896C41.7831 19.8927 41.4086 20.0866 41.1658 20.248C39.1954 21.5566 37.197 22.8948 35.2652 24.1885L33.5806 25.3166V19.9312L32.8329 19.8882C32.716 19.8807 32.6168 19.8749 32.5192 19.8705C30.605 19.7713 28.996 18.1399 28.9338 16.2333C28.9115 15.5596 28.916 14.8684 28.9204 14.1992C28.922 13.8869 28.9249 13.5731 28.9235 13.2607V12.1387H5.73696V38.7506V38.7551ZM20.2857 19.8956C19.3382 19.8956 18.4056 20.2923 17.7247 20.9837C17.0393 21.6809 16.6707 22.5884 16.6854 23.5387C16.7181 25.4898 18.3331 27.0783 20.2857 27.0783H20.3093C22.2797 27.0649 23.8785 25.4542 23.8725 23.4855C23.8665 21.5106 22.2604 19.9001 20.2931 19.8956H20.2857ZM35.7625 21.2842L36.6833 20.6684C37.0609 20.4152 37.4324 20.1664 37.7981 19.9208C38.821 19.2339 39.7861 18.5855 40.7721 17.9519C40.9556 17.8335 41.2102 17.7566 41.4189 17.7551C43.4247 17.7433 45.4661 17.7417 47.3714 17.7417H49.9413C50.532 17.7417 51.1225 17.7417 51.7132 17.7417C52.9671 17.7417 53.6303 17.0845 53.6317 15.8455C53.6347 12.0617 53.6347 8.22311 53.6317 4.43936C53.6317 3.21964 52.9671 2.54755 51.7635 2.54603C48.6104 2.54311 45.4558 2.54019 42.3027 2.54019C39.1496 2.54019 36.0586 2.54158 32.9365 2.54464C31.7286 2.54464 31.064 3.21658 31.0625 4.432C31.0596 8.23506 31.0596 12.0364 31.0625 15.8395C31.0625 17.0801 31.7242 17.7373 32.9721 17.7433C33.4029 17.7446 33.8322 17.7462 34.2704 17.7462H35.7596V21.2856L35.7625 21.2842Z" fill="#5D6DFD"/>
<path d="M43.3769 8.86914H41.3252V10.9119H43.3769V8.86914Z" fill="#5D6DFD"/>
<path d="M37.4576 8.89062H35.3955V10.9335H37.4576V8.89062Z" fill="#5D6DFD"/>
<path d="M49.3092 8.87207H47.25V10.915H49.3092V8.87207Z" fill="#5D6DFD"/>
</g>
</svg>
