<svg width="201" height="30" viewBox="0 0 201 30" fill="none" xmlns="http://www.w3.org/2000/svg">
<g clip-path="url(#clip0_1389_3945)">
<path d="M6.23247 15.9821V8.55219L3.9813 9.56536C3.9813 9.56536 3.40144 10.8487 3.50377 12.7062C3.57199 14.1584 4.3906 15.8807 5.03867 16.6238L6.23247 15.9821ZM12.8496 0.683284C13.3954 0.717056 14.2822 0.987234 14.9302 1.56136C15.6465 2.2368 15.783 3.24997 15.5441 4.19559C15.3395 5.00612 15.0667 5.44516 14.2139 6.01928C13.3612 6.59341 12.3038 6.55964 12.3038 6.55964V10.1395L14.0775 11.558L12.3038 12.9764V17.8733C12.3038 17.8733 14.0775 16.8601 15.169 14.6312C15.169 14.6312 15.2031 14.4961 15.3054 14.2935C15.4077 14.9014 15.3395 16.1172 14.6573 17.6706C14.1798 18.7852 13.2248 19.8997 12.0651 20.5751C9.98444 21.7233 8.41543 21.8247 6.70999 21.487C4.73169 21.0816 2.95803 20.0009 1.73011 18.0759C0.877395 16.725 0.502198 15.1716 0.536307 13.4829C0.604524 10.1733 3.09447 7.3364 5.95961 6.25569C6.30069 6.1206 6.43713 6.05306 6.94875 5.98551C6.70999 6.15437 6.47123 6.32324 6.13014 6.55964C5.20921 7.16753 4.42471 8.34957 4.08362 9.2614L9.64335 6.79604V14.4961L5.14099 16.725C5.65262 17.4343 7.22163 18.4812 8.51776 18.6501C10.7689 18.8865 12.0992 17.9071 12.0992 17.9071V12.9088L10.3596 11.4904L12.0992 10.0719V6.55964C11.1441 6.45832 9.98444 6.15437 9.30226 5.98551C8.34722 5.71533 5.00455 4.80348 4.49292 4.70217C3.9813 4.63463 3.33323 4.63463 2.92392 5.00612C2.54872 5.34384 2.27586 5.95174 2.4464 6.52587C2.54872 6.82982 2.75338 7.03245 2.92392 7.20131C2.92392 7.20131 2.71927 7.20131 2.37818 6.96491C1.76423 6.59341 1.2867 5.85043 1.21848 4.97235C1.15026 3.79032 1.6619 2.70961 2.65106 2.0004C3.50377 1.46004 4.45882 1.12232 5.58441 1.25741C7.22163 1.49382 9.4387 2.40566 11.3829 2.87847C12.1333 3.04734 12.7473 3.11488 13.2589 2.81093C13.4976 2.64207 13.941 2.16926 13.5999 1.56136C13.1907 0.852145 12.372 0.852145 11.6899 0.750829C12.2697 0.649512 12.4062 0.649512 12.8496 0.683284Z" fill="#9BA2B2"/>
<path d="M34.4735 14.057L31.9495 15.8807V9.76796L34.4735 14.057ZM34.4053 8.18066C34.4053 8.18066 32.6998 9.19383 31.5401 9.86927C30.3804 10.5447 28.8456 11.2877 28.8456 11.2877V18.3799L27.8223 19.1904L27.9588 19.3592L28.9478 18.5487L32.0859 21.3518L37.5433 17.0627L37.4068 16.8938L34.4053 19.2241L31.9153 16.9277V16.0833L36.8952 12.4697L34.4053 8.18066Z" fill="#9BA2B2"/>
<path d="M20.147 24.054C20.8633 24.2229 22.1254 24.3242 23.6603 23.5812C25.3316 22.7369 26.1843 20.9807 26.1843 19.1571L26.2526 16.5903V10.9505L27.344 10.1399L27.2076 9.97104L26.1161 10.7478L23.6603 8.04602L20.5222 10.714V1.66309L16.5997 4.66881C16.7703 4.77012 17.316 4.87144 17.3502 5.6482V18.3466L15.7129 19.5623L15.8152 19.7311L16.6339 19.1232L18.8509 21.1834L22.3641 18.4478L22.2277 18.279L21.4091 18.9206L20.5222 18.0764V11.018L21.5456 10.1399L23.0804 12.0311C23.0804 12.0311 23.0804 16.6242 23.0804 18.1439C23.0804 19.765 23.0804 21.7912 22.1936 22.7707C21.375 23.7163 20.9998 23.7838 20.147 24.054Z" fill="#9BA2B2"/>
<path d="M44.536 23.4122C43.1375 23.2434 42.5576 22.3991 42.5576 21.7575C42.5576 21.3184 42.967 20.5079 43.8197 20.3728C44.6724 20.2714 45.5592 20.643 46.2755 21.521L49.5159 17.975L49.3453 17.8399L48.4585 18.8192C47.5717 17.8061 46.3096 17.1982 45.0817 16.9956V6.18847L53.5066 21.3859C53.5066 21.3859 53.5748 21.5548 53.95 21.5548C54.2569 21.5548 54.1887 21.3184 54.1887 21.3184V6.01961C54.871 5.98584 55.9284 5.61434 56.44 5.10776C58.0771 3.45293 57.395 1.663 57.2244 1.49414C57.1221 2.2709 56.5082 3.08143 55.4849 3.08143C54.1547 3.08143 53.3361 2.10204 53.3361 2.10204L50.0616 5.71566L50.2322 5.85075L51.153 4.80381C52.2787 5.85075 53.1314 5.91829 53.9842 5.98584V14.8679L47.7081 3.62179C47.1283 2.70994 46.2755 1.86563 44.9452 1.86563C43.3763 1.86563 42.2848 3.21652 42.1484 4.36478C42.0119 5.68188 42.1484 5.98584 42.1484 5.98584C42.1484 5.98584 42.3871 4.53363 43.3081 4.53363C44.1267 4.53363 44.5701 5.3104 44.8771 5.85075V9.09287C44.0244 9.16042 41.8073 9.26174 41.6708 11.5245C41.6708 12.3688 42.1825 13.2469 42.66 13.5508C43.2739 13.956 43.7173 13.9223 43.7173 13.9223C43.7173 13.9223 43.0011 13.5508 43.2057 12.8078C43.4104 12.1324 44.8089 12.0311 44.843 12.3013V16.8943C44.1608 16.8943 42.0119 16.9618 41.0228 18.7855C40.4429 19.9 40.4771 21.1495 41.091 22.0276C41.6708 22.8043 42.7282 23.7162 44.536 23.4122Z" fill="#9BA2B2"/>
<path d="M62.3758 14.057L59.8518 15.8807V9.76796L62.3758 14.057ZM62.3076 8.18066C62.3076 8.18066 60.6022 9.19383 59.4425 9.86927C58.2828 10.5447 56.7479 11.2877 56.7479 11.2877V18.3799L55.7246 19.1904L55.8611 19.3592L56.8503 18.5487L59.9882 21.3518L65.4457 17.0627L65.3092 16.8938L62.3076 19.2241L59.8177 16.9277V16.0833L64.7976 12.4697L62.3076 8.18066Z" fill="#9BA2B2"/>
<path d="M69.9474 21.419L67.2869 19.2239L66.1273 20.0682L66.025 19.8993L67.2187 19.0212V12.9084C67.2869 10.3756 64.8653 11.0172 65.0016 8.31546C65.0698 7.13343 66.1955 6.25535 66.8094 5.95141C67.4234 5.64746 68.1055 5.64746 68.1055 5.64746C68.1055 5.64746 67.0141 6.32289 67.2869 7.30229C67.6963 8.78827 70.2886 8.92336 70.3226 10.9497V17.873L72.2328 19.3928L72.7444 18.9875V11.4563L71.7211 10.4431L74.3816 8.11282L76.8033 10.2405L75.8824 11.2199V17.9067L78.1677 19.7642L78.5769 19.494V11.49L77.5537 10.5444L80.2142 8.14659L82.7042 10.1729L83.6933 9.29485L83.8297 9.46371L81.5785 11.4225V17.9743L75.8483 21.4529L72.9149 19.1563L69.9474 21.419Z" fill="#9BA2B2"/>
<path d="M187.044 14.057L184.52 15.8807V9.76796L187.044 14.057ZM186.975 8.18066C186.975 8.18066 185.27 9.19383 184.11 9.86927C182.95 10.5447 181.416 11.2877 181.416 11.2877V18.3799L180.393 19.1904L180.529 19.3592L181.518 18.5487L184.655 21.3518L190.113 17.0627L189.976 16.8938L186.975 19.2241L184.485 16.9277V16.0833L189.499 12.5035L186.975 8.18066Z" fill="#9BA2B2"/>
<path d="M161.394 11.152L161.53 11.3209L162.554 10.4428L164.089 12.1314V18.0078L163.338 18.6832L165.726 21.3175L168.148 18.9534L167.158 17.9065V10.8481L167.773 10.3415L169.443 12.3003V18.1428L168.796 18.7846L171.047 21.2499L173.434 18.8858L172.547 17.974V10.8481L173.195 10.3415L174.935 12.2665V18.0753L174.355 18.6495L176.811 21.3175L180.154 18.2779L179.983 18.1428L179.198 18.8521L177.971 17.5012V10.8818L179.165 9.97002L179.028 9.80116L177.835 10.713L175.583 8.21387L172.343 10.713L170.092 8.28142L166.988 10.713L164.702 8.31519L161.394 11.152Z" fill="#9BA2B2"/>
<path d="M154.674 10.9836L154.81 11.1186L155.664 10.3757L157.027 11.963V18.6837L156.072 19.4942L156.209 19.6631L157.199 18.8187L159.381 21.3178L162.553 18.5147L162.417 18.3459L161.496 19.1565L160.166 17.6705V11.1186L161.291 10.1731L161.155 10.038L160.098 10.916L157.812 8.24805L154.674 10.9836Z" fill="#9BA2B2"/>
<path d="M155.56 5.41142L157.947 3.25L159.892 5.37765L157.503 7.53907L155.56 5.41142Z" fill="#9BA2B2"/>
<path d="M145.77 15.9816V8.55174L143.518 9.5649C143.518 9.5649 142.938 10.8482 143.041 12.7057C143.109 14.1579 143.928 15.8803 144.576 16.6233L145.77 15.9816ZM152.386 0.682825C152.932 0.716597 153.819 0.986774 154.467 1.5609C155.183 2.23635 155.32 3.24951 155.081 4.19513C154.876 5.00566 154.603 5.44469 153.751 6.01883C152.898 6.59295 151.841 6.55918 151.841 6.55918V10.139L153.614 11.5575L151.841 12.9759V17.8729C151.841 17.8729 153.614 16.8596 154.706 14.6307C154.706 14.6307 154.74 14.4956 154.842 14.293C154.945 14.9009 154.876 16.1167 154.194 17.6703C153.683 18.8522 152.728 19.9667 151.568 20.6084C149.487 21.7567 147.918 21.8579 146.247 21.5202C144.268 21.1149 142.494 20.0343 141.267 18.1092C140.414 16.7584 140.039 15.2049 140.073 13.5162C140.142 10.2066 142.631 7.36971 145.496 6.289C145.838 6.15391 145.973 6.08637 146.485 6.01883C146.247 6.18769 146.008 6.35654 145.667 6.59295C144.746 7.20085 143.961 8.38287 143.621 9.29472L149.18 6.82935V14.5294L144.712 16.7584C145.223 17.4676 146.793 18.5145 148.089 18.6834C150.34 18.9198 151.671 17.9404 151.671 17.9404V12.9422L149.931 11.5237L151.671 10.1052V6.55918C150.715 6.45786 149.555 6.15392 148.873 5.98505C147.884 5.74865 144.541 4.80303 144.03 4.73548C143.518 4.66794 142.87 4.66794 142.461 5.03943C142.086 5.37715 141.812 5.98505 141.983 6.55918C142.086 6.86312 142.291 7.06576 142.461 7.23462C142.461 7.23462 142.256 7.23462 141.915 6.99822C141.301 6.62672 140.824 5.88373 140.755 5.00566C140.687 3.82363 141.164 2.7767 142.154 2.03371C143.006 1.49336 143.961 1.15563 145.087 1.29072C146.725 1.52713 148.942 2.43897 150.886 2.91179C151.636 3.08064 152.25 3.1482 152.761 2.84424C153.001 2.67539 153.444 2.20257 153.103 1.59467C152.693 0.885457 151.874 0.885457 151.192 0.784141C151.806 0.649053 151.943 0.649053 152.386 0.682825Z" fill="#9BA2B2"/>
<path d="M194.068 9.56498V13.0773L195.263 14.0905C195.263 14.0905 197.82 12.0641 198.775 10.1729C198.775 10.1729 197.615 11.7264 196.047 11.2536C194.751 10.8483 194.068 9.56498 194.068 9.56498ZM191.204 18.8861C191.204 18.8861 192.329 17.0286 194.273 17.4339C196.115 17.8054 196.763 19.7642 196.763 19.7642V15.3062L195.467 14.1917C194.035 15.6102 191.511 17.6365 191.204 18.8861ZM193.046 22.2971C192.67 22.3984 191.101 22.0269 190.726 20.4059C190.351 18.8523 191.476 17.7716 193.113 16.1168L191.135 14.3268V10.9497C191.135 10.9497 192.568 10.2404 193.693 9.53121C194.818 8.822 195.978 8.07901 195.978 8.07901C195.978 8.07901 196.832 9.12595 197.787 9.0584C199.287 8.92331 199.219 7.77506 199.151 7.50488C199.389 7.94392 200.072 9.29481 197.48 12.3005L199.629 14.0229V18.4133C199.629 18.4133 197.138 19.6966 194.818 21.3852C194.818 21.3852 193.523 19.7642 192.363 20.541C191.613 21.0138 191.954 21.8918 193.046 22.2971Z" fill="#9BA2B2"/>
<path d="M107.263 17.2987L110.025 19.7641V12.1991L107.263 9.66623V17.2987ZM112.925 11.1184L113.88 10.2404L114.016 10.4092L113.095 11.2535V18.2443C113.095 18.2443 111.322 19.1899 110.06 19.8654C108.831 20.5746 107.501 21.3851 107.501 21.3851L104.227 18.6496L103.374 19.3926L103.238 19.2238L104.159 18.447V10.9496C104.159 10.9496 105.694 10.2741 106.989 9.53114C108.149 8.88947 109.446 8.14648 109.446 8.14648L112.925 11.1184Z" fill="#9BA2B2"/>
<path d="M119.34 10.4098L121.42 8.31592C121.42 8.31592 121.692 8.55232 121.965 8.6874C122.102 8.75495 122.75 9.09267 123.33 8.75495C123.637 8.58609 123.671 8.55232 124.012 8.21459C124.081 9.83566 123.296 10.9839 122.307 11.4567C121.897 11.6594 120.738 12.0308 119.476 10.5449V18.0761L120.772 19.2243L121.863 18.3124L122 18.4813L118.555 21.3182L115.963 18.9541L115.007 19.8322L114.837 19.6634L116.269 18.38V11.862L115.178 10.4098L114.223 11.2203L114.087 11.0852L117.395 8.11328L119.34 10.4098Z" fill="#9BA2B2"/>
<path d="M128.07 13.5504L131.891 8.04549C131.891 8.04549 132.403 8.65339 133.289 8.85603C134.483 9.15997 135.541 8.01172 135.541 8.01172C135.336 9.4977 134.586 11.1525 133.016 11.4227C131.652 11.6591 130.356 10.5784 130.356 10.5784L130.117 10.9499L135.438 18.9201L136.495 18.0083L136.632 18.1771L132.983 21.3517L128.07 13.5504Z" fill="#9BA2B2"/>
<path d="M124.93 6.18765C124.93 5.00563 124.452 4.26264 123.805 4.33019L127.999 1.42578V17.8728L129.091 19.0211L129.944 18.3119L130.081 18.4807L126.704 21.3851L124.418 19.2575L123.498 20.068L123.361 19.8992L124.964 18.5145V6.18765" fill="#9BA2B2"/>
<path d="M98.0868 10.8149C98.0868 10.8149 97.6093 11.3214 96.893 11.3214C96.1767 11.3214 95.6992 10.8149 95.6992 10.8149V13.0776C95.6992 13.0776 96.1767 12.571 96.893 12.571C97.6093 12.571 98.0868 13.0776 98.0868 13.0776V10.8149ZM98.0868 5.98544L96.4837 4.56702L95.6992 5.17492V10.4434C95.6992 10.4434 96.1767 11.0512 96.893 11.0512C97.6093 11.0512 98.0868 10.4771 98.0868 10.4771V5.98544ZM95.6992 20.9465C95.6992 20.9465 96.6883 21.2167 97.3706 20.6425C98.155 20.0009 98.0868 19.0891 98.0868 19.0891V13.3815C98.0868 13.3815 97.6434 12.8075 96.893 12.8075C96.1767 12.8075 95.6992 13.4154 95.6992 13.4154V20.9465ZM89.9689 5.9179C89.9689 4.80342 89.5255 4.19552 88.7752 4.16175C87.7178 4.12798 87.4449 5.61396 87.4449 5.61396C87.4449 5.61396 87.2402 4.4657 88.2294 3.41876C88.7752 2.84464 89.7984 2.0341 91.3673 2.4056C93.0046 2.81086 93.4822 4.06043 93.4822 5.17492V20.4737C93.4822 20.4737 94.0961 20.5413 94.5395 20.6425C95.017 20.7439 95.4946 20.879 95.4946 20.879V2.43937H95.6992V4.93851L99.0419 2.27051L101.498 4.43192L102.658 3.45253L102.794 3.6214L101.601 4.63456V18.8526C101.532 19.7645 101.396 20.7101 100.509 21.2842C98.5303 22.4325 96.1427 21.1153 94.0279 20.8114C92.4589 20.575 89.9689 20.2711 89.355 21.7232C89.1503 22.1961 89.1503 22.9053 89.8666 23.3781C91.2991 24.3237 97.6775 21.7908 99.8605 22.804C101.873 23.7158 101.839 25.168 101.532 26.1812C101.021 28.0725 98.6326 28.3764 98.6326 28.3764C98.6326 28.3764 99.7922 27.7009 99.4853 26.5864C99.3147 26.0124 98.9395 25.8773 97.6775 26.0124C94.9488 26.3162 91.6744 27.6334 89.4573 26.7215C88.3317 26.2487 87.5131 24.8641 87.6155 23.4794C87.6836 21.4869 89.9689 20.7101 89.9689 20.7101V13.3815C89.9007 13.0776 88.6728 13.1789 88.3999 13.7192C87.9907 14.5298 88.9115 14.9013 88.9115 14.9013C88.9115 14.9013 88.1612 15.0027 87.5131 14.2934C87.2061 13.9219 86.5581 12.6724 87.4108 11.5241C88.0929 10.5784 88.9457 10.4096 90.0031 10.3083V5.9179H89.9689Z" fill="#9BA2B2"/>
</g>
<defs>
<clipPath id="clip0_1389_3945">
<rect width="199.932" height="28.7031" fill="white" transform="translate(0.53418 0.648438)"/>
</clipPath>
</defs>
</svg>
