<svg width="94" height="23" viewBox="0 0 94 23" fill="none" xmlns="http://www.w3.org/2000/svg">
<g clip-path="url(#clip0_1237_3664)">
<path d="M3.39377 0.509988H23.2351L22.3935 6.78171H2.58674L3.39377 0.509988ZM2.22934 9.08765H22.0938L21.4827 14.1897H9.06612L8.7432 16.6293H21.1829L20.4105 22.4554H0.5L2.22934 9.08765ZM23.5579 6.78171C23.5579 6.78171 23.6962 4.64286 24.2496 3.52888C24.7684 2.48174 25.4602 1.72423 26.6247 1.08926C27.3164 0.732785 28.55 0.509988 28.55 0.509988H64.2898C64.2898 0.509988 65.7885 0.532268 66.4342 0.788484C67.1259 1.06698 68.1289 1.47915 68.6592 2.72681C69.1781 3.91877 69.0744 4.30867 69.0744 5.50063C69.0744 6.67031 69.0397 6.78171 69.0397 6.78171H23.5579ZM23.2351 9.14335H41.5201C41.5201 9.14335 43.1457 9.14335 43.8951 9.5778C44.679 10.0791 45.0364 10.6918 45.267 11.661C45.486 12.6301 44.875 17.5205 44.5176 18.7125C44.1257 19.8821 43.6645 20.985 41.7736 21.8985C40.079 22.7339 37.5079 22.4554 37.5079 22.4554H21.7133L22.6472 16.6293H37.4389L37.7386 14.1563H27.5355C27.5355 14.1563 25.8754 14.3791 24.319 13.0758C23.3737 12.296 23.2698 11.1041 23.2121 10.5805C23.1429 10.2796 23.2351 9.14335 23.2351 9.14335ZM47.0193 9.14335H68.59C68.59 9.14335 68.394 11.5496 67.806 12.4073C67.2179 13.2985 66.6991 13.7775 65.7191 13.9891C64.7161 14.2119 63.2174 14.2119 63.2174 14.2119H53.8329L52.853 22.4553H45.3245L47.0193 9.14335ZM70.0543 6.83741H92.4664C92.4664 6.83741 92.893 4.94364 92.6624 3.75168C92.4318 2.55972 91.8784 1.75765 90.9677 1.17838C89.7688 0.365171 87.5782 0.509988 87.6127 0.509988H70.9649L70.0543 6.83741ZM69.766 9.14335H77.1906L75.4958 22.4554H68.1288L69.766 9.14335ZM84.6844 9.19905H92.0398L90.3452 22.4554H83.0243L84.6844 9.19905Z" fill="#9BA2B2"/>
</g>
<defs>
<clipPath id="clip0_1237_3664">
<rect width="93" height="22" fill="white" transform="translate(0.5 0.5)"/>
</clipPath>
</defs>
</svg>
