<svg width="45" height="38" viewBox="0 0 45 38" fill="none" xmlns="http://www.w3.org/2000/svg">
<g clip-path="url(#clip0_1237_3667)">
<path d="M39.5518 29.531C40.1167 28.9494 40.6349 28.319 41.1018 27.6523L44.3333 30.0917C40.9617 34.8797 35.4669 38 29.2586 38C19.6704 37.999 11.7852 30.5712 10.7909 21.0344H3.73483V34.6495L0 37.4432V0.471825H15.704L12.5257 4.53773H3.73483V16.9675H10.7909C11.7852 7.4298 19.6704 0.00286533 29.2586 0C35.4669 0.00286533 40.9617 3.1213 44.3333 7.90926L41.1018 10.3477C40.6349 9.68099 40.1167 9.05062 39.5518 8.47087C36.9113 5.77364 33.2838 4.10888 29.2586 4.10888C25.2306 4.10888 21.605 5.77364 18.9636 8.47087C16.3259 11.1729 14.7003 14.8816 14.7003 19.001C14.7003 23.1184 16.3259 26.83 18.9636 29.531C21.605 32.2292 25.2306 33.8911 29.2586 33.8911C33.2838 33.8911 36.9113 32.2292 39.5518 29.531ZM29.1737 12.3989C25.4492 12.4067 22.435 15.4979 22.4294 19.3176C22.435 23.1364 25.4492 26.2257 29.1737 26.2335C31.4785 26.2276 33.5113 25.0419 34.727 23.2294L38 25.7055C36.0447 28.5439 32.8199 30.4 29.1737 30.4C23.2039 30.3981 18.3667 25.4391 18.3667 19.3176C18.3667 13.1952 23.2039 8.23527 29.1737 8.23333C32.8199 8.23527 36.0447 10.0894 38 12.9278L34.727 15.4039C33.5113 13.5934 31.4785 12.4057 29.1737 12.3989Z" fill="#9BA2B2"/>
</g>
<defs>
<clipPath id="clip0_1237_3667">
<rect width="45" height="38" fill="white"/>
</clipPath>
</defs>
</svg>
