<svg width="140" height="26" viewBox="0 0 140 26" fill="none" xmlns="http://www.w3.org/2000/svg">
<g clip-path="url(#clip0_1237_3670)">
<path fill-rule="evenodd" clip-rule="evenodd" d="M41.1631 10.8856C39.6172 11.0788 38.6512 11.5297 38.0071 12.174C37.4916 12.6891 37.2342 13.3331 37.2342 13.9772C37.2342 15.1366 38.0715 15.9739 39.102 15.9739C39.7459 15.9739 40.39 15.716 40.7122 15.3299C40.8409 15.2009 40.9698 14.9434 40.9698 14.6858L41.163 10.8856H41.1631ZM43.8037 17.7771C42.5156 17.7771 41.356 16.9399 41.0342 15.652C40.39 16.8111 39.1664 17.7771 37.5562 17.7771C35.7528 17.7771 34.207 16.3602 34.207 14.5569C34.207 12.0449 36.5902 10.2417 41.0985 10.1772V9.53314C41.163 7.72982 40.1325 6.63465 38.329 6.63465C37.0406 6.63465 35.6884 7.47227 34.7867 8.56693C34.7224 8.63142 34.336 8.24516 34.336 8.18055C35.4951 5.86214 37.6206 4.57391 39.8104 4.57391C42.322 4.57391 44.1256 6.37736 44.0611 9.40431L43.8683 14.4282C43.8683 15.5876 44.3834 16.1027 44.963 16.1027C45.6069 16.1027 46.0578 15.5874 46.3154 14.8786C46.3154 14.8144 46.7017 15.0076 46.7017 15.072C46.7017 16.8111 45.4137 17.7771 43.8035 17.7771H43.8037ZM59.8408 17.3263H56.4274C56.3629 17.3263 56.3629 16.6824 56.4274 16.6824C57.8443 16.489 58.0375 16.3602 58.0375 13.5908V9.72646C58.0375 7.98736 57.0071 6.76374 55.5256 6.76374C54.4952 6.76374 53.529 7.27896 53.0781 7.92314C52.7561 8.30965 52.5629 9.01805 52.5629 9.91978V13.5908C52.5629 16.3603 52.8847 16.489 54.302 16.6824C54.302 16.6824 54.3662 17.3263 54.302 17.3263H47.7321C47.6679 17.3263 47.6679 16.6824 47.6679 16.6824C49.2136 16.4244 49.407 16.3602 49.407 13.5908V8.88909C49.407 6.05508 49.0848 5.92637 47.41 5.66882C47.2814 5.66882 47.3458 5.02464 47.41 5.02464H52.3051V7.85866H52.3697C53.4646 5.7974 55.1393 4.57378 57.2001 4.57378C59.5189 4.57378 61.3222 6.37723 61.3222 9.33995V13.5264C61.3222 16.296 61.5797 16.4247 63.1256 16.618C63.2543 16.618 63.1899 17.2619 63.1256 17.2619C62.1595 17.3263 60.7424 17.3263 59.8407 17.3263H59.8408ZM70.2103 17.7771C66.346 17.7771 63.8341 14.7501 63.8341 11.2721C63.8341 7.5365 66.3461 4.57365 70.4682 4.57365C72.4004 4.57365 73.3663 5.21783 73.9462 5.21783C74.2037 5.21783 74.4614 5.02464 74.5901 4.70261C74.5901 4.63813 75.3631 4.63813 75.3631 4.70261V9.33982C75.3631 9.40431 74.5902 9.40431 74.5902 9.33982C73.5598 7.21435 72.1428 5.41115 70.4685 5.41115C68.4071 5.41115 67.1835 7.60098 67.1835 10.6279C67.1835 13.8482 68.858 15.9739 71.1768 15.9739C72.7224 15.9739 74.4616 14.8789 75.1699 13.6551C75.2343 13.5262 75.7496 13.7841 75.7496 13.9131C74.9125 16.1027 72.7224 17.7771 70.2105 17.7771H70.2103ZM85.8613 9.5975V8.69577C85.8613 6.69913 84.8952 5.53986 83.6714 5.53986C82.1255 5.53986 80.9664 7.21435 80.7086 9.5975H85.8614H85.8613ZM80.7086 11.0787C80.7086 13.8482 82.2546 15.9737 84.8951 15.9737C86.4409 15.9737 87.9864 14.9433 88.824 13.6549C88.824 13.5907 89.3391 13.7839 89.3391 13.9128C88.6309 16.1027 86.312 17.777 83.7358 17.777C79.6783 17.777 77.2953 14.8143 77.2953 11.272C77.2953 7.72969 79.8071 4.57378 84.058 4.57378C87.2782 4.57378 89.4038 6.69913 89.597 9.5975V10.4992H80.8377C80.7087 10.6279 80.7087 10.95 80.7087 11.0789L80.7086 11.0787ZM96.0377 17.7771C94.0409 17.7771 92.3019 17.2622 91.7224 16.8754C91.658 16.8111 91.4648 15.1366 91.4648 13.462C91.4648 13.3977 92.2376 13.333 92.2376 13.462C93.268 15.7161 94.7494 17.0042 96.3597 17.0042C97.7122 17.0042 98.6783 16.296 98.6783 15.2009C98.6783 13.9129 97.1325 13.3331 95.5869 12.6247C93.7189 11.9163 91.5938 10.9501 91.5938 8.56719C91.5938 6.69913 93.2039 4.76697 96.231 4.76697C97.5194 4.76697 98.3564 5.28219 98.9362 5.28219C99.1937 5.28219 99.4513 5.08912 99.6443 4.76697C99.6443 4.70261 100.417 4.70261 100.417 4.76697V9.01805C100.417 9.08241 99.6443 9.08241 99.6443 9.01805C98.6139 7.08577 97.3903 5.73318 95.9088 5.73318C94.5561 5.73318 93.9118 6.6349 93.9118 7.34357C93.9118 8.63154 95.3934 9.14676 96.939 9.79094C98.8068 10.5637 100.997 11.5301 100.997 13.9773C100.997 16.0382 99.0648 17.777 96.0375 17.777L96.0377 17.7771ZM102.414 6.3771C102.221 6.3771 102.156 5.86176 102.349 5.73305C103.702 4.50917 105.956 2.4483 107.18 1.16006C107.244 1.09558 107.695 1.16006 107.695 1.28903V5.08874H112.075C112.204 5.08874 112.204 6.31249 112.075 6.31249H107.695V13.4617C107.695 15.0718 108.661 15.7802 109.692 15.7802C110.465 15.7802 111.302 15.1364 111.689 14.3633C111.689 14.2991 112.204 14.5566 112.204 14.6212C111.689 16.3603 110.014 17.7125 108.146 17.7125C106.149 17.7125 104.539 16.4244 104.539 13.9126V6.37697H102.414V6.3771ZM122.767 8.43835C122.38 8.43835 121.414 7.27896 120.705 7.27896C120.383 7.27896 119.997 7.47215 119.675 7.79417C119.16 8.30939 118.709 9.53327 118.709 10.5637V13.6553C118.709 16.4892 119.16 16.5535 120.641 16.7466C120.641 16.7466 120.706 17.3905 120.641 17.3905H113.814C113.75 17.3905 113.75 16.7467 113.814 16.7467C115.36 16.489 115.553 16.4246 115.553 13.6554V8.95332C115.553 6.18378 115.231 5.99059 113.557 5.73305C113.428 5.73305 113.492 5.08887 113.557 5.08887H118.516V8.30914H118.645C118.774 7.92275 119.031 7.47189 119.224 7.02103C120.126 5.5396 121.221 4.63788 122.38 4.63788C123.475 4.63788 124.377 5.47525 124.377 6.37697C124.441 7.40741 123.089 8.43784 122.767 8.43784V8.43835ZM136.098 10.1127L131.912 20.8687C130.431 24.6687 129.078 25.4417 127.275 25.4417C126.244 25.4417 125.085 24.9263 125.085 24.6044C125.021 24.0891 125.729 22.2214 126.115 22.2214C126.244 22.2214 127.79 22.9296 128.563 22.9296C129.658 22.9296 130.366 22.2214 130.946 20.6755L131.719 18.6144C131.461 17.5839 128.369 10.8213 127.983 9.9194C127.21 8.11594 126.695 6.69913 126.18 6.18378C125.858 5.86163 125.536 5.73305 124.634 5.60408C124.57 5.60408 124.57 4.9599 124.634 4.9599C125.471 4.9599 127.21 5.02426 128.177 5.02426C129.143 5.02426 130.817 4.95978 131.654 4.95978C131.719 4.95978 131.719 5.60396 131.654 5.60396C129.722 5.86137 129.915 6.50543 130.946 9.0819L133.2 14.5564L135.004 9.85466C135.648 8.24452 135.97 7.27845 135.97 6.69875C135.97 5.99008 135.519 5.73254 134.166 5.66831C134.102 5.66831 134.102 4.95965 134.166 4.95965C135.068 4.95965 136.227 5.024 137 5.024C137.58 5.024 138.16 4.95952 139.255 4.95952C139.319 4.95952 139.383 5.66818 139.255 5.66818C138.546 5.73241 138.224 5.9256 137.838 6.31198C137.322 6.82733 136.936 7.85776 136.099 10.112L136.098 10.1127Z" fill="#9BA2B2"/>
<path fill-rule="evenodd" clip-rule="evenodd" d="M19.5859 4.25096C17.3317 1.80345 15.0776 2.19009 14.6911 2.25432C14.8843 2.31867 15.0776 6.56963 17.4606 8.82382C19.0708 10.305 22.3555 9.78977 22.3555 9.78977C22.3555 9.78977 21.7758 6.63398 19.586 4.25096H19.5859ZM22.2913 12.5596C21.5826 12.5596 18.6844 12.8172 16.7522 15.2001C14.7556 17.7121 14.8199 19.7088 14.3691 20.1595C14.7556 20.2885 18.8132 20.6747 20.5522 18.0341C22.2267 15.5864 22.2913 12.9458 22.2913 12.5594V12.5596ZM4.64357 10.8202C5.09431 10.8848 6.64021 12.8815 9.40975 13.139C12.4368 13.4613 13.4672 11.9155 13.5318 11.9155C13.5318 11.7222 11.0843 9.08162 8.3793 9.08162C6.51124 9.14584 4.64357 10.8203 4.64357 10.8203V10.8202ZM15.6571 12.173C15.5927 12.2374 13.081 15.5866 7.15543 14.6849C2.38925 13.912 0.650279 11.2712 0.328125 11.2068C0.714634 10.6915 4.32154 7.79325 8.50776 7.85761C12.63 7.98657 15.6569 10.3051 15.6569 10.3051H18.2975C16.1723 9.66106 13.5961 8.50179 12.4367 5.92545C11.4062 3.54255 11.5994 2.12548 11.1486 0.128964C11.1486 0.128964 15.9146 -0.257545 19.5859 2.12548C22.9351 4.31531 24.8028 10.1119 24.8673 10.3051H26.9281L26.4775 0L29.0537 0.0643543C28.603 2.76953 29.1827 22.0917 29.0537 22.0917C28.7962 22.1559 26.6062 22.2845 26.4132 21.7694C26.4132 21.7694 26.9284 12.3016 26.9929 12.1083H24.996C24.996 12.2373 24.8028 17.5829 20.7453 20.4169C16.6874 23.2508 10.8265 22.4134 10.8265 22.4134C11.5352 21.3185 10.8265 20.1592 12.8874 17.0033C15.2706 13.3965 18.4265 12.1083 18.3622 12.1083C18.169 12.1729 15.7217 12.1729 15.6571 12.1729" fill="#9BA2B2"/>
</g>
<defs>
<clipPath id="clip0_1237_3670">
<rect width="139" height="26" fill="white" transform="translate(0.328125)"/>
</clipPath>
</defs>
</svg>
