<svg width="120" height="40" viewBox="0 0 120 40" fill="none" xmlns="http://www.w3.org/2000/svg">
<g clip-path="url(#clip0_1237_3674)">
<path fill-rule="evenodd" clip-rule="evenodd" d="M10.6002 39.9463C7.68998 39.9463 5.23364 38.9801 3.28459 37.0209C1.33553 35.0616 0.347656 32.6461 0.347656 29.7743C0.347656 26.9025 1.33553 24.4601 3.31129 22.4472C5.31374 20.4342 7.74337 19.4412 10.6269 19.4412C13.5105 19.4412 15.9401 20.4342 17.9159 22.4472C19.9183 24.4601 20.9062 26.8756 20.9062 29.7206C20.9062 32.5655 19.9183 34.9811 17.9159 36.9672C15.9401 38.9533 13.5105 39.9463 10.6002 39.9463ZM16.7945 29.7206C16.7945 27.8955 16.2071 26.3925 15.0056 25.1848C13.8042 23.977 12.3624 23.3597 10.6269 23.3597C8.89145 23.3597 7.44968 23.977 6.24821 25.1848C5.04674 26.3925 4.45936 27.9224 4.45936 29.7206C4.45936 31.5188 5.04674 33.0218 6.22151 34.2296C7.42298 35.4373 8.89145 36.0278 10.6269 36.0278C12.3624 36.0278 13.8309 35.4373 15.0323 34.2296C16.2338 33.0218 16.8212 31.5188 16.7945 29.7206ZM26.1159 39.6243V31.7872C26.1159 29.6132 27.4509 28.0834 29.4533 28.0834C31.2956 28.0834 32.5237 29.3717 32.5237 31.7067V39.6243H36.2883V30.6868C36.2883 28.7275 35.7276 27.2245 34.633 26.1778C33.5383 25.1311 32.1766 24.5943 30.6014 24.5943C28.5455 24.5943 26.8101 25.6142 26.0358 27.0367V24.9969H22.3513V39.6243H26.1159ZM52.3914 31.9751C52.3914 32.485 52.338 33.0486 52.2579 33.6391H41.3378C41.8718 35.7057 43.2869 36.7525 45.583 36.7525C47.1583 36.7525 49.0273 36.1352 50.2821 35.2763L51.7773 37.9334C49.935 39.2753 47.8258 39.9463 45.4228 39.9463C42.8597 39.9463 40.9107 39.1948 39.549 37.7187C38.1873 36.2425 37.5198 34.4174 37.5198 32.2971C37.5198 30.0695 38.214 28.2444 39.6291 26.7951C41.0442 25.3458 42.8597 24.6211 45.1025 24.6211C47.2117 24.6211 48.9739 25.2921 50.3355 26.6072C51.6972 27.9224 52.3914 29.6937 52.3914 31.9751ZM45.1025 27.7613C43.2068 27.7613 41.7917 28.9154 41.3378 30.821H48.7336C48.3865 28.9154 47.0248 27.7613 45.1025 27.7613ZM59.737 39.9463C56.6666 39.9463 53.8899 38.6312 52.2612 36.2425L54.5307 33.4781C55.8122 35.2763 57.7346 36.2425 59.7637 36.2425C61.3924 36.2425 62.5939 35.3837 62.5939 34.1222C62.5939 33.317 62.0065 32.6192 60.805 32.0556C60.538 31.9214 59.8972 31.6798 58.8559 31.2773C57.8414 30.8747 57.0671 30.4989 56.5331 30.2037C54.4506 28.9959 53.4093 27.3587 53.4093 25.2653C53.4093 23.6012 54.0234 22.2324 55.2782 21.132C56.5331 20.0316 58.1618 19.468 60.1375 19.468C62.7006 19.468 64.8633 20.3537 66.6254 22.1519L64.5162 25.0506C63.4215 23.8696 61.6594 23.1987 60.1909 23.1987C58.6157 23.1987 57.6545 23.9502 57.6545 25.1042C57.6545 25.8826 58.1885 26.5267 59.2564 27.0635L61.2055 27.9224C62.3002 28.3786 63.1011 28.7275 63.6084 28.9691C65.8512 30.0695 66.9725 31.7067 66.9725 33.9075C66.9725 35.6789 66.3051 37.1282 64.9701 38.2555C63.6351 39.3827 61.8997 39.9463 59.737 39.9463ZM67.6167 32.2971C67.6167 30.15 68.3375 28.3249 69.806 26.8488C71.2745 25.3458 73.1434 24.5943 75.4129 24.5943C77.6823 24.5943 79.5513 25.3458 81.0197 26.8488C82.4882 28.3249 83.2091 30.15 83.2091 32.2971C83.2091 34.4711 82.4882 36.2962 81.0197 37.7723C79.5513 39.2485 77.6823 40 75.4129 40C73.1434 40 71.2745 39.2485 69.806 37.7723C68.3375 36.2962 67.6167 34.4711 67.6167 32.2971ZM72.5293 35.2763C73.3036 36.0815 74.2648 36.4841 75.4129 36.4841C76.5609 36.4841 77.4954 36.0815 78.2697 35.2763C79.044 34.4443 79.4445 33.4512 79.4445 32.2971C79.4445 31.1431 79.044 30.15 78.2697 29.3448C77.4954 28.5397 76.5609 28.1371 75.4129 28.1371C74.2648 28.1371 73.3036 28.5397 72.5293 29.3448C71.7551 30.15 71.3813 31.1431 71.3813 32.2971C71.3813 33.4512 71.7551 34.4443 72.5293 35.2763ZM88.2052 22.6887C89.0863 21.803 89.0863 20.2463 88.2052 19.3875C87.3241 18.5018 85.7755 18.5018 84.8945 19.3875C84.0134 20.2463 84.0134 21.803 84.8945 22.6887C85.7755 23.5744 87.3241 23.5744 88.2052 22.6887ZM88.4188 24.9969H84.6542V39.6243H88.4188V24.9969ZM94.296 19.2264V39.6243H90.5314V19.2264H94.296ZM101.205 1.10143L102.067 0C103.131 0.524515 108.753 1.6749 112.169 3.17151C113.873 3.91982 115.599 4.94087 116.9 6.5284C118.201 8.11593 119.015 10.2769 119.015 12.8505C119.015 15.62 117.797 17.5921 116.566 18.7251C115.974 19.2706 115.376 19.6482 114.896 19.9C115.439 22.5436 115.453 25.1172 115.453 27.2292H111.891C111.891 22.3198 112.169 17.1865 106.715 12.8505L108.885 9.99719C111.313 11.9274 112.872 14.0954 113.839 16.3193C113.943 16.2354 114.006 16.2004 114.117 16.0955C114.778 15.4801 115.453 14.6199 115.453 12.8505C115.453 10.9973 114.924 9.80836 114.117 8.82228C113.31 7.83619 112.169 7.02494 110.777 6.4165C108.419 5.38146 105.852 4.91989 103.653 4.12263C102.972 5.22761 101.205 8.38168 101.205 13.6338C101.205 17.0467 102.13 18.5083 102.93 19.2286C103.73 19.949 104.676 20.0679 105.045 20.0679C105.678 20.0679 106.951 19.3965 108.551 18.7251L109.887 22.026C108.656 22.5436 107.174 23.6485 105.045 23.6485C104.071 23.6485 102.199 23.3618 100.537 21.8582C99.8047 21.1965 99.2917 20.6236 98.66 19.1904C98.0283 17.7572 97.6422 15.9246 97.6422 13.6338C97.6422 8.67308 98.8296 4.49562 101.205 1.10143Z" fill="#9BA2B2"/>
</g>
<defs>
<clipPath id="clip0_1237_3674">
<rect width="119" height="40" fill="white" transform="translate(0.347656)"/>
</clipPath>
</defs>
</svg>
