<svg width="67" height="42" viewBox="0 0 67 42" fill="none" xmlns="http://www.w3.org/2000/svg">
<g clip-path="url(#clip0_1237_3677)">
<path fill-rule="evenodd" clip-rule="evenodd" d="M53.7919 33.7091H48.6155C48.3439 33.6853 48.0704 33.7191 47.8128 33.8084C47.5552 33.8976 47.3193 34.0403 47.1207 34.2271C46.922 34.4138 46.765 34.6403 46.66 34.8919C46.555 35.1435 46.5044 35.4146 46.5113 35.687V37.6651C46.5113 37.9228 46.5627 38.178 46.6626 38.4156C46.7625 38.6533 46.9089 38.8687 47.0931 39.049C47.2774 39.2292 47.4958 39.371 47.7355 39.4657C47.9753 39.5605 48.2315 39.6064 48.4893 39.6008H53.6656C54.179 39.6008 54.6714 39.3969 55.0345 39.0338C55.3975 38.6708 55.6015 38.1784 55.6015 37.6651V35.687C55.6072 35.4258 55.56 35.166 55.4626 34.9234C55.3653 34.6809 55.2198 34.4604 55.0349 34.2757C54.8501 34.0909 54.6298 33.9454 54.3872 33.8479C54.1446 33.7507 53.8848 33.7033 53.6235 33.7091H53.7919ZM53.9602 37.6651C53.9602 37.7097 53.9425 37.7524 53.9109 37.784C53.8793 37.8157 53.8365 37.8334 53.7919 37.8334H48.6155C48.5913 37.8476 48.564 37.8554 48.5359 37.8564C48.5079 37.8573 48.4801 37.8512 48.455 37.8387C48.4299 37.8262 48.4084 37.8075 48.3923 37.7846C48.3762 37.7616 48.3662 37.735 48.363 37.7071V35.687C48.363 35.5609 48.4472 35.5187 48.5734 35.5187H53.7498C53.8339 35.5187 53.9181 35.5187 53.9181 35.687V37.6651H53.9602ZM45.1225 35.5608C45.0384 35.4766 44.9542 35.4766 44.9121 35.5608L44.3229 36.5288C44.3008 36.5672 44.2891 36.6106 44.2891 36.6549C44.2891 36.6993 44.3008 36.7428 44.3229 36.7812L44.9121 37.7912H45.0805L45.6696 36.7812C45.6918 36.7428 45.7035 36.6993 45.7035 36.6549C45.7035 36.6106 45.6918 36.5672 45.6696 36.5288L45.0805 35.5608H45.1225ZM64.0183 33.7091H56.7798V41.9996H58.5474V39.6008H64.0183C64.5244 39.5898 65.006 39.381 65.36 39.0192C65.714 38.6573 65.9122 38.1713 65.9121 37.6651V35.687C65.9177 35.4328 65.8731 35.18 65.7809 34.943C65.6888 34.706 65.5508 34.4894 65.375 34.3057C65.1991 34.122 64.9888 33.9748 64.756 33.8724C64.5232 33.77 64.2725 33.7145 64.0183 33.7091ZM64.1445 37.6651C64.1454 37.6912 64.1401 37.7171 64.1292 37.7408C64.1182 37.7646 64.1019 37.7854 64.0814 37.8018C64.061 37.8181 64.0371 37.8295 64.0115 37.8349C63.9859 37.8405 63.9594 37.8399 63.9341 37.8334H58.4632V35.5608H63.9341C64.0183 35.5608 64.1025 35.5608 64.1025 35.7291V37.7071L64.1445 37.6651ZM59.6836 31.8995H64.6496C64.9703 31.9002 65.2793 31.7788 65.5138 31.5599C65.7483 31.3411 65.8907 31.0411 65.9121 30.7211V15.7812H59.6836V31.8995ZM24.7539 35.687V37.6651C24.7538 37.9228 24.8052 38.178 24.9051 38.4156C25.005 38.6533 25.1514 38.8687 25.3357 39.049C25.5199 39.2292 25.7383 39.371 25.9781 39.4657C26.2178 39.5605 26.4741 39.6064 26.7318 39.6008H33.1707V37.7912H26.7318C26.701 37.7841 26.6729 37.7686 26.6506 37.7463C26.6282 37.7239 26.6126 37.6958 26.6056 37.6651V35.687C26.6056 35.5609 26.6056 35.5187 26.7739 35.5187H33.2128V33.7091H26.7318C26.474 33.709 26.2188 33.7604 25.9811 33.8603C25.7435 33.9602 25.5282 34.1067 25.3478 34.291C25.1675 34.4752 25.0258 34.6936 24.931 34.9333C24.8363 35.173 24.7903 35.4293 24.7959 35.687H24.7539ZM45.4171 31.8995H57.2007V28.5327H50.2989V25.5868H57.2007V22.136H50.2989V19.1901H57.2007V15.8233H44.1546V30.6369C44.1546 30.9718 44.2876 31.2929 44.5244 31.5297C44.7612 31.7664 45.0823 31.8995 45.4171 31.8995Z" fill="#9BA2B2"/>
<path fill-rule="evenodd" clip-rule="evenodd" d="M24.7959 20.8316V31.8997H31.0243V27.6913H32.918L35.8639 31.8997H42.7237L39.1885 26.6813L41.6295 24.2404V15.8236H35.4431L31.0243 18.012V16.4128C31.0243 16.0761 30.7297 15.7815 30.351 15.7815H28.6675L38.3049 2.86172L49.8779 13.1723L55.7697 6.73345L63.3448 13.1723H65.8699L55.7697 4.25049L49.0363 9.84767L39.1045 1.17835L37.8419 0L17.0523 20.7054L14.6536 15.7815H16.6315L10.5294 4.25049L4.55341 15.7815H6.44719L2.40712 23.9037H4.93216L0.21875 33.6673L22.6075 39.559L18.1887 29.5851L24.7959 20.7474V20.8316ZM31.0243 21.547L35.4431 19.2745V23.9037H31.0243V21.547Z" fill="#9BA2B2"/>
<path fill-rule="evenodd" clip-rule="evenodd" d="M41.4595 33.709H36.1569C35.6509 33.7309 35.1736 33.9502 34.8274 34.32C34.4812 34.6898 34.2938 35.1805 34.3052 35.6869V37.6649C34.3051 38.1711 34.5033 38.6572 34.8573 39.0191C35.2113 39.3809 35.6929 39.5897 36.199 39.6007H41.4595C41.9656 39.5897 42.4473 39.3809 42.8013 39.0191C43.1553 38.6572 43.3534 38.1711 43.3533 37.6649V35.6869C43.3589 35.4292 43.313 35.1729 43.2182 34.9332C43.1234 34.6934 42.9817 34.475 42.8014 34.2908C42.6211 34.1065 42.4058 33.9602 42.1681 33.8603C41.9305 33.7603 41.6752 33.7089 41.4174 33.709H41.4595ZM41.5858 37.6649C41.5858 37.687 41.5814 37.7089 41.573 37.7293C41.5645 37.7497 41.5521 37.7683 41.5365 37.7839C41.5208 37.7995 41.5023 37.8119 41.4819 37.8204C41.4614 37.8289 41.4395 37.8332 41.4174 37.8332H36.1569C36.1187 37.8344 36.0812 37.8226 36.0506 37.7996C36.02 37.7767 35.9981 37.744 35.9886 37.707V35.6869C35.9886 35.5607 36.1149 35.5186 36.199 35.5186H41.4595C41.4595 35.5186 41.5858 35.5186 41.5858 35.6869V37.6649Z" fill="#9BA2B2"/>
</g>
<defs>
<clipPath id="clip0_1237_3677">
<rect width="66" height="42" fill="white" transform="translate(0.21875)"/>
</clipPath>
</defs>
</svg>
