<svg width="141" height="26" viewBox="0 0 141 26" fill="none" xmlns="http://www.w3.org/2000/svg">
<g clip-path="url(#clip0_1237_3682)">
<path fill-rule="evenodd" clip-rule="evenodd" d="M64.7161 2.84766H62.9936C62.7757 2.84766 62.5667 2.93424 62.4126 3.08836C62.2584 3.24247 62.1719 3.4515 62.1719 3.66945V21.4989C62.1719 21.9539 62.5396 22.3216 62.9946 22.3216H64.7161C64.9342 22.3214 65.1432 22.2346 65.2973 22.0803C65.4514 21.9261 65.5379 21.717 65.5379 21.4989V3.67038C65.538 3.56238 65.5169 3.45542 65.4756 3.35561C65.4344 3.2558 65.3739 3.16509 65.2976 3.08869C65.2212 3.01228 65.1306 2.95166 65.0308 2.91031C64.9311 2.86895 64.8241 2.84766 64.7161 2.84766ZM71.9655 2.84766H70.243C70.025 2.84766 69.816 2.93424 69.6619 3.08836C69.5078 3.24247 69.4212 3.4515 69.4212 3.66945V21.4989C69.4212 21.9539 69.7889 22.3216 70.2439 22.3216H71.9655C72.1835 22.3214 72.3926 22.2346 72.5466 22.0803C72.7007 21.9261 72.7873 21.717 72.7873 21.4989V3.67038C72.7874 3.56238 72.7662 3.45542 72.725 3.35561C72.6837 3.2558 72.6232 3.16509 72.5469 3.08869C72.4706 3.01228 72.38 2.95166 72.2802 2.91031C72.1804 2.86895 72.0735 2.84766 71.9655 2.84766ZM124.678 2.84766H122.955C122.737 2.84766 122.528 2.93424 122.374 3.08836C122.22 3.24247 122.133 3.4515 122.133 3.66945V21.4989C122.133 21.9539 122.501 22.3216 122.955 22.3216H124.678C124.896 22.3214 125.105 22.2346 125.259 22.0803C125.413 21.9261 125.499 21.717 125.499 21.4989V3.67038C125.5 3.56238 125.478 3.45542 125.437 3.35561C125.396 3.2558 125.335 3.16509 125.259 3.08869C125.183 3.01228 125.092 2.95166 124.992 2.91031C124.893 2.86895 124.786 2.84766 124.678 2.84766ZM117.412 8.13495H115.689C115.471 8.13495 115.262 8.22153 115.108 8.37564C114.954 8.52976 114.867 8.73878 114.867 8.95674V21.4998C114.867 21.953 115.235 22.3216 115.69 22.3216H117.412C117.629 22.3216 117.839 22.2351 117.993 22.0809C118.147 21.9268 118.233 21.7178 118.233 21.4998V8.95674C118.233 8.73878 118.147 8.52976 117.993 8.37564C117.839 8.22153 117.629 8.13495 117.412 8.13495ZM89.132 2.84766H74.9741C74.7561 2.84766 74.5471 2.93424 74.393 3.08836C74.2389 3.24247 74.1523 3.4515 74.1523 3.66945V5.20159C74.1523 5.65473 74.5209 6.02338 74.9741 6.02338H80.3301V21.4989C80.3301 21.9539 80.6987 22.3216 81.1528 22.3216H82.9505C83.1685 22.3214 83.3776 22.2346 83.5316 22.0803C83.6857 21.9261 83.7723 21.717 83.7723 21.4989V6.02338H89.132C89.35 6.02313 89.5591 5.93634 89.7131 5.78208C89.8672 5.62782 89.9538 5.4187 89.9538 5.20066V3.66945C89.9538 3.56153 89.9325 3.45467 89.8912 3.35496C89.8499 3.25526 89.7894 3.16467 89.7131 3.08836C89.6368 3.01205 89.5462 2.95152 89.4465 2.91022C89.3468 2.86892 89.2399 2.84766 89.132 2.84766Z" fill="#9BA2B2"/>
<path fill-rule="evenodd" clip-rule="evenodd" d="M96.4419 7.38217C96.4106 7.38215 96.3793 7.38401 96.3482 7.38774L96.3491 7.38589C94.2709 7.62639 92.8669 9.01739 92.0619 10.9451V8.95796C92.0616 8.73992 91.9748 8.5309 91.8206 8.37681C91.6663 8.22272 91.4572 8.13617 91.2391 8.13617H89.5176C89.4096 8.13617 89.3026 8.15746 89.2029 8.19882C89.1031 8.24017 89.0125 8.30079 88.9362 8.3772C88.8598 8.4536 88.7993 8.54431 88.7581 8.64412C88.7168 8.74393 88.6957 8.85089 88.6958 8.95889V21.5002C88.6958 21.9552 89.0635 22.3229 89.5176 22.3229H91.2391C91.4573 22.3229 91.6666 22.2362 91.8209 22.0819C91.9752 21.9276 92.0619 21.7184 92.0619 21.5002V16.7301C92.0619 13.1597 93.7946 11.2506 96.3565 10.9581L96.3556 10.9562C96.8672 10.8977 97.2637 10.4641 97.2637 9.93667V8.20396C97.2637 7.98601 97.1771 7.77698 97.023 7.62287C96.8689 7.46875 96.6599 7.38217 96.4419 7.38217ZM107.875 17.0096C107.875 18.8463 106.206 20.098 103.98 20.098C102.395 20.098 101.143 19.318 101.143 17.928V17.8722C101.143 16.4534 102.395 15.5907 104.509 15.5907C105.817 15.5907 107.013 15.8415 107.875 16.1748V17.0096ZM104.676 7.41189C102.634 7.41189 101.178 7.77774 99.7922 8.33489C99.6009 8.41528 99.447 8.56503 99.3614 8.75411C99.2758 8.94319 99.2649 9.15764 99.3307 9.35446L99.3279 9.35074L99.7291 10.5319L99.73 10.531C99.7665 10.6338 99.8231 10.7283 99.8964 10.809C99.9698 10.8898 100.059 10.9551 100.157 11.0013C100.256 11.0474 100.363 11.0734 100.472 11.0778C100.581 11.0822 100.69 11.0649 100.792 11.0268C101.842 10.648 102.889 10.4158 104.203 10.4158C106.54 10.4158 107.82 11.5292 107.82 13.56V13.8376C106.679 13.4755 105.538 13.2266 103.758 13.2266C100.336 13.2266 97.806 14.7838 97.806 18.0385V18.0942C97.806 21.0433 100.253 22.6293 103.035 22.6293C105.26 22.6293 106.791 21.71 107.792 20.515V21.5011C107.792 21.9552 108.16 22.3229 108.614 22.3229H110.308C110.416 22.3229 110.523 22.3016 110.623 22.2603C110.722 22.219 110.813 22.1585 110.889 22.0822C110.966 22.0059 111.026 21.9153 111.067 21.8156C111.109 21.7159 111.13 21.609 111.13 21.5011V13.6157C111.13 9.69339 109.016 7.41189 104.676 7.41189ZM118.418 4.38289C118.418 3.88714 118.221 3.4117 117.871 3.06115C117.52 2.71061 117.045 2.51367 116.549 2.51367C116.053 2.51367 115.578 2.71061 115.227 3.06115C114.877 3.4117 114.68 3.88714 114.68 4.38289C114.68 4.87863 114.877 5.35407 115.227 5.70462C115.578 6.05517 116.053 6.2521 116.549 6.2521C117.045 6.2521 117.52 6.05517 117.871 5.70462C118.221 5.35407 118.418 4.87863 118.418 4.38289ZM135.421 13.6435C133.696 13.0864 132.111 12.6407 132.111 11.5849V11.5292C132.111 10.6656 132.863 10.0546 134.17 10.0546C135.201 10.0546 136.431 10.4316 137.643 11.0658C137.827 11.1555 138.038 11.1729 138.234 11.1144C138.431 11.056 138.598 10.926 138.703 10.7501L139.158 9.93574C139.238 9.78996 139.285 9.60889 139.285 9.42967C139.285 9.03317 139.06 8.68867 138.73 8.51689H138.731C137.347 7.80653 135.745 7.38403 134.252 7.38403C131.332 7.38403 129.023 9.08053 129.023 11.8635V11.9192C129.023 14.7281 131.443 15.6186 133.613 16.2305C135.338 16.7589 136.896 17.1489 136.896 18.2892V18.3449C136.896 19.319 136.061 19.9309 134.614 19.9309C133.314 19.9309 131.847 19.4712 130.449 18.5724C130.266 18.4635 130.048 18.4296 129.841 18.4779C129.634 18.5262 129.454 18.653 129.338 18.8315L129.336 18.8287L128.839 19.5845H128.84C128.697 19.8062 128.646 20.0744 128.696 20.3331C128.746 20.5918 128.894 20.8212 129.109 20.9737C130.788 22.0452 132.741 22.6015 134.532 22.6015C137.591 22.6015 139.983 21.0712 139.983 17.9827V17.927C139.983 15.2852 137.564 14.3112 135.421 13.6435ZM50.9837 6.79903L54.3219 14.5897L54.6841 15.4672H47.2834L47.6455 14.5888L50.9837 6.79903ZM60.5814 21.178L52.7304 3.20453H52.7294C52.6655 3.05743 52.56 2.93221 52.4259 2.84428C52.2918 2.75635 52.1349 2.70954 51.9745 2.7096H49.9948C49.8344 2.70942 49.6774 2.75618 49.5433 2.84413C49.4091 2.93207 49.3037 3.05736 49.2399 3.20453H49.2389L41.386 21.1789V21.177C41.3328 21.3021 41.3113 21.4385 41.3237 21.5739C41.336 21.7093 41.3817 21.8395 41.4567 21.9529C41.5316 22.0663 41.6335 22.1594 41.7533 22.2238C41.873 22.2882 42.0068 22.3219 42.1428 22.322H43.5765C44.0807 22.322 44.5125 22.0202 44.7047 21.5884L46.0205 18.499H55.9488L57.2646 21.5875C57.4568 22.0202 57.8886 22.322 58.3928 22.322H59.8256C59.9615 22.3219 60.0954 22.2882 60.2151 22.2238C60.3348 22.1594 60.4367 22.0663 60.5117 21.9529C60.5867 21.8395 60.6324 21.7093 60.6447 21.5739C60.657 21.4385 60.6356 21.3021 60.5824 21.177L60.5814 21.178Z" fill="#9BA2B2"/>
<path fill-rule="evenodd" clip-rule="evenodd" d="M36.3474 22.6822C30.5633 16.5769 18.1697 14.0251 10.2546 17.8434L18.5346 6.37557L22.4903 12.6379C22.543 12.7255 22.6128 12.8016 22.6956 12.8618C22.7783 12.9219 22.8723 12.9647 22.9719 12.9878C23.0715 13.0108 23.1748 13.0136 23.2755 12.9959C23.3762 12.9782 23.4724 12.9405 23.5582 12.8849H23.5601L23.5693 12.8784C23.5707 12.8777 23.572 12.8767 23.5731 12.8756L26.5575 10.8791C26.5575 10.8791 31.2124 15.8906 33.7613 18.6281L33.7688 18.6355L33.7716 18.6392L33.7725 18.6383C33.8133 18.6766 33.8644 18.7021 33.9196 18.7118C33.9747 18.7215 34.0314 18.7149 34.0829 18.6928C34.1343 18.6707 34.1782 18.6341 34.2091 18.5875C34.2401 18.5409 34.2568 18.4863 34.2572 18.4303C34.2572 18.382 34.2442 18.3374 34.2228 18.2975L34.2238 18.2966C32.7288 15.6808 30.0554 11.0519 27.8296 7.21871C27.448 6.56593 26.9995 6.46193 26.3467 6.89L24.3298 8.27543L19.2431 0.413214L19.2162 0.372357L19.2078 0.360286H19.206C19.1251 0.248873 19.019 0.158163 18.8963 0.0955513C18.7737 0.0329397 18.638 0.000199401 18.5003 0C18.3734 0.000515221 18.2481 0.0286009 18.1332 0.0823125C18.0182 0.136024 17.9163 0.214078 17.8345 0.311071H17.8308C17.8178 0.327872 17.8051 0.344898 17.7927 0.362143C17.7834 0.374214 17.7741 0.385357 17.7667 0.397429C12.131 7.96163 6.48284 15.5165 0.822153 23.062L0.823081 23.0639C0.754743 23.1589 0.713882 23.271 0.704974 23.3877C0.696067 23.5044 0.719455 23.6214 0.772579 23.7257C0.825702 23.83 0.906511 23.9177 1.00616 23.9792C1.1058 24.0406 1.22044 24.0735 1.33751 24.0741C1.4337 24.0737 1.52845 24.0508 1.61422 24.0073L1.61608 24.0091C1.76187 23.9395 1.91693 23.8559 2.07201 23.7714C6.79844 21.3265 17.412 17.7617 24.7477 23.3824C27.9689 26.1161 39.2046 25.4995 36.3474 22.6822Z" fill="#9BA2B2"/>
</g>
<defs>
<clipPath id="clip0_1237_3682">
<rect width="140" height="26" fill="white" transform="translate(0.703125)"/>
</clipPath>
</defs>
</svg>
