<svg width="121" height="30" viewBox="0 0 121 30" fill="none" xmlns="http://www.w3.org/2000/svg">
<g clip-path="url(#clip0_1389_3964)">
<path d="M76.9674 19.5652C76.6413 19.6467 75.5815 19.9728 75.2554 20.1359C75.2554 21.1141 75.0924 25.5978 75.0924 25.5978C75.0108 27.6359 74.1141 29.0218 71.75 30L70.8532 29.7554C71.9945 29.1033 72.5652 28.4511 72.6467 27.962C72.8913 27.3098 72.9728 25.7609 72.9728 22.9891C72.9728 22.9891 72.9728 20.8695 72.8912 20.1359C72.5652 20.0543 71.0978 19.7283 70.6086 19.6467V18.9946C71.5054 18.9946 73.6249 19.0761 74.3586 19.0761C75.1739 19.0761 76.1521 19.0761 76.9673 18.9946V19.5652H76.9674ZM115.038 20.8696C114.875 20.9511 114.386 21.0326 113.897 21.1141C113.897 21.8478 113.978 27.1467 113.978 28.3695C113.978 28.5326 113.815 28.6141 113.571 28.4511C112.429 27.3098 108.761 23.1522 107.538 21.6848C107.538 22.6631 107.62 26.413 107.62 27.0652C108.109 27.2283 109.168 27.4728 109.331 27.4728L109.413 28.2065H105.418V27.4728C105.826 27.3098 106.152 27.1468 106.56 27.0652C106.641 26.6576 106.641 21.4402 106.641 21.0326C106.315 21.0326 105.745 20.9511 105.337 20.9511V20.0543H108.272C109.331 21.2772 111.859 24.0489 113.163 25.5163C113.163 24.2935 113.081 21.4402 113.081 20.9511C112.837 20.9511 112.348 20.8696 111.859 20.788L111.777 20.0543C112.022 20.0543 113.408 20.1359 113.652 20.1359C113.897 20.1359 115.038 20.0543 115.283 20.0543L115.038 20.8696ZM93.3532 23.0706C93.3532 24.0489 92.4565 24.4565 91.3967 24.6195V25.3532C93.5163 25.1087 94.9021 24.2935 94.9021 22.9891V22.9076C94.9021 21.4402 93.9239 20.1358 91.6413 20.1358H87.2391L87.4021 20.9511C87.8098 21.0326 88.3804 21.0326 88.788 21.0326C88.788 22.0109 88.9511 26.1685 88.8695 27.3913C88.625 27.4728 87.8098 27.6358 87.4837 27.7174L87.4021 28.451H92.4565V27.8804C92.1304 27.7989 90.9891 27.5543 90.7445 27.5543C90.7445 27.3097 90.663 21.4402 90.663 21.1141C91.1521 21.1141 91.9674 21.1141 92.2934 21.1956C93.1902 21.4402 93.4348 22.3369 93.4348 22.9891L93.3532 23.0706ZM33.5978 4.23911C33.0272 4.32064 30.5815 4.80977 29.7663 4.9728C28.8696 5.21737 20.5543 11.7391 19.9837 13.288C19.9022 13.7772 19.9837 19.4837 19.9837 19.4837L24.7119 19.8098L24.5489 21.3587C23.8967 21.2771 19.4946 21.3587 16.7228 21.3587C15.3369 21.3587 11.0978 21.5217 9.63042 21.4402L9.79346 19.9728C10.6902 20.0543 12.0761 19.8913 12.8913 19.6467C13.7065 19.4022 14.3587 19.0761 14.3587 18.2609V13.3696C14.0326 12.4728 7.10327 3.75001 5.30977 2.36413C4.82064 2.20107 1.31522 1.79346 0.5 1.63043L0.663043 0.163052H16.5598L16.3152 1.54893C15.5815 1.71198 12.2391 1.79349 11.3424 2.03807C13.625 5.38047 17.2119 9.78263 18.3533 11.4131C19.0054 10.5163 25.1196 6.19568 25.2826 4.89133C24.3859 4.72828 21.5326 4.32067 21.0435 4.32067L20.7989 2.85328H34.4946L33.5978 4.23916V4.23911ZM67.5109 16.9565C64.9837 16.7935 60.5815 16.875 58.0543 16.9565L58.2174 15.6522C58.625 15.6522 60.663 15.3261 61.1522 15.2445V10.6793C59.9293 10.6793 52.9185 10.8424 51.8587 11.0869V15.163C51.8587 15.163 54.875 15.4891 55.5272 15.5706L55.3641 16.9565C52.6739 16.7935 47.2119 16.7935 44.6033 16.9565L44.7663 15.4891C45.5815 15.4891 47.7826 15.2446 48.2717 15.163C48.3533 14.1848 48.3533 12.5543 48.3533 10.9239V8.88587C48.3533 8.15218 48.3533 6.19566 48.2717 5.46195C47.7011 5.46195 45.1739 5.21739 44.5217 5.21739L44.6848 3.91303C46.9674 4.07609 53.8967 4.07609 55.7717 3.91303L55.6087 5.13586C55.038 5.13586 52.5924 5.54347 51.8587 5.54347V9.13042H61.1522V3.8315C60.5 3.74997 58.788 3.4239 58.0543 3.34237L58.2174 2.11954C59.7663 2.20107 65.9619 2.20107 67.5924 2.11954L67.5108 3.4239C67.0217 3.4239 65.2282 3.74997 64.576 3.8315V15.4076C64.576 15.4076 67.1847 15.7337 67.7554 15.8152L67.5108 16.9565H67.5109ZM114.386 18.3424L112.674 18.4239L113 15.4891L114.712 15.5707L116.342 15.4891L116.016 18.3424H114.386ZM116.342 13.125H113.815V0H119.522L119.033 1.95652L116.342 13.125Z" fill="#9BA2B2"/>
<path d="M78.3545 15.571H77.0502C74.9306 15.4895 70.8545 14.3482 70.8545 10.6797V10.5167V10.3536C70.8545 6.76666 74.9306 5.54383 77.0502 5.4623H78.3545C80.4741 5.54383 84.5502 6.68513 84.5502 10.3536V10.6797C84.5502 14.2666 80.4741 15.4895 78.3545 15.571ZM88.1371 10.4351C88.1371 6.27751 84.1426 3.75034 78.0285 3.58731H77.3763C70.9361 3.75036 67.3491 6.27752 67.3491 10.4351V10.5982C67.3491 14.5112 71.2622 17.283 77.3763 17.446H78.0285C84.1426 17.2829 88.0556 14.6743 88.1372 10.5982L88.1371 10.4351ZM101.344 14.1851H99.5502C97.2676 14.0221 93.11 12.6362 93.0285 8.72317C93.11 4.81014 97.2676 3.50579 99.5502 3.34273H101.344C103.626 3.50578 107.784 4.81011 107.865 8.72317C107.865 12.6362 103.626 14.1036 101.344 14.1851ZM111.86 8.72316C111.86 8.64164 111.86 8.72316 111.86 8.72316C111.697 4.321 107.539 1.46774 100.773 1.30469H100.284C93.5176 1.46774 89.2785 4.07642 89.1969 8.64164V8.80469C89.36 13.3699 93.5176 16.0601 100.284 16.2232H100.773C107.458 16.0601 111.697 13.3699 111.86 8.72316C111.86 8.80469 111.86 8.80469 111.86 8.72316ZM33.5991 13.2884C33.8437 12.7177 35.8002 8.47861 35.8002 8.47861L37.6752 13.2884H33.5991ZM43.7078 18.8319C42.9741 17.6906 40.3654 11.0873 39.1426 8.1525L41.3437 7.82642L41.5882 6.68513H38.2458C37.023 6.68513 31.8056 6.68513 31.3165 6.6036L31.235 7.74489L33.8437 8.39706C33.8437 8.39706 30.0121 16.0601 29.1969 17.1199C28.5448 17.2829 26.8328 17.6906 26.1806 17.7721L26.0176 19.1579C26.5067 19.0764 33.273 19.1579 33.9252 19.1579L34.0882 17.8536L31.7241 17.2829C31.7241 17.2829 32.7839 15.0818 32.9469 14.8373C33.6806 14.6742 38.0828 14.5927 38.0828 14.5927L39.6317 18.8318C39.6317 18.8318 37.7567 19.1579 37.023 19.1579L36.86 20.5438H46.561L46.7241 19.321C46.1534 19.4025 44.36 18.9134 43.7078 18.8318V18.8319ZM103.463 27.3917C102.567 25.5167 101.099 21.9297 100.692 20.9515L101.751 20.7884L101.833 20.0547L97.5122 20.2178V20.7884L98.6535 20.9515C97.9198 22.5819 95.9632 26.7395 95.6372 27.2286C95.3111 27.3102 94.985 27.4732 94.6589 27.5547L94.5774 28.2069C95.5556 28.1254 97.7567 28.2069 98.0828 28.2069V27.6362L97.023 27.3102C97.023 27.3102 97.6752 25.6797 97.9198 25.1906H100.936L101.751 27.3102C101.751 27.3102 101.018 27.4732 100.447 27.5547L100.365 28.1254H104.768L104.849 27.4732C104.36 27.6363 103.463 27.3917 103.463 27.3917ZM98.1643 24.6199C98.3274 24.2123 99.4687 21.5221 99.4687 21.5221L100.692 24.6199H98.1643ZM85.2839 27.3917C84.7132 26.2504 83.2459 22.6634 82.5122 20.9515L83.6535 20.7069V20.0547L79.2513 20.2178V20.7884L80.3926 20.9515C79.6589 22.5819 77.7024 26.7395 77.3763 27.2287C77.0502 27.3917 76.7241 27.4732 76.398 27.5548L76.3165 28.2069H79.8219V27.6363L78.7621 27.3102C78.7621 27.3102 79.4143 25.6797 79.6589 25.1906H82.6752L83.4904 27.3102C83.4904 27.3102 82.7567 27.4732 82.1861 27.5547L82.1045 28.1254H86.5067L86.5882 27.4732C86.1806 27.6363 85.2839 27.3917 85.2839 27.3917ZM79.985 24.6199C80.148 24.2123 81.2893 21.5221 81.2893 21.5221L82.5122 24.6199H79.985Z" fill="#9BA2B2"/>
</g>
<defs>
<clipPath id="clip0_1389_3964">
<rect width="120" height="30" fill="white" transform="translate(0.5)"/>
</clipPath>
</defs>
</svg>
