<svg width="175" height="34" viewBox="0 0 175 34" fill="none" xmlns="http://www.w3.org/2000/svg">
<g clip-path="url(#clip0_1389_3968)">
<path d="M172.689 14.8447H172.856C173.065 14.8447 173.232 14.7735 173.232 14.581C173.232 14.4471 173.107 14.3131 172.856 14.3131H172.689V14.8321V14.8447ZM172.689 15.6984H172.438V14.1583C172.563 14.1583 172.689 14.1164 172.856 14.1164C173.107 14.1164 173.232 14.1667 173.358 14.2336C173.441 14.3048 173.483 14.4052 173.483 14.5559C173.483 14.7568 173.358 14.8781 173.191 14.9284C173.316 14.9702 173.4 15.0748 173.441 15.3008C173.483 15.5394 173.525 15.6315 173.525 15.6817H173.274C173.232 15.6315 173.191 15.4934 173.191 15.2883C173.149 15.0916 173.023 15.0204 172.856 15.0204H172.689V15.6817V15.6984ZM172.94 13.7314C172.313 13.7314 171.811 14.2504 171.811 14.8949C171.811 15.5519 172.313 16.0667 172.94 16.0667C173.567 16.0667 174.027 15.5519 174.027 14.9032C174.027 14.2504 173.567 13.7314 172.94 13.7314ZM172.94 13.518C173.692 13.518 174.278 14.129 174.278 14.8949C174.278 15.6733 173.692 16.2802 172.94 16.2802C172.758 16.2802 172.578 16.2443 172.411 16.1746C172.243 16.105 172.091 16.0029 171.963 15.8742C171.834 15.7455 171.733 15.5927 171.664 15.4247C171.595 15.2566 171.559 15.0766 171.56 14.8949C171.56 14.129 172.187 13.518 172.94 13.518ZM48.9203 8.93107H51.22V15.4641H57.4503V17.6152H51.22V24.7006H48.9203V17.6152H42.69V15.4641H48.9203V8.93107ZM145.426 22.4909C145.886 22.4909 146.597 22.4323 147.392 22.2398L147.475 16.2927C146.723 15.7779 146.012 15.5394 145.217 15.5394C143.252 15.5394 141.998 16.8493 141.998 19.0298C141.998 21.2437 143.252 22.4951 145.426 22.4909ZM145.677 24.6253C141.789 24.6253 139.572 22.5495 139.572 19.0047C139.572 15.5812 141.663 13.4008 144.757 13.4008C145.803 13.4008 146.681 13.631 147.475 14.1332V13.3506H149.775L149.733 23.8971C148.73 24.3198 147.141 24.6211 145.677 24.6253ZM72.0851 22.4909C72.5868 22.4909 73.2559 22.4323 74.0921 22.2398V16.2927C73.3395 15.7779 72.6286 15.5394 71.8342 15.5394C69.9108 15.5394 68.6563 16.8493 68.6563 19.0298C68.6563 21.2437 69.9108 22.5244 72.0851 22.4909ZM72.2941 24.6253C68.4473 24.6253 66.2311 22.5495 66.2311 19.0047C66.2311 15.5812 68.3218 13.4008 71.4161 13.4008C72.4614 13.4008 73.3395 13.631 74.0921 14.1332V13.3506H76.4337L76.3501 23.8971C75.3465 24.3198 73.7994 24.6211 72.2941 24.6253ZM164.326 22.8801C165.748 22.8801 166.751 22.1393 166.751 20.4695V13.6603H169.093V20.7582C169.093 23.1312 167.253 24.5835 164.326 24.5835C161.399 24.5835 159.559 23.1312 159.559 20.7582V13.6603H161.859V20.4695C161.859 22.1393 162.863 22.8801 164.326 22.8801ZM125.063 24.6672C121.551 24.3198 119.795 21.8296 119.92 18.8749C120.004 15.6901 122.094 13.4259 125.23 13.4259C128.534 13.4259 130.415 15.8658 130.248 19.4692H122.345C122.512 21.4697 123.725 22.4114 125.356 22.5411C126.694 22.6457 128.659 22.3319 129.663 21.679V23.872C128.325 24.5416 126.861 24.8387 125.063 24.6672ZM122.471 17.7742H127.739C127.697 16.368 126.945 15.644 125.607 15.5561C124.227 15.4641 122.931 16.3346 122.471 17.7742ZM107.459 5.97637H109.759V26.6174H107.459V5.97637ZM91.9466 22.4909C94.1209 22.4909 95.3753 21.2437 95.3753 19.0298C95.3753 16.8493 94.1209 15.5394 92.1975 15.5394C91.3612 15.5394 90.5249 15.8323 89.9395 16.1002V22.0975C90.6085 22.3612 91.2776 22.4909 91.9466 22.4909ZM89.9395 13.9574C91.0267 13.5263 92.0302 13.4008 92.6156 13.4008C95.7098 13.4008 97.8005 15.5812 97.8005 19.0047C97.8005 22.5495 95.5844 24.6253 91.7375 24.6253C90.3995 24.6253 89.0614 24.37 87.6816 23.8971L87.598 8.19867H89.9395V13.9574ZM162.988 33.9833H165.121V33.3848H163.783V32.6273H165.037V32.0414H163.783V31.3885H165.079V30.8067H162.988V33.9833ZM148.186 32.0832H147.81V31.3466H148.186C148.479 31.3466 148.646 31.4805 148.646 31.7149C148.646 31.966 148.521 32.0832 148.186 32.0832ZM147.015 33.9581H147.81V32.6649H147.935C148.228 32.6649 148.353 32.7654 148.479 33.05L148.897 33.9665H149.775L149.273 32.8784C149.19 32.6691 149.064 32.5352 148.897 32.4766C149.273 32.3008 149.482 32.0581 149.482 31.7107C149.482 31.0746 149.064 30.79 148.186 30.79H147.015V33.9665V33.9581ZM132.004 32.8114L132.464 31.5977L132.924 32.8114H132.004ZM130.666 33.9707H131.502L131.753 33.3555H133.133L133.342 33.9707H134.178L132.966 30.7942H132.046L130.666 33.9707ZM115.279 33.9707H115.613L116.324 31.9828L117.035 33.9707H117.369L118.624 30.7691H117.829L117.202 32.5017L116.617 30.7691H116.031L115.446 32.4934L114.819 30.7691H113.982L115.279 33.9707ZM99.264 33.9707H100.1V31.3885H101.146V30.7942H98.2186V31.3885H99.264V33.9707ZM82.3712 33.9707H83.1657V32.6649H84.3365V32.0665H83.1657V31.3759H84.4201V30.7942H82.3712V33.9707ZM65.6458 32.3511C65.6458 31.7777 66.0639 31.3759 66.5657 31.3759C67.1092 31.3759 67.4856 31.7777 67.4856 32.3511C67.4856 32.9286 67.1092 33.322 66.5657 33.322C66.0639 33.322 65.6458 32.9286 65.6458 32.3511ZM64.8095 32.3511C64.8095 32.8198 64.9767 33.2341 65.3112 33.5396C65.6458 33.841 66.0639 33.9916 66.5657 33.9916C67.0674 33.9916 67.4856 33.841 67.7783 33.5396C68.1128 33.2341 68.28 32.8282 68.28 32.3511C68.28 31.8781 68.1128 31.4764 67.7783 31.1625C67.4856 30.857 67.0674 30.7105 66.5657 30.7105C66.0639 30.7105 65.6458 30.857 65.3112 31.1625C64.9767 31.4764 64.8095 31.8781 64.8095 32.3511ZM49.2548 33.6903C49.5893 33.8996 50.0074 34 50.3838 34C51.1782 34 51.5963 33.6317 51.5963 33.05C51.5963 32.6984 51.5127 32.4306 51.22 32.259C51.011 32.1125 50.7183 32.0246 50.4256 31.9158C50.0911 31.8112 50.0074 31.694 50.0074 31.5643C50.0074 31.4052 50.1747 31.309 50.4256 31.309C50.7601 31.309 51.0946 31.422 51.5127 31.627V30.9741C51.0946 30.7942 50.7601 30.7105 50.4256 30.7105C49.6729 30.7105 49.213 31.0955 49.213 31.627C49.213 32.2088 49.5893 32.4682 50.3838 32.7528C50.6764 32.8491 50.8437 32.9119 50.8437 33.1002C50.8437 33.2843 50.6764 33.3848 50.3419 33.3848C50.0074 33.3848 49.6729 33.2299 49.2548 32.983V33.6903ZM7.0773 16.0625H4.28832V13.0451H3.28897V16.0625H0.5V17.0335H3.28897V20.0719H4.28832V17.0293H7.0773V16.096V16.0625ZM16.8868 0V3.08026H14.102V4.00935H16.8868V7.08543H17.8903V4.00935H20.6208V3.08026H17.8903V0H16.8868ZM30.932 23.8176H26.8092V19.3186H25.2495V23.8176H21.0682V25.1903H25.2495V29.6935H26.8092V25.1903H30.932V23.8176ZM34.1099 15.9495H31.3209V12.8149H29.987V15.9495H27.1437V17.1632H29.987V20.3021H31.3209V17.1632H34.1099V15.9495ZM13.6002 7.75086H9.41886V3.23511H7.91357V7.75086H3.7322V9.08173H7.91357V13.6017H9.41886V9.08173H13.6002V7.75086ZM20.8424 28.8397H18.0576V25.7009H16.7195V28.8397H13.8762V30.0492H16.7195V33.1881H18.0576V30.0492H20.8424V28.8397ZM30.932 7.75086H26.8092V3.23511H25.2495V7.75086H21.0682V9.12358H25.2495V13.6017H26.8092V9.12358H30.932V7.75086ZM13.6002 23.8176H9.41886V19.3186H7.85921V23.8176H3.7322V25.1903H7.85921V29.6935H9.41886V25.1903H13.6002V23.8176ZM22.8494 15.6147H18.2248V10.5926H16.385V15.6147H11.8148V17.4018H16.385V22.4281H18.2248V17.4018H22.8494V15.6147Z" fill="#9BA2B2"/>
</g>
<defs>
<clipPath id="clip0_1389_3968">
<rect width="174" height="34" fill="white" transform="translate(0.5)"/>
</clipPath>
</defs>
</svg>
