<svg width="78" height="23" viewBox="0 0 78 23" fill="none" xmlns="http://www.w3.org/2000/svg">
<g clip-path="url(#clip0_1237_3637)">
<path d="M52.9922 13.1649C52.9851 5.6499 58.6641 0.695181 67.9992 0.070989C70.7081 -0.10986 73.0468 0.0518841 75.5026 0.590119C77.1282 0.946272 77.0854 0.728151 76.2401 4.36516C75.4843 7.61799 75.6599 7.3555 74.2372 7.3555C72.8168 7.3555 72.8062 7.34933 72.748 6.45125C72.6145 4.40275 70.8603 3.32843 68.2003 3.66579C64.8712 4.08819 62.3511 6.4038 61.4283 9.8877C59.6779 16.4975 64.9838 20.3123 73.1706 18.3297C75.0076 17.8851 75.0278 17.9091 74.6042 20.0504C74.1974 22.1069 74.3418 21.9741 72.0272 22.4181C60.9285 24.5473 52.9989 20.6924 52.9922 13.1649Z" fill="#9BA2B2"/>
<path d="M5.09384 2.46459C5.09384 2.12569 5.42964 0.770701 5.56441 0.565512L5.6831 0.385282H11.2585C17.9555 0.385282 17.3203 0.226928 16.962 1.80528C16.7526 2.72863 16.7391 2.74835 16.1392 3.00191C15.5969 3.23113 15.1218 3.64674 14.9311 4.05896C14.7953 4.35226 13.375 10.4131 13.428 10.4732C13.4605 10.5101 13.6052 10.397 18.208 6.73073C22.3328 3.44494 22.3299 3.44832 21.4467 2.97448C20.879 2.67008 20.8642 2.48246 21.2794 0.811369C21.3897 0.366486 21.1549 0.385282 26.6763 0.385282C32.7718 0.385282 32.2357 0.231854 31.8616 1.86751C31.6676 2.71569 31.5637 2.82629 30.886 2.90763C30.263 2.98218 29.4344 3.22865 28.8355 3.51795C28.464 3.69726 21.0726 9.45549 20.2077 10.2393C20.0607 10.3724 20.182 10.5431 23.2611 14.5347C27.2907 19.759 27.4782 19.9457 28.8413 20.0853C29.501 20.1528 29.7728 20.3182 29.7689 20.65C29.7641 21.09 29.3691 22.4511 29.2148 22.5611C28.9668 22.7373 22.5161 22.656 21.6618 22.4659C18.8298 21.8352 17.2932 20.2655 14.0485 14.6881C12.9076 12.7271 12.9092 12.7293 12.8426 12.9373C12.4779 14.0784 11.5377 18.7001 11.6213 18.9423C11.7362 19.2759 12.1923 19.7208 12.5641 19.8613C13.2009 20.1025 13.2379 20.2846 12.9224 21.614C12.6458 22.7786 13.3537 22.6606 6.63839 22.6606C-0.325579 22.6606 0.287799 22.8319 0.763836 21.02C0.973549 20.2218 0.977087 20.2187 1.84135 19.9827C2.74582 19.7362 3.47596 18.8221 3.91565 17.3861C4.40488 15.7899 6.78184 4.97708 6.75 4.49337C6.70754 3.84638 6.39812 3.39934 5.79117 3.10881C5.20609 2.82906 5.09384 2.72492 5.09384 2.46459Z" fill="#9BA2B2"/>
<path d="M33.3668 2.46436C33.3668 2.12546 33.7026 0.770473 33.8377 0.565284L33.9564 0.385053H44.0908C55.1657 0.385053 54.5311 0.35825 54.5311 0.821927C54.5311 1.23908 53.2092 6.65348 53.076 6.78103C52.9625 6.89009 52.7286 6.92028 51.8287 6.94123C50.3761 6.97512 50.2648 6.91166 50.2642 6.04808C50.2629 4.1792 49.8197 3.97709 45.7952 4.00944L43.1239 4.0307L42.4716 6.8753C42.1127 8.43979 41.8184 9.78306 41.8174 9.86008C41.8158 9.99163 42.049 10.0003 45.5527 10.0003C49.6305 10.0003 49.5955 9.99625 49.5955 10.4562C49.5955 10.9017 48.8383 13.8887 48.7007 13.9866C48.5926 14.0633 47.6543 14.0868 44.6875 14.0868H40.8152L40.7708 14.267C39.6431 18.8508 39.664 19.2525 41.068 19.9386C41.2426 20.024 41.4092 20.166 41.4385 20.2544C41.5289 20.5268 41.0776 22.3584 40.8808 22.5201C40.5968 22.7534 31.5199 22.7343 31.2754 22.5001C31.0403 22.2749 30.9191 22.8803 33.0825 13.4872C35.2668 4.00605 35.2166 4.30243 34.7402 3.65328C34.5868 3.44378 34.3211 3.23058 34.0384 3.08886C33.4289 2.78385 33.3668 2.72623 33.3668 2.46436Z" fill="#9BA2B2"/>
</g>
<defs>
<clipPath id="clip0_1237_3637">
<rect width="77" height="23" fill="white" transform="translate(0.5)"/>
</clipPath>
</defs>
</svg>
