<svg width="66" height="31" viewBox="0 0 66 31" fill="none" xmlns="http://www.w3.org/2000/svg">
<g clip-path="url(#clip0_1237_3642)">
<path d="M21.0853 0.513524C21.0853 0.5 15.4918 0.513524 15.4918 0.513524C7.21219 0.513524 0.5 7.22302 0.5 15.4993C0.5 23.7756 7.21219 30.4851 15.4918 30.4851L26.0089 30.4763C28.6511 30.4763 30.793 28.352 30.793 25.7108L30.7986 16.5706L38.0678 28.0315C39.051 29.5188 40.7385 30.5 42.6554 30.5C45.6899 30.5 48.1501 28.0409 48.1501 25.0075L48.1485 16.5705L55.4177 28.0314C56.4009 29.5187 58.0884 30.4999 60.0053 30.4999C63.0398 30.4999 65.5 28.0408 65.5 25.0074L65.4984 0.5H61.758V25.0077C61.758 25.9753 60.9734 26.7596 60.0054 26.7596C59.4004 26.7596 58.8671 26.4534 58.5522 25.9873L45.6136 5.61525C45.5334 5.49868 45.418 5.4108 45.2843 5.36447C45.1506 5.31814 45.0055 5.3158 44.8704 5.35778C44.7352 5.39976 44.617 5.48386 44.5331 5.59778C44.4492 5.7117 44.404 5.84947 44.404 5.99094L44.4081 25.0078C44.4081 25.9754 43.6235 26.7597 42.6555 26.7597C42.0505 26.7597 41.5173 26.4535 41.2023 25.9874L28.2637 5.61525C28.1835 5.4987 28.0681 5.41084 27.9343 5.36453C27.8006 5.31822 27.6556 5.31588 27.5204 5.35785C27.3853 5.39982 27.2671 5.48391 27.1832 5.59782C27.0993 5.71172 27.054 5.84948 27.054 5.99094L27.0511 25.7109C27.0511 26.2863 26.5846 26.7525 26.009 26.7525L15.4919 26.7447C9.27886 26.7446 4.24206 21.7098 4.24206 15.4993C4.24206 9.28886 9.27886 4.25398 15.4918 4.25398L21.0853 4.24986V0.513524Z" fill="#9BA2B2"/>
<path d="M21.7197 21.9537C21.861 21.9537 21.9966 21.8976 22.0965 21.7976C22.1965 21.6977 22.2526 21.5621 22.2526 21.4208L22.254 5.99516C22.254 2.96042 24.714 0.5 27.7484 0.5C29.6721 0.5 31.365 1.48877 32.3465 2.98585L39.5904 14.3508L39.6034 5.99526C39.6034 2.96042 42.0634 0.5 45.0979 0.5C47.0216 0.5 48.7144 1.48877 49.696 2.98585L56.9398 14.3508V0.501631H60.7057L60.699 25.0218C60.699 25.1609 60.6552 25.2966 60.5738 25.4095C60.4924 25.5224 60.3775 25.6068 60.2455 25.6508C60.1135 25.6948 59.971 25.6962 59.8381 25.6547C59.7053 25.6132 59.5889 25.531 59.5053 25.4196L46.5511 5.01521C46.2362 4.54904 45.7028 4.24245 45.0979 4.24245C44.13 4.24245 43.3453 5.02721 43.3453 5.99526L43.3495 25.0218C43.3495 25.1609 43.3056 25.2966 43.2242 25.4095C43.1428 25.5223 43.028 25.6068 42.8959 25.6508C42.7639 25.6948 42.6214 25.6961 42.4886 25.6546C42.3557 25.6132 42.2393 25.5309 42.1558 25.4196L29.2017 5.01521C28.8867 4.54904 28.3535 4.24245 27.7484 4.24245C26.7806 4.24245 25.9959 5.02721 25.9959 5.99526L26.0038 25.1725C26.0038 25.3139 25.9476 25.4494 25.8477 25.5494C25.7478 25.6493 25.6122 25.7055 25.4709 25.7055L15.5234 25.7035C9.91217 25.7035 5.36328 21.1205 5.36328 15.5087C5.36328 9.89671 9.91217 5.31365 15.5234 5.31365C15.5234 5.31365 21.1168 5.29187 21.1168 5.31365V9.09381L15.5234 9.08959C11.9788 9.08959 9.10525 11.9635 9.10525 15.5087C9.10525 19.0536 11.9788 21.961 15.5234 21.961L21.7197 21.9537Z" fill="#9BA2B2"/>
</g>
<defs>
<clipPath id="clip0_1237_3642">
<rect width="65" height="30" fill="white" transform="translate(0.5 0.5)"/>
</clipPath>
</defs>
</svg>
