<svg width="62" height="55" viewBox="0 0 62 55" fill="none" xmlns="http://www.w3.org/2000/svg">
<g clip-path="url(#clip0_1237_3660)">
<path fill-rule="evenodd" clip-rule="evenodd" d="M55.4744 55H0.5V0H55.4744V55ZM8.62437 39.6066C9.59248 39.6066 10.526 39.9096 11.0792 40.3642L10.1803 41.6672C9.6962 41.3036 9.21215 41.1217 8.65895 41.1217C8.00202 41.1217 7.37967 41.4551 7.03392 41.9399C6.6536 42.5157 6.48072 43.3036 6.48072 44.4248C6.48072 45.7278 6.61901 46.4854 6.89562 47.0005C7.27595 47.6975 7.93287 48.0611 8.72809 48.0611C9.31588 48.0611 9.83451 47.9096 10.3877 47.4551L11.2867 48.6672C10.526 49.2732 9.6962 49.5763 8.5898 49.5763C7.27595 49.5763 6.27327 49.152 5.47804 48.2429C4.71738 47.3642 4.30247 46.2126 4.30247 44.7884C4.30247 43.6066 4.50993 42.6369 4.95941 41.8187C5.72006 40.4248 7.10307 39.6066 8.62437 39.6066ZM12.1872 39.6046C12.2564 39.9076 12.3255 40.544 12.3255 41.2409V49.3925H14.1926V44.3319C14.6075 43.9682 15.1953 43.6652 15.6447 43.6652C16.198 43.6652 16.3708 43.9379 16.3708 44.6349V49.3925H18.1687V44.4531C18.1687 43.7864 18.1341 43.544 17.9959 43.15C17.7884 42.5137 17.0623 42.1197 16.1634 42.1197C15.4373 42.1197 14.6421 42.4531 14.158 42.9076C14.158 42.8716 14.1634 42.8025 14.17 42.7189C14.18 42.5911 14.1926 42.4297 14.1926 42.3015V40.9076C14.1926 40.2106 14.158 39.544 14.0543 39.15L12.1872 39.6046ZM23.1831 47.8157L23.2176 46.3005H23.1485C21.8692 46.3005 21.4197 46.543 21.4197 47.3914C21.4197 47.9369 21.7655 48.3005 22.215 48.3005C22.5607 48.3005 22.9065 48.1187 23.1831 47.8157ZM20.3825 44.4824L19.5873 43.1793C19.9676 42.9369 20.2442 42.7854 20.7282 42.6036C21.4197 42.3005 22.0075 42.1793 22.6644 42.1793C23.8746 42.1793 24.6698 42.6036 24.9464 43.3914C25.0501 43.6945 25.0847 43.9066 25.0847 44.6642L25.0156 47.0581V47.1793C25.0156 47.9369 25.1538 48.2096 25.707 48.6339L24.7044 49.7551C24.2895 49.5733 23.9091 49.2702 23.7017 48.9066C23.6556 48.947 23.6095 48.9907 23.5635 49.0345H23.5634C23.4712 49.1221 23.379 49.2096 23.2868 49.2702C22.9411 49.5127 22.457 49.6642 21.8692 49.6642C20.2788 49.6642 19.449 48.846 19.449 47.452C19.449 45.7854 20.5899 45.0278 22.8373 45.0278H23.2522V44.7551C23.2522 43.9672 23.0793 43.6945 22.4224 43.6945C21.8346 43.6945 21.1431 43.9975 20.3825 44.4824ZM26.4961 42.6067C26.6344 43.0915 26.7381 43.6673 26.7381 44.2734V49.3946H28.5706V44.3946C29.0201 44.0006 29.5041 43.7582 29.8844 43.7582C30.3339 43.7582 30.4722 44.0006 30.4722 44.7885V49.3946H32.3047V44.2431C32.3047 43.7885 32.2701 43.4855 32.1664 43.2127C31.959 42.6067 31.2675 42.2127 30.4722 42.2127C30.0573 42.2127 29.5733 42.3037 29.1929 42.5158C29.0008 42.621 28.8253 42.7409 28.6434 42.8652L28.6432 42.8654L28.643 42.8655L28.6429 42.8656H28.6428V42.8657C28.563 42.9202 28.482 42.9756 28.3977 43.0309C28.3977 42.7582 28.294 42.4552 28.1211 42.1521L26.4961 42.6067ZM33.9354 44.2734C33.9354 43.6673 33.8662 43.0915 33.6934 42.6067L35.353 42.1521C35.4913 42.4552 35.595 42.7582 35.595 43.0309C35.6575 42.9898 35.7183 42.9487 35.7785 42.908L35.7798 42.9071L35.781 42.9063L35.7822 42.9054L35.7834 42.9046L35.7839 42.9043C35.9881 42.7661 36.1861 42.632 36.4248 42.5158C36.7705 42.3037 37.2546 42.2127 37.6695 42.2127C38.4647 42.2127 39.1562 42.6067 39.3637 43.2127C39.4674 43.4855 39.5366 43.7885 39.5366 44.2431V49.3946H37.7041V44.7885C37.7041 44.0006 37.5658 43.7582 37.0817 43.7582C36.7014 43.7582 36.2174 44.0006 35.8025 44.3946V49.3946H33.9354V44.2734ZM42.8098 45.0884V45.0581C42.8098 44.0884 43.2247 43.543 43.9162 43.543C44.2965 43.543 44.5731 43.6642 44.746 43.9369C44.9189 44.2096 44.9534 44.4824 44.9534 44.9975V45.0884H42.8098ZM46.0598 47.5127C45.5066 47.9672 44.9189 48.2096 44.2965 48.2096C43.3284 48.2096 42.7752 47.6036 42.7752 46.4824V46.452H46.8896V45.9975C46.8896 44.543 46.5785 43.5733 45.9215 42.9369C45.4721 42.4521 44.7114 42.1793 43.8816 42.1793C42.9481 42.1793 42.2566 42.4823 41.6688 43.1187C41.0465 43.8157 40.8044 44.6642 40.8044 45.9369C40.8044 48.149 42.1183 49.6036 44.1236 49.6036C45.1263 49.6036 45.9907 49.2702 46.7859 48.6036L46.0598 47.5127ZM48.1091 39.6065L50.0107 39.1823C50.0799 39.5762 50.1145 40.0307 50.1145 41.0307V46.5156C50.1145 47.7277 50.1145 47.9095 50.2182 48.0914C50.2874 48.2126 50.4602 48.3035 50.5985 48.3035C50.6677 48.3035 50.7022 48.3035 50.806 48.2732L51.1172 49.3641C50.806 49.4853 50.4257 49.5762 50.0107 49.5762C49.2155 49.5762 48.5932 49.1823 48.3857 48.6065C48.2474 48.2429 48.2129 48.0004 48.2129 47.0004V41.7277C48.2129 40.8186 48.1783 40.2429 48.1091 39.6065ZM3.95872 26.8771L6.24068 36.5741H8.45349L9.24871 32.6347C9.52532 31.2104 9.69819 29.8771 9.69819 29.8771C9.70352 29.9144 9.71131 29.9755 9.72169 30.057H9.7217C9.77869 30.504 9.9137 31.5628 10.1477 32.665L11.012 36.5741H13.1211L15.4377 26.8771H13.3977L12.6371 30.5134C12.4296 31.4528 12.1185 33.4225 12.1185 33.7256C12.1185 33.7256 11.8764 32.0589 11.669 31.1801L10.8046 26.8771H8.69551L7.83114 30.7559C7.55453 32.0892 7.38165 33.4528 7.34708 33.8165C7.34708 33.8165 7.20879 32.4528 6.82845 30.665L5.99865 26.8771H3.95872ZM17.3642 32.1492V32.1795H19.5078V32.0886C19.5078 31.5735 19.4387 31.3007 19.2658 31.028C19.0929 30.7553 18.8509 30.6038 18.4706 30.6038C17.7791 30.6038 17.3642 31.1492 17.3642 32.1492ZM18.8163 35.3008C19.4732 35.3008 20.061 35.0583 20.6142 34.5735L21.3403 35.6947C20.5105 36.3613 19.6807 36.6644 18.678 36.6644C16.6381 36.6644 15.3242 35.2401 15.3242 32.9977C15.3242 31.7553 15.6008 30.9068 16.2232 30.2098C16.811 29.5735 17.5025 29.2401 18.436 29.2401C19.2658 29.2401 20.0264 29.5432 20.4759 29.9977C21.1328 30.6644 21.4094 31.6038 21.4094 33.0886V33.5129H17.3296V33.5735C17.3296 34.6644 17.8828 35.3008 18.8163 35.3008ZM26.0536 33.3919L26.019 34.907C25.7424 35.2101 25.3967 35.3919 25.0509 35.3919C24.6014 35.3919 24.2557 35.0283 24.2557 34.4525C24.2557 33.6343 24.7052 33.3919 25.9844 33.3919H26.0536ZM22.4232 30.2404L23.2184 31.5737C23.9791 31.0586 24.6706 30.7858 25.2584 30.7858C25.9153 30.7858 26.0882 31.0282 26.0882 31.8161V32.1191C25.9153 32.0889 25.8116 32.0889 25.6734 32.0889H25.6733C23.4259 32.0889 22.2849 32.8767 22.2849 34.5434C22.2849 35.9373 23.1147 36.7252 24.7052 36.7252C25.2929 36.7252 25.777 36.604 26.1227 36.3616C26.261 36.2707 26.3993 36.1192 26.5375 35.9678L26.5376 35.9676C26.7451 36.3313 27.1254 36.6646 27.5403 36.8464L28.543 35.6949C27.9898 35.301 27.8515 35.0283 27.8515 34.2404V34.1192L27.8861 31.7555C27.9206 30.9979 27.8861 30.7858 27.7823 30.4828C27.5057 29.6949 26.6759 29.2404 25.5004 29.2404C24.8435 29.2404 24.2557 29.3919 23.5642 29.6646C23.0801 29.8767 22.8035 30.0282 22.4232 30.2404ZM31.4392 29.4261H33.0988L32.6147 30.6685H31.4392V34.2139C31.4392 35.123 31.5775 35.3655 32.2344 35.3655C32.3564 35.3655 32.4611 35.3353 32.6337 35.2856C32.7057 35.2648 32.7895 35.2407 32.8913 35.2139L33.1333 36.3351C32.5801 36.5473 32.0961 36.6382 31.612 36.6382C30.6785 36.6382 29.9524 36.2442 29.7104 35.6079C29.6067 35.3049 29.6067 35.1836 29.6067 34.517V30.6685H28.8806V29.4261H29.6067C29.6067 28.7291 29.6067 28.2745 29.6758 27.7291L31.5429 27.2745C31.4737 27.9109 31.4392 28.6988 31.4392 29.4261ZM33.9082 26.6978C33.9774 26.9705 34.0465 27.6372 34.0465 28.3039V36.4857H35.9136V31.4251C36.3285 31.0311 36.9162 30.7584 37.3657 30.7584C37.8843 30.7584 38.0918 31.0311 38.0918 31.7281V36.4857H39.8897V31.5463C39.8897 30.8493 39.8551 30.6372 39.7168 30.213C39.5094 29.6069 38.7833 29.213 37.8843 29.213C37.1583 29.213 36.363 29.516 35.879 29.9705C35.879 29.9495 35.8831 29.8994 35.8886 29.834V29.8333V29.8331L35.8887 29.833V29.8329V29.8327C35.8989 29.7096 35.9136 29.5329 35.9136 29.3948V27.9705C35.9136 27.3039 35.879 26.6372 35.7753 26.2433L33.9082 26.6978ZM42.8527 32.1495V32.1798H44.9964V32.0889C44.9964 31.5737 44.9618 31.301 44.789 31.0282C44.6161 30.7555 44.3395 30.604 43.9937 30.604C43.2677 30.604 42.8527 31.1495 42.8527 32.1495ZM44.3395 35.301C44.9618 35.301 45.5496 35.0585 46.1374 34.5737L46.8289 35.6949C46.0337 36.3616 45.1693 36.6646 44.1666 36.6646C42.1613 36.6646 40.8474 35.2404 40.8474 32.9979C40.8474 31.7555 41.0894 30.907 41.7118 30.2101C42.2995 29.5737 43.0256 29.2404 43.9592 29.2404C44.7544 29.2404 45.5496 29.5434 45.9991 29.9979C46.656 30.6646 46.9326 31.604 46.9326 33.0889V33.5131H42.8527V33.5737C42.8527 34.6646 43.3714 35.301 44.3395 35.301ZM47.9372 29.6949C48.1101 30.0888 48.2138 30.8161 48.2138 31.7555V36.4828H50.0463V31.4828C50.3921 31.0889 50.7724 30.8767 51.1873 30.8767C51.3947 30.8767 51.5676 30.9373 51.7405 31.0282L52.2246 29.3919C51.948 29.2707 51.8442 29.2404 51.5676 29.2404C51.3602 29.2404 51.0836 29.2707 50.9453 29.3616C50.5995 29.5131 50.15 29.907 49.908 30.2404C49.8734 29.8464 49.7697 29.5434 49.5969 29.2404L47.9372 29.6949ZM4.02318 15.7859V14.1798H10.9382L10.627 15.7859H8.34507V23.7859H6.37429V15.7859H4.02318ZM11.7793 14.0006C11.8484 14.2734 11.9176 14.94 11.9176 15.6067V23.7885H13.7847V18.6976C14.1996 18.334 14.7873 18.0612 15.2368 18.0612C15.79 18.0612 15.9629 18.334 15.9629 19.0309V23.7885H17.7608V18.8188C17.7608 18.1522 17.7262 17.9097 17.5879 17.5158C17.3805 16.9097 16.6544 16.5158 15.7554 16.5158C15.0294 16.5158 14.2341 16.8188 13.7501 17.2734C13.7501 17.2388 13.7551 17.1781 13.7612 17.1028L13.7613 17.1027C13.7714 16.9797 13.7847 16.8177 13.7847 16.6673V15.2734C13.7847 14.6067 13.7501 13.94 13.6463 13.5461L11.7793 14.0006ZM21.0377 19.4219V19.4522H23.1468V19.3916C23.1468 18.8461 23.1122 18.5734 22.9394 18.331C22.7665 18.028 22.4899 17.9068 22.1441 17.9068C21.4181 17.9068 21.0377 18.4522 21.0377 19.4219ZM22.4899 22.5734C23.1122 22.5734 23.7 22.3613 24.2878 21.8764L25.0139 22.9977C24.1841 23.634 23.3197 23.9674 22.3516 23.9674C20.3116 23.9674 18.9978 22.5431 18.9978 20.3007C18.9978 19.028 19.2744 18.2098 19.8622 17.5128C20.4499 16.8461 21.176 16.5431 22.1095 16.5431C22.9048 16.5431 23.7 16.8158 24.1495 17.3007C24.8064 17.9674 25.083 18.9067 25.083 20.3916V20.8158H21.0032V20.8764C21.0032 21.9673 21.5218 22.5734 22.4899 22.5734Z" fill="#9BA2B2"/>
<path d="M59.3135 0.322266C59.6158 0.322266 59.9109 0.400223 60.1989 0.556138C60.4868 0.710463 60.7112 0.932403 60.8719 1.22196C61.0325 1.50993 61.1129 1.81062 61.1129 2.12404C61.1129 2.43428 61.0333 2.73259 60.8742 3.01896C60.7167 3.30534 60.4948 3.52807 60.2084 3.68717C59.9236 3.84468 59.6253 3.92343 59.3135 3.92343C59.0017 3.92343 58.7026 3.84468 58.4162 3.68717C58.1314 3.52807 57.9095 3.30534 57.7504 3.01896C57.5913 2.73259 57.5117 2.43428 57.5117 2.12404C57.5117 1.81062 57.5921 1.50993 57.7528 1.22196C57.915 0.932403 58.1402 0.710463 58.4281 0.556138C58.7161 0.400223 59.0112 0.322266 59.3135 0.322266ZM59.3135 0.620573C59.0605 0.620573 58.8139 0.685803 58.5737 0.816262C58.335 0.945131 58.1481 1.13048 58.0129 1.37231C57.8776 1.61254 57.81 1.86312 57.81 2.12404C57.81 2.38337 57.8761 2.63236 58.0081 2.871C58.1417 3.10806 58.3279 3.29341 58.5665 3.42705C58.8052 3.5591 59.0542 3.62512 59.3135 3.62512C59.5728 3.62512 59.8218 3.5591 60.0605 3.42705C60.2991 3.29341 60.4844 3.10806 60.6165 2.871C60.7486 2.63236 60.8146 2.38337 60.8146 2.12404C60.8146 1.86312 60.747 1.61254 60.6117 1.37231C60.4781 1.13048 60.2911 0.945131 60.0509 0.816262C59.8107 0.685803 59.5649 0.620573 59.3135 0.620573ZM58.5236 3.11919V1.18139H59.1894C59.4169 1.18139 59.5816 1.19969 59.6834 1.23628C59.7852 1.27128 59.8664 1.33333 59.9268 1.42242C59.9873 1.51152 60.0175 1.60618 60.0175 1.70641C60.0175 1.84801 59.9666 1.97131 59.8648 2.07631C59.7645 2.18132 59.6309 2.24018 59.4638 2.25291C59.5323 2.28155 59.5871 2.31575 59.6285 2.35553C59.7065 2.43189 59.8019 2.55997 59.9149 2.73975L60.1511 3.11919H59.7693L59.5975 2.81373C59.4622 2.57349 59.3533 2.42314 59.2705 2.36269C59.2133 2.31814 59.1297 2.29587 59.02 2.29587H58.8362V3.11919H58.5236ZM58.8362 2.02858H59.2156C59.397 2.02858 59.5203 2.00154 59.5856 1.94744C59.6524 1.89335 59.6858 1.82176 59.6858 1.73266C59.6858 1.67539 59.6699 1.62448 59.6381 1.57993C59.6062 1.53379 59.5617 1.49958 59.5044 1.47731C59.4487 1.45504 59.3445 1.4439 59.1918 1.4439H58.8362V2.02858Z" fill="#9BA2B2"/>
</g>
<defs>
<clipPath id="clip0_1237_3660">
<rect width="61" height="55" fill="white" transform="translate(0.5)"/>
</clipPath>
</defs>
</svg>
